<?xml version="1.0" encoding="UTF-8" standalone="no"?>
<!-- Created with Inkscape (http://www.inkscape.org/) -->

<svg
   xmlns:dc="http://purl.org/dc/elements/1.1/"
   xmlns:cc="http://creativecommons.org/ns#"
   xmlns:rdf="http://www.w3.org/1999/02/22-rdf-syntax-ns#"
   xmlns:svg="http://www.w3.org/2000/svg"
   xmlns="http://www.w3.org/2000/svg"
   xmlns:sodipodi="http://sodipodi.sourceforge.net/DTD/sodipodi-0.dtd"
   xmlns:inkscape="http://www.inkscape.org/namespaces/inkscape"
   width="1400mm"
   height="200mm"
   viewBox="0 0 1400 200"
   version="1.1"
   id="svg8"
   inkscape:version="0.92.3 (2405546, 2018-03-11)"
   sodipodi:docname="stage_skirt_side.svg">
  <defs
     id="defs2" />
  <sodipodi:namedview
     id="base"
     pagecolor="#ffffff"
     bordercolor="#666666"
     borderopacity="1.0"
     inkscape:pageopacity="0.0"
     inkscape:pageshadow="2"
     inkscape:zoom="0.175"
     inkscape:cx="1937.7891"
     inkscape:cy="311.22262"
     inkscape:document-units="mm"
     inkscape:current-layer="layer1"
     showgrid="false"
     inkscape:snap-global="false"
     inkscape:window-width="1920"
     inkscape:window-height="1016"
     inkscape:window-x="0"
     inkscape:window-y="27"
     inkscape:window-maximized="1" />
  <metadata
     id="metadata5">
    <rdf:RDF>
      <cc:Work
         rdf:about="">
        <dc:format>image/svg+xml</dc:format>
        <dc:type
           rdf:resource="http://purl.org/dc/dcmitype/StillImage" />
        <dc:title></dc:title>
      </cc:Work>
    </rdf:RDF>
  </metadata>
  <g
     inkscape:label="Layer 1"
     inkscape:groupmode="layer"
     id="layer1"
     transform="translate(0,-97)">
    <path
       style="stroke-width:1.2247448"
       d="M 80 55.90625 L 80 660.63086 L 4615.4336 660.63086 L 4615.4336 55.90625 L 80 55.90625 z M 1532.2383 139.54883 L 1536.2578 169.38086 L 1563.1094 182.98047 L 1535.9805 196.02148 L 1531.3438 225.76172 L 1510.5586 203.99023 L 1480.8398 208.77148 L 1495.123 182.27539 L 1481.3926 155.48828 L 1511.0059 160.88477 L 1532.2383 139.54883 z M 580.66211 144.29297 L 598.51562 163.41211 L 624.38867 159.54492 L 611.72266 182.43164 L 623.39648 205.8418 L 597.71289 200.86914 L 579.05664 219.20508 L 575.85156 193.24414 L 552.64648 181.16602 L 576.34766 170.09375 L 580.66211 144.29297 z M 1323.7031 144.5625 L 1335.2695 170.96289 L 1363.5742 176.40039 L 1342.041 195.55859 L 1345.6152 224.16016 L 1320.7402 209.59961 L 1294.6445 221.83789 L 1300.8047 193.67969 L 1281.1016 172.64258 L 1309.7832 169.80078 L 1323.7031 144.5625 z M 2592.127 148.39062 L 2605.2695 169.47656 L 2630.0918 170.60352 L 2614.0977 189.62109 L 2620.6973 213.57617 L 2597.6699 204.24219 L 2576.9258 217.91992 L 2578.6875 193.13477 L 2559.2676 177.63477 L 2583.3848 171.65039 L 2592.127 148.39062 z M 2965.5176 151.76758 L 2983.3691 167.70117 L 3006.6172 162.02734 L 2996.9785 183.92969 L 3009.5586 204.28711 L 2985.75 201.88867 L 2970.2773 220.14258 L 2965.1992 196.75781 L 2943.0586 187.68359 L 2963.7285 175.62891 L 2965.5176 151.76758 z M 1714.002 152.43945 L 1720.8105 177.95898 L 1745.6934 186.81836 L 1723.5273 201.17969 L 1722.791 227.58203 L 1702.2832 210.93945 L 1676.9453 218.39844 L 1686.4355 193.75 L 1671.5117 171.95703 L 1697.8887 173.36719 L 1714.002 152.43945 z M 3124.3574 155.82227 L 3146.5547 173.45703 L 3173.666 165.16797 L 3163.7539 191.72852 L 3180.0137 214.95312 L 3151.6914 213.73242 L 3134.6289 236.375 L 3127.0352 209.05859 L 3100.2305 199.83008 L 3123.8613 184.16797 L 3124.3574 155.82227 z M 2385.5078 156.62891 L 2396.207 181.54688 L 2422.8008 186.85938 L 2402.4082 204.73633 L 2405.5723 231.66992 L 2382.2695 217.79883 L 2357.6328 229.13086 L 2363.623 202.68359 L 2345.2324 182.75391 L 2372.2383 180.2793 L 2385.5078 156.62891 z M 916.4043 165.87305 L 933.28516 183.94727 L 957.74414 180.28711 L 945.77148 201.92578 L 956.81055 224.05664 L 932.53125 219.35742 L 914.89453 236.69531 L 911.86133 212.15234 L 889.92188 200.73633 L 912.32617 190.26562 L 916.4043 165.87305 z M 793.32422 166.67188 L 801.46484 191.78516 L 826.76758 199.31641 L 805.39844 214.82031 L 806.05664 241.21289 L 784.70898 225.67969 L 759.81055 234.46094 L 767.98633 209.35742 L 751.94141 188.39062 L 778.3418 188.41016 L 793.32422 166.67188 z M 3326.8164 167.44727 L 3344.3887 186.33984 L 3369.9141 182.57422 L 3357.377 205.125 L 3368.8457 228.23828 L 3343.5234 223.2832 L 3325.0859 241.33203 L 3321.9746 215.71875 L 3299.1113 203.76172 L 3322.5098 192.88672 L 3326.8164 167.44727 z M 1143.9805 169.19141 L 1158.1562 195.3125 L 1187.709 198.44336 L 1167.248 219.99609 L 1173.4023 249.07227 L 1146.582 236.27148 L 1120.832 251.10938 L 1124.7168 221.64648 L 1102.6465 201.74219 L 1131.8691 196.33203 L 1143.9805 169.19141 z M 1840.9199 171.79102 L 1857.5293 195.81836 L 1886.7383 195.75781 L 1869.0215 218.97852 L 1878.1055 246.74023 L 1850.5449 237.06445 L 1826.9512 254.2832 L 1827.6348 225.08203 L 1803.9688 207.96289 L 1831.9531 199.58984 L 1840.9199 171.79102 z M 3686.293 174.14648 L 3689.1836 197.08008 L 3709.7148 207.69922 L 3688.7969 217.53516 L 3685.041 240.34375 L 3669.2227 223.48828 L 3646.3711 226.96484 L 3657.5117 206.71289 L 3647.1445 186.05273 L 3669.8496 190.39062 L 3686.293 174.14648 z M 3865.2695 175.89258 L 3883.4082 198.71289 L 3912.4922 196.70703 L 3896.3945 221.01172 L 3907.2891 248.05078 L 3879.1992 240.25195 L 3856.8496 258.96875 L 3855.5879 229.84375 L 3830.8809 214.37305 L 3858.1895 204.17188 L 3865.2695 175.89258 z M 4062.4688 178.4082 L 4071.707 206.96484 L 4100.4707 215.54492 L 4076.166 233.15625 L 4076.8945 263.16406 L 4052.6328 245.49023 L 4024.3203 255.45508 L 4033.6328 226.92188 L 4015.4043 203.07422 L 4045.4199 203.11133 L 4062.4688 178.4082 z M 207.80469 183.86914 L 225.24609 198.74805 L 247.39062 192.8125 L 238.63086 214 L 251.11719 233.22656 L 228.26172 231.44336 L 213.83398 249.25977 L 208.4668 226.9707 L 187.06445 218.75391 L 206.60352 206.76367 L 207.80469 183.86914 z M 2775.8652 189.53125 L 2791.0254 207.21289 L 2814.1836 204.74805 L 2802.0527 224.63086 L 2811.5547 245.89453 L 2788.8965 240.50195 L 2771.6094 256.10742 L 2769.7363 232.89258 L 2749.5508 221.27344 L 2771.0527 212.32031 L 2775.8652 189.53125 z M 3510.9551 189.69922 L 3528.2266 209.38867 L 3554.2363 206.32227 L 3540.8477 228.83398 L 3551.8008 252.625 L 3526.2559 246.84766 L 3507.0137 264.61719 L 3504.6133 238.53516 L 3481.7695 225.72656 L 3505.832 215.38477 L 3510.9551 189.69922 z M 2042.9238 193.24414 L 2041.5781 213.74805 L 2057.7031 226.48242 L 2037.7871 231.53711 L 2030.6602 250.80859 L 2019.6992 233.42969 L 1999.166 232.60742 L 2012.3086 216.81055 L 2006.7461 197.0293 L 2025.8301 204.64648 L 2042.9238 193.24414 z M 4426.6055 195.07031 L 4427.9824 222.81836 L 4451.6211 237.41602 L 4425.6562 247.29883 L 4419.0762 274.29102 L 4401.6543 252.65039 L 4373.9492 254.73633 L 4389.1465 231.47852 L 4378.6035 205.77344 L 4405.418 213.04102 L 4426.6055 195.07031 z M 372.93945 200.63867 L 387.54102 216.54688 L 408.92578 213.53516 L 398.30859 232.33984 L 407.78125 251.74414 L 386.61719 247.45898 L 371.08789 262.46484 L 368.62305 241.01172 L 349.55273 230.87891 L 369.19531 221.90625 L 372.93945 200.63867 z M 4238.1309 201.36133 L 4239.0547 225.57227 L 4259.5234 238.53906 L 4236.7832 246.89844 L 4230.7773 270.37109 L 4215.7988 251.32617 L 4191.6172 252.86914 L 4205.1016 232.73828 L 4196.1641 210.2168 L 4219.4766 216.82227 L 4238.1309 201.36133 z M 2216.1699 203.59375 L 2214.5859 224.9668 L 2231.2969 238.39062 L 2210.4785 243.48828 L 2202.877 263.52734 L 2191.5938 245.30469 L 2170.1855 244.26758 L 2184.0312 227.90625 L 2178.4023 207.22656 L 2198.2422 215.33789 L 2216.1699 203.59375 z M 1853.5449 316.97656 L 1872.5234 333.22266 L 1896.6641 326.79883 L 1887.0781 349.86719 L 1900.6465 370.8418 L 1875.7441 368.85352 L 1859.9883 388.24023 L 1854.1855 363.94336 L 1830.8789 354.94922 L 1852.1934 341.91992 L 1853.5449 316.97656 z M 2765.9805 318.41797 L 2782.0234 331.52148 L 2801.9141 325.73242 L 2794.4102 345.04102 L 2806.0605 362.16797 L 2785.3789 360.99805 L 2772.6895 377.37109 L 2767.4121 357.33984 L 2747.9199 350.33203 L 2765.3379 339.12305 L 2765.9805 318.41797 z M 1662.6426 322.2832 L 1678.0762 340.00977 L 1701.4297 337.34375 L 1689.3398 357.50195 L 1699.0898 378.88672 L 1676.1836 373.61914 L 1658.8574 389.5 L 1656.791 366.08789 L 1636.332 354.51562 L 1657.9609 345.31641 L 1662.6426 322.2832 z M 1505.7676 322.3418 L 1502.0332 345.18945 L 1518.7363 361.21875 L 1495.8535 364.72656 L 1485.7715 385.56641 L 1475.3633 364.88672 L 1452.4277 361.73828 L 1468.8789 345.44922 L 1464.7852 322.66406 L 1485.3613 333.27539 L 1505.7676 322.3418 z M 2946.832 325.58984 L 2964.2852 343.78906 L 2989.1699 339.72852 L 2977.2559 361.95117 L 2988.8066 384.36328 L 2963.9902 379.89844 L 2946.2441 397.81055 L 2942.8223 372.83008 L 2920.3027 361.48633 L 2943.0039 350.51172 L 2946.832 325.58984 z M 3705.3477 326.375 L 3710.7188 347.25391 L 3730.9629 354.66406 L 3712.7676 366.22461 L 3711.9746 387.76758 L 3695.3574 374.0332 L 3674.623 379.9375 L 3682.5488 359.89062 L 3670.5273 341.99609 L 3692.043 343.33789 L 3705.3477 326.375 z M 2608.4414 326.91602 L 2621.7461 345.25195 L 2644.3926 344.68555 L 2631.0664 363.00586 L 2638.6016 384.36914 L 2617.0605 377.35547 L 2599.0723 391.125 L 2599.0859 368.4707 L 2580.4316 355.61719 L 2601.9805 348.62891 L 2608.4414 326.91602 z M 4251.2285 328.13477 L 4260.3027 352.9707 L 4285.9062 359.57422 L 4265.0898 375.87891 L 4266.7207 402.27148 L 4244.7812 387.51172 L 4220.1875 397.21875 L 4227.4434 371.79297 L 4210.6113 351.40039 L 4237.0352 350.44531 L 4251.2285 328.13477 z M 196.08398 332.53906 L 213.05078 343.98633 L 232.09961 336.5 L 226.45508 356.17383 L 239.46289 371.97852 L 219.00781 372.68945 L 207.99609 389.94336 L 201 370.70898 L 181.1875 365.56836 L 197.31836 352.9707 L 196.08398 332.53906 z M 3174.1074 332.76562 L 3176.0645 354.63281 L 3195.1875 365.41797 L 3174.9941 374.03711 L 3170.6465 395.55664 L 3156.209 379.01562 L 3134.3984 381.5293 L 3145.6699 362.68945 L 3136.5391 342.72266 L 3157.9395 347.61914 L 3174.1074 332.76562 z M 596.57617 333 L 602.96094 356.61328 L 626.0332 364.74219 L 605.54688 378.11133 L 604.94727 402.56641 L 585.90039 387.21289 L 562.45703 394.19922 L 571.17383 371.3418 L 557.28516 351.20508 L 581.7168 352.42969 L 596.57617 333 z M 4023.5391 336.46484 L 4040.4766 353.91406 L 4064.4531 349.85352 L 4053.0918 371.35352 L 4064.3633 392.90234 L 4040.4043 388.74023 L 4023.3945 406.11914 L 4019.9473 382.04688 L 3998.1621 371.24023 L 4019.9922 360.52344 L 4023.5391 336.46484 z M 4374.9258 337.19922 L 4397.4375 353.95703 L 4424.0039 344.91211 L 4415.0234 371.50195 L 4431.834 393.97266 L 4403.7715 393.64844 L 4387.5957 416.58203 L 4379.2324 389.79102 L 4352.4238 381.49219 L 4375.3164 365.26172 L 4374.9258 337.19922 z M 736.51953 337.50195 L 752.09961 363.1582 L 782.06836 364.87109 L 762.48047 387.61719 L 770.11133 416.64648 L 742.42773 405.04688 L 717.17578 421.27539 L 719.6543 391.36133 L 696.41602 372.36133 L 725.63086 365.47461 L 736.51953 337.50195 z M 2034.2461 341.52148 L 2035.959 364.30859 L 2055.7031 375.81641 L 2034.5605 384.48828 L 2029.7188 406.82031 L 2014.9375 389.39258 L 1992.2012 391.68945 L 2004.209 372.24609 L 1995 351.33203 L 2017.2012 356.74414 L 2034.2461 341.52148 z M 967.80078 341.80859 L 973.73242 361.41602 L 993.24805 367.64648 L 976.43164 379.34766 L 976.53711 399.83203 L 960.21484 387.45508 L 940.76367 393.88477 L 947.49219 374.53516 L 935.36523 358.02539 L 955.8457 358.44336 L 967.80078 341.80859 z M 1131.2812 345.04297 L 1143.7969 361.65625 L 1164.5801 360.76562 L 1152.6465 377.80273 L 1159.916 397.29102 L 1140.0254 391.20703 L 1123.7363 404.14453 L 1123.377 383.34766 L 1106.0391 371.85352 L 1125.707 365.08398 L 1131.2812 345.04297 z M 3898.2969 346.55859 L 3902.0664 374.42383 L 3927.1582 387.11719 L 3901.8223 399.3125 L 3897.5039 427.09766 L 3878.0762 406.76953 L 3850.3164 411.25 L 3863.6465 386.49023 L 3850.8066 361.47461 L 3878.4727 366.5 L 3898.2969 346.55859 z M 2244.2734 347.39844 L 2243.8906 370.30469 L 2262.543 383.60547 L 2240.6387 390.31836 L 2233.752 412.16797 L 2220.5996 393.41211 L 2197.6914 393.61523 L 2211.4648 375.30859 L 2204.1934 353.58398 L 2225.8594 361.02734 L 2244.2734 347.39844 z M 1337.4609 347.44727 L 1341.2305 376.82422 L 1367.5664 390.375 L 1340.791 403.03711 L 1336.043 432.27148 L 1315.7266 410.7207 L 1286.4551 415.23828 L 1300.6738 389.25586 L 1287.332 362.81445 L 1316.4355 368.30859 L 1337.4609 347.44727 z M 3521.7793 351.75391 L 3536.2031 367.07227 L 3557 363.875 L 3546.8887 382.32617 L 3556.3555 401.11523 L 3535.6836 397.20117 L 3520.7383 412.01172 L 3518.0742 391.14062 L 3499.3691 381.50391 L 3518.3945 372.51953 L 3521.7793 351.75391 z M 3355.6543 361.70508 L 3363.4883 387.44727 L 3389.1348 395.58789 L 3367.0742 410.99414 L 3367.2578 437.90039 L 3345.7891 421.67969 L 3320.2539 430.16992 L 3329.0469 404.73828 L 3313.082 383.07812 L 3339.9863 383.58203 L 3355.6543 361.70508 z M 399.3457 365.74805 L 407 386.92383 L 428.78125 392.62305 L 411.00977 406.44531 L 412.32031 428.92188 L 393.68164 416.29102 L 372.70898 424.48438 L 378.96289 402.85547 L 364.69141 385.44141 L 387.19336 384.70508 L 399.3457 365.74805 z M 2417.4648 368.46289 L 2426.9766 389.44922 L 2449.6562 393.51172 L 2432.6367 409.04297 L 2435.7812 431.86914 L 2415.75 420.48047 L 2395.0137 430.52539 L 2399.6543 407.95703 L 2383.6934 391.33789 L 2406.5918 388.77734 L 2417.4648 368.46289 z M 2795.4316 473.82617 L 2801.9082 501.60742 L 2828.4648 512.02344 L 2804.0449 526.76758 L 2802.3457 555.24414 L 2780.7754 536.57422 L 2753.168 543.75781 L 2764.2598 517.47461 L 2748.8965 493.43945 L 2777.3203 495.86523 L 2795.4316 473.82617 z M 1520.625 477.27539 L 1534.291 502.82031 L 1563.082 506.04297 L 1543.0117 526.93359 L 1548.8418 555.31055 L 1522.7715 542.67969 L 1497.584 556.99414 L 1501.543 528.29492 L 1480.1445 508.76562 L 1508.6621 503.66016 L 1520.625 477.27539 z M 2036.2227 478.54883 L 2050.3594 497.82422 L 2074.252 497.10547 L 2060.2891 516.50586 L 2068.3555 539.00781 L 2045.5898 531.72266 L 2026.6816 546.34766 L 2026.5742 522.44531 L 2006.8242 508.98242 L 2029.5234 501.49414 L 2036.2227 478.54883 z M 3705.5527 480.69336 L 3721.0918 499.22852 L 3745.1699 496.93555 L 3732.3438 517.44141 L 3741.9648 539.63281 L 3718.498 533.77148 L 3700.3672 549.7793 L 3698.6895 525.65039 L 3677.8613 513.35156 L 3700.293 504.30078 L 3705.5527 480.69336 z M 1644.9375 483.95312 L 1661.6152 504.44531 L 1687.9512 502.32422 L 1673.6152 524.51758 L 1683.7715 548.91016 L 1658.2344 542.13477 L 1638.1738 559.33008 L 1636.7266 532.94922 L 1614.1738 519.18359 L 1638.8164 509.65625 L 1644.9375 483.95312 z M 4044.2793 486.36328 L 4058.2891 510.77734 L 4086.3438 513.07617 L 4067.4551 533.94336 L 4073.9375 561.33398 L 4048.252 549.81836 L 4024.207 564.44727 L 4027.2207 536.46289 L 4005.877 518.11328 L 4033.4238 512.33398 L 4044.2793 486.36328 z M 3153.4238 486.78125 L 3154.043 514.75391 L 3177.4375 530.10156 L 3151.0254 539.33594 L 3143.6562 566.32812 L 3126.7129 544.06055 L 3098.7656 545.39453 L 3114.707 522.40039 L 3104.8027 496.23047 L 3131.5977 504.28711 L 3153.4238 486.78125 z M 2583.8184 487.0918 L 2597.8086 503.20898 L 2619.0176 500.82031 L 2608.0137 519.10742 L 2616.8398 538.53906 L 2596.0469 533.72461 L 2580.293 548.12305 L 2578.4473 526.85938 L 2559.8848 516.32617 L 2579.5352 508 L 2583.8184 487.0918 z M 3877.125 488.57812 L 3881.1094 518.16797 L 3907.7441 531.66016 L 3880.834 544.5957 L 3876.2324 574.0957 L 3855.6152 552.5 L 3826.1367 557.24023 L 3840.3047 530.95703 L 3826.6875 504.38672 L 3856.0625 509.74023 L 3877.125 488.57812 z M 4230.1465 490.35156 L 4238.3613 513.97461 L 4262.4785 520.59766 L 4242.5527 535.71094 L 4243.707 560.69531 L 4223.1738 546.41406 L 4199.7695 555.23242 L 4207.0078 531.29102 L 4191.3887 511.75781 L 4216.3945 511.24219 L 4230.1465 490.35156 z M 949.07812 494.26562 L 961.18164 512.58008 L 983.12891 512.99023 L 969.45312 530.16211 L 975.84375 551.16211 L 955.28711 543.46094 L 937.28906 556.0293 L 938.26172 534.09766 L 920.74609 520.86523 L 941.9043 515.01172 L 949.07812 494.26562 z M 3320.7266 494.94141 L 3338.707 506.17578 L 3358.1543 497.73438 L 3353.0254 518.30664 L 3367.0645 534.19336 L 3345.9141 535.67188 L 3335.1426 553.93359 L 3327.2012 534.27539 L 3306.5039 529.67383 L 3322.7461 516.04688 L 3320.7266 494.94141 z M 2396.7793 501.09961 L 2412.5918 514.83398 L 2432.8711 509.5957 L 2424.6934 528.87891 L 2435.9414 546.54688 L 2415.0762 544.72852 L 2401.748 560.88672 L 2397.0293 540.48047 L 2377.5449 532.79883 L 2395.4941 522.00391 L 2396.7793 501.09961 z M 1328.4355 505.89648 L 1341.5781 532.42969 L 1370.8867 536.64453 L 1349.7148 557.34375 L 1354.7617 586.52148 L 1328.5332 572.78125 L 1302.3438 586.59766 L 1307.3066 557.40625 L 1286.0723 536.76953 L 1315.3691 532.46875 L 1328.4355 505.89648 z M 610.45117 506.58789 L 619.98242 534.13086 L 648.07422 541.89453 L 624.82422 559.46875 L 626.12109 588.58594 L 602.2207 571.90625 L 574.93164 582.13672 L 583.41016 554.25195 L 565.24609 531.45898 L 594.38672 530.90625 L 610.45117 506.58789 z M 1860.793 508.60156 L 1873.8789 533.76953 L 1902.0312 537.25586 L 1882.1406 557.47852 L 1887.5234 585.33008 L 1862.1426 572.66211 L 1837.3184 586.38867 L 1841.5234 558.33594 L 1820.7969 538.96875 L 1848.7773 534.29883 L 1860.793 508.60156 z M 3530.3984 509.93359 L 3538.9922 537.69727 L 3566.7324 546.35938 L 3542.9844 563.10938 L 3543.3184 592.16992 L 3520.0488 574.75781 L 3492.5137 584.05664 L 3501.8828 556.54688 L 3484.5293 533.23242 L 3513.5898 533.64062 L 3530.3984 509.93359 z M 203.16211 513.36914 L 218.88281 534.90039 L 245.53125 534.15625 L 229.91211 555.76172 L 238.85547 580.87695 L 213.48242 572.69727 L 192.35938 588.96484 L 192.29688 562.30469 L 170.29883 547.24219 L 195.63477 538.94531 L 203.16211 513.36914 z M 784.66406 514.54102 L 783.95508 540.70312 L 805.10547 556.11719 L 780.00586 563.52734 L 771.88086 588.40625 L 757.07617 566.82422 L 730.90625 566.78516 L 746.85547 546.03711 L 738.80664 521.13477 L 763.46875 529.89258 L 784.66406 514.54102 z M 2942.7734 514.60938 L 2962.2344 528.90039 L 2985.0391 520.9707 L 2977.4629 543.89453 L 2992.0508 563.13477 L 2967.9062 563.01172 L 2954.1172 582.83008 L 2946.7734 559.83008 L 2923.6621 552.83984 L 2943.2676 538.74805 L 2942.7734 514.60938 z M 409.5332 515.35742 L 426.76953 534.58594 L 452.38086 531.28711 L 439.41992 553.62305 L 450.4707 576.96289 L 425.22461 571.53711 L 406.44141 589.25977 L 403.79883 563.57227 L 381.14062 551.18555 L 404.75391 540.73438 L 409.5332 515.35742 z M 1148.25 515.72266 L 1162.7832 533.50977 L 1185.6758 531.62305 L 1173.25 550.94141 L 1182.1191 572.12891 L 1159.9062 566.28125 L 1142.4961 581.26367 L 1141.1934 558.33203 L 1121.5645 546.4043 L 1142.9727 538.07812 L 1148.25 515.72266 z M 4404.6797 516.96094 L 4424.4707 534.99219 L 4450.5449 528.91016 L 4439.5117 553.30469 L 4453.3535 576.22266 L 4426.7441 573.26758 L 4409.2246 593.51367 L 4403.8105 567.29297 L 4379.1426 556.88867 L 4402.4062 543.63672 L 4404.6797 516.96094 z M 2235.9062 537.50586 L 2253.248 551.26172 L 2274.4102 544.77344 L 2266.6855 565.51562 L 2279.3945 583.63867 L 2257.2812 582.70312 L 2243.9727 600.39062 L 2238.0293 579.07031 L 2217.0957 571.87891 L 2235.5371 559.63672 L 2235.9062 537.50586 z "
       transform="matrix(0.26458333,0,0,0.26458333,0,97)"
       id="rect3715" />
  </g>
</svg>
