<?xml version="1.0" encoding="UTF-8" standalone="no"?>
<!-- Created with Inkscape (http://www.inkscape.org/) -->

<svg
   xmlns:dc="http://purl.org/dc/elements/1.1/"
   xmlns:cc="http://creativecommons.org/ns#"
   xmlns:rdf="http://www.w3.org/1999/02/22-rdf-syntax-ns#"
   xmlns:svg="http://www.w3.org/2000/svg"
   xmlns="http://www.w3.org/2000/svg"
   xmlns:sodipodi="http://sodipodi.sourceforge.net/DTD/sodipodi-0.dtd"
   xmlns:inkscape="http://www.inkscape.org/namespaces/inkscape"
   width="1000mm"
   height="200mm"
   viewBox="0 0 1000 200"
   version="1.1"
   id="svg8"
   inkscape:version="0.92.3 (2405546, 2018-03-11)"
   sodipodi:docname="stage_skirt_front_01.svg">
  <defs
     id="defs2" />
  <sodipodi:namedview
     id="base"
     pagecolor="#ffffff"
     bordercolor="#666666"
     borderopacity="1.0"
     inkscape:pageopacity="0.0"
     inkscape:pageshadow="2"
     inkscape:zoom="0.35"
     inkscape:cx="1399.7304"
     inkscape:cy="24.045137"
     inkscape:document-units="mm"
     inkscape:current-layer="layer1"
     showgrid="false"
     inkscape:snap-global="false"
     inkscape:window-width="1920"
     inkscape:window-height="1016"
     inkscape:window-x="0"
     inkscape:window-y="27"
     inkscape:window-maximized="1" />
  <metadata
     id="metadata5">
    <rdf:RDF>
      <cc:Work
         rdf:about="">
        <dc:format>image/svg+xml</dc:format>
        <dc:type
           rdf:resource="http://purl.org/dc/dcmitype/StillImage" />
        <dc:title></dc:title>
      </cc:Work>
    </rdf:RDF>
  </metadata>
  <g
     inkscape:label="Layer 1"
     inkscape:groupmode="layer"
     id="layer1"
     transform="translate(0,-97)">
    <path
       style="color:#000000;font-style:normal;font-variant:normal;font-weight:normal;font-stretch:normal;font-size:medium;line-height:normal;font-family:sans-serif;font-variant-ligatures:normal;font-variant-position:normal;font-variant-caps:normal;font-variant-numeric:normal;font-variant-alternates:normal;font-feature-settings:normal;text-indent:0;text-align:start;text-decoration:none;text-decoration-line:none;text-decoration-style:solid;text-decoration-color:#000000;letter-spacing:normal;word-spacing:normal;text-transform:none;writing-mode:lr-tb;direction:ltr;text-orientation:mixed;dominant-baseline:auto;baseline-shift:baseline;text-anchor:start;white-space:normal;shape-padding:0;clip-rule:nonzero;display:inline;overflow:visible;visibility:visible;opacity:1;isolation:auto;mix-blend-mode:normal;color-interpolation:sRGB;color-interpolation-filters:linearRGB;solid-color:#000000;solid-opacity:1;vector-effect:none;fill-opacity:1;fill-rule:nonzero;stroke:none;stroke-width:0.26432112;stroke-linecap:butt;stroke-linejoin:miter;stroke-miterlimit:4;stroke-dasharray:none;stroke-dashoffset:0;stroke-opacity:1;color-rendering:auto;image-rendering:auto;shape-rendering:auto;text-rendering:auto;enable-background:accumulate"
       d="m 21.034375,111.9242 v 0.13208 159.86792 H 821.03437 v -160 z m 0.264496,0.26414 H 820.76987 V 271.66006 H 21.298871 Z m 273.524959,21.13843 -0.0165,0.26725 -0.42927,7.09944 -6.32931,3.80898 6.87739,2.70027 1.67173,7.18871 4.69686,-5.69773 7.36249,0.63355 -3.97519,-6.2219 2.87845,-6.79712 -7.15326,1.85263 z m 0.23196,0.54996 5.28321,4.57509 6.76892,-1.75357 -2.72349,6.43186 3.76132,5.88758 -6.96677,-0.59949 -4.44477,5.3923 -1.58182,-6.80281 -6.50856,-2.55529 5.98937,-3.60417 z m 98.10784,2.28549 -0.19631,0.1816 -5.69285,5.27312 -7.83829,-1.75254 3.37439,7.27898 -4.09141,6.90289 7.97516,-0.95546 5.30955,6.01861 1.55392,-7.86918 7.37335,-3.18369 -7.01483,-3.90803 z m -0.21284,0.5577 0.71549,7.59162 6.66768,3.71508 -7.00865,3.02582 -1.47744,7.48123 -5.04711,-5.72146 -7.58102,0.908 3.88942,-6.56134 -3.20804,-6.91992 7.45082,1.66587 z m -287.68479,0.69545 -0.046,0.26362 -0.98256,5.61878 -5.436114,2.48876 5.284754,2.79521 0.69068,5.93247 4.29393,-4.15566 5.86283,1.1773 -2.63051,-5.36342 2.93323,-5.20399 -5.92069,0.84094 z m 530.02351,0.42355 -0.0289,0.2657 -0.81262,7.51166 -6.89189,3.71663 7.14605,3.20226 1.41032,7.6943 5.25789,-5.7973 7.76335,1.03853 -3.89666,-6.78629 3.38782,-7.05251 -7.66626,1.60449 z m -529.8551,0.14859 3.78094,4.10254 5.52756,-0.78523 -2.73847,4.85936 2.45589,5.00744 -5.47331,-1.09992 -4.0098,3.88016 -0.64419,-5.5383 -4.933983,-2.60948 5.075013,-2.32366 z m 530.06072,0.4122 5.38185,5.12352 7.27727,-1.52297 -3.2158,6.6955 3.69932,6.44166 -7.36973,-0.98589 -4.99183,5.50373 -1.33851,-7.30375 -6.7844,-3.04079 6.54265,-3.5283 z m -58.18552,0.88996 0.0331,0.26568 0.74183,5.95672 -4.69274,4.16546 6.16503,1.18608 2.51687,5.74468 3.03498,-5.48878 6.24819,-0.61547 -4.28928,-4.57872 1.34469,-6.12489 -5.68613,2.65952 z m -428.4147,0.16664 0.008,0.26725 0.23505,7.39249 -6.18052,4.54208 7.36972,2.13586 2.4161,7.27384 4.3115,-6.33952 7.67348,-0.047 -4.70513,-6.05474 2.32622,-7.30272 -7.21889,2.59864 z m 428.74326,0.33173 5.07452,2.9701 5.3266,-2.49133 -1.25998,5.73795 4.01807,4.28878 -5.85301,0.57627 -2.84283,5.14209 -2.35771,-5.38147 -5.77604,-1.11076 4.39671,-3.90236 z m -428.46223,0.1945 5.91345,4.23511 6.8459,-2.46347 -2.20638,6.92507 4.46234,5.74106 -7.27674,0.045 -4.08831,6.0114 -2.2911,-6.89721 -6.98848,-2.02548 5.86023,-4.30785 z m 348.6444,1.25263 -0.23094,0.13569 -6.40524,3.76718 -6.98174,-3.24714 1.66601,7.50908 -5.25014,5.62756 7.66573,0.73827 3.73703,6.72542 3.07218,-7.05304 7.55931,-1.47137 -5.76725,-5.0972 z m -0.32753,0.49941 -0.88648,7.24132 5.46969,4.83408 -7.1698,1.39503 -2.91411,6.68981 -3.54382,-6.37871 -7.27104,-0.7001 4.97942,-5.33761 -1.58026,-7.12215 6.62221,3.07998 z m 231.7625,2.00946 -0.0196,0.26673 -0.50059,6.70272 -6.04362,3.52264 6.47602,2.64816 1.48779,6.8286 4.52224,-5.33296 6.96371,0.69802 -3.68125,-5.94381 2.81542,-6.39833 -6.79734,1.65969 z m -670.959036,0.46587 -0.150329,0.22184 -4.234519,6.2477 -7.822261,0.061 4.806389,6.1636 -2.359283,7.44768 7.355259,-2.65951 6.363399,4.54208 -0.260877,-7.8078 6.292626,-4.64063 -7.51592,-2.16528 z m 671.182726,0.0872 4.92677,4.38834 6.41193,-1.5658 -2.6563,6.03514 3.47254,5.60641 -6.56797,-0.6578 -4.26605,5.03117 -1.40305,-6.44219 -6.10925,-2.49751 5.70061,-3.3235 z m -671.26435,0.50404 2.349468,7.03498 7.134675,2.05486 -5.973372,4.40536 0.24745,7.41159 -6.041047,-4.312 -6.981763,2.52488 2.23995,-7.06953 -4.562554,-5.85094 7.425516,-0.0579 z m 390.443,1.08548 -0.0615,0.26054 -1.73111,7.31561 -7.26536,2.81998 6.66044,4.04371 0.44065,7.77168 5.90931,-5.07657 7.5371,1.98369 -3.00863,-7.18149 4.21799,-6.5464 -7.76854,0.63871 z m 86.40392,0.26157 -0.0165,0.26724 -0.33734,5.29893 -4.79246,2.86433 5.19179,2.05592 1.24652,5.43718 3.56244,-4.29548 5.5632,0.49579 -2.99005,-4.71079 2.1914,-5.13021 -5.41029,1.38368 z m -86.26957,0.31987 4.6793,5.72248 7.37282,-0.60568 -4.00309,6.21311 2.85573,6.8152 -7.15379,-1.88257 -5.60814,4.81808 -0.41845,-7.37597 -6.32103,-3.83734 6.89498,-2.67654 z m 86.49945,0.23061 3.90959,3.40605 5.02645,-1.28514 -2.03589,4.76547 2.7772,4.37647 -5.16748,-0.46072 -3.3093,3.99007 -1.15873,-5.05025 -4.82186,-1.91043 4.45146,-2.66003 z m -289.93508,0.83525 -0.0605,0.26106 -1.34003,5.83134 -5.81943,2.30096 5.36895,3.21258 0.39364,6.23839 4.71858,-4.10665 6.06222,1.55393 -2.45279,-5.75034 3.35269,-5.27778 -6.23425,0.55203 z m 530.24514,0.53242 -0.10331,0.24662 -2.95286,7.03444 -7.73858,1.61273 5.98938,5.15293 -0.85545,7.84855 6.75805,-4.09581 7.21011,3.23682 -1.81272,-7.68449 5.31111,-5.84734 -7.87807,-0.65315 z m -530.1072,0.0486 3.73652,4.5101 5.83854,-0.51693 -3.13986,4.94293 2.29678,5.3856 -5.67788,-1.45488 -4.41946,3.84613 -0.36833,-5.8427 -5.02801,-3.00931 5.44955,-2.15548 z m 99.5569,0.37146 -0.0651,0.26002 -1.6965,6.73316 -6.76736,2.51454 6.11491,3.83478 0.30324,7.20418 5.54151,-4.62256 6.95436,1.93775 -2.68989,-6.69136 3.99481,-6.00676 -7.20389,0.48702 z m 430.58748,0.17541 3.73035,6.5077 7.48233,0.62013 -5.04455,5.55429 1.72182,7.2986 -6.84849,-3.07483 -6.41815,3.88996 0.81208,-7.45387 -5.68873,-4.89394 7.3501,-1.53224 z m -430.46195,0.4086 4.23968,5.3402 6.80818,-0.46123 -3.77578,5.67658 2.54215,6.3235 -6.57209,-1.83095 -5.2367,4.36873 -0.28671,-6.80796 -5.77914,-3.62428 6.39541,-2.3763 z m -131.52991,0.29356 -0.23092,0.13619 -5.4015,3.18214 -5.9305,-2.75187 1.42012,6.3746 -4.45356,4.78302 6.51011,0.62063 3.17757,5.70805 2.60364,-5.99128 6.41764,-1.25418 -4.90093,-4.32436 z m 466.05424,0.3343 -0.0889,0.25228 -2.16812,6.18165 -6.58762,1.79124 5.43045,4.13193 -0.33012,6.81003 5.61279,-3.88068 6.38306,2.41807 -1.96051,-6.53091 4.27484,-5.31493 -6.82523,-0.15579 z m -466.38125,0.16459 -0.74028,6.09031 4.60337,4.06177 -6.02814,1.17834 -2.44555,5.62705 -2.98539,-5.36134 -6.11492,-0.5835 4.18338,-4.49204 -1.33333,-5.98767 5.56992,2.58472 z m 466.4541,0.42767 3.52316,5.37167 6.42797,0.14652 -4.02632,5.00641 1.84682,6.15121 -6.01213,-2.27777 -5.2863,3.65473 0.31047,-6.4138 -5.11427,-3.89152 6.20429,-1.68704 z m -42.25582,29.19026 -0.20766,0.1687 -4.79142,3.88275 -6.17535,-1.81549 2.31331,6.00003 -3.63788,5.3046 6.4285,-0.34255 3.92819,5.09409 1.65981,-6.21207 6.06532,-2.15653 -5.40357,-3.49632 z m -0.2495,0.54274 0.16841,6.03099 5.07035,3.28069 -5.69182,2.02339 -1.55703,5.82928 -3.68589,-4.78043 -6.03225,0.32141 3.41311,-4.97698 -2.17019,-5.63066 5.79463,1.70405 z m -298.4062,1.01067 -0.0186,0.26672 -0.52433,7.47349 -6.69299,3.94104 7.20339,2.90768 1.68563,7.5746 4.99495,-5.94278 7.73392,0.73982 -4.11622,-6.58044 3.09492,-7.11751 -7.53867,1.87585 z m 0.22628,0.55253 5.52445,4.87588 7.15429,-1.78041 -2.93683,6.7538 3.90544,6.24509 -7.33923,-0.70266 -4.73974,5.63943 -1.59885,-7.18768 -6.83558,-2.7591 6.35099,-3.73983 z m -131.00815,1.02408 -0.16738,0.20895 -4.37244,5.46866 -7.25659,-0.5154 4.00411,6.06608 -2.73329,6.73265 7.01379,-1.92797 5.56733,4.67674 0.33113,-7.25836 6.17433,-3.84198 -6.80974,-2.55738 z m -0.1276,0.58299 1.65568,6.66712 6.43831,2.41807 -5.83802,3.63253 -0.31254,6.86213 -5.26357,-4.42188 -6.63152,1.82324 2.58452,-6.36583 -3.78611,-5.73487 6.86088,0.48755 z m 37.43341,1.20568 -0.0724,0.25744 -1.8179,6.50254 -6.64753,2.27673 5.85301,3.88428 0.1152,7.01743 5.5074,-4.35945 6.7183,2.06003 -2.44968,-6.57839 4.0377,-5.74414 -7.02154,0.29356 z m 0.11055,0.5866 3.98397,5.29273 6.6248,-0.27654 -3.80936,5.41965 2.31124,6.20692 -6.33913,-1.94343 -5.19589,4.11285 -0.10849,-6.62121 -5.52238,-3.66451 6.27145,-2.14878 z m -99.54862,0.45347 0.0258,0.26675 0.60597,6.27449 -5.03679,4.2279 6.42436,1.42081 2.46983,6.09085 3.33823,-5.66263 6.56332,-0.46381 -4.36057,-4.92076 1.58647,-6.37769 -6.03382,2.62237 z m 144.53928,0.42047 -0.061,0.26055 -1.76623,7.50907 -7.44516,2.90149 6.83403,4.13658 0.46236,7.96825 6.05137,-5.21329 7.73083,2.02341 -3.0944,-7.35895 4.31613,-6.71717 -7.96432,0.66501 z m -144.22417,0.0866 5.24602,3.26828 5.66961,-2.46347 -1.49089,5.99282 4.09763,4.62412 -6.16711,0.43542 -3.13727,5.32111 -2.32053,-5.72352 -6.03692,-1.33517 4.73303,-3.97304 z m 540.65709,0.31211 -0.12294,0.23784 -3.40023,6.5758 -7.61769,0.96476 5.40047,5.45111 -1.4351,7.53385 6.86036,-3.44473 6.73018,3.69082 -1.16026,-7.58027 5.59469,-5.25199 -7.57738,-1.24025 z m -250.05094,0.14549 -0.0579,0.26158 -1.4015,6.30545 -6.24406,2.52281 5.80288,3.41533 0.47321,6.70994 5.04558,-4.45592 6.53593,1.6246 -2.68421,-6.16978 3.56707,-5.70598 -6.70487,0.64334 z m -146.24663,0.0372 4.81155,5.86797 7.56913,-0.632 -4.10175,6.38389 2.94045,6.99318 -7.34648,-1.92279 -5.75072,4.95427 -0.43962,-7.57202 -6.49515,-3.93124 7.07527,-2.75703 z m 396.28619,0.41376 3.10371,6.5789 7.18529,1.17627 -5.3049,4.98061 1.10034,7.18871 -6.38303,-3.50047 -6.50596,3.26624 1.36173,-7.14382 -5.12152,-5.16943 7.22404,-0.91523 z m -623.717575,0.0568 -0.211803,0.16405 -4.241235,3.27914 -5.365858,-1.71179 1.90313,5.29427 -3.288634,4.56737 5.630355,-0.17181 3.33306,4.53486 1.576646,-5.40055 5.348292,-1.76493 -4.656057,-3.16564 z m 373.820065,0.0724 4.07697,4.84801 6.30966,-0.60568 -3.3563,5.37012 2.52562,5.80606 -6.1511,-1.52916 -4.74799,4.19333 -0.4453,-6.31424 -5.46092,-3.21465 5.87625,-2.3737 z m -374.081462,0.46432 0.02583,5.22875 4.327505,2.94276 -4.971179,1.64008 -1.466094,5.02034 -3.097496,-4.21552 -5.23361,0.15941 3.056169,-4.24541 -1.768817,-4.92078 4.987711,1.59109 z m 40.635772,0.64024 -0.18598,0.19295 -5.065194,5.26539 -7.479244,-1.22632 3.575345,6.67434 -3.479259,6.7249 7.461163,-1.3326 5.329699,5.38199 1.03525,-7.49877 6.77254,-3.3983 -6.82059,-3.30132 z m -0.18081,0.56854 1.08381,7.09119 6.46363,3.12797 -6.41765,3.22083 -0.98153,7.10565 -5.050732,-5.1003 -7.070101,1.26346 3.296902,-6.37305 -3.387822,-6.32455 7.08715,1.16133 z m 287.77158,1.20413 0.0434,0.26415 1.04611,6.30649 -4.80123,4.62205 6.5938,0.99468 2.91771,5.98869 2.98542,-5.95516 6.60464,-0.92038 -4.74855,-4.67622 1.16443,-6.55774 -5.9207,3.06606 z m 105.15832,0.30026 -0.18802,0.19088 -4.38487,4.4549 -6.42487,-1.12881 3.01173,5.77923 -3.05977,5.75344 6.43313,-1.07412 4.53364,4.68395 0.96549,-6.44321 5.86128,-2.85867 -5.837,-2.90715 z m -104.80961,0.1847 5.53427,2.94585 5.56835,-2.88342 -1.09517,6.16771 4.46646,4.39762 -6.21204,0.8657 -2.80767,5.60125 -2.74414,-5.63272 -6.20119,-0.93535 4.51606,-4.34706 z m 336.024,0.37868 -0.0336,0.26517 -0.89164,7.10512 -6.60415,3.41688 6.73277,3.15687 1.21348,7.32852 5.08689,-5.42016 7.35423,1.11231 -3.58981,-6.50616 3.33151,-6.64133 -7.30464,1.39864 z m -231.40138,0.003 0.85495,6.05833 5.4826,2.73073 -5.50482,2.68428 -0.90661,6.05112 -4.25777,-4.39918 -6.0426,1.00964 2.8738,-5.40417 -2.82833,-5.42739 6.03381,1.05968 z m 231.59666,0.56028 5.01302,4.93829 6.91511,-1.32434 -3.15379,6.28742 3.39816,6.15841 -6.96215,-1.05245 -4.81517,5.13022 -1.14839,-6.93745 -6.37371,-2.98817 6.25127,-3.23475 z m -145.06674,3.18781 0.007,0.26775 0.19322,7.37599 -6.1924,4.4972 7.34079,2.17249 2.36962,7.27073 4.33731,-6.30082 7.65644,-0.004 -4.66021,-6.0666 2.3624,-7.2728 -7.21785,2.55118 z m 190.32654,0.33483 -0.0243,0.26672 -0.48043,5.32111 -4.89523,2.75186 5.16542,2.20603 1.10807,5.50015 3.69726,-4.22378 5.58026,0.64643 -2.88002,-4.81706 2.34018,-5.10029 -5.47744,1.24747 z m -232.64536,0.002 -0.23299,0.13154 -5.7032,3.22446 -6.13403,-2.98043 1.36176,6.67487 -4.73408,4.90528 6.7777,0.76922 3.20805,6.01242 2.82733,-6.20021 6.71674,-1.18866 -5.03058,-4.60141 z m 42.59728,0.19089 5.87522,4.25884 6.8428,-2.41911 -2.23943,6.89619 4.4184,5.75189 -7.25967,0.004 -4.11209,5.97476 -2.24666,-6.8941 -6.96058,-2.06004 5.87107,-4.26402 z m -42.93359,0.30284 -0.88802,6.35446 4.73768,4.33314 -6.32568,1.11954 -2.66305,5.84011 -3.02102,-5.66263 -6.38408,-0.72435 4.45923,-4.61998 -1.28269,-6.28689 5.77706,2.80706 z m 233.19658,0.061 3.84241,3.5309 5.08948,-1.15925 -2.17434,4.73966 2.67646,4.47657 -5.18554,-0.60104 -3.43589,3.92557 -1.03058,-5.11113 -4.79967,-2.05024 4.54911,-2.55788 z m -286.05289,25.33897 -0.13069,0.2337 -3.83779,6.87969 -8.11774,0.76768 5.54822,5.96754 -1.7776,7.94657 7.39711,-3.42514 7.01843,4.1438 -0.97584,-8.08381 6.11491,-5.38611 -7.99997,-1.57095 z m -0.03,0.59639 3.08202,7.10874 7.61044,1.49459 -5.81735,5.12403 0.92833,7.69068 -6.67749,-3.94257 -7.03654,3.259 1.69081,-7.56068 -5.27752,-5.67657 7.72204,-0.73052 z m 247.8606,0.9663 -0.16119,0.2136 -3.23904,4.28928 -5.64272,-0.24351 3.23798,4.621 -1.97597,5.28346 5.40101,-1.6473 4.42099,3.50974 0.10075,-5.63944 4.70822,-3.11454 -5.33899,-1.83767 z m -283.19043,0.2074 -0.22006,0.15272 -6.43571,4.46571 -7.58208,-2.85712 2.34122,7.74848 -5.06365,6.31887 8.10225,0.17027 4.45253,6.76255 2.66615,-7.64321 7.81604,-2.13949 -6.45484,-4.89446 z m 283.07884,0.37867 1.40463,5.05284 4.96446,1.7087 -4.37812,2.8958 -0.0935,5.24322 -4.11003,-3.26314 -5.02129,1.53121 1.837,-4.9125 -3.01018,-4.29598 5.24548,0.22699 z m -283.36812,0.14344 -0.35956,7.68913 6.13869,4.65403 -7.43276,2.03527 -2.53596,7.26816 -4.2345,-6.43084 -7.70551,-0.16199 4.81568,-6.00933 -2.22652,-7.36875 7.21113,2.71677 z m -114.64143,0.30335 -0.009,0.26775 -0.20665,6.39163 -5.61485,3.59797 6.27455,2.26174 1.69185,6.44529 4.09347,-5.26127 6.65993,0.3859 -3.74531,-5.51405 2.4249,-6.20641 -6.40781,1.85315 z m 0.24694,0.54377 4.85443,3.96994 6.02605,-1.74275 -2.27971,5.83702 3.5216,5.18594 -6.26369,-0.36218 -3.84965,4.94759 -1.59111,-6.06143 -5.90106,-2.12763 5.28114,-3.38334 z m 348.66868,2.15135 -0.217,0.15683 -5.19486,3.75222 -6.29313,-2.23595 2.05088,6.3488 -4.07387,5.28551 6.67956,0.0145 3.77475,5.5027 2.07721,-6.33952 6.40731,-1.88565 -5.39529,-3.93175 z m -0.27897,0.52725 -0.17409,6.27143 5.07501,3.69855 -6.02606,1.7732 -1.95428,5.96341 -3.55054,-5.17614 -6.28281,-0.0134 3.83207,-4.97184 -1.92894,-5.97116 5.91912,2.10286 z m -288.60744,2.89221 -0.20818,0.16818 -5.87626,4.75103 -7.50766,-2.21687 2.80511,7.29963 -4.43135,6.4458 7.81814,-0.4081 4.76918,6.1997 2.02662,-7.5519 7.37848,-2.6131 -6.56537,-4.25885 z m -0.25003,0.5417 0.19837,7.41931 6.23271,4.04319 -7.00451,2.48102 -1.92432,7.16911 -4.5274,-5.88603 -7.42138,0.38746 4.20609,-6.11872 -2.66252,-6.92971 7.12642,2.10491 z m -142.89652,0.49219 -0.18803,0.19036 -3.70553,3.74706 -5.45523,-0.97094 2.54681,4.9151 -2.61035,4.88153 5.46763,-0.90077 3.84191,3.98799 0.83222,-5.47073 4.98462,-2.41704 -4.95259,-2.48101 z m -109.69193,0.23319 -0.0388,0.26467 -0.9712,6.5954 -6.23115,3.05728 6.22082,3.07999 0.98618,6.86317 4.85494,-4.95688 6.84074,1.18402 -3.21993,-6.14296 3.24163,-6.1316 -6.84538,1.15977 z m 109.50338,0.33327 0.70721,5.08843 4.59768,2.30355 -4.62764,2.24368 -0.7723,5.08019 -3.56708,-3.70271 -5.07554,0.83527 2.42282,-4.53124 -2.36393,-4.56323 5.06469,0.90181 z m -109.31948,0.23422 4.56101,4.68913 6.45432,-1.09374 -3.05617,5.78078 3.0355,5.79213 -6.44967,-1.11591 -4.57753,4.67365 -0.92988,-6.4716 -5.86488,-2.90355 5.87522,-2.8829 z m -32.33618,0.24094 -0.1715,0.20533 -4.56256,5.45266 -7.351129,-0.68667 3.925599,6.24458 -2.92599,6.77031 7.16051,-1.79899 5.54304,4.87123 0.49955,-7.35689 6.35152,-3.75943 -6.85159,-2.74776 z m -0.14051,0.57989 1.53066,6.80743 6.48274,2.60021 -6.00954,3.55719 -0.47268,6.96222 -5.24549,-4.60966 -6.77564,1.70251 2.76843,-6.40659 -3.7138,-5.90923 6.95542,0.64951 z m 481.9679,0.92089 -0.22987,0.13724 -6.24613,3.74294 -6.87277,-3.12799 1.69392,7.34968 -5.10189,5.56048 7.52263,0.66244 3.71897,6.56548 2.95543,-6.94158 7.40073,-1.50337 -5.69598,-4.95171 z m -0.32337,0.50198 -0.81054,7.09997 5.39737,4.69118 -7.01226,1.42443 -2.80043,6.57632 -3.52266,-6.21982 -7.12796,-0.62735 4.83428,-5.26849 -1.60557,-6.96376 6.51164,2.96391 z m 188.31336,1.39554 -0.0176,0.26725 -0.44686,6.67331 -5.98888,3.55153 6.46568,2.58626 1.53223,6.78474 4.46077,-5.34173 6.9353,0.64178 -3.70862,-5.88705 2.75395,-6.38905 -6.75292,1.70302 z m 0.22781,0.55151 4.93501,4.3285 6.36857,-1.60604 -2.5969,6.02481 3.49682,5.55171 -6.53956,-0.60464 -4.20662,5.03684 -1.44544,-6.39833 -6.09685,-2.4387 5.64689,-3.34931 z m -589.75621,0.34256 -0.0258,0.26673 -0.55535,5.79162 -5.32608,2.95617 5.59007,2.42324 1.16905,5.9727 4.03563,-4.56014 6.04879,0.73465 -3.09543,-5.24165 2.5685,-5.51819 -5.94805,1.32022 z m 0.21232,0.55772 4.17046,3.87551 5.56062,-1.23406 -2.40113,5.1586 2.89395,4.90012 -5.65514,-0.68616 -3.77268,4.26297 -1.09312,-5.5837 -5.22534,-2.26537 4.97893,-2.76425 z m 104.57715,0.01 0.0382,0.26519 1.09519,7.59008 -5.837,5.3856 7.83156,1.35064 3.32534,7.20832 3.70603,-7.02051 7.892,-0.9307 -5.54048,-5.68948 1.55186,-7.78406 -7.13002,3.50457 z m 0.33787,0.49167 6.58655,3.68618 6.77461,-3.32917 -1.47435,7.39507 5.26358,5.40572 -7.49838,0.88427 -3.52058,6.6697 -3.15948,-6.84821 -7.43998,-1.28359 5.54563,-5.11628 z m 340.44189,1.65763 -0.23712,0.12536 -6.84486,3.60829 -7.09489,-3.70992 1.36691,7.88054 -5.7254,5.59196 7.92662,1.13654 3.55673,7.16601 3.53195,-7.17735 7.923,-1.16286 -5.74347,-5.5734 z m -92.71304,0.31573 -0.0222,0.26673 -0.43652,5.24682 -4.80793,2.74773 5.10858,2.14 1.13135,5.41604 3.61614,-4.19125 5.50741,0.59895 -2.8738,-4.72986 2.27197,-5.04562 -5.3922,1.26812 z m 92.3628,0.16767 -1.27445,7.49464 5.45939,5.29686 -7.53039,1.10509 -3.35736,6.82188 -3.38007,-6.81054 -7.53451,-1.08032 5.44179,-5.31492 -1.29872,-7.48999 6.74258,3.52574 z m -92.14378,0.38744 3.80938,3.45146 5.00577,-1.17732 -2.10974,4.68449 2.66821,4.3909 -5.11274,-0.55614 -3.35683,3.89101 -1.05076,-5.02808 -4.74283,-1.98678 4.46386,-2.55118 z m -477.977729,0.58455 -0.209222,0.16663 -5.017157,3.98954 -6.39233,-1.94343 2.34327,6.24871 -3.82641,5.47072 6.675422,-0.29459 4.026848,5.3242 1.782764,-6.43082 6.31484,-2.17922 -5.574043,-3.67999 z m -0.254165,0.53963 0.116748,6.27554 5.242395,3.46125 -5.939793,2.05024 -1.676865,6.04904 -3.787664,-5.00845 -6.278678,0.27703 3.599107,-5.1457 -2.203788,-5.87725 6.012116,1.82788 z"
       id="rect3715"
       inkscape:connector-curvature="0" />
  </g>
</svg>
