<?xml version="1.0" encoding="UTF-8" standalone="no"?>
<!-- Created with Inkscape (http://www.inkscape.org/) -->

<svg
   xmlns:dc="http://purl.org/dc/elements/1.1/"
   xmlns:cc="http://creativecommons.org/ns#"
   xmlns:rdf="http://www.w3.org/1999/02/22-rdf-syntax-ns#"
   xmlns:svg="http://www.w3.org/2000/svg"
   xmlns="http://www.w3.org/2000/svg"
   xmlns:sodipodi="http://sodipodi.sourceforge.net/DTD/sodipodi-0.dtd"
   xmlns:inkscape="http://www.inkscape.org/namespaces/inkscape"
   width="1000mm"
   height="200mm"
   viewBox="0 0 1000 200"
   version="1.1"
   id="svg8"
   inkscape:version="0.92.3 (2405546, 2018-03-11)"
   sodipodi:docname="stage_skirt_front_02.svg">
  <defs
     id="defs2" />
  <sodipodi:namedview
     id="base"
     pagecolor="#ffffff"
     bordercolor="#666666"
     borderopacity="1.0"
     inkscape:pageopacity="0.0"
     inkscape:pageshadow="2"
     inkscape:zoom="0.35"
     inkscape:cx="1399.7304"
     inkscape:cy="24.045137"
     inkscape:document-units="mm"
     inkscape:current-layer="layer1"
     showgrid="false"
     inkscape:snap-global="false"
     inkscape:window-width="1920"
     inkscape:window-height="1016"
     inkscape:window-x="0"
     inkscape:window-y="27"
     inkscape:window-maximized="1" />
  <metadata
     id="metadata5">
    <rdf:RDF>
      <cc:Work
         rdf:about="">
        <dc:format>image/svg+xml</dc:format>
        <dc:type
           rdf:resource="http://purl.org/dc/dcmitype/StillImage" />
        <dc:title></dc:title>
      </cc:Work>
    </rdf:RDF>
  </metadata>
  <g
     inkscape:label="Layer 1"
     inkscape:groupmode="layer"
     id="layer1"
     transform="translate(0,-97)">
    <path
       style="stroke-width:0.99999994"
       d="M 80 55.90625 L 80 660.63086 L 3103.6211 660.63086 L 3103.6211 55.90625 L 80 55.90625 z M 2387.4199 144.11914 L 2394.2773 163.38672 L 2414.0352 168.66211 L 2397.8301 181.13477 L 2398.918 201.55664 L 2382.0469 190 L 2362.9629 197.3457 L 2368.7402 177.72852 L 2355.8555 161.84766 L 2376.2988 161.28125 L 2387.4199 144.11914 z M 1337.3496 144.48438 L 1338.1484 167.89648 L 1357.8867 180.50977 L 1335.8691 188.50391 L 1329.9727 211.17383 L 1315.5664 192.70508 L 1292.1836 194.10156 L 1305.2969 174.69141 L 1296.7422 152.88672 L 1319.2539 159.35938 L 1337.3496 144.48438 z M 381.31836 153.07617 L 387.32227 179.91602 L 412.83594 190.18359 L 389.16602 204.1875 L 387.2832 231.625 L 366.65039 213.44141 L 339.97461 220.12891 L 350.89258 194.88672 L 336.28906 171.58398 L 363.66797 174.16797 L 381.31836 153.07617 z M 751.76367 153.3125 L 762.91406 173.05078 L 785.49609 175.05664 L 770.16797 191.76172 L 775.23828 213.85742 L 754.61523 204.44141 L 735.16797 216.09375 L 737.75 193.57031 L 720.6582 178.67383 L 742.87695 174.16992 L 751.76367 153.3125 z M 942.53711 153.70117 L 959.88281 169.88281 L 983.04688 164.76758 L 973.01562 186.26367 L 985.03906 206.71289 L 961.49609 203.81836 L 945.76172 221.57031 L 941.24023 198.28516 L 919.49414 188.80664 L 940.24414 177.31055 L 942.53711 153.70117 z M 2804.6348 156.75391 L 2800.5625 185.69141 L 2822.0918 205.45117 L 2793.3125 210.51953 L 2781.1738 237.10156 L 2767.459 211.29688 L 2738.4277 207.9668 L 2758.7305 186.94922 L 2752.9258 158.30859 L 2779.1895 171.12305 L 2804.6348 156.75391 z M 2581.334 166.23047 L 2604.0547 179.16797 L 2627.5957 167.78516 L 2622.3125 193.39453 L 2640.4121 212.26367 L 2614.4258 215.15234 L 2602.0723 238.19727 L 2591.293 214.375 L 2565.5586 209.74805 L 2584.8848 192.13672 L 2581.334 166.23047 z M 1658.8848 166.39648 L 1679.0156 185.2168 L 1705.9316 179.30273 L 1694.2539 204.26562 L 1708.1953 228.03711 L 1680.8457 224.64453 L 1662.5469 245.25 L 1657.3223 218.19141 L 1632.0703 207.1543 L 1656.1895 193.82422 L 1658.8848 166.39648 z M 1479.832 169.30469 L 1495.8574 191.15625 L 1522.9434 190.34375 L 1507.1113 212.33789 L 1516.2559 237.8457 L 1490.4453 229.58789 L 1469.0098 246.16602 L 1468.8906 219.06641 L 1446.5 203.80469 L 1472.2344 195.31641 L 1479.832 169.30469 z M 199.60352 180.24023 L 223.875 194.10547 L 249.05664 181.97266 L 243.36914 209.33984 L 262.69141 229.54102 L 234.9043 232.58984 L 221.66406 257.20703 L 210.17773 231.72461 L 182.67383 226.73828 L 203.36133 207.93945 L 199.60352 180.24023 z M 2220.4023 181.57031 L 2233.4746 202.83789 L 2258.4062 204.125 L 2242.2188 223.13086 L 2248.6992 247.23828 L 2225.623 237.7168 L 2204.6973 251.33008 L 2206.6211 226.44141 L 2187.207 210.74609 L 2211.4727 204.88281 L 2220.4023 181.57031 z M 2940.2715 184.4707 L 2956.1797 205.16797 L 2982.25 203.79688 L 2967.4824 225.32422 L 2976.8418 249.69531 L 2951.8047 242.30078 L 2931.5195 258.73438 L 2930.8145 232.63672 L 2908.918 218.42383 L 2933.5195 209.6875 L 2940.2715 184.4707 z M 552.95312 190.55078 L 571.20312 211.36328 L 598.69531 208.13086 L 584.53906 231.91797 L 596.10938 257.06445 L 569.11133 250.95312 L 548.77148 269.72656 L 546.24219 242.16211 L 522.09961 228.61914 L 547.5332 217.69531 L 552.95312 190.55078 z M 2035.8887 191.5293 L 2042.7871 216.10547 L 2066.9414 224.35352 L 2045.7012 238.50977 L 2045.3203 264.03125 L 2025.293 248.20312 L 2000.9023 255.72852 L 2009.7676 231.79102 L 1995.0742 210.91992 L 2020.5781 211.95312 L 2035.8887 191.5293 z M 1127.1758 203.00391 L 1127.2637 225.66992 L 1145.9863 238.44531 L 1124.457 245.53516 L 1118.0918 267.28906 L 1104.6973 249.00391 L 1082.0391 249.67188 L 1095.291 231.2832 L 1087.6543 209.94141 L 1109.2383 216.86133 L 1127.1758 203.00391 z M 1895.2051 204.1582 L 1898.2695 227.09961 L 1918.9062 237.58008 L 1898.0352 247.58594 L 1894.4434 270.44922 L 1878.4785 253.69141 L 1855.623 257.3418 L 1866.6289 236.98047 L 1856.0938 216.37109 L 1878.8594 220.54492 L 1895.2051 204.1582 z M 2806.416 307.9668 L 2815.1504 333.93945 L 2841.498 341.4707 L 2819.4941 357.80469 L 2820.4746 385.18945 L 2798.1406 369.31055 L 2772.3984 378.70508 L 2780.5996 352.55664 L 2763.709 330.97852 L 2791.1113 330.69727 L 2806.416 307.9668 z M 2990.3359 310.94727 L 2993.498 334.41211 L 3014.6191 345.10938 L 2993.2812 355.36914 L 2989.6348 378.76172 L 2973.2832 361.63867 L 2949.9082 365.39844 L 2961.1406 344.55664 L 2950.3418 323.48633 L 2973.6348 327.73047 L 2990.3359 310.94727 z M 913.35156 320.9043 L 930.04492 344.41406 L 958.875 343.99023 L 941.67383 367.13086 L 950.98633 394.41992 L 923.66211 385.21289 L 900.58594 402.50195 L 900.90039 373.66992 L 877.32617 357.06641 L 904.84375 348.45508 L 913.35156 320.9043 z M 1356.8379 321.55664 L 1358.6406 350.49609 L 1383.502 365.41797 L 1356.5371 376.07617 L 1350.0293 404.33203 L 1331.5605 381.97852 L 1302.6758 384.51953 L 1318.2285 360.04883 L 1306.8848 333.36328 L 1334.9648 340.5918 L 1356.8379 321.55664 z M 2589.6992 327.47461 L 2605.7227 345.08398 L 2629.3105 341.86719 L 2617.5156 362.54688 L 2627.8633 383.98828 L 2604.5508 379.16016 L 2587.3574 395.62695 L 2584.7461 371.96484 L 2563.7715 360.70117 L 2585.4688 350.9043 L 2589.6992 327.47461 z M 590.81641 332.98828 L 602.05664 354.47461 L 626.12891 357.39648 L 609.16797 374.72461 L 613.82812 398.52148 L 592.10547 387.74609 L 570.91406 399.53125 L 574.44922 375.54102 L 556.69141 359.0293 L 580.59961 354.97852 L 590.81641 332.98828 z M 1644.2578 343.2832 L 1668.9766 357.05469 L 1694.334 344.5 L 1688.873 372.26367 L 1708.6484 392.5 L 1680.5566 395.88672 L 1667.4219 420.94727 L 1655.5195 395.27734 L 1627.627 390.5293 L 1648.3613 371.27734 L 1644.2578 343.2832 z M 1529.3613 343.57812 L 1525.7461 367.58789 L 1543.4766 384.17773 L 1519.5234 388.1582 L 1509.2246 410.14648 L 1498.0371 388.59766 L 1473.9414 385.59766 L 1490.9785 368.29688 L 1486.3867 344.45508 L 1508.1055 355.3125 L 1529.3613 343.57812 z M 1117.2344 345.56445 L 1121.0957 370.65625 L 1143.9531 381.69922 L 1121.2832 393.125 L 1117.8418 418.27734 L 1099.9707 400.24609 L 1074.9883 404.74609 L 1086.6133 382.17969 L 1074.6113 359.80859 L 1099.668 363.89062 L 1117.2344 345.56445 z M 2025.4844 350.9668 L 2045.1543 368.24609 L 2070.541 361.83789 L 2060.1855 385.88477 L 2074.125 408.04883 L 2048.0547 405.63086 L 2031.2832 425.73633 L 2025.5273 400.19531 L 2001.2227 390.45703 L 2023.7344 377.08984 L 2025.4844 350.9668 z M 2200.9531 351.25781 L 2214.1973 375.87891 L 2241.9883 378.92578 L 2222.666 399.13086 L 2228.3555 426.50195 L 2203.168 414.36719 L 2178.8945 428.23633 L 2182.6523 400.53516 L 2161.9609 381.73438 L 2189.4688 376.74609 L 2200.9531 351.25781 z M 411.84961 351.42188 L 425.44727 374.29492 L 451.99609 376.05859 L 434.44531 396.05859 L 440.9707 421.85352 L 416.52734 411.34375 L 394.00977 425.51953 L 396.45312 399.02344 L 376.01172 381.99023 L 401.9668 376.12695 L 411.84961 351.42188 z M 1871.7734 354.62695 L 1891.4941 369.23633 L 1914.709 361.27344 L 1906.9082 384.54297 L 1921.6562 404.16211 L 1897.1133 403.93359 L 1883.0137 424.02148 L 1875.6465 400.61133 L 1852.1836 393.4082 L 1872.1719 379.16602 L 1871.7734 354.62695 z M 2360.5527 357.59961 L 2384.8906 372.06055 L 2410.6016 360.20898 L 2404.3691 387.82617 L 2423.5859 408.61523 L 2395.3945 411.22266 L 2381.5605 435.92188 L 2370.3711 409.91602 L 2342.6035 404.39258 L 2363.8789 385.71289 L 2360.5527 357.59961 z M 772.58594 358.52539 L 776.16797 387.32227 L 801.92188 400.69727 L 775.64062 413.00195 L 770.87891 441.62891 L 751.05469 420.4375 L 722.35938 424.75391 L 736.38672 399.35156 L 723.41406 373.39453 L 751.9082 378.88672 L 772.58594 358.52539 z M 245.21289 370.62695 L 250.95117 394.04688 L 273.49609 402.5957 L 252.99805 415.29102 L 251.83398 439.37305 L 233.42578 423.80078 L 210.16016 430.13672 L 219.2832 407.81641 L 206.06836 387.64844 L 230.11523 389.42773 L 245.21289 370.62695 z M 1670.5156 474.81641 L 1680.875 502.30078 L 1709.3867 509.34766 L 1686.4492 527.69336 L 1688.5586 556.98828 L 1664.0234 540.8418 L 1636.8125 551.90039 L 1644.5879 523.57617 L 1625.6621 501.11523 L 1655.002 499.75586 L 1670.5156 474.81641 z M 2013.4004 480.81641 L 2032.7754 495.20898 L 2055.6172 487.41016 L 2047.9141 510.2832 L 2062.3906 529.59766 L 2038.2559 529.33984 L 2024.3613 549.07617 L 2017.1484 526.04297 L 1994.084 518.92773 L 2013.7598 504.94922 L 2013.4004 480.81641 z M 1523.9531 483.99023 L 1534.1992 508.72461 L 1560.3828 514.30664 L 1540.0254 531.69531 L 1542.8066 558.32227 L 1519.9805 544.33398 L 1495.5156 555.20898 L 1501.7656 529.17578 L 1483.8633 509.26953 L 1510.5527 507.16797 L 1523.9531 483.99023 z M 765.98828 488.41406 L 776.30469 511.625 L 801.27344 516.28516 L 782.38672 533.26953 L 785.66992 558.45898 L 763.67969 545.74414 L 740.74023 556.64844 L 746.03711 531.80664 L 728.57617 513.35938 L 753.83984 510.7207 L 765.98828 488.41406 z M 2778.4609 493.58594 L 2798.3184 513.65039 L 2826.1035 508.66797 L 2813.1582 533.75195 L 2826.4824 558.63672 L 2798.625 554.07617 L 2779.0742 574.43945 L 2774.8047 546.53711 L 2749.3965 534.23633 L 2774.6152 521.55078 L 2778.4609 493.58594 z M 2210.6133 494.24609 L 2223.6016 518.54492 L 2250.9824 521.62109 L 2231.8848 541.48242 L 2237.4199 568.47266 L 2212.6289 556.44922 L 2188.6699 570.05273 L 2192.4453 542.75977 L 2172.1035 524.17773 L 2199.2266 519.33398 L 2210.6133 494.24609 z M 1119.8164 501.26758 L 1127.3984 526.20117 L 1152.2363 534.0918 L 1130.8652 549.00781 L 1131.0371 575.06836 L 1110.248 559.35156 L 1085.5156 567.56836 L 1094.0371 542.93945 L 1078.582 521.95703 L 1104.6367 522.45117 L 1119.8164 501.26758 z M 1839.0547 505.5332 L 1847.1895 529.49414 L 1871.541 536.37695 L 1851.2656 551.51953 L 1852.2461 576.80469 L 1831.5801 562.20117 L 1807.834 570.94531 L 1815.3359 546.7793 L 1799.6816 526.89844 L 1824.9844 526.56641 L 1839.0547 505.5332 z M 1305.6621 508.82617 L 1304.8906 529.07617 L 1321.1348 541.18945 L 1301.6387 546.71484 L 1295.1367 565.90625 L 1283.8574 549.07227 L 1263.5957 548.81836 L 1276.1211 532.88867 L 1270.1016 513.54102 L 1289.1211 520.53125 L 1305.6621 508.82617 z M 382.9375 512.49414 L 407.05273 525.73242 L 431.62891 513.37109 L 426.49023 540.39648 L 445.83984 559.95117 L 418.55078 563.41602 L 405.93359 587.86133 L 394.20508 562.97656 L 367.05664 558.53125 L 387.09766 539.6875 L 382.9375 512.49414 z M 2972.6992 516.71484 L 2988.9199 534.31445 L 3012.6152 530.93164 L 3000.8867 551.79688 L 3011.4277 573.28516 L 2987.959 568.58008 L 2970.7793 585.24414 L 2968.002 561.47266 L 2946.8438 550.2832 L 2968.5957 540.29492 L 2972.6992 516.71484 z M 219.83789 520.97656 L 231.05078 547.30664 L 259.09766 552.99805 L 237.52148 571.79883 L 240.77734 600.23047 L 216.22852 585.51953 L 190.19336 597.40234 L 196.59961 569.50977 L 177.25391 548.41992 L 205.75977 545.89258 L 219.83789 520.97656 z M 2404.3047 526.88086 L 2416.3965 547.01953 L 2439.8398 548.47656 L 2424.4238 566.19922 L 2430.2832 588.94727 L 2408.6641 579.75977 L 2388.8398 592.36133 L 2390.8965 568.96289 L 2372.7852 554.00391 L 2395.6738 548.72656 L 2404.3047 526.88086 z M 966.40039 528.24414 L 977.64258 549.83203 L 1001.7988 552.81055 L 984.74023 570.17383 L 989.37305 594.07031 L 967.58984 583.21094 L 946.29492 595.00195 L 949.88867 570.92773 L 932.0957 554.31836 L 956.10156 550.29883 L 966.40039 528.24414 z M 588.32031 533.95508 L 603.16016 554.81836 L 628.75781 554.42188 L 613.50195 574.98047 L 621.78906 599.20312 L 597.52148 591.04688 L 577.04492 606.41406 L 577.30273 580.81445 L 556.35938 566.08789 L 580.78711 558.42383 L 588.32031 533.95508 z M 2627.3594 534.46289 L 2626.291 556.05078 L 2643.4688 569.16797 L 2622.6074 574.82227 L 2615.4395 595.21289 L 2603.6152 577.12109 L 2582.0078 576.60547 L 2595.5605 559.76953 L 2589.375 539.05859 L 2609.5762 546.74609 L 2627.3594 534.46289 z "
       transform="matrix(0.26458333,0,0,0.26458333,0,97)"
       id="rect3715" />
  </g>
</svg>
