<?xml version="1.0" encoding="UTF-8" standalone="no"?>
<!-- Created with Inkscape (http://www.inkscape.org/) -->

<svg
   xmlns:dc="http://purl.org/dc/elements/1.1/"
   xmlns:cc="http://creativecommons.org/ns#"
   xmlns:rdf="http://www.w3.org/1999/02/22-rdf-syntax-ns#"
   xmlns:svg="http://www.w3.org/2000/svg"
   xmlns="http://www.w3.org/2000/svg"
   xmlns:sodipodi="http://sodipodi.sourceforge.net/DTD/sodipodi-0.dtd"
   xmlns:inkscape="http://www.inkscape.org/namespaces/inkscape"
   width="1800mm"
   height="1200mm"
   viewBox="0 0 1800 1200"
   version="1.1"
   id="svg8"
   inkscape:version="0.92.3 (2405546, 2018-03-11)"
   sodipodi:docname="moon.svg">
  <defs
     id="defs2" />
  <sodipodi:namedview
     id="base"
     pagecolor="#ffffff"
     bordercolor="#666666"
     borderopacity="1.0"
     inkscape:pageopacity="0.0"
     inkscape:pageshadow="2"
     inkscape:zoom="0.90509668"
     inkscape:cx="1328.8158"
     inkscape:cy="3604.9778"
     inkscape:document-units="mm"
     inkscape:current-layer="layer1"
     showgrid="false"
     inkscape:window-width="1920"
     inkscape:window-height="1016"
     inkscape:window-x="0"
     inkscape:window-y="27"
     inkscape:window-maximized="1" />
  <metadata
     id="metadata5">
    <rdf:RDF>
      <cc:Work
         rdf:about="">
        <dc:format>image/svg+xml</dc:format>
        <dc:type
           rdf:resource="http://purl.org/dc/dcmitype/StillImage" />
        <dc:title />
      </cc:Work>
    </rdf:RDF>
  </metadata>
  <g
     inkscape:label="Layer 1"
     inkscape:groupmode="layer"
     id="layer1"
     transform="translate(0,903)">
    <path
       style="fill:#000000;stroke-width:0.99999994"
       d="M 1445.1504 615.41016 A 37.565046 37.565046 0 0 0 1407.584 652.97461 A 37.565046 37.565046 0 0 0 1416.3945 677.14648 A 245.83008 245.83008 0 0 0 1189.9277 922.00781 A 245.83008 245.83008 0 0 0 1435.7578 1167.8379 A 245.83008 245.83008 0 0 0 1673.2949 984.13086 A 191.69222 191.69222 0 0 1 1515.3066 1067.2949 A 191.69222 191.69222 0 0 1 1323.6152 875.60352 A 191.69222 191.69222 0 0 1 1498.918 684.73438 A 245.83008 245.83008 0 0 0 1472.0684 679.17383 A 37.565046 37.565046 0 0 0 1482.7148 652.97461 A 37.565046 37.565046 0 0 0 1445.1504 615.41016 z M 1445.7012 636.40234 A 17.125242 17.125242 0 0 1 1462.8281 653.52734 A 17.125242 17.125242 0 0 1 1445.7012 670.65234 A 17.125242 17.125242 0 0 1 1428.5762 653.52734 A 17.125242 17.125242 0 0 1 1445.7012 636.40234 z "
       transform="matrix(0.26458333,0,0,0.26458333,0,-903)"
       id="path16" />
  </g>
</svg>
