<?xml version="1.0" encoding="UTF-8" standalone="no"?>
<!-- Created with Inkscape (http://www.inkscape.org/) -->

<svg
   xmlns:dc="http://purl.org/dc/elements/1.1/"
   xmlns:cc="http://creativecommons.org/ns#"
   xmlns:rdf="http://www.w3.org/1999/02/22-rdf-syntax-ns#"
   xmlns:svg="http://www.w3.org/2000/svg"
   xmlns="http://www.w3.org/2000/svg"
   xmlns:sodipodi="http://sodipodi.sourceforge.net/DTD/sodipodi-0.dtd"
   xmlns:inkscape="http://www.inkscape.org/namespaces/inkscape"
   width="1800mm"
   height="1200mm"
   viewBox="0 0 1800 1200"
   version="1.1"
   id="svg8"
   inkscape:version="0.92.3 (2405546, 2018-03-11)"
   sodipodi:docname="star.svg">
  <defs
     id="defs2" />
  <sodipodi:namedview
     id="base"
     pagecolor="#ffffff"
     bordercolor="#666666"
     borderopacity="1.0"
     inkscape:pageopacity="0.0"
     inkscape:pageshadow="2"
     inkscape:zoom="0.90509668"
     inkscape:cx="1328.8158"
     inkscape:cy="3604.9778"
     inkscape:document-units="mm"
     inkscape:current-layer="layer1"
     showgrid="false"
     inkscape:window-width="1920"
     inkscape:window-height="1016"
     inkscape:window-x="0"
     inkscape:window-y="27"
     inkscape:window-maximized="1" />
  <metadata
     id="metadata5">
    <rdf:RDF>
      <cc:Work
         rdf:about="">
        <dc:format>image/svg+xml</dc:format>
        <dc:type
           rdf:resource="http://purl.org/dc/dcmitype/StillImage" />
        <dc:title></dc:title>
      </cc:Work>
    </rdf:RDF>
  </metadata>
  <g
     inkscape:label="Layer 1"
     inkscape:groupmode="layer"
     id="layer1"
     transform="translate(0,903)">
    <path
       style="fill:#ff0000;stroke-width:1.10314178"
       d="M 1430.2344 692.75 A 37.012622 37.012622 0 0 0 1393.2207 729.76172 A 37.012622 37.012622 0 0 0 1411.0078 761.33594 L 1347.0547 888.71875 L 1156.3262 915.10352 L 1293.2832 1050.4414 L 1259.4375 1239.9863 L 1430.4727 1151.5547 L 1600.2832 1242.3164 L 1569.0312 1052.3262 L 1707.8242 918.87305 L 1517.4766 889.88477 L 1453.6836 758.36914 A 37.012622 37.012622 0 0 0 1467.2461 729.76172 A 37.012622 37.012622 0 0 0 1430.2344 692.75 z M 1430.3359 711.12109 A 17.883139 17.883139 0 0 1 1448.2188 729.00391 A 17.883139 17.883139 0 0 1 1430.3359 746.88672 A 17.883139 17.883139 0 0 1 1412.4531 729.00391 A 17.883139 17.883139 0 0 1 1430.3359 711.12109 z "
       transform="matrix(0.26458333,0,0,0.26458333,0,-903)"
       id="path91" />
  </g>
</svg>
