solid OpenSCAD_Model
  facet normal 0 -0 -1
    outer loop
      vertex -4.44008 3.14099 1.6
      vertex -3.51408 3.14099 1.6
      vertex -4.60663 2.78644 1.6
    endloop
  endfacet
  facet normal 0 0 -1
    outer loop
      vertex -5.49986 1.92233 1.6
      vertex -5.15907 2.17 1.6
      vertex -4.65508 1.41499 1.6
    endloop
  endfacet
  facet normal 0 0 -1
    outer loop
      vertex -4.65508 1.41499 1.6
      vertex -4.8463 2.46277 1.6
      vertex -4.60663 2.78644 1.6
    endloop
  endfacet
  facet normal 0 0 -1
    outer loop
      vertex -5.09718 1.01921 1.6
      vertex -5.49986 1.92233 1.6
      vertex -4.65508 1.41499 1.6
    endloop
  endfacet
  facet normal 0 0 -1
    outer loop
      vertex -5.58885 0.698547 1.6
      vertex -5.82352 1.73399 1.6
      vertex -5.09718 1.01921 1.6
    endloop
  endfacet
  facet normal 0 0 -1
    outer loop
      vertex -5.58885 0.698547 1.6
      vertex -6.13008 1.605 1.6
      vertex -5.82352 1.73399 1.6
    endloop
  endfacet
  facet normal -0 0 -1
    outer loop
      vertex -5.58885 0.698547 1.6
      vertex -6.13008 0.452988 1.6
      vertex -6.13008 1.605 1.6
    endloop
  endfacet
  facet normal 0 -0 -1
    outer loop
      vertex -3.51408 3.14099 1.6
      vertex -3.51408 -2.875 1.6
      vertex -4.65508 1.41499 1.6
    endloop
  endfacet
  facet normal 0 0 -1
    outer loop
      vertex -0.533249 1.72488 1.6
      vertex -1.65369 1.92122 1.6
      vertex -1.32869 2.52499 1.6
    endloop
  endfacet
  facet normal 0 0 -1
    outer loop
      vertex -5.09718 1.01921 1.6
      vertex -5.82352 1.73399 1.6
      vertex -5.49986 1.92233 1.6
    endloop
  endfacet
  facet normal 0 0 -1
    outer loop
      vertex -4.65508 1.41499 1.6
      vertex -5.15907 2.17 1.6
      vertex -4.8463 2.46277 1.6
    endloop
  endfacet
  facet normal 0 0 -1
    outer loop
      vertex -3.51408 3.14099 1.6
      vertex -4.65508 1.41499 1.6
      vertex -4.60663 2.78644 1.6
    endloop
  endfacet
  facet normal 0 0 -1
    outer loop
      vertex -3.51408 -2.875 1.6
      vertex -4.65508 -2.875 1.6
      vertex -4.65508 1.41499 1.6
    endloop
  endfacet
  facet normal -0 0 -1
    outer loop
      vertex 1.69429 -1.78232 1.6
      vertex 1.36929 -2.38699 1.6
      vertex 0.574738 -1.58688 1.6
    endloop
  endfacet
  facet normal 0 0 -1
    outer loop
      vertex 0.390305 -1.84999 1.6
      vertex 1.36929 -2.38699 1.6
      vertex 1.0043 -2.72922 1.6
    endloop
  endfacet
  facet normal 0 0 -1
    outer loop
      vertex 0.642303 -1.38699 1.6
      vertex 0.707855 -1.03477 1.6
      vertex 1.69429 -1.78232 1.6
    endloop
  endfacet
  facet normal 0 -0 -1
    outer loop
      vertex -0.613693 -1.342 1.6
      vertex -0.537018 -1.56888 1.6
      vertex -1.67725 -1.76054 1.6
    endloop
  endfacet
  facet normal 0 0 -1
    outer loop
      vertex 6.21968 -1.78232 1.6
      vertex 5.16769 -1.38699 1.6
      vertex 5.23325 -1.03477 1.6
    endloop
  endfacet
  facet normal 0 0 -1
    outer loop
      vertex -1.84869 1.10588 1.6
      vertex -0.666245 1.17055 1.6
      vertex -0.705582 0.684555 1.6
    endloop
  endfacet
  facet normal 0 0 -1
    outer loop
      vertex 5.10013 -1.58688 1.6
      vertex 6.21968 -1.78232 1.6
      vertex 5.89468 -2.38699 1.6
    endloop
  endfacet
  facet normal 0 0 -1
    outer loop
      vertex -1.65369 1.92122 1.6
      vertex -0.600693 1.52499 1.6
      vertex -0.666245 1.17055 1.6
    endloop
  endfacet
  facet normal 0 0 -1
    outer loop
      vertex 4.9157 -1.84999 1.6
      vertex 5.89468 -2.38699 1.6
      vertex 5.52969 -2.72922 1.6
    endloop
  endfacet
  facet normal 0 0 -1
    outer loop
      vertex -0.112793 2.10266 1.6
      vertex -0.514023 3.07256 1.6
      vertex 0.0202942 3.14099 1.6
    endloop
  endfacet
  facet normal 0 0 -1
    outer loop
      vertex 4.17569 1.98799 1.6
      vertex 3.19669 2.52499 1.6
      vertex 3.56169 2.86722 1.6
    endloop
  endfacet
  facet normal 0 0 -1
    outer loop
      vertex -0.23613 2.05966 1.6
      vertex -0.963684 2.86722 1.6
      vertex -0.514023 3.07256 1.6
    endloop
  endfacet
  facet normal -0 0 -1
    outer loop
      vertex 4.54568 2.11699 1.6
      vertex 4.41258 2.10266 1.6
      vertex 4.54568 3.14099 1.6
    endloop
  endfacet
  facet normal -0 0 -1
    outer loop
      vertex 0.0202942 2.11699 1.6
      vertex -0.112793 2.10266 1.6
      vertex 0.0202942 3.14099 1.6
    endloop
  endfacet
  facet normal 0 0 -1
    outer loop
      vertex 2.61169 0.0789948 1.6
      vertex 3.81979 0.684555 1.6
      vertex 3.80669 0.0669861 1.6
    endloop
  endfacet
  facet normal 0 0 -1
    outer loop
      vertex -1.91368 0.0789948 1.6
      vertex -0.705582 0.684555 1.6
      vertex -0.718689 0.0669861 1.6
    endloop
  endfacet
  facet normal 0 0 -1
    outer loop
      vertex -1.85458 -0.958221 1.6
      vertex -0.707016 -0.545105 1.6
      vertex -0.672028 -1.01477 1.6
    endloop
  endfacet
  facet normal 0 0 -1
    outer loop
      vertex 0.713181 1.14833 1.6
      vertex 0.654297 1.47499 1.6
      vertex 1.69608 1.91632 1.6
    endloop
  endfacet
  facet normal 0 0 -1
    outer loop
      vertex 1.9543 0.0669861 1.6
      vertex 0.7603 0.0669861 1.6
      vertex 0.74852 0.678986 1.6
    endloop
  endfacet
  facet normal 0 0 -1
    outer loop
      vertex -0.448349 -1.73888 1.6
      vertex -0.989014 -2.70299 1.6
      vertex -1.38168 -2.32799 1.6
    endloop
  endfacet
  facet normal 0 -0 -1
    outer loop
      vertex -0.347687 -1.85199 1.6
      vertex -0.235245 -1.92255 1.6
      vertex -0.989014 -2.70299 1.6
    endloop
  endfacet
  facet normal 0 -0 -1
    outer loop
      vertex -0.235245 -1.92255 1.6
      vertex -0.112579 -1.96487 1.6
      vertex -0.521683 -2.92799 1.6
    endloop
  endfacet
  facet normal 0 0 -1
    outer loop
      vertex -0.521683 -2.92799 1.6
      vertex -0.112579 -1.96487 1.6
      vertex 0.0202942 -3.00299 1.6
    endloop
  endfacet
  facet normal 0 0 -1
    outer loop
      vertex 0.0202942 -3.00299 1.6
      vertex -0.112579 -1.96487 1.6
      vertex 0.0202942 -1.97899 1.6
    endloop
  endfacet
  facet normal 0 0 -1
    outer loop
      vertex 0.0202942 -3.00299 1.6
      vertex 0.153854 -1.96466 1.6
      vertex 0.554626 -2.93456 1.6
    endloop
  endfacet
  facet normal 0 -0 -1
    outer loop
      vertex 0.747192 -0.55011 1.6
      vertex 1.8893 -0.964325 1.6
      vertex 0.707855 -1.03477 1.6
    endloop
  endfacet
  facet normal 0 0 -1
    outer loop
      vertex -0.235245 -1.92255 1.6
      vertex -0.521683 -2.92799 1.6
      vertex -0.989014 -2.70299 1.6
    endloop
  endfacet
  facet normal 0 0 -1
    outer loop
      vertex 1.9543 0.0669861 1.6
      vertex 1.8893 -0.964325 1.6
      vertex 0.747192 -0.55011 1.6
    endloop
  endfacet
  facet normal -0 0 -1
    outer loop
      vertex -0.347687 -1.85199 1.6
      vertex -0.989014 -2.70299 1.6
      vertex -0.448349 -1.73888 1.6
    endloop
  endfacet
  facet normal -0 0 -1
    outer loop
      vertex -0.448349 -1.73888 1.6
      vertex -1.38168 -2.32799 1.6
      vertex -0.537018 -1.56888 1.6
    endloop
  endfacet
  facet normal 0 0 -1
    outer loop
      vertex -0.537018 -1.56888 1.6
      vertex -1.38168 -2.32799 1.6
      vertex -1.67725 -1.76054 1.6
    endloop
  endfacet
  facet normal -0 0 -1
    outer loop
      vertex -0.613693 -1.342 1.6
      vertex -1.67725 -1.76054 1.6
      vertex -0.672028 -1.01477 1.6
    endloop
  endfacet
  facet normal -0 0 -1
    outer loop
      vertex -0.672028 -1.01477 1.6
      vertex -1.67725 -1.76054 1.6
      vertex -1.85458 -0.958221 1.6
    endloop
  endfacet
  facet normal 0 0 -1
    outer loop
      vertex -1.85458 -0.958221 1.6
      vertex -1.91368 0.0789948 1.6
      vertex -0.707016 -0.545105 1.6
    endloop
  endfacet
  facet normal 0 0 -1
    outer loop
      vertex -0.707016 -0.545105 1.6
      vertex -1.91368 0.0789948 1.6
      vertex -0.718689 0.0669861 1.6
    endloop
  endfacet
  facet normal 0 0 -1
    outer loop
      vertex -1.91368 0.0789948 1.6
      vertex -1.84869 1.10588 1.6
      vertex -0.705582 0.684555 1.6
    endloop
  endfacet
  facet normal 0 0 -1
    outer loop
      vertex -1.65369 1.92122 1.6
      vertex -0.533249 1.72488 1.6
      vertex -0.600693 1.52499 1.6
    endloop
  endfacet
  facet normal 0 0 -1
    outer loop
      vertex -1.84869 1.10588 1.6
      vertex -1.65369 1.92122 1.6
      vertex -0.666245 1.17055 1.6
    endloop
  endfacet
  facet normal -0 0 -1
    outer loop
      vertex -0.44957 1.87921 1.6
      vertex -0.533249 1.72488 1.6
      vertex -1.32869 2.52499 1.6
    endloop
  endfacet
  facet normal -0 0 -1
    outer loop
      vertex -0.349686 1.98799 1.6
      vertex -0.44957 1.87921 1.6
      vertex -1.32869 2.52499 1.6
    endloop
  endfacet
  facet normal 0 -0 -1
    outer loop
      vertex -0.963684 2.86722 1.6
      vertex -0.349686 1.98799 1.6
      vertex -1.32869 2.52499 1.6
    endloop
  endfacet
  facet normal 0 0 -1
    outer loop
      vertex -0.349686 1.98799 1.6
      vertex -0.963684 2.86722 1.6
      vertex -0.23613 2.05966 1.6
    endloop
  endfacet
  facet normal 0 0 -1
    outer loop
      vertex -0.23613 2.05966 1.6
      vertex -0.514023 3.07256 1.6
      vertex -0.112793 2.10266 1.6
    endloop
  endfacet
  facet normal 0 0 -1
    outer loop
      vertex 0.153625 2.10266 1.6
      vertex 0.0202942 2.11699 1.6
      vertex 0.0202942 3.14099 1.6
    endloop
  endfacet
  facet normal -0 0 -1
    outer loop
      vertex 0.555069 3.07166 1.6
      vertex 0.153625 2.10266 1.6
      vertex 0.0202942 3.14099 1.6
    endloop
  endfacet
  facet normal 0 0 -1
    outer loop
      vertex 0.555069 3.07166 1.6
      vertex 0.276291 2.05966 1.6
      vertex 0.153625 2.10266 1.6
    endloop
  endfacet
  facet normal 0 0 -1
    outer loop
      vertex 0.276291 2.05966 1.6
      vertex 1.00607 2.86366 1.6
      vertex 0.38829 1.98799 1.6
    endloop
  endfacet
  facet normal 0 -0 -1
    outer loop
      vertex 0.555069 3.07166 1.6
      vertex 1.00607 2.86366 1.6
      vertex 0.276291 2.05966 1.6
    endloop
  endfacet
  facet normal 0 0 -1
    outer loop
      vertex 0.38829 1.98799 1.6
      vertex 1.37329 2.517 1.6
      vertex 0.48941 1.87366 1.6
    endloop
  endfacet
  facet normal 0 -0 -1
    outer loop
      vertex 1.00607 2.86366 1.6
      vertex 1.37329 2.517 1.6
      vertex 0.38829 1.98799 1.6
    endloop
  endfacet
  facet normal 0 0 -1
    outer loop
      vertex 1.37329 2.517 1.6
      vertex 0.578079 1.70265 1.6
      vertex 0.48941 1.87366 1.6
    endloop
  endfacet
  facet normal 0 -0 -1
    outer loop
      vertex 1.37329 2.517 1.6
      vertex 1.69608 1.91632 1.6
      vertex 0.578079 1.70265 1.6
    endloop
  endfacet
  facet normal 0 0 -1
    outer loop
      vertex 0.578079 1.70265 1.6
      vertex 1.69608 1.91632 1.6
      vertex 0.654297 1.47499 1.6
    endloop
  endfacet
  facet normal 0 0 -1
    outer loop
      vertex 0.713181 1.14833 1.6
      vertex 1.69608 1.91632 1.6
      vertex 1.88974 1.09966 1.6
    endloop
  endfacet
  facet normal 0 0 -1
    outer loop
      vertex 0.74852 0.678986 1.6
      vertex 0.713181 1.14833 1.6
      vertex 1.88974 1.09966 1.6
    endloop
  endfacet
  facet normal 0 0 -1
    outer loop
      vertex 1.9543 0.0669861 1.6
      vertex 0.74852 0.678986 1.6
      vertex 1.88974 1.09966 1.6
    endloop
  endfacet
  facet normal 0 0 -1
    outer loop
      vertex 0.747192 -0.55011 1.6
      vertex 0.7603 0.0669861 1.6
      vertex 1.9543 0.0669861 1.6
    endloop
  endfacet
  facet normal 0 0 -1
    outer loop
      vertex 1.8893 -0.964325 1.6
      vertex 1.69429 -1.78232 1.6
      vertex 0.707855 -1.03477 1.6
    endloop
  endfacet
  facet normal 0 0 -1
    outer loop
      vertex 1.69429 -1.78232 1.6
      vertex 0.574738 -1.58688 1.6
      vertex 0.642303 -1.38699 1.6
    endloop
  endfacet
  facet normal 0 0 -1
    outer loop
      vertex 1.36929 -2.38699 1.6
      vertex 0.490738 -1.74121 1.6
      vertex 0.574738 -1.58688 1.6
    endloop
  endfacet
  facet normal 0 0 -1
    outer loop
      vertex 1.36929 -2.38699 1.6
      vertex 0.390305 -1.84999 1.6
      vertex 0.490738 -1.74121 1.6
    endloop
  endfacet
  facet normal 0 0 -1
    outer loop
      vertex 1.0043 -2.72922 1.6
      vertex 0.277191 -1.92166 1.6
      vertex 0.390305 -1.84999 1.6
    endloop
  endfacet
  facet normal -0 0 -1
    outer loop
      vertex 1.0043 -2.72922 1.6
      vertex 0.554626 -2.93456 1.6
      vertex 0.277191 -1.92166 1.6
    endloop
  endfacet
  facet normal 0 -0 -1
    outer loop
      vertex 0.277191 -1.92166 1.6
      vertex 0.554626 -2.93456 1.6
      vertex 0.153854 -1.96466 1.6
    endloop
  endfacet
  facet normal 0 0 -1
    outer loop
      vertex 0.153854 -1.96466 1.6
      vertex 0.0202942 -3.00299 1.6
      vertex 0.0202942 -1.97899 1.6
    endloop
  endfacet
  facet normal 0 0 -1
    outer loop
      vertex 6.47969 0.0669861 1.6
      vertex 5.28569 0.0669861 1.6
      vertex 5.27391 0.678986 1.6
    endloop
  endfacet
  facet normal 0 0 -1
    outer loop
      vertex 2.61169 0.0789948 1.6
      vertex 3.81836 -0.545105 1.6
      vertex 2.67079 -0.958221 1.6
    endloop
  endfacet
  facet normal 0 -0 -1
    outer loop
      vertex 2.67668 1.10588 1.6
      vertex 3.81979 0.684555 1.6
      vertex 2.61169 0.0789948 1.6
    endloop
  endfacet
  facet normal 0 0 -1
    outer loop
      vertex 3.85913 1.17055 1.6
      vertex 2.87169 1.92122 1.6
      vertex 3.92468 1.52499 1.6
    endloop
  endfacet
  facet normal -0 0 -1
    outer loop
      vertex 4.41258 2.10266 1.6
      vertex 4.28925 2.05966 1.6
      vertex 4.01135 3.07256 1.6
    endloop
  endfacet
  facet normal -0 0 -1
    outer loop
      vertex 4.28925 2.05966 1.6
      vertex 4.17569 1.98799 1.6
      vertex 3.56169 2.86722 1.6
    endloop
  endfacet
  facet normal 0 0 -1
    outer loop
      vertex 3.81979 0.684555 1.6
      vertex 2.67668 1.10588 1.6
      vertex 3.85913 1.17055 1.6
    endloop
  endfacet
  facet normal 0 0 -1
    outer loop
      vertex 2.67079 -0.958221 1.6
      vertex 3.81836 -0.545105 1.6
      vertex 3.85335 -1.01477 1.6
    endloop
  endfacet
  facet normal 0 -0 -1
    outer loop
      vertex 3.85335 -1.01477 1.6
      vertex 3.91168 -1.342 1.6
      vertex 2.84813 -1.76054 1.6
    endloop
  endfacet
  facet normal 0 0 -1
    outer loop
      vertex 4.07703 -1.73888 1.6
      vertex 3.53636 -2.70299 1.6
      vertex 3.14369 -2.32799 1.6
    endloop
  endfacet
  facet normal -0 0 -1
    outer loop
      vertex 6.41469 -0.964325 1.6
      vertex 5.23325 -1.03477 1.6
      vertex 5.27258 -0.55011 1.6
    endloop
  endfacet
  facet normal -0 0 -1
    outer loop
      vertex 4.4128 -1.96487 1.6
      vertex 4.00369 -2.92799 1.6
      vertex 4.29013 -1.92255 1.6
    endloop
  endfacet
  facet normal 0 -0 -1
    outer loop
      vertex 4.4128 -1.96487 1.6
      vertex 4.54568 -3.00299 1.6
      vertex 4.00369 -2.92799 1.6
    endloop
  endfacet
  facet normal 0 0 -1
    outer loop
      vertex 4.4128 -1.96487 1.6
      vertex 4.54568 -1.97899 1.6
      vertex 4.54568 -3.00299 1.6
    endloop
  endfacet
  facet normal 0 0 -1
    outer loop
      vertex 4.54568 -3.00299 1.6
      vertex 4.54568 -1.97899 1.6
      vertex 4.67924 -1.96466 1.6
    endloop
  endfacet
  facet normal 0 -0 -1
    outer loop
      vertex 4.67924 -1.96466 1.6
      vertex 5.08002 -2.93456 1.6
      vertex 4.54568 -3.00299 1.6
    endloop
  endfacet
  facet normal -0 0 -1
    outer loop
      vertex 4.29013 -1.92255 1.6
      vertex 3.53636 -2.70299 1.6
      vertex 4.17769 -1.85199 1.6
    endloop
  endfacet
  facet normal 0 0 -1
    outer loop
      vertex 4.00369 -2.92799 1.6
      vertex 3.53636 -2.70299 1.6
      vertex 4.29013 -1.92255 1.6
    endloop
  endfacet
  facet normal -0 0 -1
    outer loop
      vertex 4.17769 -1.85199 1.6
      vertex 3.53636 -2.70299 1.6
      vertex 4.07703 -1.73888 1.6
    endloop
  endfacet
  facet normal 0 0 -1
    outer loop
      vertex 3.14369 -2.32799 1.6
      vertex 3.98836 -1.56888 1.6
      vertex 4.07703 -1.73888 1.6
    endloop
  endfacet
  facet normal -0 0 -1
    outer loop
      vertex 3.98836 -1.56888 1.6
      vertex 2.84813 -1.76054 1.6
      vertex 3.91168 -1.342 1.6
    endloop
  endfacet
  facet normal 0 0 -1
    outer loop
      vertex 3.14369 -2.32799 1.6
      vertex 2.84813 -1.76054 1.6
      vertex 3.98836 -1.56888 1.6
    endloop
  endfacet
  facet normal 0 0 -1
    outer loop
      vertex 2.67079 -0.958221 1.6
      vertex 3.85335 -1.01477 1.6
      vertex 2.84813 -1.76054 1.6
    endloop
  endfacet
  facet normal 0 0 -1
    outer loop
      vertex 6.22147 1.91632 1.6
      vertex 5.23857 1.14833 1.6
      vertex 5.17969 1.47499 1.6
    endloop
  endfacet
  facet normal 0 0 -1
    outer loop
      vertex 2.61169 0.0789948 1.6
      vertex 3.80669 0.0669861 1.6
      vertex 3.81836 -0.545105 1.6
    endloop
  endfacet
  facet normal -0 0 -1
    outer loop
      vertex 5.89868 2.517 1.6
      vertex 4.91368 1.98799 1.6
      vertex 5.53146 2.86366 1.6
    endloop
  endfacet
  facet normal 0 0 -1
    outer loop
      vertex 4.80168 2.05966 1.6
      vertex 4.67902 2.10266 1.6
      vertex 5.08046 3.07166 1.6
    endloop
  endfacet
  facet normal 0 0 -1
    outer loop
      vertex 2.87169 1.92122 1.6
      vertex 3.99213 1.72488 1.6
      vertex 3.92468 1.52499 1.6
    endloop
  endfacet
  facet normal 0 0 -1
    outer loop
      vertex 2.67668 1.10588 1.6
      vertex 2.87169 1.92122 1.6
      vertex 3.85913 1.17055 1.6
    endloop
  endfacet
  facet normal 0 0 -1
    outer loop
      vertex 2.87169 1.92122 1.6
      vertex 3.19669 2.52499 1.6
      vertex 3.99213 1.72488 1.6
    endloop
  endfacet
  facet normal 0 0 -1
    outer loop
      vertex 5.10347 1.70265 1.6
      vertex 5.0148 1.87366 1.6
      vertex 5.89868 2.517 1.6
    endloop
  endfacet
  facet normal 0 0 -1
    outer loop
      vertex 3.99213 1.72488 1.6
      vertex 3.19669 2.52499 1.6
      vertex 4.07581 1.87921 1.6
    endloop
  endfacet
  facet normal 0 0 -1
    outer loop
      vertex 4.07581 1.87921 1.6
      vertex 3.19669 2.52499 1.6
      vertex 4.17569 1.98799 1.6
    endloop
  endfacet
  facet normal 0 -0 -1
    outer loop
      vertex 4.01135 3.07256 1.6
      vertex 4.28925 2.05966 1.6
      vertex 3.56169 2.86722 1.6
    endloop
  endfacet
  facet normal 0 0 -1
    outer loop
      vertex 4.54568 3.14099 1.6
      vertex 4.41258 2.10266 1.6
      vertex 4.01135 3.07256 1.6
    endloop
  endfacet
  facet normal 0 0 -1
    outer loop
      vertex 4.67902 2.10266 1.6
      vertex 4.54568 2.11699 1.6
      vertex 4.54568 3.14099 1.6
    endloop
  endfacet
  facet normal -0 0 -1
    outer loop
      vertex 5.08046 3.07166 1.6
      vertex 4.67902 2.10266 1.6
      vertex 4.54568 3.14099 1.6
    endloop
  endfacet
  facet normal -0 0 -1
    outer loop
      vertex 5.53146 2.86366 1.6
      vertex 4.80168 2.05966 1.6
      vertex 5.08046 3.07166 1.6
    endloop
  endfacet
  facet normal 0 0 -1
    outer loop
      vertex 5.53146 2.86366 1.6
      vertex 4.91368 1.98799 1.6
      vertex 4.80168 2.05966 1.6
    endloop
  endfacet
  facet normal 0 0 -1
    outer loop
      vertex 5.89868 2.517 1.6
      vertex 5.0148 1.87366 1.6
      vertex 4.91368 1.98799 1.6
    endloop
  endfacet
  facet normal -0 0 -1
    outer loop
      vertex 6.22147 1.91632 1.6
      vertex 5.10347 1.70265 1.6
      vertex 5.89868 2.517 1.6
    endloop
  endfacet
  facet normal 0 0 -1
    outer loop
      vertex 6.22147 1.91632 1.6
      vertex 5.17969 1.47499 1.6
      vertex 5.10347 1.70265 1.6
    endloop
  endfacet
  facet normal 0 0 -1
    outer loop
      vertex 5.23857 1.14833 1.6
      vertex 6.22147 1.91632 1.6
      vertex 6.41513 1.09966 1.6
    endloop
  endfacet
  facet normal 0 0 -1
    outer loop
      vertex 5.27391 0.678986 1.6
      vertex 5.23857 1.14833 1.6
      vertex 6.41513 1.09966 1.6
    endloop
  endfacet
  facet normal 0 0 -1
    outer loop
      vertex 5.27391 0.678986 1.6
      vertex 6.41513 1.09966 1.6
      vertex 6.47969 0.0669861 1.6
    endloop
  endfacet
  facet normal 0 -0 -1
    outer loop
      vertex 5.28569 0.0669861 1.6
      vertex 6.47969 0.0669861 1.6
      vertex 5.27258 -0.55011 1.6
    endloop
  endfacet
  facet normal 0 0 -1
    outer loop
      vertex 6.41469 -0.964325 1.6
      vertex 5.27258 -0.55011 1.6
      vertex 6.47969 0.0669861 1.6
    endloop
  endfacet
  facet normal 0 0 -1
    outer loop
      vertex 6.21968 -1.78232 1.6
      vertex 5.23325 -1.03477 1.6
      vertex 6.41469 -0.964325 1.6
    endloop
  endfacet
  facet normal 0 0 -1
    outer loop
      vertex 5.10013 -1.58688 1.6
      vertex 5.16769 -1.38699 1.6
      vertex 6.21968 -1.78232 1.6
    endloop
  endfacet
  facet normal 0 0 -1
    outer loop
      vertex 5.01613 -1.74121 1.6
      vertex 5.10013 -1.58688 1.6
      vertex 5.89468 -2.38699 1.6
    endloop
  endfacet
  facet normal 0 0 -1
    outer loop
      vertex 4.9157 -1.84999 1.6
      vertex 5.01613 -1.74121 1.6
      vertex 5.89468 -2.38699 1.6
    endloop
  endfacet
  facet normal 0 0 -1
    outer loop
      vertex 4.80258 -1.92166 1.6
      vertex 4.9157 -1.84999 1.6
      vertex 5.52969 -2.72922 1.6
    endloop
  endfacet
  facet normal 0 0 -1
    outer loop
      vertex 5.08002 -2.93456 1.6
      vertex 4.80258 -1.92166 1.6
      vertex 5.52969 -2.72922 1.6
    endloop
  endfacet
  facet normal 0 0 -1
    outer loop
      vertex 5.08002 -2.93456 1.6
      vertex 4.67924 -1.96466 1.6
      vertex 4.80258 -1.92166 1.6
    endloop
  endfacet
  facet normal 0 0 1
    outer loop
      vertex -4.60663 2.78644 2.1
      vertex -3.51408 3.14099 2.1
      vertex -4.44008 3.14099 2.1
    endloop
  endfacet
  facet normal 0 0 1
    outer loop
      vertex -4.65508 1.41499 2.1
      vertex -5.15907 2.17 2.1
      vertex -5.49986 1.92233 2.1
    endloop
  endfacet
  facet normal 0 0 1
    outer loop
      vertex -4.60663 2.78644 2.1
      vertex -4.8463 2.46277 2.1
      vertex -4.65508 1.41499 2.1
    endloop
  endfacet
  facet normal 0 0 1
    outer loop
      vertex -4.65508 1.41499 2.1
      vertex -5.49986 1.92233 2.1
      vertex -5.09718 1.01921 2.1
    endloop
  endfacet
  facet normal 0 0 1
    outer loop
      vertex -5.09718 1.01921 2.1
      vertex -5.82352 1.73399 2.1
      vertex -5.58885 0.698547 2.1
    endloop
  endfacet
  facet normal 0 0 1
    outer loop
      vertex -5.82352 1.73399 2.1
      vertex -6.13008 1.605 2.1
      vertex -5.58885 0.698547 2.1
    endloop
  endfacet
  facet normal 0 0 1
    outer loop
      vertex -6.13008 1.605 2.1
      vertex -6.13008 0.452988 2.1
      vertex -5.58885 0.698547 2.1
    endloop
  endfacet
  facet normal -0 0 1
    outer loop
      vertex -4.65508 1.41499 2.1
      vertex -3.51408 -2.875 2.1
      vertex -3.51408 3.14099 2.1
    endloop
  endfacet
  facet normal 0 0 1
    outer loop
      vertex -1.32869 2.52499 2.1
      vertex -1.65369 1.92122 2.1
      vertex -0.533249 1.72488 2.1
    endloop
  endfacet
  facet normal 0 0 1
    outer loop
      vertex -5.49986 1.92233 2.1
      vertex -5.82352 1.73399 2.1
      vertex -5.09718 1.01921 2.1
    endloop
  endfacet
  facet normal 0 0 1
    outer loop
      vertex -4.8463 2.46277 2.1
      vertex -5.15907 2.17 2.1
      vertex -4.65508 1.41499 2.1
    endloop
  endfacet
  facet normal -0 0 1
    outer loop
      vertex -4.60663 2.78644 2.1
      vertex -4.65508 1.41499 2.1
      vertex -3.51408 3.14099 2.1
    endloop
  endfacet
  facet normal 0 0 1
    outer loop
      vertex -4.65508 1.41499 2.1
      vertex -4.65508 -2.875 2.1
      vertex -3.51408 -2.875 2.1
    endloop
  endfacet
  facet normal 0 0 1
    outer loop
      vertex 0.574738 -1.58688 2.1
      vertex 1.36929 -2.38699 2.1
      vertex 1.69429 -1.78232 2.1
    endloop
  endfacet
  facet normal 0 -0 1
    outer loop
      vertex 1.0043 -2.72922 2.1
      vertex 1.36929 -2.38699 2.1
      vertex 0.390305 -1.84999 2.1
    endloop
  endfacet
  facet normal 0 0 1
    outer loop
      vertex 1.69429 -1.78232 2.1
      vertex 0.707855 -1.03477 2.1
      vertex 0.642303 -1.38699 2.1
    endloop
  endfacet
  facet normal 0 0 1
    outer loop
      vertex -1.67725 -1.76054 2.1
      vertex -0.537018 -1.56888 2.1
      vertex -0.613693 -1.342 2.1
    endloop
  endfacet
  facet normal 0 0 1
    outer loop
      vertex 5.23325 -1.03477 2.1
      vertex 5.16769 -1.38699 2.1
      vertex 6.21968 -1.78232 2.1
    endloop
  endfacet
  facet normal 0 -0 1
    outer loop
      vertex -0.705582 0.684555 2.1
      vertex -0.666245 1.17055 2.1
      vertex -1.84869 1.10588 2.1
    endloop
  endfacet
  facet normal 0 -0 1
    outer loop
      vertex 5.89468 -2.38699 2.1
      vertex 6.21968 -1.78232 2.1
      vertex 5.10013 -1.58688 2.1
    endloop
  endfacet
  facet normal 0 -0 1
    outer loop
      vertex -0.666245 1.17055 2.1
      vertex -0.600693 1.52499 2.1
      vertex -1.65369 1.92122 2.1
    endloop
  endfacet
  facet normal 0 -0 1
    outer loop
      vertex 5.52969 -2.72922 2.1
      vertex 5.89468 -2.38699 2.1
      vertex 4.9157 -1.84999 2.1
    endloop
  endfacet
  facet normal 0 0 1
    outer loop
      vertex 0.0202942 3.14099 2.1
      vertex -0.514023 3.07256 2.1
      vertex -0.112793 2.10266 2.1
    endloop
  endfacet
  facet normal 0 0 1
    outer loop
      vertex 3.56169 2.86722 2.1
      vertex 3.19669 2.52499 2.1
      vertex 4.17569 1.98799 2.1
    endloop
  endfacet
  facet normal 0 0 1
    outer loop
      vertex -0.514023 3.07256 2.1
      vertex -0.963684 2.86722 2.1
      vertex -0.23613 2.05966 2.1
    endloop
  endfacet
  facet normal 0 0 1
    outer loop
      vertex 4.54568 3.14099 2.1
      vertex 4.41258 2.10266 2.1
      vertex 4.54568 2.11699 2.1
    endloop
  endfacet
  facet normal 0 0 1
    outer loop
      vertex 0.0202942 3.14099 2.1
      vertex -0.112793 2.10266 2.1
      vertex 0.0202942 2.11699 2.1
    endloop
  endfacet
  facet normal 0 -0 1
    outer loop
      vertex 3.80669 0.0669861 2.1
      vertex 3.81979 0.684555 2.1
      vertex 2.61169 0.0789948 2.1
    endloop
  endfacet
  facet normal 0 -0 1
    outer loop
      vertex -0.718689 0.0669861 2.1
      vertex -0.705582 0.684555 2.1
      vertex -1.91368 0.0789948 2.1
    endloop
  endfacet
  facet normal 0 0 1
    outer loop
      vertex -0.672028 -1.01477 2.1
      vertex -0.707016 -0.545105 2.1
      vertex -1.85458 -0.958221 2.1
    endloop
  endfacet
  facet normal 0 0 1
    outer loop
      vertex 1.69608 1.91632 2.1
      vertex 0.654297 1.47499 2.1
      vertex 0.713181 1.14833 2.1
    endloop
  endfacet
  facet normal 0 0 1
    outer loop
      vertex 0.74852 0.678986 2.1
      vertex 0.7603 0.0669861 2.1
      vertex 1.9543 0.0669861 2.1
    endloop
  endfacet
  facet normal -0 0 1
    outer loop
      vertex -1.38168 -2.32799 2.1
      vertex -0.989014 -2.70299 2.1
      vertex -0.448349 -1.73888 2.1
    endloop
  endfacet
  facet normal 0 0 1
    outer loop
      vertex -0.989014 -2.70299 2.1
      vertex -0.235245 -1.92255 2.1
      vertex -0.347687 -1.85199 2.1
    endloop
  endfacet
  facet normal 0 0 1
    outer loop
      vertex -0.521683 -2.92799 2.1
      vertex -0.112579 -1.96487 2.1
      vertex -0.235245 -1.92255 2.1
    endloop
  endfacet
  facet normal 0 0 1
    outer loop
      vertex 0.0202942 -3.00299 2.1
      vertex -0.112579 -1.96487 2.1
      vertex -0.521683 -2.92799 2.1
    endloop
  endfacet
  facet normal 0 0 1
    outer loop
      vertex 0.0202942 -1.97899 2.1
      vertex -0.112579 -1.96487 2.1
      vertex 0.0202942 -3.00299 2.1
    endloop
  endfacet
  facet normal 0 0 1
    outer loop
      vertex 0.554626 -2.93456 2.1
      vertex 0.153854 -1.96466 2.1
      vertex 0.0202942 -3.00299 2.1
    endloop
  endfacet
  facet normal 0 0 1
    outer loop
      vertex 0.707855 -1.03477 2.1
      vertex 1.8893 -0.964325 2.1
      vertex 0.747192 -0.55011 2.1
    endloop
  endfacet
  facet normal -0 0 1
    outer loop
      vertex -0.989014 -2.70299 2.1
      vertex -0.521683 -2.92799 2.1
      vertex -0.235245 -1.92255 2.1
    endloop
  endfacet
  facet normal -0 0 1
    outer loop
      vertex 0.747192 -0.55011 2.1
      vertex 1.8893 -0.964325 2.1
      vertex 1.9543 0.0669861 2.1
    endloop
  endfacet
  facet normal 0 0 1
    outer loop
      vertex -0.448349 -1.73888 2.1
      vertex -0.989014 -2.70299 2.1
      vertex -0.347687 -1.85199 2.1
    endloop
  endfacet
  facet normal 0 0 1
    outer loop
      vertex -0.537018 -1.56888 2.1
      vertex -1.38168 -2.32799 2.1
      vertex -0.448349 -1.73888 2.1
    endloop
  endfacet
  facet normal -0 0 1
    outer loop
      vertex -1.67725 -1.76054 2.1
      vertex -1.38168 -2.32799 2.1
      vertex -0.537018 -1.56888 2.1
    endloop
  endfacet
  facet normal 0 0 1
    outer loop
      vertex -0.672028 -1.01477 2.1
      vertex -1.67725 -1.76054 2.1
      vertex -0.613693 -1.342 2.1
    endloop
  endfacet
  facet normal 0 0 1
    outer loop
      vertex -1.85458 -0.958221 2.1
      vertex -1.67725 -1.76054 2.1
      vertex -0.672028 -1.01477 2.1
    endloop
  endfacet
  facet normal 0 0 1
    outer loop
      vertex -0.707016 -0.545105 2.1
      vertex -1.91368 0.0789948 2.1
      vertex -1.85458 -0.958221 2.1
    endloop
  endfacet
  facet normal 0 0 1
    outer loop
      vertex -0.718689 0.0669861 2.1
      vertex -1.91368 0.0789948 2.1
      vertex -0.707016 -0.545105 2.1
    endloop
  endfacet
  facet normal 0 0 1
    outer loop
      vertex -0.705582 0.684555 2.1
      vertex -1.84869 1.10588 2.1
      vertex -1.91368 0.0789948 2.1
    endloop
  endfacet
  facet normal 0 -0 1
    outer loop
      vertex -0.600693 1.52499 2.1
      vertex -0.533249 1.72488 2.1
      vertex -1.65369 1.92122 2.1
    endloop
  endfacet
  facet normal 0 0 1
    outer loop
      vertex -0.666245 1.17055 2.1
      vertex -1.65369 1.92122 2.1
      vertex -1.84869 1.10588 2.1
    endloop
  endfacet
  facet normal 0 0 1
    outer loop
      vertex -1.32869 2.52499 2.1
      vertex -0.533249 1.72488 2.1
      vertex -0.44957 1.87921 2.1
    endloop
  endfacet
  facet normal 0 0 1
    outer loop
      vertex -1.32869 2.52499 2.1
      vertex -0.44957 1.87921 2.1
      vertex -0.349686 1.98799 2.1
    endloop
  endfacet
  facet normal -0 0 1
    outer loop
      vertex -1.32869 2.52499 2.1
      vertex -0.349686 1.98799 2.1
      vertex -0.963684 2.86722 2.1
    endloop
  endfacet
  facet normal 0 0 1
    outer loop
      vertex -0.23613 2.05966 2.1
      vertex -0.963684 2.86722 2.1
      vertex -0.349686 1.98799 2.1
    endloop
  endfacet
  facet normal 0 0 1
    outer loop
      vertex -0.112793 2.10266 2.1
      vertex -0.514023 3.07256 2.1
      vertex -0.23613 2.05966 2.1
    endloop
  endfacet
  facet normal 0 0 1
    outer loop
      vertex 0.0202942 3.14099 2.1
      vertex 0.0202942 2.11699 2.1
      vertex 0.153625 2.10266 2.1
    endloop
  endfacet
  facet normal 0 0 1
    outer loop
      vertex 0.0202942 3.14099 2.1
      vertex 0.153625 2.10266 2.1
      vertex 0.555069 3.07166 2.1
    endloop
  endfacet
  facet normal -0 0 1
    outer loop
      vertex 0.153625 2.10266 2.1
      vertex 0.276291 2.05966 2.1
      vertex 0.555069 3.07166 2.1
    endloop
  endfacet
  facet normal 0 -0 1
    outer loop
      vertex 0.38829 1.98799 2.1
      vertex 1.00607 2.86366 2.1
      vertex 0.276291 2.05966 2.1
    endloop
  endfacet
  facet normal 0 0 1
    outer loop
      vertex 0.276291 2.05966 2.1
      vertex 1.00607 2.86366 2.1
      vertex 0.555069 3.07166 2.1
    endloop
  endfacet
  facet normal 0 -0 1
    outer loop
      vertex 0.48941 1.87366 2.1
      vertex 1.37329 2.517 2.1
      vertex 0.38829 1.98799 2.1
    endloop
  endfacet
  facet normal 0 0 1
    outer loop
      vertex 0.38829 1.98799 2.1
      vertex 1.37329 2.517 2.1
      vertex 1.00607 2.86366 2.1
    endloop
  endfacet
  facet normal -0 0 1
    outer loop
      vertex 0.48941 1.87366 2.1
      vertex 0.578079 1.70265 2.1
      vertex 1.37329 2.517 2.1
    endloop
  endfacet
  facet normal 0 0 1
    outer loop
      vertex 0.578079 1.70265 2.1
      vertex 1.69608 1.91632 2.1
      vertex 1.37329 2.517 2.1
    endloop
  endfacet
  facet normal 0 -0 1
    outer loop
      vertex 0.654297 1.47499 2.1
      vertex 1.69608 1.91632 2.1
      vertex 0.578079 1.70265 2.1
    endloop
  endfacet
  facet normal 0 0 1
    outer loop
      vertex 1.88974 1.09966 2.1
      vertex 1.69608 1.91632 2.1
      vertex 0.713181 1.14833 2.1
    endloop
  endfacet
  facet normal 0 0 1
    outer loop
      vertex 1.88974 1.09966 2.1
      vertex 0.713181 1.14833 2.1
      vertex 0.74852 0.678986 2.1
    endloop
  endfacet
  facet normal 0 0 1
    outer loop
      vertex 1.88974 1.09966 2.1
      vertex 0.74852 0.678986 2.1
      vertex 1.9543 0.0669861 2.1
    endloop
  endfacet
  facet normal 0 0 1
    outer loop
      vertex 1.9543 0.0669861 2.1
      vertex 0.7603 0.0669861 2.1
      vertex 0.747192 -0.55011 2.1
    endloop
  endfacet
  facet normal -0 0 1
    outer loop
      vertex 0.707855 -1.03477 2.1
      vertex 1.69429 -1.78232 2.1
      vertex 1.8893 -0.964325 2.1
    endloop
  endfacet
  facet normal 0 0 1
    outer loop
      vertex 0.642303 -1.38699 2.1
      vertex 0.574738 -1.58688 2.1
      vertex 1.69429 -1.78232 2.1
    endloop
  endfacet
  facet normal 0 0 1
    outer loop
      vertex 0.574738 -1.58688 2.1
      vertex 0.490738 -1.74121 2.1
      vertex 1.36929 -2.38699 2.1
    endloop
  endfacet
  facet normal 0 0 1
    outer loop
      vertex 0.490738 -1.74121 2.1
      vertex 0.390305 -1.84999 2.1
      vertex 1.36929 -2.38699 2.1
    endloop
  endfacet
  facet normal 0 0 1
    outer loop
      vertex 0.390305 -1.84999 2.1
      vertex 0.277191 -1.92166 2.1
      vertex 1.0043 -2.72922 2.1
    endloop
  endfacet
  facet normal 0 0 1
    outer loop
      vertex 0.277191 -1.92166 2.1
      vertex 0.554626 -2.93456 2.1
      vertex 1.0043 -2.72922 2.1
    endloop
  endfacet
  facet normal -0 0 1
    outer loop
      vertex 0.153854 -1.96466 2.1
      vertex 0.554626 -2.93456 2.1
      vertex 0.277191 -1.92166 2.1
    endloop
  endfacet
  facet normal -0 0 1
    outer loop
      vertex 0.0202942 -1.97899 2.1
      vertex 0.0202942 -3.00299 2.1
      vertex 0.153854 -1.96466 2.1
    endloop
  endfacet
  facet normal 0 0 1
    outer loop
      vertex 5.27391 0.678986 2.1
      vertex 5.28569 0.0669861 2.1
      vertex 6.47969 0.0669861 2.1
    endloop
  endfacet
  facet normal 0 -0 1
    outer loop
      vertex 2.67079 -0.958221 2.1
      vertex 3.81836 -0.545105 2.1
      vertex 2.61169 0.0789948 2.1
    endloop
  endfacet
  facet normal 0 0 1
    outer loop
      vertex 2.61169 0.0789948 2.1
      vertex 3.81979 0.684555 2.1
      vertex 2.67668 1.10588 2.1
    endloop
  endfacet
  facet normal 0 0 1
    outer loop
      vertex 3.92468 1.52499 2.1
      vertex 2.87169 1.92122 2.1
      vertex 3.85913 1.17055 2.1
    endloop
  endfacet
  facet normal 0 0 1
    outer loop
      vertex 4.01135 3.07256 2.1
      vertex 4.28925 2.05966 2.1
      vertex 4.41258 2.10266 2.1
    endloop
  endfacet
  facet normal 0 0 1
    outer loop
      vertex 3.56169 2.86722 2.1
      vertex 4.17569 1.98799 2.1
      vertex 4.28925 2.05966 2.1
    endloop
  endfacet
  facet normal 0 0 1
    outer loop
      vertex 3.85913 1.17055 2.1
      vertex 2.67668 1.10588 2.1
      vertex 3.81979 0.684555 2.1
    endloop
  endfacet
  facet normal 0 0 1
    outer loop
      vertex 3.85335 -1.01477 2.1
      vertex 3.81836 -0.545105 2.1
      vertex 2.67079 -0.958221 2.1
    endloop
  endfacet
  facet normal 0 0 1
    outer loop
      vertex 2.84813 -1.76054 2.1
      vertex 3.91168 -1.342 2.1
      vertex 3.85335 -1.01477 2.1
    endloop
  endfacet
  facet normal -0 0 1
    outer loop
      vertex 3.14369 -2.32799 2.1
      vertex 3.53636 -2.70299 2.1
      vertex 4.07703 -1.73888 2.1
    endloop
  endfacet
  facet normal 0 0 1
    outer loop
      vertex 5.27258 -0.55011 2.1
      vertex 5.23325 -1.03477 2.1
      vertex 6.41469 -0.964325 2.1
    endloop
  endfacet
  facet normal 0 0 1
    outer loop
      vertex 4.29013 -1.92255 2.1
      vertex 4.00369 -2.92799 2.1
      vertex 4.4128 -1.96487 2.1
    endloop
  endfacet
  facet normal -0 0 1
    outer loop
      vertex 4.00369 -2.92799 2.1
      vertex 4.54568 -3.00299 2.1
      vertex 4.4128 -1.96487 2.1
    endloop
  endfacet
  facet normal 0 -0 1
    outer loop
      vertex 4.54568 -3.00299 2.1
      vertex 4.54568 -1.97899 2.1
      vertex 4.4128 -1.96487 2.1
    endloop
  endfacet
  facet normal 0 0 1
    outer loop
      vertex 4.67924 -1.96466 2.1
      vertex 4.54568 -1.97899 2.1
      vertex 4.54568 -3.00299 2.1
    endloop
  endfacet
  facet normal 0 0 1
    outer loop
      vertex 4.54568 -3.00299 2.1
      vertex 5.08002 -2.93456 2.1
      vertex 4.67924 -1.96466 2.1
    endloop
  endfacet
  facet normal 0 0 1
    outer loop
      vertex 4.17769 -1.85199 2.1
      vertex 3.53636 -2.70299 2.1
      vertex 4.29013 -1.92255 2.1
    endloop
  endfacet
  facet normal 0 0 1
    outer loop
      vertex 4.29013 -1.92255 2.1
      vertex 3.53636 -2.70299 2.1
      vertex 4.00369 -2.92799 2.1
    endloop
  endfacet
  facet normal 0 0 1
    outer loop
      vertex 4.07703 -1.73888 2.1
      vertex 3.53636 -2.70299 2.1
      vertex 4.17769 -1.85199 2.1
    endloop
  endfacet
  facet normal 0 0 1
    outer loop
      vertex 4.07703 -1.73888 2.1
      vertex 3.98836 -1.56888 2.1
      vertex 3.14369 -2.32799 2.1
    endloop
  endfacet
  facet normal 0 0 1
    outer loop
      vertex 3.91168 -1.342 2.1
      vertex 2.84813 -1.76054 2.1
      vertex 3.98836 -1.56888 2.1
    endloop
  endfacet
  facet normal 0 0 1
    outer loop
      vertex 3.98836 -1.56888 2.1
      vertex 2.84813 -1.76054 2.1
      vertex 3.14369 -2.32799 2.1
    endloop
  endfacet
  facet normal 0 -0 1
    outer loop
      vertex 2.84813 -1.76054 2.1
      vertex 3.85335 -1.01477 2.1
      vertex 2.67079 -0.958221 2.1
    endloop
  endfacet
  facet normal -0 0 1
    outer loop
      vertex 5.17969 1.47499 2.1
      vertex 5.23857 1.14833 2.1
      vertex 6.22147 1.91632 2.1
    endloop
  endfacet
  facet normal 0 0 1
    outer loop
      vertex 3.81836 -0.545105 2.1
      vertex 3.80669 0.0669861 2.1
      vertex 2.61169 0.0789948 2.1
    endloop
  endfacet
  facet normal 0 0 1
    outer loop
      vertex 5.53146 2.86366 2.1
      vertex 4.91368 1.98799 2.1
      vertex 5.89868 2.517 2.1
    endloop
  endfacet
  facet normal 0 0 1
    outer loop
      vertex 5.08046 3.07166 2.1
      vertex 4.67902 2.10266 2.1
      vertex 4.80168 2.05966 2.1
    endloop
  endfacet
  facet normal 0 -0 1
    outer loop
      vertex 3.92468 1.52499 2.1
      vertex 3.99213 1.72488 2.1
      vertex 2.87169 1.92122 2.1
    endloop
  endfacet
  facet normal 0 0 1
    outer loop
      vertex 3.85913 1.17055 2.1
      vertex 2.87169 1.92122 2.1
      vertex 2.67668 1.10588 2.1
    endloop
  endfacet
  facet normal 0 0 1
    outer loop
      vertex 3.99213 1.72488 2.1
      vertex 3.19669 2.52499 2.1
      vertex 2.87169 1.92122 2.1
    endloop
  endfacet
  facet normal 0 0 1
    outer loop
      vertex 5.89868 2.517 2.1
      vertex 5.0148 1.87366 2.1
      vertex 5.10347 1.70265 2.1
    endloop
  endfacet
  facet normal 0 0 1
    outer loop
      vertex 4.07581 1.87921 2.1
      vertex 3.19669 2.52499 2.1
      vertex 3.99213 1.72488 2.1
    endloop
  endfacet
  facet normal 0 0 1
    outer loop
      vertex 4.17569 1.98799 2.1
      vertex 3.19669 2.52499 2.1
      vertex 4.07581 1.87921 2.1
    endloop
  endfacet
  facet normal -0 0 1
    outer loop
      vertex 3.56169 2.86722 2.1
      vertex 4.28925 2.05966 2.1
      vertex 4.01135 3.07256 2.1
    endloop
  endfacet
  facet normal -0 0 1
    outer loop
      vertex 4.01135 3.07256 2.1
      vertex 4.41258 2.10266 2.1
      vertex 4.54568 3.14099 2.1
    endloop
  endfacet
  facet normal 0 0 1
    outer loop
      vertex 4.54568 3.14099 2.1
      vertex 4.54568 2.11699 2.1
      vertex 4.67902 2.10266 2.1
    endloop
  endfacet
  facet normal 0 0 1
    outer loop
      vertex 4.54568 3.14099 2.1
      vertex 4.67902 2.10266 2.1
      vertex 5.08046 3.07166 2.1
    endloop
  endfacet
  facet normal 0 0 1
    outer loop
      vertex 5.08046 3.07166 2.1
      vertex 4.80168 2.05966 2.1
      vertex 5.53146 2.86366 2.1
    endloop
  endfacet
  facet normal -0 0 1
    outer loop
      vertex 4.80168 2.05966 2.1
      vertex 4.91368 1.98799 2.1
      vertex 5.53146 2.86366 2.1
    endloop
  endfacet
  facet normal -0 0 1
    outer loop
      vertex 4.91368 1.98799 2.1
      vertex 5.0148 1.87366 2.1
      vertex 5.89868 2.517 2.1
    endloop
  endfacet
  facet normal 0 0 1
    outer loop
      vertex 5.89868 2.517 2.1
      vertex 5.10347 1.70265 2.1
      vertex 6.22147 1.91632 2.1
    endloop
  endfacet
  facet normal -0 0 1
    outer loop
      vertex 5.10347 1.70265 2.1
      vertex 5.17969 1.47499 2.1
      vertex 6.22147 1.91632 2.1
    endloop
  endfacet
  facet normal 0 0 1
    outer loop
      vertex 6.41513 1.09966 2.1
      vertex 6.22147 1.91632 2.1
      vertex 5.23857 1.14833 2.1
    endloop
  endfacet
  facet normal 0 0 1
    outer loop
      vertex 6.41513 1.09966 2.1
      vertex 5.23857 1.14833 2.1
      vertex 5.27391 0.678986 2.1
    endloop
  endfacet
  facet normal 0 0 1
    outer loop
      vertex 6.47969 0.0669861 2.1
      vertex 6.41513 1.09966 2.1
      vertex 5.27391 0.678986 2.1
    endloop
  endfacet
  facet normal 0 0 1
    outer loop
      vertex 5.27258 -0.55011 2.1
      vertex 6.47969 0.0669861 2.1
      vertex 5.28569 0.0669861 2.1
    endloop
  endfacet
  facet normal 0 0 1
    outer loop
      vertex 6.47969 0.0669861 2.1
      vertex 5.27258 -0.55011 2.1
      vertex 6.41469 -0.964325 2.1
    endloop
  endfacet
  facet normal 0 0 1
    outer loop
      vertex 6.41469 -0.964325 2.1
      vertex 5.23325 -1.03477 2.1
      vertex 6.21968 -1.78232 2.1
    endloop
  endfacet
  facet normal 0 0 1
    outer loop
      vertex 6.21968 -1.78232 2.1
      vertex 5.16769 -1.38699 2.1
      vertex 5.10013 -1.58688 2.1
    endloop
  endfacet
  facet normal 0 0 1
    outer loop
      vertex 5.89468 -2.38699 2.1
      vertex 5.10013 -1.58688 2.1
      vertex 5.01613 -1.74121 2.1
    endloop
  endfacet
  facet normal 0 0 1
    outer loop
      vertex 5.89468 -2.38699 2.1
      vertex 5.01613 -1.74121 2.1
      vertex 4.9157 -1.84999 2.1
    endloop
  endfacet
  facet normal 0 0 1
    outer loop
      vertex 5.52969 -2.72922 2.1
      vertex 4.9157 -1.84999 2.1
      vertex 4.80258 -1.92166 2.1
    endloop
  endfacet
  facet normal 0 0 1
    outer loop
      vertex 5.52969 -2.72922 2.1
      vertex 4.80258 -1.92166 2.1
      vertex 5.08002 -2.93456 2.1
    endloop
  endfacet
  facet normal 0 0 1
    outer loop
      vertex 4.80258 -1.92166 2.1
      vertex 4.67924 -1.96466 2.1
      vertex 5.08002 -2.93456 2.1
    endloop
  endfacet
  facet normal 0 1 0
    outer loop
      vertex -4.44008 3.14099 1.6
      vertex -3.51408 3.14099 2.1
      vertex -3.51408 3.14099 1.6
    endloop
  endfacet
  facet normal 0 1 0
    outer loop
      vertex -4.44008 3.14099 1.6
      vertex -4.44008 3.14099 2.1
      vertex -3.51408 3.14099 2.1
    endloop
  endfacet
  facet normal -0.905111 0.425176 0
    outer loop
      vertex -4.60663 2.78644 1.6
      vertex -4.44008 3.14099 2.1
      vertex -4.44008 3.14099 1.6
    endloop
  endfacet
  facet normal -0.905111 0.425176 0
    outer loop
      vertex -4.60663 2.78644 1.6
      vertex -4.60663 2.78644 2.1
      vertex -4.44008 3.14099 2.1
    endloop
  endfacet
  facet normal -0.803659 0.59509 0
    outer loop
      vertex -4.8463 2.46277 1.6
      vertex -4.60663 2.78644 2.1
      vertex -4.60663 2.78644 1.6
    endloop
  endfacet
  facet normal -0.803659 0.59509 0
    outer loop
      vertex -4.8463 2.46277 1.6
      vertex -4.8463 2.46277 2.1
      vertex -4.60663 2.78644 2.1
    endloop
  endfacet
  facet normal -0.68338 0.730063 0
    outer loop
      vertex -5.15907 2.17 1.6
      vertex -4.8463 2.46277 2.1
      vertex -4.8463 2.46277 1.6
    endloop
  endfacet
  facet normal -0.68338 0.730063 0
    outer loop
      vertex -5.15907 2.17 1.6
      vertex -5.15907 2.17 2.1
      vertex -4.8463 2.46277 2.1
    endloop
  endfacet
  facet normal -0.587896 0.808936 0
    outer loop
      vertex -5.49986 1.92233 1.6
      vertex -5.15907 2.17 2.1
      vertex -5.15907 2.17 1.6
    endloop
  endfacet
  facet normal -0.587896 0.808936 0
    outer loop
      vertex -5.49986 1.92233 1.6
      vertex -5.49986 1.92233 2.1
      vertex -5.15907 2.17 2.1
    endloop
  endfacet
  facet normal -0.502951 0.864315 0
    outer loop
      vertex -5.82352 1.73399 1.6
      vertex -5.49986 1.92233 2.1
      vertex -5.49986 1.92233 1.6
    endloop
  endfacet
  facet normal -0.502951 0.864315 0
    outer loop
      vertex -5.82352 1.73399 1.6
      vertex -5.82352 1.73399 2.1
      vertex -5.49986 1.92233 2.1
    endloop
  endfacet
  facet normal -0.387833 0.92173 0
    outer loop
      vertex -6.13008 1.605 1.6
      vertex -5.82352 1.73399 2.1
      vertex -5.82352 1.73399 1.6
    endloop
  endfacet
  facet normal -0.387833 0.92173 0
    outer loop
      vertex -6.13008 1.605 1.6
      vertex -6.13008 1.605 2.1
      vertex -5.82352 1.73399 2.1
    endloop
  endfacet
  facet normal -1 0 0
    outer loop
      vertex -6.13008 0.452988 1.6
      vertex -6.13008 1.605 2.1
      vertex -6.13008 1.605 1.6
    endloop
  endfacet
  facet normal -1 0 0
    outer loop
      vertex -6.13008 0.452988 1.6
      vertex -6.13008 0.452988 2.1
      vertex -6.13008 1.605 2.1
    endloop
  endfacet
  facet normal 0.413169 -0.910654 0
    outer loop
      vertex -5.58885 0.698547 1.6
      vertex -6.13008 0.452988 2.1
      vertex -6.13008 0.452988 1.6
    endloop
  endfacet
  facet normal 0.413169 -0.910654 0
    outer loop
      vertex -5.58885 0.698547 1.6
      vertex -5.58885 0.698547 2.1
      vertex -6.13008 0.452988 2.1
    endloop
  endfacet
  facet normal 0.546278 -0.837604 0
    outer loop
      vertex -5.09718 1.01921 1.6
      vertex -5.58885 0.698547 2.1
      vertex -5.58885 0.698547 1.6
    endloop
  endfacet
  facet normal 0.546278 -0.837604 0
    outer loop
      vertex -5.09718 1.01921 1.6
      vertex -5.09718 1.01921 2.1
      vertex -5.58885 0.698547 2.1
    endloop
  endfacet
  facet normal 0.666998 -0.74506 0
    outer loop
      vertex -4.65508 1.41499 1.6
      vertex -5.09718 1.01921 2.1
      vertex -5.09718 1.01921 1.6
    endloop
  endfacet
  facet normal 0.666998 -0.74506 0
    outer loop
      vertex -4.65508 1.41499 1.6
      vertex -4.65508 1.41499 2.1
      vertex -5.09718 1.01921 2.1
    endloop
  endfacet
  facet normal -1 0 0
    outer loop
      vertex -4.65508 -2.875 1.6
      vertex -4.65508 1.41499 2.1
      vertex -4.65508 1.41499 1.6
    endloop
  endfacet
  facet normal -1 0 0
    outer loop
      vertex -4.65508 -2.875 1.6
      vertex -4.65508 -2.875 2.1
      vertex -4.65508 1.41499 2.1
    endloop
  endfacet
  facet normal 0 -1 0
    outer loop
      vertex -3.51408 -2.875 1.6
      vertex -4.65508 -2.875 2.1
      vertex -4.65508 -2.875 1.6
    endloop
  endfacet
  facet normal 0 -1 0
    outer loop
      vertex -3.51408 -2.875 1.6
      vertex -3.51408 -2.875 2.1
      vertex -4.65508 -2.875 2.1
    endloop
  endfacet
  facet normal 1 0 0
    outer loop
      vertex -3.51408 3.14099 1.6
      vertex -3.51408 -2.875 2.1
      vertex -3.51408 -2.875 1.6
    endloop
  endfacet
  facet normal 1 0 -0
    outer loop
      vertex -3.51408 3.14099 1.6
      vertex -3.51408 3.14099 2.1
      vertex -3.51408 -2.875 2.1
    endloop
  endfacet
  facet normal 0.415383 -0.909647 0
    outer loop
      vertex 1.0043 -2.72922 1.6
      vertex 0.554626 -2.93456 2.1
      vertex 0.554626 -2.93456 1.6
    endloop
  endfacet
  facet normal 0.415383 -0.909647 0
    outer loop
      vertex 1.0043 -2.72922 1.6
      vertex 1.0043 -2.72922 2.1
      vertex 0.554626 -2.93456 2.1
    endloop
  endfacet
  facet normal 0.683996 -0.729485 0
    outer loop
      vertex 1.36929 -2.38699 1.6
      vertex 1.0043 -2.72922 2.1
      vertex 1.0043 -2.72922 1.6
    endloop
  endfacet
  facet normal 0.683996 -0.729485 0
    outer loop
      vertex 1.36929 -2.38699 1.6
      vertex 1.36929 -2.38699 2.1
      vertex 1.0043 -2.72922 2.1
    endloop
  endfacet
  facet normal 0.880831 -0.473432 0
    outer loop
      vertex 1.69429 -1.78232 1.6
      vertex 1.36929 -2.38699 2.1
      vertex 1.36929 -2.38699 1.6
    endloop
  endfacet
  facet normal 0.880831 -0.473432 0
    outer loop
      vertex 1.69429 -1.78232 1.6
      vertex 1.69429 -1.78232 2.1
      vertex 1.36929 -2.38699 2.1
    endloop
  endfacet
  facet normal 0.972739 -0.231901 0
    outer loop
      vertex 1.8893 -0.964325 1.6
      vertex 1.69429 -1.78232 2.1
      vertex 1.69429 -1.78232 1.6
    endloop
  endfacet
  facet normal 0.972739 -0.231901 0
    outer loop
      vertex 1.8893 -0.964325 1.6
      vertex 1.8893 -0.964325 2.1
      vertex 1.69429 -1.78232 2.1
    endloop
  endfacet
  facet normal 0.99802 -0.0629018 0
    outer loop
      vertex 1.9543 0.0669861 1.6
      vertex 1.8893 -0.964325 2.1
      vertex 1.8893 -0.964325 1.6
    endloop
  endfacet
  facet normal 0.99802 -0.0629018 0
    outer loop
      vertex 1.9543 0.0669861 1.6
      vertex 1.9543 0.0669861 2.1
      vertex 1.8893 -0.964325 2.1
    endloop
  endfacet
  facet normal 0.998052 0.0623955 0
    outer loop
      vertex 1.88974 1.09966 1.6
      vertex 1.9543 0.0669861 2.1
      vertex 1.9543 0.0669861 1.6
    endloop
  endfacet
  facet normal 0.998052 0.0623955 -0
    outer loop
      vertex 1.88974 1.09966 1.6
      vertex 1.88974 1.09966 2.1
      vertex 1.9543 0.0669861 2.1
    endloop
  endfacet
  facet normal 0.973016 0.230738 0
    outer loop
      vertex 1.69608 1.91632 1.6
      vertex 1.88974 1.09966 2.1
      vertex 1.88974 1.09966 1.6
    endloop
  endfacet
  facet normal 0.973016 0.230738 -0
    outer loop
      vertex 1.69608 1.91632 1.6
      vertex 1.69608 1.91632 2.1
      vertex 1.88974 1.09966 2.1
    endloop
  endfacet
  facet normal 0.880871 0.473357 0
    outer loop
      vertex 1.37329 2.517 1.6
      vertex 1.69608 1.91632 2.1
      vertex 1.69608 1.91632 1.6
    endloop
  endfacet
  facet normal 0.880871 0.473357 -0
    outer loop
      vertex 1.37329 2.517 1.6
      vertex 1.37329 2.517 2.1
      vertex 1.69608 1.91632 2.1
    endloop
  endfacet
  facet normal 0.686457 0.72717 0
    outer loop
      vertex 1.00607 2.86366 1.6
      vertex 1.37329 2.517 2.1
      vertex 1.37329 2.517 1.6
    endloop
  endfacet
  facet normal 0.686457 0.72717 -0
    outer loop
      vertex 1.00607 2.86366 1.6
      vertex 1.00607 2.86366 2.1
      vertex 1.37329 2.517 2.1
    endloop
  endfacet
  facet normal 0.418802 0.908078 0
    outer loop
      vertex 0.555069 3.07166 1.6
      vertex 1.00607 2.86366 2.1
      vertex 1.00607 2.86366 1.6
    endloop
  endfacet
  facet normal 0.418802 0.908078 -0
    outer loop
      vertex 0.555069 3.07166 1.6
      vertex 0.555069 3.07166 2.1
      vertex 1.00607 2.86366 2.1
    endloop
  endfacet
  facet normal 0.128567 0.991701 0
    outer loop
      vertex 0.0202942 3.14099 1.6
      vertex 0.555069 3.07166 2.1
      vertex 0.555069 3.07166 1.6
    endloop
  endfacet
  facet normal 0.128567 0.991701 -0
    outer loop
      vertex 0.0202942 3.14099 1.6
      vertex 0.0202942 3.14099 2.1
      vertex 0.555069 3.07166 2.1
    endloop
  endfacet
  facet normal -0.127032 0.991899 0
    outer loop
      vertex -0.514023 3.07256 1.6
      vertex 0.0202942 3.14099 2.1
      vertex 0.0202942 3.14099 1.6
    endloop
  endfacet
  facet normal -0.127032 0.991899 0
    outer loop
      vertex -0.514023 3.07256 1.6
      vertex -0.514023 3.07256 2.1
      vertex 0.0202942 3.14099 2.1
    endloop
  endfacet
  facet normal -0.415393 0.909642 0
    outer loop
      vertex -0.963684 2.86722 1.6
      vertex -0.514023 3.07256 2.1
      vertex -0.514023 3.07256 1.6
    endloop
  endfacet
  facet normal -0.415393 0.909642 0
    outer loop
      vertex -0.963684 2.86722 1.6
      vertex -0.963684 2.86722 2.1
      vertex -0.514023 3.07256 2.1
    endloop
  endfacet
  facet normal -0.68398 0.7295 0
    outer loop
      vertex -1.32869 2.52499 1.6
      vertex -0.963684 2.86722 2.1
      vertex -0.963684 2.86722 1.6
    endloop
  endfacet
  facet normal -0.68398 0.7295 0
    outer loop
      vertex -1.32869 2.52499 1.6
      vertex -1.32869 2.52499 2.1
      vertex -0.963684 2.86722 2.1
    endloop
  endfacet
  facet normal -0.880536 0.473979 0
    outer loop
      vertex -1.65369 1.92122 1.6
      vertex -1.32869 2.52499 2.1
      vertex -1.32869 2.52499 1.6
    endloop
  endfacet
  facet normal -0.880536 0.473979 0
    outer loop
      vertex -1.65369 1.92122 1.6
      vertex -1.65369 1.92122 2.1
      vertex -1.32869 2.52499 2.1
    endloop
  endfacet
  facet normal -0.972572 0.232604 0
    outer loop
      vertex -1.84869 1.10588 1.6
      vertex -1.65369 1.92122 2.1
      vertex -1.65369 1.92122 1.6
    endloop
  endfacet
  facet normal -0.972572 0.232604 0
    outer loop
      vertex -1.84869 1.10588 1.6
      vertex -1.84869 1.10588 2.1
      vertex -1.65369 1.92122 2.1
    endloop
  endfacet
  facet normal -0.998003 0.0631621 0
    outer loop
      vertex -1.91368 0.0789948 1.6
      vertex -1.84869 1.10588 2.1
      vertex -1.84869 1.10588 1.6
    endloop
  endfacet
  facet normal -0.998003 0.0631621 0
    outer loop
      vertex -1.91368 0.0789948 1.6
      vertex -1.91368 0.0789948 2.1
      vertex -1.84869 1.10588 2.1
    endloop
  endfacet
  facet normal -0.998381 -0.0568872 0
    outer loop
      vertex -1.85458 -0.958221 1.6
      vertex -1.91368 0.0789948 2.1
      vertex -1.91368 0.0789948 1.6
    endloop
  endfacet
  facet normal -0.998381 -0.0568872 0
    outer loop
      vertex -1.85458 -0.958221 1.6
      vertex -1.85458 -0.958221 2.1
      vertex -1.91368 0.0789948 2.1
    endloop
  endfacet
  facet normal -0.976435 -0.215813 0
    outer loop
      vertex -1.67725 -1.76054 1.6
      vertex -1.85458 -0.958221 2.1
      vertex -1.85458 -0.958221 1.6
    endloop
  endfacet
  facet normal -0.976435 -0.215813 0
    outer loop
      vertex -1.67725 -1.76054 1.6
      vertex -1.67725 -1.76054 2.1
      vertex -1.85458 -0.958221 2.1
    endloop
  endfacet
  facet normal -0.886899 -0.461963 0
    outer loop
      vertex -1.38168 -2.32799 1.6
      vertex -1.67725 -1.76054 2.1
      vertex -1.67725 -1.76054 1.6
    endloop
  endfacet
  facet normal -0.886899 -0.461963 0
    outer loop
      vertex -1.38168 -2.32799 1.6
      vertex -1.38168 -2.32799 2.1
      vertex -1.67725 -1.76054 2.1
    endloop
  endfacet
  facet normal -0.690652 -0.723188 0
    outer loop
      vertex -0.989014 -2.70299 1.6
      vertex -1.38168 -2.32799 2.1
      vertex -1.38168 -2.32799 1.6
    endloop
  endfacet
  facet normal -0.690652 -0.723188 0
    outer loop
      vertex -0.989014 -2.70299 1.6
      vertex -0.989014 -2.70299 2.1
      vertex -1.38168 -2.32799 2.1
    endloop
  endfacet
  facet normal -0.433798 -0.90101 0
    outer loop
      vertex -0.521683 -2.92799 1.6
      vertex -0.989014 -2.70299 2.1
      vertex -0.989014 -2.70299 1.6
    endloop
  endfacet
  facet normal -0.433798 -0.90101 0
    outer loop
      vertex -0.521683 -2.92799 1.6
      vertex -0.521683 -2.92799 2.1
      vertex -0.989014 -2.70299 2.1
    endloop
  endfacet
  facet normal -0.137076 -0.990561 0
    outer loop
      vertex 0.0202942 -3.00299 1.6
      vertex -0.521683 -2.92799 2.1
      vertex -0.521683 -2.92799 1.6
    endloop
  endfacet
  facet normal -0.137076 -0.990561 0
    outer loop
      vertex 0.0202942 -3.00299 1.6
      vertex 0.0202942 -3.00299 2.1
      vertex -0.521683 -2.92799 2.1
    endloop
  endfacet
  facet normal 0.127029 -0.991899 0
    outer loop
      vertex 0.554626 -2.93456 1.6
      vertex 0.0202942 -3.00299 2.1
      vertex 0.0202942 -3.00299 1.6
    endloop
  endfacet
  facet normal 0.127029 -0.991899 0
    outer loop
      vertex 0.554626 -2.93456 1.6
      vertex 0.554626 -2.93456 2.1
      vertex 0.0202942 -3.00299 2.1
    endloop
  endfacet
  facet normal 0.326138 0.945322 -0
    outer loop
      vertex -0.235245 -1.92255 1.6
      vertex -0.235245 -1.92255 2.1
      vertex -0.112579 -1.96487 1.6
    endloop
  endfacet
  facet normal 0.326138 0.945322 0
    outer loop
      vertex -0.112579 -1.96487 2.1
      vertex -0.112579 -1.96487 1.6
      vertex -0.235245 -1.92255 2.1
    endloop
  endfacet
  facet normal 0.531535 0.847036 -0
    outer loop
      vertex -0.347687 -1.85199 1.6
      vertex -0.347687 -1.85199 2.1
      vertex -0.235245 -1.92255 1.6
    endloop
  endfacet
  facet normal 0.531535 0.847036 0
    outer loop
      vertex -0.235245 -1.92255 2.1
      vertex -0.235245 -1.92255 1.6
      vertex -0.347687 -1.85199 2.1
    endloop
  endfacet
  facet normal 0.747016 0.664806 -0
    outer loop
      vertex -0.448349 -1.73888 1.6
      vertex -0.448349 -1.73888 2.1
      vertex -0.347687 -1.85199 1.6
    endloop
  endfacet
  facet normal 0.747016 0.664806 0
    outer loop
      vertex -0.347687 -1.85199 2.1
      vertex -0.347687 -1.85199 1.6
      vertex -0.448349 -1.73888 2.1
    endloop
  endfacet
  facet normal 0.886642 0.462457 -0
    outer loop
      vertex -0.537018 -1.56888 1.6
      vertex -0.537018 -1.56888 2.1
      vertex -0.448349 -1.73888 1.6
    endloop
  endfacet
  facet normal 0.886642 0.462457 0
    outer loop
      vertex -0.448349 -1.73888 2.1
      vertex -0.448349 -1.73888 1.6
      vertex -0.537018 -1.56888 2.1
    endloop
  endfacet
  facet normal 0.947362 0.320165 -0
    outer loop
      vertex -0.613693 -1.342 1.6
      vertex -0.613693 -1.342 2.1
      vertex -0.537018 -1.56888 1.6
    endloop
  endfacet
  facet normal 0.947362 0.320165 0
    outer loop
      vertex -0.537018 -1.56888 2.1
      vertex -0.537018 -1.56888 1.6
      vertex -0.613693 -1.342 2.1
    endloop
  endfacet
  facet normal 0.984479 0.175502 -0
    outer loop
      vertex -0.672028 -1.01477 1.6
      vertex -0.672028 -1.01477 2.1
      vertex -0.613693 -1.342 1.6
    endloop
  endfacet
  facet normal 0.984479 0.175502 0
    outer loop
      vertex -0.613693 -1.342 2.1
      vertex -0.613693 -1.342 1.6
      vertex -0.672028 -1.01477 2.1
    endloop
  endfacet
  facet normal 0.997237 0.0742898 -0
    outer loop
      vertex -0.707016 -0.545105 1.6
      vertex -0.707016 -0.545105 2.1
      vertex -0.672028 -1.01477 1.6
    endloop
  endfacet
  facet normal 0.997237 0.0742898 0
    outer loop
      vertex -0.672028 -1.01477 2.1
      vertex -0.672028 -1.01477 1.6
      vertex -0.707016 -0.545105 2.1
    endloop
  endfacet
  facet normal 0.999818 0.0190672 -0
    outer loop
      vertex -0.718689 0.0669861 1.6
      vertex -0.718689 0.0669861 2.1
      vertex -0.707016 -0.545105 1.6
    endloop
  endfacet
  facet normal 0.999818 0.0190672 0
    outer loop
      vertex -0.707016 -0.545105 2.1
      vertex -0.707016 -0.545105 1.6
      vertex -0.718689 0.0669861 2.1
    endloop
  endfacet
  facet normal 0.999775 -0.0212188 0
    outer loop
      vertex -0.705582 0.684555 1.6
      vertex -0.705582 0.684555 2.1
      vertex -0.718689 0.0669861 1.6
    endloop
  endfacet
  facet normal 0.999775 -0.0212188 0
    outer loop
      vertex -0.718689 0.0669861 2.1
      vertex -0.718689 0.0669861 1.6
      vertex -0.705582 0.684555 2.1
    endloop
  endfacet
  facet normal 0.99674 -0.0806773 0
    outer loop
      vertex -0.666245 1.17055 1.6
      vertex -0.666245 1.17055 2.1
      vertex -0.705582 0.684555 1.6
    endloop
  endfacet
  facet normal 0.99674 -0.0806773 0
    outer loop
      vertex -0.705582 0.684555 2.1
      vertex -0.705582 0.684555 1.6
      vertex -0.666245 1.17055 2.1
    endloop
  endfacet
  facet normal 0.983324 -0.181861 0
    outer loop
      vertex -0.600693 1.52499 1.6
      vertex -0.600693 1.52499 2.1
      vertex -0.666245 1.17055 1.6
    endloop
  endfacet
  facet normal 0.983324 -0.181861 0
    outer loop
      vertex -0.666245 1.17055 2.1
      vertex -0.666245 1.17055 1.6
      vertex -0.600693 1.52499 2.1
    endloop
  endfacet
  facet normal 0.947519 -0.319698 0
    outer loop
      vertex -0.533249 1.72488 1.6
      vertex -0.533249 1.72488 2.1
      vertex -0.600693 1.52499 1.6
    endloop
  endfacet
  facet normal 0.947519 -0.319698 0
    outer loop
      vertex -0.600693 1.52499 2.1
      vertex -0.600693 1.52499 1.6
      vertex -0.533249 1.72488 2.1
    endloop
  endfacet
  facet normal 0.879093 -0.476651 0
    outer loop
      vertex -0.44957 1.87921 1.6
      vertex -0.44957 1.87921 2.1
      vertex -0.533249 1.72488 1.6
    endloop
  endfacet
  facet normal 0.879093 -0.476651 0
    outer loop
      vertex -0.533249 1.72488 2.1
      vertex -0.533249 1.72488 1.6
      vertex -0.44957 1.87921 2.1
    endloop
  endfacet
  facet normal 0.736584 -0.676346 0
    outer loop
      vertex -0.349686 1.98799 1.6
      vertex -0.349686 1.98799 2.1
      vertex -0.44957 1.87921 1.6
    endloop
  endfacet
  facet normal 0.736584 -0.676346 0
    outer loop
      vertex -0.44957 1.87921 2.1
      vertex -0.44957 1.87921 1.6
      vertex -0.349686 1.98799 2.1
    endloop
  endfacet
  facet normal 0.533729 -0.845656 0
    outer loop
      vertex -0.23613 2.05966 1.6
      vertex -0.23613 2.05966 2.1
      vertex -0.349686 1.98799 1.6
    endloop
  endfacet
  facet normal 0.533729 -0.845656 0
    outer loop
      vertex -0.349686 1.98799 2.1
      vertex -0.349686 1.98799 1.6
      vertex -0.23613 2.05966 2.1
    endloop
  endfacet
  facet normal 0.329205 -0.944259 0
    outer loop
      vertex -0.112793 2.10266 1.6
      vertex -0.112793 2.10266 2.1
      vertex -0.23613 2.05966 1.6
    endloop
  endfacet
  facet normal 0.329205 -0.944259 0
    outer loop
      vertex -0.23613 2.05966 2.1
      vertex -0.23613 2.05966 1.6
      vertex -0.112793 2.10266 2.1
    endloop
  endfacet
  facet normal 0.107055 -0.994253 0
    outer loop
      vertex 0.0202942 2.11699 1.6
      vertex 0.0202942 2.11699 2.1
      vertex -0.112793 2.10266 1.6
    endloop
  endfacet
  facet normal 0.107055 -0.994253 0
    outer loop
      vertex -0.112793 2.10266 2.1
      vertex -0.112793 2.10266 1.6
      vertex 0.0202942 2.11699 2.1
    endloop
  endfacet
  facet normal -0.106862 -0.994274 0
    outer loop
      vertex 0.153625 2.10266 1.6
      vertex 0.153625 2.10266 2.1
      vertex 0.0202942 2.11699 1.6
    endloop
  endfacet
  facet normal -0.106862 -0.994274 -0
    outer loop
      vertex 0.0202942 2.11699 2.1
      vertex 0.0202942 2.11699 1.6
      vertex 0.153625 2.10266 2.1
    endloop
  endfacet
  facet normal -0.330809 -0.943698 0
    outer loop
      vertex 0.276291 2.05966 1.6
      vertex 0.276291 2.05966 2.1
      vertex 0.153625 2.10266 1.6
    endloop
  endfacet
  facet normal -0.330809 -0.943698 -0
    outer loop
      vertex 0.153625 2.10266 2.1
      vertex 0.153625 2.10266 1.6
      vertex 0.276291 2.05966 2.1
    endloop
  endfacet
  facet normal -0.539004 -0.842303 0
    outer loop
      vertex 0.38829 1.98799 1.6
      vertex 0.38829 1.98799 2.1
      vertex 0.276291 2.05966 1.6
    endloop
  endfacet
  facet normal -0.539004 -0.842303 -0
    outer loop
      vertex 0.276291 2.05966 2.1
      vertex 0.276291 2.05966 1.6
      vertex 0.38829 1.98799 2.1
    endloop
  endfacet
  facet normal -0.749055 -0.662507 0
    outer loop
      vertex 0.48941 1.87366 1.6
      vertex 0.48941 1.87366 2.1
      vertex 0.38829 1.98799 1.6
    endloop
  endfacet
  facet normal -0.749055 -0.662507 -0
    outer loop
      vertex 0.38829 1.98799 2.1
      vertex 0.38829 1.98799 1.6
      vertex 0.48941 1.87366 2.1
    endloop
  endfacet
  facet normal -0.887761 -0.460305 0
    outer loop
      vertex 0.578079 1.70265 1.6
      vertex 0.578079 1.70265 2.1
      vertex 0.48941 1.87366 1.6
    endloop
  endfacet
  facet normal -0.887761 -0.460305 -0
    outer loop
      vertex 0.48941 1.87366 2.1
      vertex 0.48941 1.87366 1.6
      vertex 0.578079 1.70265 2.1
    endloop
  endfacet
  facet normal -0.948268 -0.31747 0
    outer loop
      vertex 0.654297 1.47499 1.6
      vertex 0.654297 1.47499 2.1
      vertex 0.578079 1.70265 1.6
    endloop
  endfacet
  facet normal -0.948268 -0.31747 -0
    outer loop
      vertex 0.578079 1.70265 2.1
      vertex 0.578079 1.70265 1.6
      vertex 0.654297 1.47499 2.1
    endloop
  endfacet
  facet normal -0.984139 -0.177402 0
    outer loop
      vertex 0.713181 1.14833 1.6
      vertex 0.713181 1.14833 2.1
      vertex 0.654297 1.47499 1.6
    endloop
  endfacet
  facet normal -0.984139 -0.177402 -0
    outer loop
      vertex 0.654297 1.47499 2.1
      vertex 0.654297 1.47499 1.6
      vertex 0.713181 1.14833 2.1
    endloop
  endfacet
  facet normal -0.997177 -0.0750819 0
    outer loop
      vertex 0.74852 0.678986 1.6
      vertex 0.74852 0.678986 2.1
      vertex 0.713181 1.14833 1.6
    endloop
  endfacet
  facet normal -0.997177 -0.0750819 -0
    outer loop
      vertex 0.713181 1.14833 2.1
      vertex 0.713181 1.14833 1.6
      vertex 0.74852 0.678986 2.1
    endloop
  endfacet
  facet normal -0.999815 -0.0192448 0
    outer loop
      vertex 0.7603 0.0669861 1.6
      vertex 0.7603 0.0669861 2.1
      vertex 0.74852 0.678986 1.6
    endloop
  endfacet
  facet normal -0.999815 -0.0192448 -0
    outer loop
      vertex 0.74852 0.678986 2.1
      vertex 0.74852 0.678986 1.6
      vertex 0.7603 0.0669861 2.1
    endloop
  endfacet
  facet normal -0.999774 0.0212366 0
    outer loop
      vertex 0.747192 -0.55011 1.6
      vertex 0.747192 -0.55011 2.1
      vertex 0.7603 0.0669861 1.6
    endloop
  endfacet
  facet normal -0.999774 0.0212366 0
    outer loop
      vertex 0.7603 0.0669861 2.1
      vertex 0.7603 0.0669861 1.6
      vertex 0.747192 -0.55011 2.1
    endloop
  endfacet
  facet normal -0.996722 0.0808981 0
    outer loop
      vertex 0.707855 -1.03477 1.6
      vertex 0.707855 -1.03477 2.1
      vertex 0.747192 -0.55011 1.6
    endloop
  endfacet
  facet normal -0.996722 0.0808981 0
    outer loop
      vertex 0.747192 -0.55011 2.1
      vertex 0.747192 -0.55011 1.6
      vertex 0.707855 -1.03477 2.1
    endloop
  endfacet
  facet normal -0.983119 0.182969 0
    outer loop
      vertex 0.642303 -1.38699 1.6
      vertex 0.642303 -1.38699 2.1
      vertex 0.707855 -1.03477 1.6
    endloop
  endfacet
  facet normal -0.983119 0.182969 0
    outer loop
      vertex 0.707855 -1.03477 2.1
      vertex 0.707855 -1.03477 1.6
      vertex 0.642303 -1.38699 2.1
    endloop
  endfacet
  facet normal -0.947346 0.320213 0
    outer loop
      vertex 0.574738 -1.58688 1.6
      vertex 0.574738 -1.58688 2.1
      vertex 0.642303 -1.38699 1.6
    endloop
  endfacet
  facet normal -0.947346 0.320213 0
    outer loop
      vertex 0.642303 -1.38699 2.1
      vertex 0.642303 -1.38699 1.6
      vertex 0.574738 -1.58688 2.1
    endloop
  endfacet
  facet normal -0.878326 0.478062 0
    outer loop
      vertex 0.490738 -1.74121 1.6
      vertex 0.490738 -1.74121 2.1
      vertex 0.574738 -1.58688 1.6
    endloop
  endfacet
  facet normal -0.878326 0.478062 0
    outer loop
      vertex 0.574738 -1.58688 2.1
      vertex 0.574738 -1.58688 1.6
      vertex 0.490738 -1.74121 2.1
    endloop
  endfacet
  facet normal -0.734734 0.678356 0
    outer loop
      vertex 0.390305 -1.84999 1.6
      vertex 0.390305 -1.84999 2.1
      vertex 0.490738 -1.74121 1.6
    endloop
  endfacet
  facet normal -0.734734 0.678356 0
    outer loop
      vertex 0.490738 -1.74121 2.1
      vertex 0.490738 -1.74121 1.6
      vertex 0.390305 -1.84999 2.1
    endloop
  endfacet
  facet normal -0.535218 0.844714 0
    outer loop
      vertex 0.277191 -1.92166 1.6
      vertex 0.277191 -1.92166 2.1
      vertex 0.390305 -1.84999 1.6
    endloop
  endfacet
  facet normal -0.535218 0.844714 0
    outer loop
      vertex 0.390305 -1.84999 2.1
      vertex 0.390305 -1.84999 1.6
      vertex 0.277191 -1.92166 2.1
    endloop
  endfacet
  facet normal -0.329205 0.944259 0
    outer loop
      vertex 0.153854 -1.96466 1.6
      vertex 0.153854 -1.96466 2.1
      vertex 0.277191 -1.92166 1.6
    endloop
  endfacet
  facet normal -0.329205 0.944259 0
    outer loop
      vertex 0.277191 -1.92166 2.1
      vertex 0.277191 -1.92166 1.6
      vertex 0.153854 -1.96466 2.1
    endloop
  endfacet
  facet normal -0.10668 0.994293 0
    outer loop
      vertex 0.0202942 -1.97899 1.6
      vertex 0.0202942 -1.97899 2.1
      vertex 0.153854 -1.96466 1.6
    endloop
  endfacet
  facet normal -0.10668 0.994293 0
    outer loop
      vertex 0.153854 -1.96466 2.1
      vertex 0.153854 -1.96466 1.6
      vertex 0.0202942 -1.97899 2.1
    endloop
  endfacet
  facet normal 0.105672 0.994401 -0
    outer loop
      vertex -0.112579 -1.96487 1.6
      vertex -0.112579 -1.96487 2.1
      vertex 0.0202942 -1.97899 1.6
    endloop
  endfacet
  facet normal 0.105672 0.994401 0
    outer loop
      vertex 0.0202942 -1.97899 2.1
      vertex 0.0202942 -1.97899 1.6
      vertex -0.112579 -1.96487 2.1
    endloop
  endfacet
  facet normal 0.415386 -0.909645 0
    outer loop
      vertex 5.52969 -2.72922 1.6
      vertex 5.08002 -2.93456 2.1
      vertex 5.08002 -2.93456 1.6
    endloop
  endfacet
  facet normal 0.415386 -0.909645 0
    outer loop
      vertex 5.52969 -2.72922 1.6
      vertex 5.52969 -2.72922 2.1
      vertex 5.08002 -2.93456 2.1
    endloop
  endfacet
  facet normal 0.683996 -0.729485 0
    outer loop
      vertex 5.89468 -2.38699 1.6
      vertex 5.52969 -2.72922 2.1
      vertex 5.52969 -2.72922 1.6
    endloop
  endfacet
  facet normal 0.683996 -0.729485 0
    outer loop
      vertex 5.89468 -2.38699 1.6
      vertex 5.89468 -2.38699 2.1
      vertex 5.52969 -2.72922 2.1
    endloop
  endfacet
  facet normal 0.880831 -0.473432 0
    outer loop
      vertex 6.21968 -1.78232 1.6
      vertex 5.89468 -2.38699 2.1
      vertex 5.89468 -2.38699 1.6
    endloop
  endfacet
  facet normal 0.880831 -0.473432 0
    outer loop
      vertex 6.21968 -1.78232 1.6
      vertex 6.21968 -1.78232 2.1
      vertex 5.89468 -2.38699 2.1
    endloop
  endfacet
  facet normal 0.972739 -0.231901 0
    outer loop
      vertex 6.41469 -0.964325 1.6
      vertex 6.21968 -1.78232 2.1
      vertex 6.21968 -1.78232 1.6
    endloop
  endfacet
  facet normal 0.972739 -0.231901 0
    outer loop
      vertex 6.41469 -0.964325 1.6
      vertex 6.41469 -0.964325 2.1
      vertex 6.21968 -1.78232 2.1
    endloop
  endfacet
  facet normal 0.99802 -0.0629018 0
    outer loop
      vertex 6.47969 0.0669861 1.6
      vertex 6.41469 -0.964325 2.1
      vertex 6.41469 -0.964325 1.6
    endloop
  endfacet
  facet normal 0.99802 -0.0629018 0
    outer loop
      vertex 6.47969 0.0669861 1.6
      vertex 6.47969 0.0669861 2.1
      vertex 6.41469 -0.964325 2.1
    endloop
  endfacet
  facet normal 0.998052 0.0623955 0
    outer loop
      vertex 6.41513 1.09966 1.6
      vertex 6.47969 0.0669861 2.1
      vertex 6.47969 0.0669861 1.6
    endloop
  endfacet
  facet normal 0.998052 0.0623955 -0
    outer loop
      vertex 6.41513 1.09966 1.6
      vertex 6.41513 1.09966 2.1
      vertex 6.47969 0.0669861 2.1
    endloop
  endfacet
  facet normal 0.973016 0.230738 0
    outer loop
      vertex 6.22147 1.91632 1.6
      vertex 6.41513 1.09966 2.1
      vertex 6.41513 1.09966 1.6
    endloop
  endfacet
  facet normal 0.973016 0.230738 -0
    outer loop
      vertex 6.22147 1.91632 1.6
      vertex 6.22147 1.91632 2.1
      vertex 6.41513 1.09966 2.1
    endloop
  endfacet
  facet normal 0.880871 0.473357 0
    outer loop
      vertex 5.89868 2.517 1.6
      vertex 6.22147 1.91632 2.1
      vertex 6.22147 1.91632 1.6
    endloop
  endfacet
  facet normal 0.880871 0.473357 -0
    outer loop
      vertex 5.89868 2.517 1.6
      vertex 5.89868 2.517 2.1
      vertex 6.22147 1.91632 2.1
    endloop
  endfacet
  facet normal 0.686457 0.72717 0
    outer loop
      vertex 5.53146 2.86366 1.6
      vertex 5.89868 2.517 2.1
      vertex 5.89868 2.517 1.6
    endloop
  endfacet
  facet normal 0.686457 0.72717 -0
    outer loop
      vertex 5.53146 2.86366 1.6
      vertex 5.53146 2.86366 2.1
      vertex 5.89868 2.517 2.1
    endloop
  endfacet
  facet normal 0.418803 0.908077 0
    outer loop
      vertex 5.08046 3.07166 1.6
      vertex 5.53146 2.86366 2.1
      vertex 5.53146 2.86366 1.6
    endloop
  endfacet
  facet normal 0.418803 0.908077 -0
    outer loop
      vertex 5.08046 3.07166 1.6
      vertex 5.08046 3.07166 2.1
      vertex 5.53146 2.86366 2.1
    endloop
  endfacet
  facet normal 0.128566 0.991701 0
    outer loop
      vertex 4.54568 3.14099 1.6
      vertex 5.08046 3.07166 2.1
      vertex 5.08046 3.07166 1.6
    endloop
  endfacet
  facet normal 0.128566 0.991701 -0
    outer loop
      vertex 4.54568 3.14099 1.6
      vertex 4.54568 3.14099 2.1
      vertex 5.08046 3.07166 2.1
    endloop
  endfacet
  facet normal -0.127029 0.991899 0
    outer loop
      vertex 4.01135 3.07256 1.6
      vertex 4.54568 3.14099 2.1
      vertex 4.54568 3.14099 1.6
    endloop
  endfacet
  facet normal -0.127029 0.991899 0
    outer loop
      vertex 4.01135 3.07256 1.6
      vertex 4.01135 3.07256 2.1
      vertex 4.54568 3.14099 2.1
    endloop
  endfacet
  facet normal -0.415394 0.909642 0
    outer loop
      vertex 3.56169 2.86722 1.6
      vertex 4.01135 3.07256 2.1
      vertex 4.01135 3.07256 1.6
    endloop
  endfacet
  facet normal -0.415394 0.909642 0
    outer loop
      vertex 3.56169 2.86722 1.6
      vertex 3.56169 2.86722 2.1
      vertex 4.01135 3.07256 2.1
    endloop
  endfacet
  facet normal -0.683986 0.729495 0
    outer loop
      vertex 3.19669 2.52499 1.6
      vertex 3.56169 2.86722 2.1
      vertex 3.56169 2.86722 1.6
    endloop
  endfacet
  facet normal -0.683986 0.729495 0
    outer loop
      vertex 3.19669 2.52499 1.6
      vertex 3.19669 2.52499 2.1
      vertex 3.56169 2.86722 2.1
    endloop
  endfacet
  facet normal -0.880536 0.473979 0
    outer loop
      vertex 2.87169 1.92122 1.6
      vertex 3.19669 2.52499 2.1
      vertex 3.19669 2.52499 1.6
    endloop
  endfacet
  facet normal -0.880536 0.473979 0
    outer loop
      vertex 2.87169 1.92122 1.6
      vertex 2.87169 1.92122 2.1
      vertex 3.19669 2.52499 2.1
    endloop
  endfacet
  facet normal -0.972569 0.232615 0
    outer loop
      vertex 2.67668 1.10588 1.6
      vertex 2.87169 1.92122 2.1
      vertex 2.87169 1.92122 1.6
    endloop
  endfacet
  facet normal -0.972569 0.232615 0
    outer loop
      vertex 2.67668 1.10588 1.6
      vertex 2.67668 1.10588 2.1
      vertex 2.87169 1.92122 2.1
    endloop
  endfacet
  facet normal -0.998003 0.0631621 0
    outer loop
      vertex 2.61169 0.0789948 1.6
      vertex 2.67668 1.10588 2.1
      vertex 2.67668 1.10588 1.6
    endloop
  endfacet
  facet normal -0.998003 0.0631621 0
    outer loop
      vertex 2.61169 0.0789948 1.6
      vertex 2.61169 0.0789948 2.1
      vertex 2.67668 1.10588 2.1
    endloop
  endfacet
  facet normal -0.998381 -0.0568872 0
    outer loop
      vertex 2.67079 -0.958221 1.6
      vertex 2.61169 0.0789948 2.1
      vertex 2.61169 0.0789948 1.6
    endloop
  endfacet
  facet normal -0.998381 -0.0568872 0
    outer loop
      vertex 2.67079 -0.958221 1.6
      vertex 2.67079 -0.958221 2.1
      vertex 2.61169 0.0789948 2.1
    endloop
  endfacet
  facet normal -0.976432 -0.215825 0
    outer loop
      vertex 2.84813 -1.76054 1.6
      vertex 2.67079 -0.958221 2.1
      vertex 2.67079 -0.958221 1.6
    endloop
  endfacet
  facet normal -0.976432 -0.215825 0
    outer loop
      vertex 2.84813 -1.76054 1.6
      vertex 2.84813 -1.76054 2.1
      vertex 2.67079 -0.958221 2.1
    endloop
  endfacet
  facet normal -0.886906 -0.461951 0
    outer loop
      vertex 3.14369 -2.32799 1.6
      vertex 2.84813 -1.76054 2.1
      vertex 2.84813 -1.76054 1.6
    endloop
  endfacet
  facet normal -0.886906 -0.461951 0
    outer loop
      vertex 3.14369 -2.32799 1.6
      vertex 3.14369 -2.32799 2.1
      vertex 2.84813 -1.76054 2.1
    endloop
  endfacet
  facet normal -0.690648 -0.723191 0
    outer loop
      vertex 3.53636 -2.70299 1.6
      vertex 3.14369 -2.32799 2.1
      vertex 3.14369 -2.32799 1.6
    endloop
  endfacet
  facet normal -0.690648 -0.723191 0
    outer loop
      vertex 3.53636 -2.70299 1.6
      vertex 3.53636 -2.70299 2.1
      vertex 3.14369 -2.32799 2.1
    endloop
  endfacet
  facet normal -0.433799 -0.90101 0
    outer loop
      vertex 4.00369 -2.92799 1.6
      vertex 3.53636 -2.70299 2.1
      vertex 3.53636 -2.70299 1.6
    endloop
  endfacet
  facet normal -0.433799 -0.90101 0
    outer loop
      vertex 4.00369 -2.92799 1.6
      vertex 4.00369 -2.92799 2.1
      vertex 3.53636 -2.70299 2.1
    endloop
  endfacet
  facet normal -0.137073 -0.990561 0
    outer loop
      vertex 4.54568 -3.00299 1.6
      vertex 4.00369 -2.92799 2.1
      vertex 4.00369 -2.92799 1.6
    endloop
  endfacet
  facet normal -0.137073 -0.990561 0
    outer loop
      vertex 4.54568 -3.00299 1.6
      vertex 4.54568 -3.00299 2.1
      vertex 4.00369 -2.92799 2.1
    endloop
  endfacet
  facet normal 0.127027 -0.991899 0
    outer loop
      vertex 5.08002 -2.93456 1.6
      vertex 4.54568 -3.00299 2.1
      vertex 4.54568 -3.00299 1.6
    endloop
  endfacet
  facet normal 0.127027 -0.991899 0
    outer loop
      vertex 5.08002 -2.93456 1.6
      vertex 5.08002 -2.93456 2.1
      vertex 4.54568 -3.00299 2.1
    endloop
  endfacet
  facet normal 0.326128 0.945325 -0
    outer loop
      vertex 4.29013 -1.92255 1.6
      vertex 4.29013 -1.92255 2.1
      vertex 4.4128 -1.96487 1.6
    endloop
  endfacet
  facet normal 0.326128 0.945325 0
    outer loop
      vertex 4.4128 -1.96487 2.1
      vertex 4.4128 -1.96487 1.6
      vertex 4.29013 -1.92255 2.1
    endloop
  endfacet
  facet normal 0.531542 0.847032 -0
    outer loop
      vertex 4.17769 -1.85199 1.6
      vertex 4.17769 -1.85199 2.1
      vertex 4.29013 -1.92255 1.6
    endloop
  endfacet
  facet normal 0.531542 0.847032 0
    outer loop
      vertex 4.29013 -1.92255 2.1
      vertex 4.29013 -1.92255 1.6
      vertex 4.17769 -1.85199 2.1
    endloop
  endfacet
  facet normal 0.747023 0.664798 -0
    outer loop
      vertex 4.07703 -1.73888 1.6
      vertex 4.07703 -1.73888 2.1
      vertex 4.17769 -1.85199 1.6
    endloop
  endfacet
  facet normal 0.747023 0.664798 0
    outer loop
      vertex 4.17769 -1.85199 2.1
      vertex 4.17769 -1.85199 1.6
      vertex 4.07703 -1.73888 2.1
    endloop
  endfacet
  facet normal 0.88664 0.462461 -0
    outer loop
      vertex 3.98836 -1.56888 1.6
      vertex 3.98836 -1.56888 2.1
      vertex 4.07703 -1.73888 1.6
    endloop
  endfacet
  facet normal 0.88664 0.462461 0
    outer loop
      vertex 4.07703 -1.73888 2.1
      vertex 4.07703 -1.73888 1.6
      vertex 3.98836 -1.56888 2.1
    endloop
  endfacet
  facet normal 0.947356 0.320183 -0
    outer loop
      vertex 3.91168 -1.342 1.6
      vertex 3.91168 -1.342 2.1
      vertex 3.98836 -1.56888 1.6
    endloop
  endfacet
  facet normal 0.947356 0.320183 0
    outer loop
      vertex 3.98836 -1.56888 2.1
      vertex 3.98836 -1.56888 1.6
      vertex 3.91168 -1.342 2.1
    endloop
  endfacet
  facet normal 0.984482 0.175488 -0
    outer loop
      vertex 3.85335 -1.01477 1.6
      vertex 3.85335 -1.01477 2.1
      vertex 3.91168 -1.342 1.6
    endloop
  endfacet
  facet normal 0.984482 0.175488 0
    outer loop
      vertex 3.91168 -1.342 2.1
      vertex 3.91168 -1.342 1.6
      vertex 3.85335 -1.01477 2.1
    endloop
  endfacet
  facet normal 0.997236 0.074294 -0
    outer loop
      vertex 3.81836 -0.545105 1.6
      vertex 3.81836 -0.545105 2.1
      vertex 3.85335 -1.01477 1.6
    endloop
  endfacet
  facet normal 0.997236 0.074294 0
    outer loop
      vertex 3.85335 -1.01477 2.1
      vertex 3.85335 -1.01477 1.6
      vertex 3.81836 -0.545105 2.1
    endloop
  endfacet
  facet normal 0.999818 0.0190623 -0
    outer loop
      vertex 3.80669 0.0669861 1.6
      vertex 3.80669 0.0669861 2.1
      vertex 3.81836 -0.545105 1.6
    endloop
  endfacet
  facet normal 0.999818 0.0190623 0
    outer loop
      vertex 3.81836 -0.545105 2.1
      vertex 3.81836 -0.545105 1.6
      vertex 3.80669 0.0669861 2.1
    endloop
  endfacet
  facet normal 0.999775 -0.0212074 0
    outer loop
      vertex 3.81979 0.684555 1.6
      vertex 3.81979 0.684555 2.1
      vertex 3.80669 0.0669861 1.6
    endloop
  endfacet
  facet normal 0.999775 -0.0212074 0
    outer loop
      vertex 3.80669 0.0669861 2.1
      vertex 3.80669 0.0669861 1.6
      vertex 3.81979 0.684555 2.1
    endloop
  endfacet
  facet normal 0.99674 -0.0806834 0
    outer loop
      vertex 3.85913 1.17055 1.6
      vertex 3.85913 1.17055 2.1
      vertex 3.81979 0.684555 1.6
    endloop
  endfacet
  facet normal 0.99674 -0.0806834 0
    outer loop
      vertex 3.81979 0.684555 2.1
      vertex 3.81979 0.684555 1.6
      vertex 3.85913 1.17055 2.1
    endloop
  endfacet
  facet normal 0.983325 -0.181856 0
    outer loop
      vertex 3.92468 1.52499 1.6
      vertex 3.92468 1.52499 2.1
      vertex 3.85913 1.17055 1.6
    endloop
  endfacet
  facet normal 0.983325 -0.181856 0
    outer loop
      vertex 3.85913 1.17055 2.1
      vertex 3.85913 1.17055 1.6
      vertex 3.92468 1.52499 2.1
    endloop
  endfacet
  facet normal 0.947511 -0.319724 0
    outer loop
      vertex 3.99213 1.72488 1.6
      vertex 3.99213 1.72488 2.1
      vertex 3.92468 1.52499 1.6
    endloop
  endfacet
  facet normal 0.947511 -0.319724 0
    outer loop
      vertex 3.92468 1.52499 2.1
      vertex 3.92468 1.52499 1.6
      vertex 3.99213 1.72488 2.1
    endloop
  endfacet
  facet normal 0.87909 -0.476656 0
    outer loop
      vertex 4.07581 1.87921 1.6
      vertex 4.07581 1.87921 2.1
      vertex 3.99213 1.72488 1.6
    endloop
  endfacet
  facet normal 0.87909 -0.476656 0
    outer loop
      vertex 3.99213 1.72488 2.1
      vertex 3.99213 1.72488 1.6
      vertex 4.07581 1.87921 2.1
    endloop
  endfacet
  facet normal 0.736597 -0.676332 0
    outer loop
      vertex 4.17569 1.98799 1.6
      vertex 4.17569 1.98799 2.1
      vertex 4.07581 1.87921 1.6
    endloop
  endfacet
  facet normal 0.736597 -0.676332 0
    outer loop
      vertex 4.07581 1.87921 2.1
      vertex 4.07581 1.87921 1.6
      vertex 4.17569 1.98799 2.1
    endloop
  endfacet
  facet normal 0.533716 -0.845664 0
    outer loop
      vertex 4.28925 2.05966 1.6
      vertex 4.28925 2.05966 2.1
      vertex 4.17569 1.98799 1.6
    endloop
  endfacet
  facet normal 0.533716 -0.845664 0
    outer loop
      vertex 4.17569 1.98799 2.1
      vertex 4.17569 1.98799 1.6
      vertex 4.28925 2.05966 2.1
    endloop
  endfacet
  facet normal 0.329221 -0.944253 0
    outer loop
      vertex 4.41258 2.10266 1.6
      vertex 4.41258 2.10266 2.1
      vertex 4.28925 2.05966 1.6
    endloop
  endfacet
  facet normal 0.329221 -0.944253 0
    outer loop
      vertex 4.28925 2.05966 2.1
      vertex 4.28925 2.05966 1.6
      vertex 4.41258 2.10266 2.1
    endloop
  endfacet
  facet normal 0.107045 -0.994254 0
    outer loop
      vertex 4.54568 2.11699 1.6
      vertex 4.54568 2.11699 2.1
      vertex 4.41258 2.10266 1.6
    endloop
  endfacet
  facet normal 0.107045 -0.994254 0
    outer loop
      vertex 4.41258 2.10266 2.1
      vertex 4.41258 2.10266 1.6
      vertex 4.54568 2.11699 2.1
    endloop
  endfacet
  facet normal -0.106854 -0.994275 0
    outer loop
      vertex 4.67902 2.10266 1.6
      vertex 4.67902 2.10266 2.1
      vertex 4.54568 2.11699 1.6
    endloop
  endfacet
  facet normal -0.106854 -0.994275 -0
    outer loop
      vertex 4.54568 2.11699 2.1
      vertex 4.54568 2.11699 1.6
      vertex 4.67902 2.10266 2.1
    endloop
  endfacet
  facet normal -0.330823 -0.943693 0
    outer loop
      vertex 4.80168 2.05966 1.6
      vertex 4.80168 2.05966 2.1
      vertex 4.67902 2.10266 1.6
    endloop
  endfacet
  facet normal -0.330823 -0.943693 -0
    outer loop
      vertex 4.67902 2.10266 2.1
      vertex 4.67902 2.10266 1.6
      vertex 4.80168 2.05966 2.1
    endloop
  endfacet
  facet normal -0.539 -0.842306 0
    outer loop
      vertex 4.91368 1.98799 1.6
      vertex 4.91368 1.98799 2.1
      vertex 4.80168 2.05966 1.6
    endloop
  endfacet
  facet normal -0.539 -0.842306 -0
    outer loop
      vertex 4.80168 2.05966 2.1
      vertex 4.80168 2.05966 1.6
      vertex 4.91368 1.98799 2.1
    endloop
  endfacet
  facet normal -0.749055 -0.662507 0
    outer loop
      vertex 5.0148 1.87366 1.6
      vertex 5.0148 1.87366 2.1
      vertex 4.91368 1.98799 1.6
    endloop
  endfacet
  facet normal -0.749055 -0.662507 -0
    outer loop
      vertex 4.91368 1.98799 2.1
      vertex 4.91368 1.98799 1.6
      vertex 5.0148 1.87366 2.1
    endloop
  endfacet
  facet normal -0.887758 -0.46031 0
    outer loop
      vertex 5.10347 1.70265 1.6
      vertex 5.10347 1.70265 2.1
      vertex 5.0148 1.87366 1.6
    endloop
  endfacet
  facet normal -0.887758 -0.46031 -0
    outer loop
      vertex 5.0148 1.87366 2.1
      vertex 5.0148 1.87366 1.6
      vertex 5.10347 1.70265 2.1
    endloop
  endfacet
  facet normal -0.948266 -0.317477 0
    outer loop
      vertex 5.17969 1.47499 1.6
      vertex 5.17969 1.47499 2.1
      vertex 5.10347 1.70265 1.6
    endloop
  endfacet
  facet normal -0.948266 -0.317477 -0
    outer loop
      vertex 5.10347 1.70265 2.1
      vertex 5.10347 1.70265 1.6
      vertex 5.17969 1.47499 2.1
    endloop
  endfacet
  facet normal -0.984141 -0.17739 0
    outer loop
      vertex 5.23857 1.14833 1.6
      vertex 5.23857 1.14833 2.1
      vertex 5.17969 1.47499 1.6
    endloop
  endfacet
  facet normal -0.984141 -0.17739 -0
    outer loop
      vertex 5.17969 1.47499 2.1
      vertex 5.17969 1.47499 1.6
      vertex 5.23857 1.14833 2.1
    endloop
  endfacet
  facet normal -0.997177 -0.075084 0
    outer loop
      vertex 5.27391 0.678986 1.6
      vertex 5.27391 0.678986 2.1
      vertex 5.23857 1.14833 1.6
    endloop
  endfacet
  facet normal -0.997177 -0.075084 -0
    outer loop
      vertex 5.23857 1.14833 2.1
      vertex 5.23857 1.14833 1.6
      vertex 5.27391 0.678986 2.1
    endloop
  endfacet
  facet normal -0.999815 -0.0192448 0
    outer loop
      vertex 5.28569 0.0669861 1.6
      vertex 5.28569 0.0669861 2.1
      vertex 5.27391 0.678986 1.6
    endloop
  endfacet
  facet normal -0.999815 -0.0192448 -0
    outer loop
      vertex 5.27391 0.678986 2.1
      vertex 5.27391 0.678986 1.6
      vertex 5.28569 0.0669861 2.1
    endloop
  endfacet
  facet normal -0.999774 0.0212399 0
    outer loop
      vertex 5.27258 -0.55011 1.6
      vertex 5.27258 -0.55011 2.1
      vertex 5.28569 0.0669861 1.6
    endloop
  endfacet
  facet normal -0.999774 0.0212399 0
    outer loop
      vertex 5.28569 0.0669861 2.1
      vertex 5.28569 0.0669861 1.6
      vertex 5.27258 -0.55011 2.1
    endloop
  endfacet
  facet normal -0.996724 0.0808838 0
    outer loop
      vertex 5.23325 -1.03477 1.6
      vertex 5.23325 -1.03477 2.1
      vertex 5.27258 -0.55011 1.6
    endloop
  endfacet
  facet normal -0.996724 0.0808838 0
    outer loop
      vertex 5.27258 -0.55011 2.1
      vertex 5.27258 -0.55011 1.6
      vertex 5.23325 -1.03477 2.1
    endloop
  endfacet
  facet normal -0.983115 0.182991 0
    outer loop
      vertex 5.16769 -1.38699 1.6
      vertex 5.16769 -1.38699 2.1
      vertex 5.23325 -1.03477 1.6
    endloop
  endfacet
  facet normal -0.983115 0.182991 0
    outer loop
      vertex 5.23325 -1.03477 2.1
      vertex 5.23325 -1.03477 1.6
      vertex 5.16769 -1.38699 2.1
    endloop
  endfacet
  facet normal -0.947353 0.320192 0
    outer loop
      vertex 5.10013 -1.58688 1.6
      vertex 5.10013 -1.58688 2.1
      vertex 5.16769 -1.38699 1.6
    endloop
  endfacet
  facet normal -0.947353 0.320192 0
    outer loop
      vertex 5.16769 -1.38699 2.1
      vertex 5.16769 -1.38699 1.6
      vertex 5.10013 -1.58688 2.1
    endloop
  endfacet
  facet normal -0.878326 0.478062 0
    outer loop
      vertex 5.01613 -1.74121 1.6
      vertex 5.01613 -1.74121 2.1
      vertex 5.10013 -1.58688 1.6
    endloop
  endfacet
  facet normal -0.878326 0.478062 0
    outer loop
      vertex 5.10013 -1.58688 2.1
      vertex 5.10013 -1.58688 1.6
      vertex 5.01613 -1.74121 2.1
    endloop
  endfacet
  facet normal -0.734744 0.678345 0
    outer loop
      vertex 4.9157 -1.84999 1.6
      vertex 4.9157 -1.84999 2.1
      vertex 5.01613 -1.74121 1.6
    endloop
  endfacet
  facet normal -0.734744 0.678345 0
    outer loop
      vertex 5.01613 -1.74121 2.1
      vertex 5.01613 -1.74121 1.6
      vertex 4.9157 -1.84999 2.1
    endloop
  endfacet
  facet normal -0.535198 0.844727 0
    outer loop
      vertex 4.80258 -1.92166 1.6
      vertex 4.80258 -1.92166 2.1
      vertex 4.9157 -1.84999 1.6
    endloop
  endfacet
  facet normal -0.535198 0.844727 0
    outer loop
      vertex 4.9157 -1.84999 2.1
      vertex 4.9157 -1.84999 1.6
      vertex 4.80258 -1.92166 2.1
    endloop
  endfacet
  facet normal -0.329198 0.944261 0
    outer loop
      vertex 4.67924 -1.96466 1.6
      vertex 4.67924 -1.96466 2.1
      vertex 4.80258 -1.92166 1.6
    endloop
  endfacet
  facet normal -0.329198 0.944261 0
    outer loop
      vertex 4.80258 -1.92166 2.1
      vertex 4.80258 -1.92166 1.6
      vertex 4.67924 -1.96466 2.1
    endloop
  endfacet
  facet normal -0.10668 0.994293 0
    outer loop
      vertex 4.54568 -1.97899 1.6
      vertex 4.54568 -1.97899 2.1
      vertex 4.67924 -1.96466 1.6
    endloop
  endfacet
  facet normal -0.10668 0.994293 0
    outer loop
      vertex 4.67924 -1.96466 2.1
      vertex 4.67924 -1.96466 1.6
      vertex 4.54568 -1.97899 2.1
    endloop
  endfacet
  facet normal 0.105666 0.994402 -0
    outer loop
      vertex 4.4128 -1.96487 1.6
      vertex 4.4128 -1.96487 2.1
      vertex 4.54568 -1.97899 1.6
    endloop
  endfacet
  facet normal 0.105666 0.994402 0
    outer loop
      vertex 4.54568 -1.97899 2.1
      vertex 4.54568 -1.97899 1.6
      vertex 4.4128 -1.96487 2.1
    endloop
  endfacet
endsolid OpenSCAD_Model
