solid OpenSCAD_Model
  facet normal 0 -0 -1
    outer loop
      vertex -2.89117 4.15625 1.6
      vertex -1.65117 4.15625 1.6
      vertex -3.04924 3.79781 1.6
    endloop
  endfacet
  facet normal 0 0 -1
    outer loop
      vertex -3.85417 2.86124 1.6
      vertex -3.53073 3.1503 1.6
      vertex -3.17917 1.87624 1.6
    endloop
  endfacet
  facet normal 0 0 -1
    outer loop
      vertex -1.65117 4.15625 1.6
      vertex -3.26242 3.46249 1.6
      vertex -3.04924 3.79781 1.6
    endloop
  endfacet
  facet normal 0 0 -1
    outer loop
      vertex -4.19824 2.60643 1.6
      vertex -3.17917 1.87624 1.6
      vertex -3.61642 1.50462 1.6
    endloop
  endfacet
  facet normal 0 0 -1
    outer loop
      vertex -4.52942 2.396 1.6
      vertex -4.19824 2.60643 1.6
      vertex -3.61642 1.50462 1.6
    endloop
  endfacet
  facet normal 0 0 -1
    outer loop
      vertex -4.84773 2.22993 1.6
      vertex -4.52942 2.396 1.6
      vertex -4.09117 1.18474 1.6
    endloop
  endfacet
  facet normal 0 0 -1
    outer loop
      vertex -4.60342 0.916611 1.6
      vertex -4.84773 2.22993 1.6
      vertex -4.09117 1.18474 1.6
    endloop
  endfacet
  facet normal 0 0 -1
    outer loop
      vertex -4.60342 0.916611 1.6
      vertex -5.15317 2.10825 1.6
      vertex -4.84773 2.22993 1.6
    endloop
  endfacet
  facet normal -0 0 -1
    outer loop
      vertex -4.60342 0.916611 1.6
      vertex -5.15317 0.700241 1.6
      vertex -5.15317 2.10825 1.6
    endloop
  endfacet
  facet normal 0 -0 -1
    outer loop
      vertex -1.65117 4.15625 1.6
      vertex -1.65117 -3.84375 1.6
      vertex -3.17917 1.87624 1.6
    endloop
  endfacet
  facet normal 0 0 -1
    outer loop
      vertex -4.09117 1.18474 1.6
      vertex -4.52942 2.396 1.6
      vertex -3.61642 1.50462 1.6
    endloop
  endfacet
  facet normal 0 0 -1
    outer loop
      vertex -4.19824 2.60643 1.6
      vertex -3.85417 2.86124 1.6
      vertex -3.17917 1.87624 1.6
    endloop
  endfacet
  facet normal 0 0 -1
    outer loop
      vertex -3.17917 1.87624 1.6
      vertex -3.53073 3.1503 1.6
      vertex -3.26242 3.46249 1.6
    endloop
  endfacet
  facet normal 0 0 -1
    outer loop
      vertex 2.45818 2.59531 1.6
      vertex 1.60643 3.69836 1.6
      vertex 2.56099 2.70024 1.6
    endloop
  endfacet
  facet normal 0 0 -1
    outer loop
      vertex -1.65117 4.15625 1.6
      vertex -3.17917 1.87624 1.6
      vertex -3.26242 3.46249 1.6
    endloop
  endfacet
  facet normal 0 0 -1
    outer loop
      vertex -1.65117 -3.84375 1.6
      vertex -3.17917 -3.84375 1.6
      vertex -3.17917 1.87624 1.6
    endloop
  endfacet
  facet normal 0 0 -1
    outer loop
      vertex 3.74425 -2.27124 1.6
      vertex 3.82231 -2.09637 1.6
      vertex 5.20355 -2.58392 1.6
    endloop
  endfacet
  facet normal 0 0 -1
    outer loop
      vertex 4.86099 -3.15775 1.6
      vertex 3.65381 -2.41136 1.6
      vertex 3.74425 -2.27124 1.6
    endloop
  endfacet
  facet normal 0 0 -1
    outer loop
      vertex 5.44824 -1.85149 1.6
      vertex 5.20355 -2.58392 1.6
      vertex 3.88799 -1.88675 1.6
    endloop
  endfacet
  facet normal 0 0 -1
    outer loop
      vertex 3.43831 -2.59331 1.6
      vertex 3.55099 -2.51674 1.6
      vertex 4.08624 -3.76825 1.6
    endloop
  endfacet
  facet normal -0 0 -1
    outer loop
      vertex 2.36725 -2.25874 1.6
      vertex 1.17999 -3.07874 1.6
      vertex 2.28256 -2.06349 1.6
    endloop
  endfacet
  facet normal 0 0 -1
    outer loop
      vertex 2.1055 1.28174 1.6
      vertex 2.07587 0.73587 1.6
      vertex 0.516937 1.15112 1.6
    endloop
  endfacet
  facet normal 0 0 -1
    outer loop
      vertex 0.516937 1.15112 1.6
      vertex 0.663742 2.03874 1.6
      vertex 2.1055 1.28174 1.6
    endloop
  endfacet
  facet normal 0 0 -1
    outer loop
      vertex 2.15486 1.72687 1.6
      vertex 0.663742 2.03874 1.6
      vertex 2.224 2.07124 1.6
    endloop
  endfacet
  facet normal 0 0 -1
    outer loop
      vertex 3.19061 2.86525 1.6
      vertex 3.60342 4.10468 1.6
      vertex 3.31749 2.83224 1.6
    endloop
  endfacet
  facet normal 0 0 -1
    outer loop
      vertex 2.92117 2.86525 1.6
      vertex 3.056 4.15625 1.6
      vertex 3.056 2.87624 1.6
    endloop
  endfacet
  facet normal 0 0 -1
    outer loop
      vertex 2.67368 2.77724 1.6
      vertex 2.02574 3.95274 1.6
      vertex 2.79375 2.83224 1.6
    endloop
  endfacet
  facet normal -0 0 -1
    outer loop
      vertex 2.224 2.07124 1.6
      vertex 0.663742 2.03874 1.6
      vertex 0.908432 2.76912 1.6
    endloop
  endfacet
  facet normal 0 0 -1
    outer loop
      vertex 0.908432 2.76912 1.6
      vertex 1.25099 3.34224 1.6
      vertex 2.36774 2.45549 1.6
    endloop
  endfacet
  facet normal -0 0 -1
    outer loop
      vertex 2.07587 0.73587 1.6
      vertex 0.467987 0.106247 1.6
      vertex 0.516937 1.15112 1.6
    endloop
  endfacet
  facet normal -0 -0 -1
    outer loop
      vertex 2.06599 0.0892487 1.6
      vertex 2.0748 -0.55275 1.6
      vertex 0.467987 0.106247 1.6
    endloop
  endfacet
  facet normal 0 0 -1
    outer loop
      vertex 2.07587 0.73587 1.6
      vertex 2.06599 0.0892487 1.6
      vertex 0.467987 0.106247 1.6
    endloop
  endfacet
  facet normal 0 0 -1
    outer loop
      vertex 0.512497 -0.952301 1.6
      vertex 2.10124 -1.08574 1.6
      vertex 0.645996 -1.836 1.6
    endloop
  endfacet
  facet normal 0 0 -1
    outer loop
      vertex 5.644 0.0892487 1.6
      vertex 4.03712 0.731674 1.6
      vertex 5.59543 1.14087 1.6
    endloop
  endfacet
  facet normal 0 0 -1
    outer loop
      vertex 5.59506 -0.960434 1.6
      vertex 4.03612 -0.55661 1.6
      vertex 5.644 0.0892487 1.6
    endloop
  endfacet
  facet normal -0 0 -1
    outer loop
      vertex 2.564 -2.51874 1.6
      vertex 1.56424 -3.46944 1.6
      vertex 2.46106 -2.41049 1.6
    endloop
  endfacet
  facet normal 0 0 -1
    outer loop
      vertex 2.50224 -3.91592 1.6
      vertex 2.00499 -3.74849 1.6
      vertex 2.67537 -2.59444 1.6
    endloop
  endfacet
  facet normal -0 0 -1
    outer loop
      vertex 2.79449 -2.6485 1.6
      vertex 2.50224 -3.91592 1.6
      vertex 2.67537 -2.59444 1.6
    endloop
  endfacet
  facet normal 0 -0 -1
    outer loop
      vertex 2.79449 -2.6485 1.6
      vertex 2.92137 -2.68092 1.6
      vertex 2.50224 -3.91592 1.6
    endloop
  endfacet
  facet normal 0 0 -1
    outer loop
      vertex 2.50224 -3.91592 1.6
      vertex 2.92137 -2.68092 1.6
      vertex 3.056 -3.97174 1.6
    endloop
  endfacet
  facet normal 0 0 -1
    outer loop
      vertex 3.056 -3.97174 1.6
      vertex 2.92137 -2.68092 1.6
      vertex 3.056 -2.69174 1.6
    endloop
  endfacet
  facet normal 0 0 -1
    outer loop
      vertex 3.056 -3.97174 1.6
      vertex 3.19081 -2.6808 1.6
      vertex 3.60306 -3.92087 1.6
    endloop
  endfacet
  facet normal 0 0 -1
    outer loop
      vertex 5.59506 -0.960434 1.6
      vertex 5.44824 -1.85149 1.6
      vertex 4.00648 -1.10124 1.6
    endloop
  endfacet
  facet normal 0 0 -1
    outer loop
      vertex 2.00499 -3.74849 1.6
      vertex 2.564 -2.51874 1.6
      vertex 2.67537 -2.59444 1.6
    endloop
  endfacet
  facet normal -0 0 -1
    outer loop
      vertex 5.59506 -0.960434 1.6
      vertex 4.00648 -1.10124 1.6
      vertex 4.03612 -0.55661 1.6
    endloop
  endfacet
  facet normal 0 0 -1
    outer loop
      vertex 2.00499 -3.74849 1.6
      vertex 1.56424 -3.46944 1.6
      vertex 2.564 -2.51874 1.6
    endloop
  endfacet
  facet normal 0 0 -1
    outer loop
      vertex 1.56424 -3.46944 1.6
      vertex 1.17999 -3.07874 1.6
      vertex 2.46106 -2.41049 1.6
    endloop
  endfacet
  facet normal -0 0 -1
    outer loop
      vertex 2.46106 -2.41049 1.6
      vertex 1.17999 -3.07874 1.6
      vertex 2.36725 -2.25874 1.6
    endloop
  endfacet
  facet normal 0 0 -1
    outer loop
      vertex 0.8685 -2.5448 1.6
      vertex 2.20699 -1.82474 1.6
      vertex 2.28256 -2.06349 1.6
    endloop
  endfacet
  facet normal 0 0 -1
    outer loop
      vertex 0.8685 -2.5448 1.6
      vertex 2.28256 -2.06349 1.6
      vertex 1.17999 -3.07874 1.6
    endloop
  endfacet
  facet normal 0 0 -1
    outer loop
      vertex 0.645996 -1.836 1.6
      vertex 2.20699 -1.82474 1.6
      vertex 0.8685 -2.5448 1.6
    endloop
  endfacet
  facet normal 0 0 -1
    outer loop
      vertex 0.645996 -1.836 1.6
      vertex 2.14531 -1.50974 1.6
      vertex 2.20699 -1.82474 1.6
    endloop
  endfacet
  facet normal 0 0 -1
    outer loop
      vertex 3.90399 2.00424 1.6
      vertex 5.44974 2.03174 1.6
      vertex 3.96611 1.68918 1.6
    endloop
  endfacet
  facet normal 0 0 -1
    outer loop
      vertex 0.645996 -1.836 1.6
      vertex 2.10124 -1.08574 1.6
      vertex 2.14531 -1.50974 1.6
    endloop
  endfacet
  facet normal 0 0 -1
    outer loop
      vertex 0.512497 -0.952301 1.6
      vertex 2.0748 -0.55275 1.6
      vertex 2.10124 -1.08574 1.6
    endloop
  endfacet
  facet normal 0 0 -1
    outer loop
      vertex 0.512497 -0.952301 1.6
      vertex 0.467987 0.106247 1.6
      vertex 2.0748 -0.55275 1.6
    endloop
  endfacet
  facet normal 0 0 -1
    outer loop
      vertex 3.43661 2.77724 1.6
      vertex 4.08774 3.95 1.6
      vertex 3.54799 2.70024 1.6
    endloop
  endfacet
  facet normal 0 0 -1
    outer loop
      vertex 3.31749 2.83224 1.6
      vertex 3.60342 4.10468 1.6
      vertex 4.08774 3.95 1.6
    endloop
  endfacet
  facet normal 0 0 -1
    outer loop
      vertex 2.1055 1.28174 1.6
      vertex 0.663742 2.03874 1.6
      vertex 2.15486 1.72687 1.6
    endloop
  endfacet
  facet normal 0 0 -1
    outer loop
      vertex 5.59543 1.14087 1.6
      vertex 4.0105 1.265 1.6
      vertex 5.44974 2.03174 1.6
    endloop
  endfacet
  facet normal 0 0 -1
    outer loop
      vertex 0.908432 2.76912 1.6
      vertex 2.28967 2.28081 1.6
      vertex 2.224 2.07124 1.6
    endloop
  endfacet
  facet normal 0 0 -1
    outer loop
      vertex 3.90399 2.00424 1.6
      vertex 3.82887 2.24312 1.6
      vertex 5.20692 2.76187 1.6
    endloop
  endfacet
  facet normal 0 0 -1
    outer loop
      vertex 0.908432 2.76912 1.6
      vertex 2.36774 2.45549 1.6
      vertex 2.28967 2.28081 1.6
    endloop
  endfacet
  facet normal 0 0 -1
    outer loop
      vertex 3.82887 2.24312 1.6
      vertex 3.74449 2.43874 1.6
      vertex 5.20692 2.76187 1.6
    endloop
  endfacet
  facet normal 0 0 -1
    outer loop
      vertex 1.25099 3.34224 1.6
      vertex 2.45818 2.59531 1.6
      vertex 2.36774 2.45549 1.6
    endloop
  endfacet
  facet normal 0 0 -1
    outer loop
      vertex 1.25099 3.34224 1.6
      vertex 1.60643 3.69836 1.6
      vertex 2.45818 2.59531 1.6
    endloop
  endfacet
  facet normal 0 0 -1
    outer loop
      vertex 1.60643 3.69836 1.6
      vertex 2.02574 3.95274 1.6
      vertex 2.56099 2.70024 1.6
    endloop
  endfacet
  facet normal 0 0 -1
    outer loop
      vertex 2.56099 2.70024 1.6
      vertex 2.02574 3.95274 1.6
      vertex 2.67368 2.77724 1.6
    endloop
  endfacet
  facet normal 0 0 -1
    outer loop
      vertex 2.50893 4.10536 1.6
      vertex 2.92117 2.86525 1.6
      vertex 2.79375 2.83224 1.6
    endloop
  endfacet
  facet normal 0 -0 -1
    outer loop
      vertex 2.50893 4.10536 1.6
      vertex 2.79375 2.83224 1.6
      vertex 2.02574 3.95274 1.6
    endloop
  endfacet
  facet normal 0 0 -1
    outer loop
      vertex 2.50893 4.10536 1.6
      vertex 3.056 4.15625 1.6
      vertex 2.92117 2.86525 1.6
    endloop
  endfacet
  facet normal 0 0 -1
    outer loop
      vertex 3.056 4.15625 1.6
      vertex 3.19061 2.86525 1.6
      vertex 3.056 2.87624 1.6
    endloop
  endfacet
  facet normal 0 0 -1
    outer loop
      vertex 3.056 4.15625 1.6
      vertex 3.60342 4.10468 1.6
      vertex 3.19061 2.86525 1.6
    endloop
  endfacet
  facet normal 0 0 -1
    outer loop
      vertex 3.43661 2.77724 1.6
      vertex 3.31749 2.83224 1.6
      vertex 4.08774 3.95 1.6
    endloop
  endfacet
  facet normal 0 0 -1
    outer loop
      vertex 3.54799 2.70024 1.6
      vertex 4.08774 3.95 1.6
      vertex 4.50893 3.69218 1.6
    endloop
  endfacet
  facet normal 0 0 -1
    outer loop
      vertex 3.65086 2.59111 1.6
      vertex 3.54799 2.70024 1.6
      vertex 4.50893 3.69218 1.6
    endloop
  endfacet
  facet normal -0 0 -1
    outer loop
      vertex 4.86699 3.33124 1.6
      vertex 3.65086 2.59111 1.6
      vertex 4.50893 3.69218 1.6
    endloop
  endfacet
  facet normal 0 -0 -1
    outer loop
      vertex 4.86699 3.33124 1.6
      vertex 5.20692 2.76187 1.6
      vertex 3.74449 2.43874 1.6
    endloop
  endfacet
  facet normal 0 0 -1
    outer loop
      vertex 4.86699 3.33124 1.6
      vertex 3.74449 2.43874 1.6
      vertex 3.65086 2.59111 1.6
    endloop
  endfacet
  facet normal -0 0 -1
    outer loop
      vertex 5.44974 2.03174 1.6
      vertex 3.90399 2.00424 1.6
      vertex 5.20692 2.76187 1.6
    endloop
  endfacet
  facet normal 0 0 -1
    outer loop
      vertex 4.0105 1.265 1.6
      vertex 3.96611 1.68918 1.6
      vertex 5.44974 2.03174 1.6
    endloop
  endfacet
  facet normal -0 0 -1
    outer loop
      vertex 5.59543 1.14087 1.6
      vertex 4.03712 0.731674 1.6
      vertex 4.0105 1.265 1.6
    endloop
  endfacet
  facet normal 0 0 -1
    outer loop
      vertex 4.03712 0.731674 1.6
      vertex 5.644 0.0892487 1.6
      vertex 4.04599 0.0892487 1.6
    endloop
  endfacet
  facet normal 0 -0 -1
    outer loop
      vertex 4.04599 0.0892487 1.6
      vertex 5.644 0.0892487 1.6
      vertex 4.03612 -0.55661 1.6
    endloop
  endfacet
  facet normal 0 0 -1
    outer loop
      vertex 5.44824 -1.85149 1.6
      vertex 3.95712 -1.54462 1.6
      vertex 4.00648 -1.10124 1.6
    endloop
  endfacet
  facet normal -0 0 -1
    outer loop
      vertex 5.44824 -1.85149 1.6
      vertex 3.88799 -1.88675 1.6
      vertex 3.95712 -1.54462 1.6
    endloop
  endfacet
  facet normal 0 0 -1
    outer loop
      vertex 5.20355 -2.58392 1.6
      vertex 3.82231 -2.09637 1.6
      vertex 3.88799 -1.88675 1.6
    endloop
  endfacet
  facet normal 0 0 -1
    outer loop
      vertex 4.86099 -3.15775 1.6
      vertex 3.74425 -2.27124 1.6
      vertex 5.20355 -2.58392 1.6
    endloop
  endfacet
  facet normal 0 0 -1
    outer loop
      vertex 4.50555 -3.51387 1.6
      vertex 3.65381 -2.41136 1.6
      vertex 4.86099 -3.15775 1.6
    endloop
  endfacet
  facet normal 0 0 -1
    outer loop
      vertex 4.50555 -3.51387 1.6
      vertex 3.55099 -2.51674 1.6
      vertex 3.65381 -2.41136 1.6
    endloop
  endfacet
  facet normal -0 0 -1
    outer loop
      vertex 4.50555 -3.51387 1.6
      vertex 4.08624 -3.76825 1.6
      vertex 3.55099 -2.51674 1.6
    endloop
  endfacet
  facet normal 0 0 -1
    outer loop
      vertex 4.08624 -3.76825 1.6
      vertex 3.31824 -2.64799 1.6
      vertex 3.43831 -2.59331 1.6
    endloop
  endfacet
  facet normal -0 0 -1
    outer loop
      vertex 4.08624 -3.76825 1.6
      vertex 3.60306 -3.92087 1.6
      vertex 3.31824 -2.64799 1.6
    endloop
  endfacet
  facet normal 0 -0 -1
    outer loop
      vertex 3.31824 -2.64799 1.6
      vertex 3.60306 -3.92087 1.6
      vertex 3.19081 -2.6808 1.6
    endloop
  endfacet
  facet normal 0 0 -1
    outer loop
      vertex 3.19081 -2.6808 1.6
      vertex 3.056 -3.97174 1.6
      vertex 3.056 -2.69174 1.6
    endloop
  endfacet
  facet normal 0 0 1
    outer loop
      vertex -3.04924 3.79781 2.1
      vertex -1.65117 4.15625 2.1
      vertex -2.89117 4.15625 2.1
    endloop
  endfacet
  facet normal 0 0 1
    outer loop
      vertex -3.17917 1.87624 2.1
      vertex -3.53073 3.1503 2.1
      vertex -3.85417 2.86124 2.1
    endloop
  endfacet
  facet normal -0 0 1
    outer loop
      vertex -3.04924 3.79781 2.1
      vertex -3.26242 3.46249 2.1
      vertex -1.65117 4.15625 2.1
    endloop
  endfacet
  facet normal 0 -0 1
    outer loop
      vertex -3.61642 1.50462 2.1
      vertex -3.17917 1.87624 2.1
      vertex -4.19824 2.60643 2.1
    endloop
  endfacet
  facet normal 0 0 1
    outer loop
      vertex -3.61642 1.50462 2.1
      vertex -4.19824 2.60643 2.1
      vertex -4.52942 2.396 2.1
    endloop
  endfacet
  facet normal 0 0 1
    outer loop
      vertex -4.09117 1.18474 2.1
      vertex -4.52942 2.396 2.1
      vertex -4.84773 2.22993 2.1
    endloop
  endfacet
  facet normal 0 0 1
    outer loop
      vertex -4.09117 1.18474 2.1
      vertex -4.84773 2.22993 2.1
      vertex -4.60342 0.916611 2.1
    endloop
  endfacet
  facet normal 0 0 1
    outer loop
      vertex -4.84773 2.22993 2.1
      vertex -5.15317 2.10825 2.1
      vertex -4.60342 0.916611 2.1
    endloop
  endfacet
  facet normal 0 0 1
    outer loop
      vertex -5.15317 2.10825 2.1
      vertex -5.15317 0.700241 2.1
      vertex -4.60342 0.916611 2.1
    endloop
  endfacet
  facet normal -0 0 1
    outer loop
      vertex -3.17917 1.87624 2.1
      vertex -1.65117 -3.84375 2.1
      vertex -1.65117 4.15625 2.1
    endloop
  endfacet
  facet normal 0 0 1
    outer loop
      vertex -3.61642 1.50462 2.1
      vertex -4.52942 2.396 2.1
      vertex -4.09117 1.18474 2.1
    endloop
  endfacet
  facet normal 0 0 1
    outer loop
      vertex -3.17917 1.87624 2.1
      vertex -3.85417 2.86124 2.1
      vertex -4.19824 2.60643 2.1
    endloop
  endfacet
  facet normal 0 0 1
    outer loop
      vertex -3.26242 3.46249 2.1
      vertex -3.53073 3.1503 2.1
      vertex -3.17917 1.87624 2.1
    endloop
  endfacet
  facet normal 0 0 1
    outer loop
      vertex 2.56099 2.70024 2.1
      vertex 1.60643 3.69836 2.1
      vertex 2.45818 2.59531 2.1
    endloop
  endfacet
  facet normal -0 0 1
    outer loop
      vertex -3.26242 3.46249 2.1
      vertex -3.17917 1.87624 2.1
      vertex -1.65117 4.15625 2.1
    endloop
  endfacet
  facet normal 0 0 1
    outer loop
      vertex -3.17917 1.87624 2.1
      vertex -3.17917 -3.84375 2.1
      vertex -1.65117 -3.84375 2.1
    endloop
  endfacet
  facet normal 0 0 1
    outer loop
      vertex 5.20355 -2.58392 2.1
      vertex 3.82231 -2.09637 2.1
      vertex 3.74425 -2.27124 2.1
    endloop
  endfacet
  facet normal 0 0 1
    outer loop
      vertex 3.74425 -2.27124 2.1
      vertex 3.65381 -2.41136 2.1
      vertex 4.86099 -3.15775 2.1
    endloop
  endfacet
  facet normal -0 0 1
    outer loop
      vertex 3.88799 -1.88675 2.1
      vertex 5.20355 -2.58392 2.1
      vertex 5.44824 -1.85149 2.1
    endloop
  endfacet
  facet normal 0 0 1
    outer loop
      vertex 4.08624 -3.76825 2.1
      vertex 3.55099 -2.51674 2.1
      vertex 3.43831 -2.59331 2.1
    endloop
  endfacet
  facet normal 0 0 1
    outer loop
      vertex 2.28256 -2.06349 2.1
      vertex 1.17999 -3.07874 2.1
      vertex 2.36725 -2.25874 2.1
    endloop
  endfacet
  facet normal -0 0 1
    outer loop
      vertex 0.516937 1.15112 2.1
      vertex 2.07587 0.73587 2.1
      vertex 2.1055 1.28174 2.1
    endloop
  endfacet
  facet normal 0 0 1
    outer loop
      vertex 2.1055 1.28174 2.1
      vertex 0.663742 2.03874 2.1
      vertex 0.516937 1.15112 2.1
    endloop
  endfacet
  facet normal 0 0 1
    outer loop
      vertex 2.224 2.07124 2.1
      vertex 0.663742 2.03874 2.1
      vertex 2.15486 1.72687 2.1
    endloop
  endfacet
  facet normal 0 -0 1
    outer loop
      vertex 3.31749 2.83224 2.1
      vertex 3.60342 4.10468 2.1
      vertex 3.19061 2.86525 2.1
    endloop
  endfacet
  facet normal 0 -0 1
    outer loop
      vertex 3.056 2.87624 2.1
      vertex 3.056 4.15625 2.1
      vertex 2.92117 2.86525 2.1
    endloop
  endfacet
  facet normal 0 0 1
    outer loop
      vertex 2.79375 2.83224 2.1
      vertex 2.02574 3.95274 2.1
      vertex 2.67368 2.77724 2.1
    endloop
  endfacet
  facet normal 0 0 1
    outer loop
      vertex 0.908432 2.76912 2.1
      vertex 0.663742 2.03874 2.1
      vertex 2.224 2.07124 2.1
    endloop
  endfacet
  facet normal 0 0 1
    outer loop
      vertex 2.36774 2.45549 2.1
      vertex 1.25099 3.34224 2.1
      vertex 0.908432 2.76912 2.1
    endloop
  endfacet
  facet normal 0 0 1
    outer loop
      vertex 0.516937 1.15112 2.1
      vertex 0.467987 0.106247 2.1
      vertex 2.07587 0.73587 2.1
    endloop
  endfacet
  facet normal 0 0 1
    outer loop
      vertex 0.467987 0.106247 2.1
      vertex 2.0748 -0.55275 2.1
      vertex 2.06599 0.0892487 2.1
    endloop
  endfacet
  facet normal -0 0 1
    outer loop
      vertex 0.467987 0.106247 2.1
      vertex 2.06599 0.0892487 2.1
      vertex 2.07587 0.73587 2.1
    endloop
  endfacet
  facet normal 0 -0 1
    outer loop
      vertex 0.645996 -1.836 2.1
      vertex 2.10124 -1.08574 2.1
      vertex 0.512497 -0.952301 2.1
    endloop
  endfacet
  facet normal 0 0 1
    outer loop
      vertex 5.59543 1.14087 2.1
      vertex 4.03712 0.731674 2.1
      vertex 5.644 0.0892487 2.1
    endloop
  endfacet
  facet normal 0 0 1
    outer loop
      vertex 5.644 0.0892487 2.1
      vertex 4.03612 -0.55661 2.1
      vertex 5.59506 -0.960434 2.1
    endloop
  endfacet
  facet normal 0 0 1
    outer loop
      vertex 2.46106 -2.41049 2.1
      vertex 1.56424 -3.46944 2.1
      vertex 2.564 -2.51874 2.1
    endloop
  endfacet
  facet normal 0 0 1
    outer loop
      vertex 2.67537 -2.59444 2.1
      vertex 2.00499 -3.74849 2.1
      vertex 2.50224 -3.91592 2.1
    endloop
  endfacet
  facet normal 0 0 1
    outer loop
      vertex 2.67537 -2.59444 2.1
      vertex 2.50224 -3.91592 2.1
      vertex 2.79449 -2.6485 2.1
    endloop
  endfacet
  facet normal 0 0 1
    outer loop
      vertex 2.50224 -3.91592 2.1
      vertex 2.92137 -2.68092 2.1
      vertex 2.79449 -2.6485 2.1
    endloop
  endfacet
  facet normal 0 0 1
    outer loop
      vertex 3.056 -3.97174 2.1
      vertex 2.92137 -2.68092 2.1
      vertex 2.50224 -3.91592 2.1
    endloop
  endfacet
  facet normal 0 0 1
    outer loop
      vertex 3.056 -2.69174 2.1
      vertex 2.92137 -2.68092 2.1
      vertex 3.056 -3.97174 2.1
    endloop
  endfacet
  facet normal 0 0 1
    outer loop
      vertex 3.60306 -3.92087 2.1
      vertex 3.19081 -2.6808 2.1
      vertex 3.056 -3.97174 2.1
    endloop
  endfacet
  facet normal -0 0 1
    outer loop
      vertex 4.00648 -1.10124 2.1
      vertex 5.44824 -1.85149 2.1
      vertex 5.59506 -0.960434 2.1
    endloop
  endfacet
  facet normal 0 0 1
    outer loop
      vertex 2.67537 -2.59444 2.1
      vertex 2.564 -2.51874 2.1
      vertex 2.00499 -3.74849 2.1
    endloop
  endfacet
  facet normal 0 0 1
    outer loop
      vertex 4.03612 -0.55661 2.1
      vertex 4.00648 -1.10124 2.1
      vertex 5.59506 -0.960434 2.1
    endloop
  endfacet
  facet normal 0 0 1
    outer loop
      vertex 2.564 -2.51874 2.1
      vertex 1.56424 -3.46944 2.1
      vertex 2.00499 -3.74849 2.1
    endloop
  endfacet
  facet normal 0 0 1
    outer loop
      vertex 2.46106 -2.41049 2.1
      vertex 1.17999 -3.07874 2.1
      vertex 1.56424 -3.46944 2.1
    endloop
  endfacet
  facet normal 0 0 1
    outer loop
      vertex 2.36725 -2.25874 2.1
      vertex 1.17999 -3.07874 2.1
      vertex 2.46106 -2.41049 2.1
    endloop
  endfacet
  facet normal 0 0 1
    outer loop
      vertex 2.28256 -2.06349 2.1
      vertex 2.20699 -1.82474 2.1
      vertex 0.8685 -2.5448 2.1
    endloop
  endfacet
  facet normal 0 -0 1
    outer loop
      vertex 1.17999 -3.07874 2.1
      vertex 2.28256 -2.06349 2.1
      vertex 0.8685 -2.5448 2.1
    endloop
  endfacet
  facet normal 0 -0 1
    outer loop
      vertex 0.8685 -2.5448 2.1
      vertex 2.20699 -1.82474 2.1
      vertex 0.645996 -1.836 2.1
    endloop
  endfacet
  facet normal 0 0 1
    outer loop
      vertex 2.20699 -1.82474 2.1
      vertex 2.14531 -1.50974 2.1
      vertex 0.645996 -1.836 2.1
    endloop
  endfacet
  facet normal 0 -0 1
    outer loop
      vertex 3.96611 1.68918 2.1
      vertex 5.44974 2.03174 2.1
      vertex 3.90399 2.00424 2.1
    endloop
  endfacet
  facet normal 0 0 1
    outer loop
      vertex 2.14531 -1.50974 2.1
      vertex 2.10124 -1.08574 2.1
      vertex 0.645996 -1.836 2.1
    endloop
  endfacet
  facet normal 0 0 1
    outer loop
      vertex 2.10124 -1.08574 2.1
      vertex 2.0748 -0.55275 2.1
      vertex 0.512497 -0.952301 2.1
    endloop
  endfacet
  facet normal 0 0 1
    outer loop
      vertex 2.0748 -0.55275 2.1
      vertex 0.467987 0.106247 2.1
      vertex 0.512497 -0.952301 2.1
    endloop
  endfacet
  facet normal 0 -0 1
    outer loop
      vertex 3.54799 2.70024 2.1
      vertex 4.08774 3.95 2.1
      vertex 3.43661 2.77724 2.1
    endloop
  endfacet
  facet normal 0 0 1
    outer loop
      vertex 4.08774 3.95 2.1
      vertex 3.60342 4.10468 2.1
      vertex 3.31749 2.83224 2.1
    endloop
  endfacet
  facet normal 0 0 1
    outer loop
      vertex 2.15486 1.72687 2.1
      vertex 0.663742 2.03874 2.1
      vertex 2.1055 1.28174 2.1
    endloop
  endfacet
  facet normal 0 0 1
    outer loop
      vertex 5.44974 2.03174 2.1
      vertex 4.0105 1.265 2.1
      vertex 5.59543 1.14087 2.1
    endloop
  endfacet
  facet normal 0 -0 1
    outer loop
      vertex 2.224 2.07124 2.1
      vertex 2.28967 2.28081 2.1
      vertex 0.908432 2.76912 2.1
    endloop
  endfacet
  facet normal 0 0 1
    outer loop
      vertex 5.20692 2.76187 2.1
      vertex 3.82887 2.24312 2.1
      vertex 3.90399 2.00424 2.1
    endloop
  endfacet
  facet normal 0 -0 1
    outer loop
      vertex 2.28967 2.28081 2.1
      vertex 2.36774 2.45549 2.1
      vertex 0.908432 2.76912 2.1
    endloop
  endfacet
  facet normal 0 0 1
    outer loop
      vertex 5.20692 2.76187 2.1
      vertex 3.74449 2.43874 2.1
      vertex 3.82887 2.24312 2.1
    endloop
  endfacet
  facet normal 0 -0 1
    outer loop
      vertex 2.36774 2.45549 2.1
      vertex 2.45818 2.59531 2.1
      vertex 1.25099 3.34224 2.1
    endloop
  endfacet
  facet normal 0 0 1
    outer loop
      vertex 2.45818 2.59531 2.1
      vertex 1.60643 3.69836 2.1
      vertex 1.25099 3.34224 2.1
    endloop
  endfacet
  facet normal 0 0 1
    outer loop
      vertex 2.56099 2.70024 2.1
      vertex 2.02574 3.95274 2.1
      vertex 1.60643 3.69836 2.1
    endloop
  endfacet
  facet normal 0 0 1
    outer loop
      vertex 2.67368 2.77724 2.1
      vertex 2.02574 3.95274 2.1
      vertex 2.56099 2.70024 2.1
    endloop
  endfacet
  facet normal 0 -0 1
    outer loop
      vertex 2.79375 2.83224 2.1
      vertex 2.92117 2.86525 2.1
      vertex 2.50893 4.10536 2.1
    endloop
  endfacet
  facet normal -0 0 1
    outer loop
      vertex 2.02574 3.95274 2.1
      vertex 2.79375 2.83224 2.1
      vertex 2.50893 4.10536 2.1
    endloop
  endfacet
  facet normal 0 -0 1
    outer loop
      vertex 2.92117 2.86525 2.1
      vertex 3.056 4.15625 2.1
      vertex 2.50893 4.10536 2.1
    endloop
  endfacet
  facet normal -0 0 1
    outer loop
      vertex 3.056 2.87624 2.1
      vertex 3.19061 2.86525 2.1
      vertex 3.056 4.15625 2.1
    endloop
  endfacet
  facet normal 0 -0 1
    outer loop
      vertex 3.19061 2.86525 2.1
      vertex 3.60342 4.10468 2.1
      vertex 3.056 4.15625 2.1
    endloop
  endfacet
  facet normal 0 0 1
    outer loop
      vertex 4.08774 3.95 2.1
      vertex 3.31749 2.83224 2.1
      vertex 3.43661 2.77724 2.1
    endloop
  endfacet
  facet normal 0 0 1
    outer loop
      vertex 4.50893 3.69218 2.1
      vertex 4.08774 3.95 2.1
      vertex 3.54799 2.70024 2.1
    endloop
  endfacet
  facet normal 0 0 1
    outer loop
      vertex 4.50893 3.69218 2.1
      vertex 3.54799 2.70024 2.1
      vertex 3.65086 2.59111 2.1
    endloop
  endfacet
  facet normal 0 0 1
    outer loop
      vertex 4.50893 3.69218 2.1
      vertex 3.65086 2.59111 2.1
      vertex 4.86699 3.33124 2.1
    endloop
  endfacet
  facet normal 0 0 1
    outer loop
      vertex 3.74449 2.43874 2.1
      vertex 5.20692 2.76187 2.1
      vertex 4.86699 3.33124 2.1
    endloop
  endfacet
  facet normal -0 0 1
    outer loop
      vertex 3.65086 2.59111 2.1
      vertex 3.74449 2.43874 2.1
      vertex 4.86699 3.33124 2.1
    endloop
  endfacet
  facet normal 0 0 1
    outer loop
      vertex 5.20692 2.76187 2.1
      vertex 3.90399 2.00424 2.1
      vertex 5.44974 2.03174 2.1
    endloop
  endfacet
  facet normal 0 0 1
    outer loop
      vertex 5.44974 2.03174 2.1
      vertex 3.96611 1.68918 2.1
      vertex 4.0105 1.265 2.1
    endloop
  endfacet
  facet normal 0 0 1
    outer loop
      vertex 4.0105 1.265 2.1
      vertex 4.03712 0.731674 2.1
      vertex 5.59543 1.14087 2.1
    endloop
  endfacet
  facet normal 0 -0 1
    outer loop
      vertex 4.04599 0.0892487 2.1
      vertex 5.644 0.0892487 2.1
      vertex 4.03712 0.731674 2.1
    endloop
  endfacet
  facet normal 0 0 1
    outer loop
      vertex 4.03612 -0.55661 2.1
      vertex 5.644 0.0892487 2.1
      vertex 4.04599 0.0892487 2.1
    endloop
  endfacet
  facet normal 0 0 1
    outer loop
      vertex 4.00648 -1.10124 2.1
      vertex 3.95712 -1.54462 2.1
      vertex 5.44824 -1.85149 2.1
    endloop
  endfacet
  facet normal 0 0 1
    outer loop
      vertex 3.95712 -1.54462 2.1
      vertex 3.88799 -1.88675 2.1
      vertex 5.44824 -1.85149 2.1
    endloop
  endfacet
  facet normal 0 0 1
    outer loop
      vertex 3.88799 -1.88675 2.1
      vertex 3.82231 -2.09637 2.1
      vertex 5.20355 -2.58392 2.1
    endloop
  endfacet
  facet normal 0 0 1
    outer loop
      vertex 5.20355 -2.58392 2.1
      vertex 3.74425 -2.27124 2.1
      vertex 4.86099 -3.15775 2.1
    endloop
  endfacet
  facet normal 0 0 1
    outer loop
      vertex 4.86099 -3.15775 2.1
      vertex 3.65381 -2.41136 2.1
      vertex 4.50555 -3.51387 2.1
    endloop
  endfacet
  facet normal 0 0 1
    outer loop
      vertex 3.65381 -2.41136 2.1
      vertex 3.55099 -2.51674 2.1
      vertex 4.50555 -3.51387 2.1
    endloop
  endfacet
  facet normal 0 0 1
    outer loop
      vertex 3.55099 -2.51674 2.1
      vertex 4.08624 -3.76825 2.1
      vertex 4.50555 -3.51387 2.1
    endloop
  endfacet
  facet normal 0 0 1
    outer loop
      vertex 3.43831 -2.59331 2.1
      vertex 3.31824 -2.64799 2.1
      vertex 4.08624 -3.76825 2.1
    endloop
  endfacet
  facet normal 0 0 1
    outer loop
      vertex 3.31824 -2.64799 2.1
      vertex 3.60306 -3.92087 2.1
      vertex 4.08624 -3.76825 2.1
    endloop
  endfacet
  facet normal -0 0 1
    outer loop
      vertex 3.19081 -2.6808 2.1
      vertex 3.60306 -3.92087 2.1
      vertex 3.31824 -2.64799 2.1
    endloop
  endfacet
  facet normal -0 0 1
    outer loop
      vertex 3.056 -2.69174 2.1
      vertex 3.056 -3.97174 2.1
      vertex 3.19081 -2.6808 2.1
    endloop
  endfacet
  facet normal 0 1 0
    outer loop
      vertex -2.89117 4.15625 1.6
      vertex -1.65117 4.15625 2.1
      vertex -1.65117 4.15625 1.6
    endloop
  endfacet
  facet normal 0 1 0
    outer loop
      vertex -2.89117 4.15625 1.6
      vertex -2.89117 4.15625 2.1
      vertex -1.65117 4.15625 2.1
    endloop
  endfacet
  facet normal -0.914979 0.403501 0
    outer loop
      vertex -3.04924 3.79781 1.6
      vertex -2.89117 4.15625 2.1
      vertex -2.89117 4.15625 1.6
    endloop
  endfacet
  facet normal -0.914979 0.403501 0
    outer loop
      vertex -3.04924 3.79781 1.6
      vertex -3.04924 3.79781 2.1
      vertex -2.89117 4.15625 2.1
    endloop
  endfacet
  facet normal -0.843896 0.536507 0
    outer loop
      vertex -3.26242 3.46249 1.6
      vertex -3.04924 3.79781 2.1
      vertex -3.04924 3.79781 1.6
    endloop
  endfacet
  facet normal -0.843896 0.536507 0
    outer loop
      vertex -3.26242 3.46249 1.6
      vertex -3.26242 3.46249 2.1
      vertex -3.04924 3.79781 2.1
    endloop
  endfacet
  facet normal -0.758393 0.651797 0
    outer loop
      vertex -3.53073 3.1503 1.6
      vertex -3.26242 3.46249 2.1
      vertex -3.26242 3.46249 1.6
    endloop
  endfacet
  facet normal -0.758393 0.651797 0
    outer loop
      vertex -3.53073 3.1503 1.6
      vertex -3.53073 3.1503 2.1
      vertex -3.26242 3.46249 2.1
    endloop
  endfacet
  facet normal -0.666368 0.745623 0
    outer loop
      vertex -3.85417 2.86124 1.6
      vertex -3.53073 3.1503 2.1
      vertex -3.53073 3.1503 1.6
    endloop
  endfacet
  facet normal -0.666368 0.745623 0
    outer loop
      vertex -3.85417 2.86124 1.6
      vertex -3.85417 2.86124 2.1
      vertex -3.53073 3.1503 2.1
    endloop
  endfacet
  facet normal -0.595142 0.80362 0
    outer loop
      vertex -4.19824 2.60643 1.6
      vertex -3.85417 2.86124 2.1
      vertex -3.85417 2.86124 1.6
    endloop
  endfacet
  facet normal -0.595142 0.80362 0
    outer loop
      vertex -4.19824 2.60643 1.6
      vertex -4.19824 2.60643 2.1
      vertex -3.85417 2.86124 2.1
    endloop
  endfacet
  facet normal -0.536293 0.844032 0
    outer loop
      vertex -4.52942 2.396 1.6
      vertex -4.19824 2.60643 2.1
      vertex -4.19824 2.60643 1.6
    endloop
  endfacet
  facet normal -0.536293 0.844032 0
    outer loop
      vertex -4.52942 2.396 1.6
      vertex -4.52942 2.396 2.1
      vertex -4.19824 2.60643 2.1
    endloop
  endfacet
  facet normal -0.462556 0.88659 0
    outer loop
      vertex -4.84773 2.22993 1.6
      vertex -4.52942 2.396 2.1
      vertex -4.52942 2.396 1.6
    endloop
  endfacet
  facet normal -0.462556 0.88659 0
    outer loop
      vertex -4.84773 2.22993 1.6
      vertex -4.84773 2.22993 2.1
      vertex -4.52942 2.396 2.1
    endloop
  endfacet
  facet normal -0.37009 0.928996 0
    outer loop
      vertex -5.15317 2.10825 1.6
      vertex -4.84773 2.22993 2.1
      vertex -4.84773 2.22993 1.6
    endloop
  endfacet
  facet normal -0.37009 0.928996 0
    outer loop
      vertex -5.15317 2.10825 1.6
      vertex -5.15317 2.10825 2.1
      vertex -4.84773 2.22993 2.1
    endloop
  endfacet
  facet normal -1 0 0
    outer loop
      vertex -5.15317 0.700241 1.6
      vertex -5.15317 2.10825 2.1
      vertex -5.15317 2.10825 1.6
    endloop
  endfacet
  facet normal -1 0 0
    outer loop
      vertex -5.15317 0.700241 1.6
      vertex -5.15317 0.700241 2.1
      vertex -5.15317 2.10825 2.1
    endloop
  endfacet
  facet normal 0.366234 -0.930523 0
    outer loop
      vertex -4.60342 0.916611 1.6
      vertex -5.15317 0.700241 2.1
      vertex -5.15317 0.700241 1.6
    endloop
  endfacet
  facet normal 0.366234 -0.930523 0
    outer loop
      vertex -4.60342 0.916611 1.6
      vertex -4.60342 0.916611 2.1
      vertex -5.15317 0.700241 2.1
    endloop
  endfacet
  facet normal 0.463746 -0.885968 0
    outer loop
      vertex -4.09117 1.18474 1.6
      vertex -4.60342 0.916611 2.1
      vertex -4.60342 0.916611 1.6
    endloop
  endfacet
  facet normal 0.463746 -0.885968 0
    outer loop
      vertex -4.09117 1.18474 1.6
      vertex -4.09117 1.18474 2.1
      vertex -4.60342 0.916611 2.1
    endloop
  endfacet
  facet normal 0.558781 -0.829315 0
    outer loop
      vertex -3.61642 1.50462 1.6
      vertex -4.09117 1.18474 2.1
      vertex -4.09117 1.18474 1.6
    endloop
  endfacet
  facet normal 0.558781 -0.829315 0
    outer loop
      vertex -3.61642 1.50462 1.6
      vertex -3.61642 1.50462 2.1
      vertex -4.09117 1.18474 2.1
    endloop
  endfacet
  facet normal 0.647605 -0.761976 0
    outer loop
      vertex -3.17917 1.87624 1.6
      vertex -3.61642 1.50462 2.1
      vertex -3.61642 1.50462 1.6
    endloop
  endfacet
  facet normal 0.647605 -0.761976 0
    outer loop
      vertex -3.17917 1.87624 1.6
      vertex -3.17917 1.87624 2.1
      vertex -3.61642 1.50462 2.1
    endloop
  endfacet
  facet normal -1 0 0
    outer loop
      vertex -3.17917 -3.84375 1.6
      vertex -3.17917 1.87624 2.1
      vertex -3.17917 1.87624 1.6
    endloop
  endfacet
  facet normal -1 0 0
    outer loop
      vertex -3.17917 -3.84375 1.6
      vertex -3.17917 -3.84375 2.1
      vertex -3.17917 1.87624 2.1
    endloop
  endfacet
  facet normal 0 -1 0
    outer loop
      vertex -1.65117 -3.84375 1.6
      vertex -3.17917 -3.84375 2.1
      vertex -3.17917 -3.84375 1.6
    endloop
  endfacet
  facet normal 0 -1 0
    outer loop
      vertex -1.65117 -3.84375 1.6
      vertex -1.65117 -3.84375 2.1
      vertex -3.17917 -3.84375 2.1
    endloop
  endfacet
  facet normal 1 0 0
    outer loop
      vertex -1.65117 4.15625 1.6
      vertex -1.65117 -3.84375 2.1
      vertex -1.65117 -3.84375 1.6
    endloop
  endfacet
  facet normal 1 0 -0
    outer loop
      vertex -1.65117 4.15625 1.6
      vertex -1.65117 4.15625 2.1
      vertex -1.65117 -3.84375 2.1
    endloop
  endfacet
  facet normal 0.301197 -0.953562 0
    outer loop
      vertex 4.08624 -3.76825 1.6
      vertex 3.60306 -3.92087 2.1
      vertex 3.60306 -3.92087 1.6
    endloop
  endfacet
  facet normal 0.301197 -0.953562 0
    outer loop
      vertex 4.08624 -3.76825 1.6
      vertex 4.08624 -3.76825 2.1
      vertex 3.60306 -3.92087 2.1
    endloop
  endfacet
  facet normal 0.518679 -0.854969 0
    outer loop
      vertex 4.50555 -3.51387 1.6
      vertex 4.08624 -3.76825 2.1
      vertex 4.08624 -3.76825 1.6
    endloop
  endfacet
  facet normal 0.518679 -0.854969 0
    outer loop
      vertex 4.50555 -3.51387 1.6
      vertex 4.50555 -3.51387 2.1
      vertex 4.08624 -3.76825 2.1
    endloop
  endfacet
  facet normal 0.707782 -0.706431 0
    outer loop
      vertex 4.86099 -3.15775 1.6
      vertex 4.50555 -3.51387 2.1
      vertex 4.50555 -3.51387 1.6
    endloop
  endfacet
  facet normal 0.707782 -0.706431 0
    outer loop
      vertex 4.86099 -3.15775 1.6
      vertex 4.86099 -3.15775 2.1
      vertex 4.50555 -3.51387 2.1
    endloop
  endfacet
  facet normal 0.858638 -0.512582 0
    outer loop
      vertex 5.20355 -2.58392 1.6
      vertex 4.86099 -3.15775 2.1
      vertex 4.86099 -3.15775 1.6
    endloop
  endfacet
  facet normal 0.858638 -0.512582 0
    outer loop
      vertex 5.20355 -2.58392 1.6
      vertex 5.20355 -2.58392 2.1
      vertex 4.86099 -3.15775 2.1
    endloop
  endfacet
  facet normal 0.948471 -0.316865 0
    outer loop
      vertex 5.44824 -1.85149 1.6
      vertex 5.20355 -2.58392 2.1
      vertex 5.20355 -2.58392 1.6
    endloop
  endfacet
  facet normal 0.948471 -0.316865 0
    outer loop
      vertex 5.44824 -1.85149 1.6
      vertex 5.44824 -1.85149 2.1
      vertex 5.20355 -2.58392 2.1
    endloop
  endfacet
  facet normal 0.986696 -0.162579 0
    outer loop
      vertex 5.59506 -0.960434 1.6
      vertex 5.44824 -1.85149 2.1
      vertex 5.44824 -1.85149 1.6
    endloop
  endfacet
  facet normal 0.986696 -0.162579 0
    outer loop
      vertex 5.59506 -0.960434 1.6
      vertex 5.59506 -0.960434 2.1
      vertex 5.44824 -1.85149 2.1
    endloop
  endfacet
  facet normal 0.998915 -0.046573 0
    outer loop
      vertex 5.644 0.0892487 1.6
      vertex 5.59506 -0.960434 2.1
      vertex 5.59506 -0.960434 1.6
    endloop
  endfacet
  facet normal 0.998915 -0.046573 0
    outer loop
      vertex 5.644 0.0892487 1.6
      vertex 5.644 0.0892487 2.1
      vertex 5.59506 -0.960434 2.1
    endloop
  endfacet
  facet normal 0.998935 0.0461366 0
    outer loop
      vertex 5.59543 1.14087 1.6
      vertex 5.644 0.0892487 2.1
      vertex 5.644 0.0892487 1.6
    endloop
  endfacet
  facet normal 0.998935 0.0461366 -0
    outer loop
      vertex 5.59543 1.14087 1.6
      vertex 5.59543 1.14087 2.1
      vertex 5.644 0.0892487 2.1
    endloop
  endfacet
  facet normal 0.98689 0.161393 0
    outer loop
      vertex 5.44974 2.03174 1.6
      vertex 5.59543 1.14087 2.1
      vertex 5.59543 1.14087 1.6
    endloop
  endfacet
  facet normal 0.98689 0.161393 -0
    outer loop
      vertex 5.44974 2.03174 1.6
      vertex 5.44974 2.03174 2.1
      vertex 5.59543 1.14087 2.1
    endloop
  endfacet
  facet normal 0.9489 0.315577 0
    outer loop
      vertex 5.20692 2.76187 1.6
      vertex 5.44974 2.03174 2.1
      vertex 5.44974 2.03174 1.6
    endloop
  endfacet
  facet normal 0.9489 0.315577 -0
    outer loop
      vertex 5.20692 2.76187 1.6
      vertex 5.20692 2.76187 2.1
      vertex 5.44974 2.03174 2.1
    endloop
  endfacet
  facet normal 0.858617 0.512618 0
    outer loop
      vertex 4.86699 3.33124 1.6
      vertex 5.20692 2.76187 2.1
      vertex 5.20692 2.76187 1.6
    endloop
  endfacet
  facet normal 0.858617 0.512618 -0
    outer loop
      vertex 4.86699 3.33124 1.6
      vertex 4.86699 3.33124 2.1
      vertex 5.20692 2.76187 2.1
    endloop
  endfacet
  facet normal 0.709933 0.704269 0
    outer loop
      vertex 4.50893 3.69218 1.6
      vertex 4.86699 3.33124 2.1
      vertex 4.86699 3.33124 1.6
    endloop
  endfacet
  facet normal 0.709933 0.704269 -0
    outer loop
      vertex 4.50893 3.69218 1.6
      vertex 4.50893 3.69218 2.1
      vertex 4.86699 3.33124 2.1
    endloop
  endfacet
  facet normal 0.522078 0.852898 0
    outer loop
      vertex 4.08774 3.95 1.6
      vertex 4.50893 3.69218 2.1
      vertex 4.50893 3.69218 1.6
    endloop
  endfacet
  facet normal 0.522078 0.852898 -0
    outer loop
      vertex 4.08774 3.95 1.6
      vertex 4.08774 3.95 2.1
      vertex 4.50893 3.69218 2.1
    endloop
  endfacet
  facet normal 0.304236 0.952597 0
    outer loop
      vertex 3.60342 4.10468 1.6
      vertex 4.08774 3.95 2.1
      vertex 4.08774 3.95 1.6
    endloop
  endfacet
  facet normal 0.304236 0.952597 -0
    outer loop
      vertex 3.60342 4.10468 1.6
      vertex 3.60342 4.10468 2.1
      vertex 4.08774 3.95 2.1
    endloop
  endfacet
  facet normal 0.0937903 0.995592 0
    outer loop
      vertex 3.056 4.15625 1.6
      vertex 3.60342 4.10468 2.1
      vertex 3.60342 4.10468 1.6
    endloop
  endfacet
  facet normal 0.0937903 0.995592 -0
    outer loop
      vertex 3.056 4.15625 1.6
      vertex 3.056 4.15625 2.1
      vertex 3.60342 4.10468 2.1
    endloop
  endfacet
  facet normal -0.0926229 0.995701 0
    outer loop
      vertex 2.50893 4.10536 1.6
      vertex 3.056 4.15625 2.1
      vertex 3.056 4.15625 1.6
    endloop
  endfacet
  facet normal -0.0926229 0.995701 0
    outer loop
      vertex 2.50893 4.10536 1.6
      vertex 2.50893 4.10536 2.1
      vertex 3.056 4.15625 2.1
    endloop
  endfacet
  facet normal -0.301192 0.953564 0
    outer loop
      vertex 2.02574 3.95274 1.6
      vertex 2.50893 4.10536 2.1
      vertex 2.50893 4.10536 1.6
    endloop
  endfacet
  facet normal -0.301192 0.953564 0
    outer loop
      vertex 2.02574 3.95274 1.6
      vertex 2.02574 3.95274 2.1
      vertex 2.50893 4.10536 2.1
    endloop
  endfacet
  facet normal -0.518679 0.854969 0
    outer loop
      vertex 1.60643 3.69836 1.6
      vertex 2.02574 3.95274 2.1
      vertex 2.02574 3.95274 1.6
    endloop
  endfacet
  facet normal -0.518679 0.854969 0
    outer loop
      vertex 1.60643 3.69836 1.6
      vertex 1.60643 3.69836 2.1
      vertex 2.02574 3.95274 2.1
    endloop
  endfacet
  facet normal -0.707782 0.706431 0
    outer loop
      vertex 1.25099 3.34224 1.6
      vertex 1.60643 3.69836 2.1
      vertex 1.60643 3.69836 1.6
    endloop
  endfacet
  facet normal -0.707782 0.706431 0
    outer loop
      vertex 1.25099 3.34224 1.6
      vertex 1.25099 3.34224 2.1
      vertex 1.60643 3.69836 2.1
    endloop
  endfacet
  facet normal -0.85836 0.513048 0
    outer loop
      vertex 0.908432 2.76912 1.6
      vertex 1.25099 3.34224 2.1
      vertex 1.25099 3.34224 1.6
    endloop
  endfacet
  facet normal -0.85836 0.513048 0
    outer loop
      vertex 0.908432 2.76912 1.6
      vertex 0.908432 2.76912 2.1
      vertex 1.25099 3.34224 2.1
    endloop
  endfacet
  facet normal -0.948203 0.317665 0
    outer loop
      vertex 0.663742 2.03874 1.6
      vertex 0.908432 2.76912 2.1
      vertex 0.908432 2.76912 1.6
    endloop
  endfacet
  facet normal -0.948203 0.317665 0
    outer loop
      vertex 0.663742 2.03874 1.6
      vertex 0.663742 2.03874 2.1
      vertex 0.908432 2.76912 2.1
    endloop
  endfacet
  facet normal -0.986597 0.163175 0
    outer loop
      vertex 0.516937 1.15112 1.6
      vertex 0.663742 2.03874 2.1
      vertex 0.663742 2.03874 1.6
    endloop
  endfacet
  facet normal -0.986597 0.163175 0
    outer loop
      vertex 0.516937 1.15112 1.6
      vertex 0.516937 1.15112 2.1
      vertex 0.663742 2.03874 2.1
    endloop
  endfacet
  facet normal -0.998904 0.0467965 0
    outer loop
      vertex 0.467987 0.106247 1.6
      vertex 0.516937 1.15112 2.1
      vertex 0.516937 1.15112 1.6
    endloop
  endfacet
  facet normal -0.998904 0.0467965 0
    outer loop
      vertex 0.467987 0.106247 1.6
      vertex 0.467987 0.106247 2.1
      vertex 0.516937 1.15112 2.1
    endloop
  endfacet
  facet normal -0.999117 -0.042011 0
    outer loop
      vertex 0.512497 -0.952301 1.6
      vertex 0.467987 0.106247 2.1
      vertex 0.467987 0.106247 1.6
    endloop
  endfacet
  facet normal -0.999117 -0.042011 0
    outer loop
      vertex 0.512497 -0.952301 1.6
      vertex 0.512497 -0.952301 2.1
      vertex 0.467987 0.106247 2.1
    endloop
  endfacet
  facet normal -0.988781 -0.149374 0
    outer loop
      vertex 0.645996 -1.836 1.6
      vertex 0.512497 -0.952301 2.1
      vertex 0.512497 -0.952301 1.6
    endloop
  endfacet
  facet normal -0.988781 -0.149374 0
    outer loop
      vertex 0.645996 -1.836 1.6
      vertex 0.645996 -1.836 2.1
      vertex 0.512497 -0.952301 2.1
    endloop
  endfacet
  facet normal -0.954094 -0.299506 0
    outer loop
      vertex 0.8685 -2.5448 1.6
      vertex 0.645996 -1.836 2.1
      vertex 0.645996 -1.836 1.6
    endloop
  endfacet
  facet normal -0.954094 -0.299506 0
    outer loop
      vertex 0.8685 -2.5448 1.6
      vertex 0.8685 -2.5448 2.1
      vertex 0.645996 -1.836 2.1
    endloop
  endfacet
  facet normal -0.863761 -0.503901 0
    outer loop
      vertex 1.17999 -3.07874 1.6
      vertex 0.8685 -2.5448 2.1
      vertex 0.8685 -2.5448 1.6
    endloop
  endfacet
  facet normal -0.863761 -0.503901 0
    outer loop
      vertex 1.17999 -3.07874 1.6
      vertex 1.17999 -3.07874 2.1
      vertex 0.8685 -2.5448 2.1
    endloop
  endfacet
  facet normal -0.712967 -0.701197 0
    outer loop
      vertex 1.56424 -3.46944 1.6
      vertex 1.17999 -3.07874 2.1
      vertex 1.17999 -3.07874 1.6
    endloop
  endfacet
  facet normal -0.712967 -0.701197 0
    outer loop
      vertex 1.56424 -3.46944 1.6
      vertex 1.56424 -3.46944 2.1
      vertex 1.17999 -3.07874 2.1
    endloop
  endfacet
  facet normal -0.534927 -0.844898 0
    outer loop
      vertex 2.00499 -3.74849 1.6
      vertex 1.56424 -3.46944 2.1
      vertex 1.56424 -3.46944 1.6
    endloop
  endfacet
  facet normal -0.534927 -0.844898 0
    outer loop
      vertex 2.00499 -3.74849 1.6
      vertex 2.00499 -3.74849 2.1
      vertex 1.56424 -3.46944 2.1
    endloop
  endfacet
  facet normal -0.319108 -0.947718 0
    outer loop
      vertex 2.50224 -3.91592 1.6
      vertex 2.00499 -3.74849 2.1
      vertex 2.00499 -3.74849 1.6
    endloop
  endfacet
  facet normal -0.319108 -0.947718 0
    outer loop
      vertex 2.50224 -3.91592 1.6
      vertex 2.50224 -3.91592 2.1
      vertex 2.00499 -3.74849 2.1
    endloop
  endfacet
  facet normal -0.100294 -0.994958 0
    outer loop
      vertex 3.056 -3.97174 1.6
      vertex 2.50224 -3.91592 2.1
      vertex 2.50224 -3.91592 1.6
    endloop
  endfacet
  facet normal -0.100294 -0.994958 0
    outer loop
      vertex 3.056 -3.97174 1.6
      vertex 3.056 -3.97174 2.1
      vertex 2.50224 -3.91592 2.1
    endloop
  endfacet
  facet normal 0.0925885 -0.995704 0
    outer loop
      vertex 3.60306 -3.92087 1.6
      vertex 3.056 -3.97174 2.1
      vertex 3.056 -3.97174 1.6
    endloop
  endfacet
  facet normal 0.0925885 -0.995704 0
    outer loop
      vertex 3.60306 -3.92087 1.6
      vertex 3.60306 -3.92087 2.1
      vertex 3.056 -3.97174 2.1
    endloop
  endfacet
  facet normal 0.247563 0.968872 -0
    outer loop
      vertex 2.79449 -2.6485 1.6
      vertex 2.79449 -2.6485 2.1
      vertex 2.92137 -2.68092 1.6
    endloop
  endfacet
  facet normal 0.247563 0.968872 0
    outer loop
      vertex 2.92137 -2.68092 2.1
      vertex 2.92137 -2.68092 1.6
      vertex 2.79449 -2.6485 2.1
    endloop
  endfacet
  facet normal 0.413261 0.910612 -0
    outer loop
      vertex 2.67537 -2.59444 1.6
      vertex 2.67537 -2.59444 2.1
      vertex 2.79449 -2.6485 1.6
    endloop
  endfacet
  facet normal 0.413261 0.910612 0
    outer loop
      vertex 2.79449 -2.6485 2.1
      vertex 2.79449 -2.6485 1.6
      vertex 2.67537 -2.59444 2.1
    endloop
  endfacet
  facet normal 0.56215 0.827036 -0
    outer loop
      vertex 2.564 -2.51874 1.6
      vertex 2.564 -2.51874 2.1
      vertex 2.67537 -2.59444 1.6
    endloop
  endfacet
  facet normal 0.56215 0.827036 0
    outer loop
      vertex 2.67537 -2.59444 2.1
      vertex 2.67537 -2.59444 1.6
      vertex 2.564 -2.51874 2.1
    endloop
  endfacet
  facet normal 0.724657 0.68911 -0
    outer loop
      vertex 2.46106 -2.41049 1.6
      vertex 2.46106 -2.41049 2.1
      vertex 2.564 -2.51874 1.6
    endloop
  endfacet
  facet normal 0.724657 0.68911 0
    outer loop
      vertex 2.564 -2.51874 2.1
      vertex 2.564 -2.51874 1.6
      vertex 2.46106 -2.41049 2.1
    endloop
  endfacet
  facet normal 0.850592 0.525826 -0
    outer loop
      vertex 2.36725 -2.25874 1.6
      vertex 2.36725 -2.25874 2.1
      vertex 2.46106 -2.41049 1.6
    endloop
  endfacet
  facet normal 0.850592 0.525826 0
    outer loop
      vertex 2.46106 -2.41049 2.1
      vertex 2.46106 -2.41049 1.6
      vertex 2.36725 -2.25874 2.1
    endloop
  endfacet
  facet normal 0.917416 0.39793 -0
    outer loop
      vertex 2.28256 -2.06349 1.6
      vertex 2.28256 -2.06349 2.1
      vertex 2.36725 -2.25874 1.6
    endloop
  endfacet
  facet normal 0.917416 0.39793 0
    outer loop
      vertex 2.36725 -2.25874 2.1
      vertex 2.36725 -2.25874 1.6
      vertex 2.28256 -2.06349 2.1
    endloop
  endfacet
  facet normal 0.953381 0.301768 -0
    outer loop
      vertex 2.20699 -1.82474 1.6
      vertex 2.20699 -1.82474 2.1
      vertex 2.28256 -2.06349 1.6
    endloop
  endfacet
  facet normal 0.953381 0.301768 0
    outer loop
      vertex 2.28256 -2.06349 2.1
      vertex 2.28256 -2.06349 1.6
      vertex 2.20699 -1.82474 2.1
    endloop
  endfacet
  facet normal 0.981364 0.19216 -0
    outer loop
      vertex 2.14531 -1.50974 1.6
      vertex 2.14531 -1.50974 2.1
      vertex 2.20699 -1.82474 1.6
    endloop
  endfacet
  facet normal 0.981364 0.19216 0
    outer loop
      vertex 2.20699 -1.82474 2.1
      vertex 2.20699 -1.82474 1.6
      vertex 2.14531 -1.50974 2.1
    endloop
  endfacet
  facet normal 0.994642 0.103382 -0
    outer loop
      vertex 2.10124 -1.08574 1.6
      vertex 2.10124 -1.08574 2.1
      vertex 2.14531 -1.50974 1.6
    endloop
  endfacet
  facet normal 0.994642 0.103382 0
    outer loop
      vertex 2.14531 -1.50974 2.1
      vertex 2.14531 -1.50974 1.6
      vertex 2.10124 -1.08574 2.1
    endloop
  endfacet
  facet normal 0.998772 0.049546 -0
    outer loop
      vertex 2.0748 -0.55275 1.6
      vertex 2.0748 -0.55275 2.1
      vertex 2.10124 -1.08574 1.6
    endloop
  endfacet
  facet normal 0.998772 0.049546 0
    outer loop
      vertex 2.10124 -1.08574 2.1
      vertex 2.10124 -1.08574 1.6
      vertex 2.0748 -0.55275 2.1
    endloop
  endfacet
  facet normal 0.999906 0.0137215 -0
    outer loop
      vertex 2.06599 0.0892487 1.6
      vertex 2.06599 0.0892487 2.1
      vertex 2.0748 -0.55275 1.6
    endloop
  endfacet
  facet normal 0.999906 0.0137215 0
    outer loop
      vertex 2.0748 -0.55275 2.1
      vertex 2.0748 -0.55275 1.6
      vertex 2.06599 0.0892487 2.1
    endloop
  endfacet
  facet normal 0.999883 -0.0152776 0
    outer loop
      vertex 2.07587 0.73587 1.6
      vertex 2.07587 0.73587 2.1
      vertex 2.06599 0.0892487 1.6
    endloop
  endfacet
  facet normal 0.999883 -0.0152776 0
    outer loop
      vertex 2.06599 0.0892487 2.1
      vertex 2.06599 0.0892487 1.6
      vertex 2.07587 0.73587 2.1
    endloop
  endfacet
  facet normal 0.99853 -0.0542005 0
    outer loop
      vertex 2.1055 1.28174 1.6
      vertex 2.1055 1.28174 2.1
      vertex 2.07587 0.73587 1.6
    endloop
  endfacet
  facet normal 0.99853 -0.0542005 0
    outer loop
      vertex 2.07587 0.73587 2.1
      vertex 2.07587 0.73587 1.6
      vertex 2.1055 1.28174 2.1
    endloop
  endfacet
  facet normal 0.993908 -0.110213 0
    outer loop
      vertex 2.15486 1.72687 1.6
      vertex 2.15486 1.72687 2.1
      vertex 2.1055 1.28174 1.6
    endloop
  endfacet
  facet normal 0.993908 -0.110213 0
    outer loop
      vertex 2.1055 1.28174 2.1
      vertex 2.1055 1.28174 1.6
      vertex 2.15486 1.72687 2.1
    endloop
  endfacet
  facet normal 0.980435 -0.196844 0
    outer loop
      vertex 2.224 2.07124 1.6
      vertex 2.224 2.07124 2.1
      vertex 2.15486 1.72687 1.6
    endloop
  endfacet
  facet normal 0.980435 -0.196844 0
    outer loop
      vertex 2.15486 1.72687 2.1
      vertex 2.15486 1.72687 1.6
      vertex 2.224 2.07124 2.1
    endloop
  endfacet
  facet normal 0.954247 -0.299019 0
    outer loop
      vertex 2.28967 2.28081 1.6
      vertex 2.28967 2.28081 2.1
      vertex 2.224 2.07124 1.6
    endloop
  endfacet
  facet normal 0.954247 -0.299019 0
    outer loop
      vertex 2.224 2.07124 2.1
      vertex 2.224 2.07124 1.6
      vertex 2.28967 2.28081 2.1
    endloop
  endfacet
  facet normal 0.912967 -0.408034 0
    outer loop
      vertex 2.36774 2.45549 1.6
      vertex 2.36774 2.45549 2.1
      vertex 2.28967 2.28081 1.6
    endloop
  endfacet
  facet normal 0.912967 -0.408034 0
    outer loop
      vertex 2.28967 2.28081 2.1
      vertex 2.28967 2.28081 1.6
      vertex 2.36774 2.45549 2.1
    endloop
  endfacet
  facet normal 0.839657 -0.543117 0
    outer loop
      vertex 2.45818 2.59531 1.6
      vertex 2.45818 2.59531 2.1
      vertex 2.36774 2.45549 1.6
    endloop
  endfacet
  facet normal 0.839657 -0.543117 0
    outer loop
      vertex 2.36774 2.45549 2.1
      vertex 2.36774 2.45549 1.6
      vertex 2.45818 2.59531 2.1
    endloop
  endfacet
  facet normal 0.714286 -0.699854 0
    outer loop
      vertex 2.56099 2.70024 1.6
      vertex 2.56099 2.70024 2.1
      vertex 2.45818 2.59531 1.6
    endloop
  endfacet
  facet normal 0.714286 -0.699854 0
    outer loop
      vertex 2.45818 2.59531 2.1
      vertex 2.45818 2.59531 1.6
      vertex 2.56099 2.70024 2.1
    endloop
  endfacet
  facet normal 0.564166 -0.825661 0
    outer loop
      vertex 2.67368 2.77724 1.6
      vertex 2.67368 2.77724 2.1
      vertex 2.56099 2.70024 1.6
    endloop
  endfacet
  facet normal 0.564166 -0.825661 0
    outer loop
      vertex 2.56099 2.70024 2.1
      vertex 2.56099 2.70024 1.6
      vertex 2.67368 2.77724 2.1
    endloop
  endfacet
  facet normal 0.416454 -0.909157 0
    outer loop
      vertex 2.79375 2.83224 1.6
      vertex 2.79375 2.83224 2.1
      vertex 2.67368 2.77724 1.6
    endloop
  endfacet
  facet normal 0.416454 -0.909157 0
    outer loop
      vertex 2.67368 2.77724 2.1
      vertex 2.67368 2.77724 1.6
      vertex 2.79375 2.83224 2.1
    endloop
  endfacet
  facet normal 0.250786 -0.968043 0
    outer loop
      vertex 2.92117 2.86525 1.6
      vertex 2.92117 2.86525 2.1
      vertex 2.79375 2.83224 1.6
    endloop
  endfacet
  facet normal 0.250786 -0.968043 0
    outer loop
      vertex 2.79375 2.83224 2.1
      vertex 2.79375 2.83224 1.6
      vertex 2.92117 2.86525 2.1
    endloop
  endfacet
  facet normal 0.0812406 -0.996695 0
    outer loop
      vertex 3.056 2.87624 1.6
      vertex 3.056 2.87624 2.1
      vertex 2.92117 2.86525 1.6
    endloop
  endfacet
  facet normal 0.0812406 -0.996695 0
    outer loop
      vertex 2.92117 2.86525 2.1
      vertex 2.92117 2.86525 1.6
      vertex 3.056 2.87624 2.1
    endloop
  endfacet
  facet normal -0.0813725 -0.996684 0
    outer loop
      vertex 3.19061 2.86525 1.6
      vertex 3.19061 2.86525 2.1
      vertex 3.056 2.87624 1.6
    endloop
  endfacet
  facet normal -0.0813725 -0.996684 -0
    outer loop
      vertex 3.056 2.87624 2.1
      vertex 3.056 2.87624 1.6
      vertex 3.19061 2.86525 2.1
    endloop
  endfacet
  facet normal -0.251785 -0.967783 0
    outer loop
      vertex 3.31749 2.83224 1.6
      vertex 3.31749 2.83224 2.1
      vertex 3.19061 2.86525 1.6
    endloop
  endfacet
  facet normal -0.251785 -0.967783 -0
    outer loop
      vertex 3.19061 2.86525 2.1
      vertex 3.19061 2.86525 1.6
      vertex 3.31749 2.83224 2.1
    endloop
  endfacet
  facet normal -0.419194 -0.907897 0
    outer loop
      vertex 3.43661 2.77724 1.6
      vertex 3.43661 2.77724 2.1
      vertex 3.31749 2.83224 1.6
    endloop
  endfacet
  facet normal -0.419194 -0.907897 -0
    outer loop
      vertex 3.31749 2.83224 2.1
      vertex 3.31749 2.83224 1.6
      vertex 3.43661 2.77724 2.1
    endloop
  endfacet
  facet normal -0.568665 -0.82257 0
    outer loop
      vertex 3.54799 2.70024 1.6
      vertex 3.54799 2.70024 2.1
      vertex 3.43661 2.77724 1.6
    endloop
  endfacet
  facet normal -0.568665 -0.82257 -0
    outer loop
      vertex 3.43661 2.77724 2.1
      vertex 3.43661 2.77724 1.6
      vertex 3.54799 2.70024 2.1
    endloop
  endfacet
  facet normal -0.727669 -0.685928 0
    outer loop
      vertex 3.65086 2.59111 1.6
      vertex 3.65086 2.59111 2.1
      vertex 3.54799 2.70024 1.6
    endloop
  endfacet
  facet normal -0.727669 -0.685928 -0
    outer loop
      vertex 3.54799 2.70024 2.1
      vertex 3.54799 2.70024 1.6
      vertex 3.65086 2.59111 2.1
    endloop
  endfacet
  facet normal -0.851998 -0.523545 0
    outer loop
      vertex 3.74449 2.43874 1.6
      vertex 3.74449 2.43874 2.1
      vertex 3.65086 2.59111 1.6
    endloop
  endfacet
  facet normal -0.851998 -0.523545 -0
    outer loop
      vertex 3.65086 2.59111 2.1
      vertex 3.65086 2.59111 1.6
      vertex 3.74449 2.43874 2.1
    endloop
  endfacet
  facet normal -0.91822 -0.396071 0
    outer loop
      vertex 3.82887 2.24312 1.6
      vertex 3.82887 2.24312 2.1
      vertex 3.74449 2.43874 1.6
    endloop
  endfacet
  facet normal -0.91822 -0.396071 -0
    outer loop
      vertex 3.74449 2.43874 2.1
      vertex 3.74449 2.43874 1.6
      vertex 3.82887 2.24312 2.1
    endloop
  endfacet
  facet normal -0.953944 -0.299984 0
    outer loop
      vertex 3.90399 2.00424 1.6
      vertex 3.90399 2.00424 2.1
      vertex 3.82887 2.24312 1.6
    endloop
  endfacet
  facet normal -0.953944 -0.299984 -0
    outer loop
      vertex 3.82887 2.24312 2.1
      vertex 3.82887 2.24312 1.6
      vertex 3.90399 2.00424 2.1
    endloop
  endfacet
  facet normal -0.981111 -0.193445 0
    outer loop
      vertex 3.96611 1.68918 1.6
      vertex 3.96611 1.68918 2.1
      vertex 3.90399 2.00424 1.6
    endloop
  endfacet
  facet normal -0.981111 -0.193445 -0
    outer loop
      vertex 3.90399 2.00424 2.1
      vertex 3.90399 2.00424 1.6
      vertex 3.96611 1.68918 2.1
    endloop
  endfacet
  facet normal -0.994569 -0.104081 0
    outer loop
      vertex 4.0105 1.265 1.6
      vertex 4.0105 1.265 2.1
      vertex 3.96611 1.68918 1.6
    endloop
  endfacet
  facet normal -0.994569 -0.104081 -0
    outer loop
      vertex 3.96611 1.68918 2.1
      vertex 3.96611 1.68918 1.6
      vertex 4.0105 1.265 2.1
    endloop
  endfacet
  facet normal -0.998757 -0.0498511 0
    outer loop
      vertex 4.03712 0.731674 1.6
      vertex 4.03712 0.731674 2.1
      vertex 4.0105 1.265 1.6
    endloop
  endfacet
  facet normal -0.998757 -0.0498511 -0
    outer loop
      vertex 4.0105 1.265 2.1
      vertex 4.0105 1.265 1.6
      vertex 4.03712 0.731674 2.1
    endloop
  endfacet
  facet normal -0.999905 -0.0138057 0
    outer loop
      vertex 4.04599 0.0892487 1.6
      vertex 4.04599 0.0892487 2.1
      vertex 4.03712 0.731674 1.6
    endloop
  endfacet
  facet normal -0.999905 -0.0138057 -0
    outer loop
      vertex 4.03712 0.731674 2.1
      vertex 4.03712 0.731674 1.6
      vertex 4.04599 0.0892487 2.1
    endloop
  endfacet
  facet normal -0.999883 0.0152802 0
    outer loop
      vertex 4.03612 -0.55661 1.6
      vertex 4.03612 -0.55661 2.1
      vertex 4.04599 0.0892487 1.6
    endloop
  endfacet
  facet normal -0.999883 0.0152802 0
    outer loop
      vertex 4.04599 0.0892487 2.1
      vertex 4.04599 0.0892487 1.6
      vertex 4.03612 -0.55661 2.1
    endloop
  endfacet
  facet normal -0.998522 0.0543419 0
    outer loop
      vertex 4.00648 -1.10124 1.6
      vertex 4.00648 -1.10124 2.1
      vertex 4.03612 -0.55661 1.6
    endloop
  endfacet
  facet normal -0.998522 0.0543419 0
    outer loop
      vertex 4.03612 -0.55661 2.1
      vertex 4.03612 -0.55661 1.6
      vertex 4.00648 -1.10124 2.1
    endloop
  endfacet
  facet normal -0.99386 0.110643 0
    outer loop
      vertex 3.95712 -1.54462 1.6
      vertex 3.95712 -1.54462 2.1
      vertex 4.00648 -1.10124 1.6
    endloop
  endfacet
  facet normal -0.99386 0.110643 0
    outer loop
      vertex 4.00648 -1.10124 2.1
      vertex 4.00648 -1.10124 1.6
      vertex 3.95712 -1.54462 2.1
    endloop
  endfacet
  facet normal -0.980191 0.198055 0
    outer loop
      vertex 3.88799 -1.88675 1.6
      vertex 3.88799 -1.88675 2.1
      vertex 3.95712 -1.54462 1.6
    endloop
  endfacet
  facet normal -0.980191 0.198055 0
    outer loop
      vertex 3.95712 -1.54462 2.1
      vertex 3.95712 -1.54462 1.6
      vertex 3.88799 -1.88675 2.1
    endloop
  endfacet
  facet normal -0.954255 0.298996 0
    outer loop
      vertex 3.82231 -2.09637 1.6
      vertex 3.82231 -2.09637 2.1
      vertex 3.88799 -1.88675 1.6
    endloop
  endfacet
  facet normal -0.954255 0.298996 0
    outer loop
      vertex 3.88799 -1.88675 2.1
      vertex 3.88799 -1.88675 1.6
      vertex 3.82231 -2.09637 2.1
    endloop
  endfacet
  facet normal -0.913151 0.407621 0
    outer loop
      vertex 3.74425 -2.27124 1.6
      vertex 3.74425 -2.27124 2.1
      vertex 3.82231 -2.09637 1.6
    endloop
  endfacet
  facet normal -0.913151 0.407621 0
    outer loop
      vertex 3.82231 -2.09637 2.1
      vertex 3.82231 -2.09637 1.6
      vertex 3.74425 -2.27124 2.1
    endloop
  endfacet
  facet normal -0.840187 0.542296 0
    outer loop
      vertex 3.65381 -2.41136 1.6
      vertex 3.65381 -2.41136 2.1
      vertex 3.74425 -2.27124 1.6
    endloop
  endfacet
  facet normal -0.840187 0.542296 0
    outer loop
      vertex 3.74425 -2.27124 2.1
      vertex 3.74425 -2.27124 1.6
      vertex 3.65381 -2.41136 2.1
    endloop
  endfacet
  facet normal -0.715747 0.698359 0
    outer loop
      vertex 3.55099 -2.51674 1.6
      vertex 3.55099 -2.51674 2.1
      vertex 3.65381 -2.41136 1.6
    endloop
  endfacet
  facet normal -0.715747 0.698359 0
    outer loop
      vertex 3.65381 -2.41136 2.1
      vertex 3.65381 -2.41136 1.6
      vertex 3.55099 -2.51674 2.1
    endloop
  endfacet
  facet normal -0.562047 0.827105 0
    outer loop
      vertex 3.43831 -2.59331 1.6
      vertex 3.43831 -2.59331 2.1
      vertex 3.55099 -2.51674 1.6
    endloop
  endfacet
  facet normal -0.562047 0.827105 0
    outer loop
      vertex 3.55099 -2.51674 2.1
      vertex 3.55099 -2.51674 1.6
      vertex 3.43831 -2.59331 2.1
    endloop
  endfacet
  facet normal -0.414448 0.910073 0
    outer loop
      vertex 3.31824 -2.64799 1.6
      vertex 3.31824 -2.64799 2.1
      vertex 3.43831 -2.59331 1.6
    endloop
  endfacet
  facet normal -0.414448 0.910073 0
    outer loop
      vertex 3.43831 -2.59331 2.1
      vertex 3.43831 -2.59331 1.6
      vertex 3.31824 -2.64799 2.1
    endloop
  endfacet
  facet normal -0.249342 0.968415 0
    outer loop
      vertex 3.19081 -2.6808 1.6
      vertex 3.19081 -2.6808 2.1
      vertex 3.31824 -2.64799 1.6
    endloop
  endfacet
  facet normal -0.249342 0.968415 0
    outer loop
      vertex 3.31824 -2.64799 2.1
      vertex 3.31824 -2.64799 1.6
      vertex 3.19081 -2.6808 2.1
    endloop
  endfacet
  facet normal -0.0808854 0.996723 0
    outer loop
      vertex 3.056 -2.69174 1.6
      vertex 3.056 -2.69174 2.1
      vertex 3.19081 -2.6808 1.6
    endloop
  endfacet
  facet normal -0.0808854 0.996723 0
    outer loop
      vertex 3.19081 -2.6808 2.1
      vertex 3.19081 -2.6808 1.6
      vertex 3.056 -2.69174 2.1
    endloop
  endfacet
  facet normal 0.0801101 0.996786 -0
    outer loop
      vertex 2.92137 -2.68092 1.6
      vertex 2.92137 -2.68092 2.1
      vertex 3.056 -2.69174 1.6
    endloop
  endfacet
  facet normal 0.0801101 0.996786 0
    outer loop
      vertex 3.056 -2.69174 2.1
      vertex 3.056 -2.69174 1.6
      vertex 2.92137 -2.68092 2.1
    endloop
  endfacet
endsolid OpenSCAD_Model
