solid OpenSCAD_Model
  facet normal 0 0 -1
    outer loop
      vertex 5.20355 -2.58392 1.6
      vertex 3.74425 -2.27124 1.6
      vertex 3.82231 -2.09637 1.6
    endloop
  endfacet
  facet normal 0 0 -1
    outer loop
      vertex 5.44824 -1.85149 1.6
      vertex 5.20355 -2.58392 1.6
      vertex 3.88799 -1.88675 1.6
    endloop
  endfacet
  facet normal 0 0 -1
    outer loop
      vertex 4.86099 -3.15775 1.6
      vertex 3.65381 -2.41136 1.6
      vertex 3.74425 -2.27124 1.6
    endloop
  endfacet
  facet normal 0 0 -1
    outer loop
      vertex 3.43831 -2.59331 1.6
      vertex 3.55099 -2.51674 1.6
      vertex 4.08624 -3.76825 1.6
    endloop
  endfacet
  facet normal -0 0 -1
    outer loop
      vertex 2.36725 -2.25874 1.6
      vertex 1.17999 -3.07874 1.6
      vertex 2.28256 -2.06349 1.6
    endloop
  endfacet
  facet normal 0 0 -1
    outer loop
      vertex 2.1055 1.28174 1.6
      vertex 2.07587 0.73587 1.6
      vertex 0.516937 1.15112 1.6
    endloop
  endfacet
  facet normal 0 -0 -1
    outer loop
      vertex 0.908432 2.76912 1.6
      vertex 2.224 2.07124 1.6
      vertex 0.663742 2.03874 1.6
    endloop
  endfacet
  facet normal 0 0 -1
    outer loop
      vertex 2.79375 2.83224 1.6
      vertex 2.50893 4.10536 1.6
      vertex 2.92117 2.86525 1.6
    endloop
  endfacet
  facet normal 0 0 -1
    outer loop
      vertex 2.92117 2.86525 1.6
      vertex 2.50893 4.10536 1.6
      vertex 3.056 4.15625 1.6
    endloop
  endfacet
  facet normal 0 0 -1
    outer loop
      vertex 0.663742 2.03874 1.6
      vertex 2.224 2.07124 1.6
      vertex 2.15486 1.72687 1.6
    endloop
  endfacet
  facet normal 0 0 -1
    outer loop
      vertex 0.516937 1.15112 1.6
      vertex 0.663742 2.03874 1.6
      vertex 2.1055 1.28174 1.6
    endloop
  endfacet
  facet normal 0 0 -1
    outer loop
      vertex 0.908432 2.76912 1.6
      vertex 1.25099 3.34224 1.6
      vertex 2.36774 2.45549 1.6
    endloop
  endfacet
  facet normal 0 0 -1
    outer loop
      vertex 2.36774 2.45549 1.6
      vertex 1.25099 3.34224 1.6
      vertex 2.45818 2.59531 1.6
    endloop
  endfacet
  facet normal 0 -0 -1
    outer loop
      vertex 0.516937 1.15112 1.6
      vertex 2.07587 0.73587 1.6
      vertex 0.467987 0.106247 1.6
    endloop
  endfacet
  facet normal 0 0 -1
    outer loop
      vertex -0.531174 2.62024 1.6
      vertex -3.41318 2.62024 1.6
      vertex -0.531174 4.02824 1.6
    endloop
  endfacet
  facet normal 0 0 -1
    outer loop
      vertex 0.467987 0.106247 1.6
      vertex 2.06599 0.0892487 1.6
      vertex 2.0748 -0.55275 1.6
    endloop
  endfacet
  facet normal 0 0 -1
    outer loop
      vertex 0.645996 -1.836 1.6
      vertex 0.512497 -0.952301 1.6
      vertex 2.10124 -1.08574 1.6
    endloop
  endfacet
  facet normal 0 0 -1
    outer loop
      vertex 3.74449 2.43874 1.6
      vertex 4.86699 3.33124 1.6
      vertex 5.20692 2.76187 1.6
    endloop
  endfacet
  facet normal 0 0 -1
    outer loop
      vertex -2.93517 0.252243 1.6
      vertex -3.13567 1.46574 1.6
      vertex -2.87329 1.51562 1.6
    endloop
  endfacet
  facet normal 0 0 -1
    outer loop
      vertex 3.96611 1.68918 1.6
      vertex 3.90399 2.00424 1.6
      vertex 5.44974 2.03174 1.6
    endloop
  endfacet
  facet normal 0 -0 -1
    outer loop
      vertex 5.59543 1.14087 1.6
      vertex 5.644 0.0892487 1.6
      vertex 4.03712 0.731674 1.6
    endloop
  endfacet
  facet normal 0 0 -1
    outer loop
      vertex -3.84567 -0.0717468 1.6
      vertex -3.65218 1.26624 1.6
      vertex -3.55917 0.108246 1.6
    endloop
  endfacet
  facet normal 0 0 -1
    outer loop
      vertex 5.644 0.0892487 1.6
      vertex 5.59506 -0.960434 1.6
      vertex 4.03612 -0.55661 1.6
    endloop
  endfacet
  facet normal 0 0 -1
    outer loop
      vertex -2.68361 0.229935 1.6
      vertex -2.11949 1.48575 1.6
      vertex -2.45692 0.162994 1.6
    endloop
  endfacet
  facet normal -0 0 -1
    outer loop
      vertex 2.67537 -2.59444 1.6
      vertex 2.00499 -3.74849 1.6
      vertex 2.564 -2.51874 1.6
    endloop
  endfacet
  facet normal 0 -0 -1
    outer loop
      vertex -1.76993 -1.53131 1.6
      vertex -0.320923 -2.08025 1.6
      vertex -1.83217 -1.84 1.6
    endloop
  endfacet
  facet normal -0 0 -1
    outer loop
      vertex 3.60306 -3.92087 1.6
      vertex 3.056 -3.97174 1.6
      vertex 3.19081 -2.6808 1.6
    endloop
  endfacet
  facet normal -0 0 -1
    outer loop
      vertex -0.213867 -1.62486 1.6
      vertex -0.320923 -2.08025 1.6
      vertex -1.76993 -1.53131 1.6
    endloop
  endfacet
  facet normal 0 -0 -1
    outer loop
      vertex 2.67537 -2.59444 1.6
      vertex 2.79449 -2.6485 1.6
      vertex 2.50224 -3.91592 1.6
    endloop
  endfacet
  facet normal 0 0 -1
    outer loop
      vertex -2.08118 -2.31374 1.6
      vertex -0.749176 -2.91074 1.6
      vertex -1.17542 -3.37492 1.6
    endloop
  endfacet
  facet normal 0 0 -1
    outer loop
      vertex 2.50224 -3.91592 1.6
      vertex 2.79449 -2.6485 1.6
      vertex 2.92137 -2.68092 1.6
    endloop
  endfacet
  facet normal 0 0 -1
    outer loop
      vertex -0.213867 -1.62486 1.6
      vertex -1.74918 -1.17474 1.6
      vertex -0.178177 -1.14275 1.6
    endloop
  endfacet
  facet normal 0 0 -1
    outer loop
      vertex 3.056 -3.97174 1.6
      vertex 2.50224 -3.91592 1.6
      vertex 2.92137 -2.68092 1.6
    endloop
  endfacet
  facet normal -0 -0 -1
    outer loop
      vertex 3.056 -2.69174 1.6
      vertex 3.056 -3.97174 1.6
      vertex 2.92137 -2.68092 1.6
    endloop
  endfacet
  facet normal 0 0 -1
    outer loop
      vertex 4.00648 -1.10124 1.6
      vertex 5.59506 -0.960434 1.6
      vertex 5.44824 -1.85149 1.6
    endloop
  endfacet
  facet normal 0 0 -1
    outer loop
      vertex 2.67537 -2.59444 1.6
      vertex 2.50224 -3.91592 1.6
      vertex 2.00499 -3.74849 1.6
    endloop
  endfacet
  facet normal 0 0 -1
    outer loop
      vertex 2.564 -2.51874 1.6
      vertex 2.00499 -3.74849 1.6
      vertex 1.56424 -3.46944 1.6
    endloop
  endfacet
  facet normal 0 -0 -1
    outer loop
      vertex 2.46106 -2.41049 1.6
      vertex 2.564 -2.51874 1.6
      vertex 1.56424 -3.46944 1.6
    endloop
  endfacet
  facet normal 0 0 -1
    outer loop
      vertex 1.56424 -3.46944 1.6
      vertex 1.17999 -3.07874 1.6
      vertex 2.46106 -2.41049 1.6
    endloop
  endfacet
  facet normal -0 0 -1
    outer loop
      vertex 2.46106 -2.41049 1.6
      vertex 1.17999 -3.07874 1.6
      vertex 2.36725 -2.25874 1.6
    endloop
  endfacet
  facet normal 0 0 -1
    outer loop
      vertex 0.8685 -2.5448 1.6
      vertex 2.20699 -1.82474 1.6
      vertex 2.28256 -2.06349 1.6
    endloop
  endfacet
  facet normal 0 0 -1
    outer loop
      vertex 0.8685 -2.5448 1.6
      vertex 2.28256 -2.06349 1.6
      vertex 1.17999 -3.07874 1.6
    endloop
  endfacet
  facet normal 0 0 -1
    outer loop
      vertex 0.8685 -2.5448 1.6
      vertex 0.645996 -1.836 1.6
      vertex 2.20699 -1.82474 1.6
    endloop
  endfacet
  facet normal -0 0 -1
    outer loop
      vertex 2.20699 -1.82474 1.6
      vertex 0.645996 -1.836 1.6
      vertex 2.14531 -1.50974 1.6
    endloop
  endfacet
  facet normal -0 0 -1
    outer loop
      vertex 2.14531 -1.50974 1.6
      vertex 0.645996 -1.836 1.6
      vertex 2.10124 -1.08574 1.6
    endloop
  endfacet
  facet normal 0 0 -1
    outer loop
      vertex 2.10124 -1.08574 1.6
      vertex 0.512497 -0.952301 1.6
      vertex 2.0748 -0.55275 1.6
    endloop
  endfacet
  facet normal -0 0 -1
    outer loop
      vertex 2.0748 -0.55275 1.6
      vertex 0.512497 -0.952301 1.6
      vertex 0.467987 0.106247 1.6
    endloop
  endfacet
  facet normal 0 0 -1
    outer loop
      vertex 0.467987 0.106247 1.6
      vertex 2.07587 0.73587 1.6
      vertex 2.06599 0.0892487 1.6
    endloop
  endfacet
  facet normal 0 0 -1
    outer loop
      vertex 3.31749 2.83224 1.6
      vertex 3.60342 4.10468 1.6
      vertex 4.08774 3.95 1.6
    endloop
  endfacet
  facet normal 0 0 -1
    outer loop
      vertex 2.1055 1.28174 1.6
      vertex 0.663742 2.03874 1.6
      vertex 2.15486 1.72687 1.6
    endloop
  endfacet
  facet normal 0 0 -1
    outer loop
      vertex 5.59543 1.14087 1.6
      vertex 4.0105 1.265 1.6
      vertex 5.44974 2.03174 1.6
    endloop
  endfacet
  facet normal 0 0 -1
    outer loop
      vertex 0.908432 2.76912 1.6
      vertex 2.28967 2.28081 1.6
      vertex 2.224 2.07124 1.6
    endloop
  endfacet
  facet normal 0 0 -1
    outer loop
      vertex 3.90399 2.00424 1.6
      vertex 3.82887 2.24312 1.6
      vertex 5.20692 2.76187 1.6
    endloop
  endfacet
  facet normal 0 0 -1
    outer loop
      vertex 0.908432 2.76912 1.6
      vertex 2.36774 2.45549 1.6
      vertex 2.28967 2.28081 1.6
    endloop
  endfacet
  facet normal 0 0 -1
    outer loop
      vertex 3.82887 2.24312 1.6
      vertex 3.74449 2.43874 1.6
      vertex 5.20692 2.76187 1.6
    endloop
  endfacet
  facet normal 0 0 -1
    outer loop
      vertex 2.45818 2.59531 1.6
      vertex 1.25099 3.34224 1.6
      vertex 1.60643 3.69836 1.6
    endloop
  endfacet
  facet normal -0 0 -1
    outer loop
      vertex 2.56099 2.70024 1.6
      vertex 2.45818 2.59531 1.6
      vertex 1.60643 3.69836 1.6
    endloop
  endfacet
  facet normal 0 -0 -1
    outer loop
      vertex 2.02574 3.95274 1.6
      vertex 2.56099 2.70024 1.6
      vertex 1.60643 3.69836 1.6
    endloop
  endfacet
  facet normal 0 0 -1
    outer loop
      vertex 2.02574 3.95274 1.6
      vertex 2.79375 2.83224 1.6
      vertex 2.67368 2.77724 1.6
    endloop
  endfacet
  facet normal 0 0 -1
    outer loop
      vertex 2.02574 3.95274 1.6
      vertex 2.67368 2.77724 1.6
      vertex 2.56099 2.70024 1.6
    endloop
  endfacet
  facet normal 0 0 -1
    outer loop
      vertex 2.02574 3.95274 1.6
      vertex 2.50893 4.10536 1.6
      vertex 2.79375 2.83224 1.6
    endloop
  endfacet
  facet normal -0 0 -1
    outer loop
      vertex 3.056 2.87624 1.6
      vertex 2.92117 2.86525 1.6
      vertex 3.056 4.15625 1.6
    endloop
  endfacet
  facet normal 0 0 -1
    outer loop
      vertex 3.19061 2.86525 1.6
      vertex 3.056 2.87624 1.6
      vertex 3.056 4.15625 1.6
    endloop
  endfacet
  facet normal 0 0 -1
    outer loop
      vertex 3.60342 4.10468 1.6
      vertex 3.31749 2.83224 1.6
      vertex 3.19061 2.86525 1.6
    endloop
  endfacet
  facet normal -0 0 -1
    outer loop
      vertex 3.60342 4.10468 1.6
      vertex 3.19061 2.86525 1.6
      vertex 3.056 4.15625 1.6
    endloop
  endfacet
  facet normal 0 0 -1
    outer loop
      vertex 3.43661 2.77724 1.6
      vertex 3.31749 2.83224 1.6
      vertex 4.08774 3.95 1.6
    endloop
  endfacet
  facet normal 0 0 -1
    outer loop
      vertex 3.54799 2.70024 1.6
      vertex 3.43661 2.77724 1.6
      vertex 4.08774 3.95 1.6
    endloop
  endfacet
  facet normal 0 0 -1
    outer loop
      vertex 4.50893 3.69218 1.6
      vertex 3.65086 2.59111 1.6
      vertex 3.54799 2.70024 1.6
    endloop
  endfacet
  facet normal -0 0 -1
    outer loop
      vertex 4.50893 3.69218 1.6
      vertex 3.54799 2.70024 1.6
      vertex 4.08774 3.95 1.6
    endloop
  endfacet
  facet normal 0 -0 -1
    outer loop
      vertex 4.50893 3.69218 1.6
      vertex 4.86699 3.33124 1.6
      vertex 3.65086 2.59111 1.6
    endloop
  endfacet
  facet normal 0 0 -1
    outer loop
      vertex 3.65086 2.59111 1.6
      vertex 4.86699 3.33124 1.6
      vertex 3.74449 2.43874 1.6
    endloop
  endfacet
  facet normal -0 0 -1
    outer loop
      vertex 5.44974 2.03174 1.6
      vertex 3.90399 2.00424 1.6
      vertex 5.20692 2.76187 1.6
    endloop
  endfacet
  facet normal 0 0 -1
    outer loop
      vertex 4.0105 1.265 1.6
      vertex 3.96611 1.68918 1.6
      vertex 5.44974 2.03174 1.6
    endloop
  endfacet
  facet normal -0 0 -1
    outer loop
      vertex 5.59543 1.14087 1.6
      vertex 4.03712 0.731674 1.6
      vertex 4.0105 1.265 1.6
    endloop
  endfacet
  facet normal 0 0 -1
    outer loop
      vertex 4.03712 0.731674 1.6
      vertex 5.644 0.0892487 1.6
      vertex 4.04599 0.0892487 1.6
    endloop
  endfacet
  facet normal 0 0 -1
    outer loop
      vertex 4.03612 -0.55661 1.6
      vertex 4.04599 0.0892487 1.6
      vertex 5.644 0.0892487 1.6
    endloop
  endfacet
  facet normal 0 -0 -1
    outer loop
      vertex 4.03612 -0.55661 1.6
      vertex 5.59506 -0.960434 1.6
      vertex 4.00648 -1.10124 1.6
    endloop
  endfacet
  facet normal 0 -0 -1
    outer loop
      vertex 4.00648 -1.10124 1.6
      vertex 5.44824 -1.85149 1.6
      vertex 3.95712 -1.54462 1.6
    endloop
  endfacet
  facet normal 0 -0 -1
    outer loop
      vertex 3.95712 -1.54462 1.6
      vertex 5.44824 -1.85149 1.6
      vertex 3.88799 -1.88675 1.6
    endloop
  endfacet
  facet normal 0 -0 -1
    outer loop
      vertex 3.88799 -1.88675 1.6
      vertex 5.20355 -2.58392 1.6
      vertex 3.82231 -2.09637 1.6
    endloop
  endfacet
  facet normal -0 0 -1
    outer loop
      vertex 5.20355 -2.58392 1.6
      vertex 4.86099 -3.15775 1.6
      vertex 3.74425 -2.27124 1.6
    endloop
  endfacet
  facet normal -0 0 -1
    outer loop
      vertex 4.86099 -3.15775 1.6
      vertex 4.50555 -3.51387 1.6
      vertex 3.65381 -2.41136 1.6
    endloop
  endfacet
  facet normal 0 -0 -1
    outer loop
      vertex 3.65381 -2.41136 1.6
      vertex 4.50555 -3.51387 1.6
      vertex 3.55099 -2.51674 1.6
    endloop
  endfacet
  facet normal 0 0 -1
    outer loop
      vertex 3.55099 -2.51674 1.6
      vertex 4.50555 -3.51387 1.6
      vertex 4.08624 -3.76825 1.6
    endloop
  endfacet
  facet normal 0 -0 -1
    outer loop
      vertex 3.43831 -2.59331 1.6
      vertex 4.08624 -3.76825 1.6
      vertex 3.31824 -2.64799 1.6
    endloop
  endfacet
  facet normal 0 0 -1
    outer loop
      vertex 3.31824 -2.64799 1.6
      vertex 4.08624 -3.76825 1.6
      vertex 3.60306 -3.92087 1.6
    endloop
  endfacet
  facet normal 0 0 -1
    outer loop
      vertex 3.056 -2.69174 1.6
      vertex 3.19081 -2.6808 1.6
      vertex 3.056 -3.97174 1.6
    endloop
  endfacet
  facet normal 0 0 -1
    outer loop
      vertex 3.19081 -2.6808 1.6
      vertex 3.31824 -2.64799 1.6
      vertex 3.60306 -3.92087 1.6
    endloop
  endfacet
  facet normal -0 0 -1
    outer loop
      vertex -0.354919 -0.0664978 1.6
      vertex -1.83142 -0.550735 1.6
      vertex -0.575867 0.38855 1.6
    endloop
  endfacet
  facet normal 0 0 -1
    outer loop
      vertex -2.25511 0.0514374 1.6
      vertex -1.25798 1.11374 1.6
      vertex -2.07817 -0.104736 1.6
    endloop
  endfacet
  facet normal 0 0 -1
    outer loop
      vertex -5.35417 -0.145737 1.6
      vertex -3.65218 1.26624 1.6
      vertex -3.84567 -0.0717468 1.6
    endloop
  endfacet
  facet normal 0 0 -1
    outer loop
      vertex -3.65218 1.26624 1.6
      vertex -3.25568 0.216248 1.6
      vertex -3.55917 0.108246 1.6
    endloop
  endfacet
  facet normal 0 0 -1
    outer loop
      vertex -3.25568 0.216248 1.6
      vertex -3.65218 1.26624 1.6
      vertex -3.39529 1.38261 1.6
    endloop
  endfacet
  facet normal 0 0 -1
    outer loop
      vertex -2.87329 1.51562 1.6
      vertex -2.60817 1.53224 1.6
      vertex -2.68361 0.229935 1.6
    endloop
  endfacet
  facet normal 0 0 -1
    outer loop
      vertex -2.45692 0.162994 1.6
      vertex -2.11949 1.48575 1.6
      vertex -1.66942 1.34624 1.6
    endloop
  endfacet
  facet normal 0 0 -1
    outer loop
      vertex -1.93423 -0.305496 1.6
      vertex -0.575867 0.38855 1.6
      vertex -1.83142 -0.550735 1.6
    endloop
  endfacet
  facet normal 0 0 -1
    outer loop
      vertex -1.83142 -0.550735 1.6
      vertex -0.354919 -0.0664978 1.6
      vertex -0.222366 -0.576935 1.6
    endloop
  endfacet
  facet normal -0 0 -1
    outer loop
      vertex -3.65218 1.26624 1.6
      vertex -5.35417 -0.145737 1.6
      vertex -4.57117 4.02824 1.6
    endloop
  endfacet
  facet normal -0 0 -1
    outer loop
      vertex -3.41318 2.62024 1.6
      vertex -3.65218 1.26624 1.6
      vertex -4.57117 4.02824 1.6
    endloop
  endfacet
  facet normal -0 0 -1
    outer loop
      vertex -0.531174 4.02824 1.6
      vertex -3.41318 2.62024 1.6
      vertex -4.57117 4.02824 1.6
    endloop
  endfacet
  facet normal 0 0 -1
    outer loop
      vertex -2.2563 -2.47911 1.6
      vertex -1.17542 -3.37492 1.6
      vertex -1.67717 -3.7065 1.6
    endloop
  endfacet
  facet normal 0 0 -1
    outer loop
      vertex -5.26317 -2.60249 1.6
      vertex -3.88817 -1.97849 1.6
      vertex -5.02017 -2.99918 1.6
    endloop
  endfacet
  facet normal 0 0 -1
    outer loop
      vertex -3.84567 -0.0717468 1.6
      vertex -4.11517 -0.323746 1.6
      vertex -5.35417 -0.145737 1.6
    endloop
  endfacet
  facet normal 0 0 -1
    outer loop
      vertex -2.6613 -2.66812 1.6
      vertex -2.90717 -3.97174 1.6
      vertex -2.89117 -2.69174 1.6
    endloop
  endfacet
  facet normal 0 -0 -1
    outer loop
      vertex -3.13567 1.46574 1.6
      vertex -2.93517 0.252243 1.6
      vertex -3.39529 1.38261 1.6
    endloop
  endfacet
  facet normal -0 0 -1
    outer loop
      vertex -2.93517 0.252243 1.6
      vertex -3.25568 0.216248 1.6
      vertex -3.39529 1.38261 1.6
    endloop
  endfacet
  facet normal 0 -0 -1
    outer loop
      vertex -2.87329 1.51562 1.6
      vertex -2.68361 0.229935 1.6
      vertex -2.93517 0.252243 1.6
    endloop
  endfacet
  facet normal 0 -0 -1
    outer loop
      vertex -2.60817 1.53224 1.6
      vertex -2.11949 1.48575 1.6
      vertex -2.68361 0.229935 1.6
    endloop
  endfacet
  facet normal 0 0 -1
    outer loop
      vertex -2.25511 0.0514374 1.6
      vertex -2.45692 0.162994 1.6
      vertex -1.66942 1.34624 1.6
    endloop
  endfacet
  facet normal 0 -0 -1
    outer loop
      vertex -1.66942 1.34624 1.6
      vertex -1.25798 1.11374 1.6
      vertex -2.25511 0.0514374 1.6
    endloop
  endfacet
  facet normal 0 0 -1
    outer loop
      vertex -0.885178 0.788239 1.6
      vertex -1.93423 -0.305496 1.6
      vertex -2.07817 -0.104736 1.6
    endloop
  endfacet
  facet normal -0 0 -1
    outer loop
      vertex -0.885178 0.788239 1.6
      vertex -2.07817 -0.104736 1.6
      vertex -1.25798 1.11374 1.6
    endloop
  endfacet
  facet normal 0 -0 -1
    outer loop
      vertex -0.885178 0.788239 1.6
      vertex -0.575867 0.38855 1.6
      vertex -1.93423 -0.305496 1.6
    endloop
  endfacet
  facet normal 0 0 -1
    outer loop
      vertex -1.76973 -0.8405 1.6
      vertex -1.83142 -0.550735 1.6
      vertex -0.222366 -0.576935 1.6
    endloop
  endfacet
  facet normal -0 0 -1
    outer loop
      vertex -0.178177 -1.14275 1.6
      vertex -1.74918 -1.17474 1.6
      vertex -1.76973 -0.8405 1.6
    endloop
  endfacet
  facet normal 0 0 -1
    outer loop
      vertex -0.178177 -1.14275 1.6
      vertex -1.76973 -0.8405 1.6
      vertex -0.222366 -0.576935 1.6
    endloop
  endfacet
  facet normal 0 0 -1
    outer loop
      vertex -0.213867 -1.62486 1.6
      vertex -1.76993 -1.53131 1.6
      vertex -1.74918 -1.17474 1.6
    endloop
  endfacet
  facet normal 0 0 -1
    outer loop
      vertex -1.83217 -1.84 1.6
      vertex -0.320923 -2.08025 1.6
      vertex -0.499359 -2.50887 1.6
    endloop
  endfacet
  facet normal 0 0 -1
    outer loop
      vertex -1.93593 -2.1008 1.6
      vertex -1.83217 -1.84 1.6
      vertex -0.499359 -2.50887 1.6
    endloop
  endfacet
  facet normal -0 0 -1
    outer loop
      vertex -0.499359 -2.50887 1.6
      vertex -0.749176 -2.91074 1.6
      vertex -1.93593 -2.1008 1.6
    endloop
  endfacet
  facet normal 0 -0 -1
    outer loop
      vertex -1.93593 -2.1008 1.6
      vertex -0.749176 -2.91074 1.6
      vertex -2.08118 -2.31374 1.6
    endloop
  endfacet
  facet normal 0 -0 -1
    outer loop
      vertex -2.08118 -2.31374 1.6
      vertex -1.17542 -3.37492 1.6
      vertex -2.2563 -2.47911 1.6
    endloop
  endfacet
  facet normal 0 -0 -1
    outer loop
      vertex -2.2563 -2.47911 1.6
      vertex -1.67717 -3.7065 1.6
      vertex -2.44968 -2.59724 1.6
    endloop
  endfacet
  facet normal 0 0 -1
    outer loop
      vertex -2.44968 -2.59724 1.6
      vertex -1.67717 -3.7065 1.6
      vertex -2.25443 -3.90543 1.6
    endloop
  endfacet
  facet normal 0 0 -1
    outer loop
      vertex -2.6613 -2.66812 1.6
      vertex -2.44968 -2.59724 1.6
      vertex -2.25443 -3.90543 1.6
    endloop
  endfacet
  facet normal 0 0 -1
    outer loop
      vertex -2.90717 -3.97174 1.6
      vertex -2.6613 -2.66812 1.6
      vertex -2.25443 -3.90543 1.6
    endloop
  endfacet
  facet normal -0 0 -1
    outer loop
      vertex -2.89117 -2.69174 1.6
      vertex -2.90717 -3.97174 1.6
      vertex -3.09454 -2.67131 1.6
    endloop
  endfacet
  facet normal 0 0 -1
    outer loop
      vertex -3.43367 -3.93237 1.6
      vertex -3.90918 -3.81424 1.6
      vertex -3.28568 -2.60999 1.6
    endloop
  endfacet
  facet normal 0 0 -1
    outer loop
      vertex -4.33368 -3.61737 1.6
      vertex -3.63116 -2.36475 1.6
      vertex -3.46455 -2.50781 1.6
    endloop
  endfacet
  facet normal 0 -0 -1
    outer loop
      vertex -3.88817 -1.97849 1.6
      vertex -3.77567 -2.18617 1.6
      vertex -5.02017 -2.99918 1.6
    endloop
  endfacet
  facet normal 0 0 -1
    outer loop
      vertex -5.43617 -2.15167 1.6
      vertex -3.88817 -1.97849 1.6
      vertex -5.26317 -2.60249 1.6
    endloop
  endfacet
  facet normal 0 0 -1
    outer loop
      vertex -5.43617 -2.15167 1.6
      vertex -3.96867 -1.74168 1.6
      vertex -3.88817 -1.97849 1.6
    endloop
  endfacet
  facet normal -0 0 -1
    outer loop
      vertex -3.96867 -1.74168 1.6
      vertex -5.43617 -2.15167 1.6
      vertex -5.53917 -1.64674 1.6
    endloop
  endfacet
  facet normal 0 -0 -1
    outer loop
      vertex -4.01717 -1.47574 1.6
      vertex -3.96867 -1.74168 1.6
      vertex -5.53917 -1.64674 1.6
    endloop
  endfacet
  facet normal 0 0 -1
    outer loop
      vertex -5.02017 -2.99918 1.6
      vertex -3.77567 -2.18617 1.6
      vertex -4.70717 -3.34174 1.6
    endloop
  endfacet
  facet normal 0 0 -1
    outer loop
      vertex -4.70717 -3.34174 1.6
      vertex -3.77567 -2.18617 1.6
      vertex -3.63116 -2.36475 1.6
    endloop
  endfacet
  facet normal 0 0 -1
    outer loop
      vertex -4.33368 -3.61737 1.6
      vertex -4.70717 -3.34174 1.6
      vertex -3.63116 -2.36475 1.6
    endloop
  endfacet
  facet normal 0 0 -1
    outer loop
      vertex -3.90918 -3.81424 1.6
      vertex -4.33368 -3.61737 1.6
      vertex -3.46455 -2.50781 1.6
    endloop
  endfacet
  facet normal -0 0 -1
    outer loop
      vertex -3.28568 -2.60999 1.6
      vertex -3.90918 -3.81424 1.6
      vertex -3.46455 -2.50781 1.6
    endloop
  endfacet
  facet normal -0 0 -1
    outer loop
      vertex -3.09454 -2.67131 1.6
      vertex -3.43367 -3.93237 1.6
      vertex -3.28568 -2.60999 1.6
    endloop
  endfacet
  facet normal 0 -0 -1
    outer loop
      vertex -3.09454 -2.67131 1.6
      vertex -2.90717 -3.97174 1.6
      vertex -3.43367 -3.93237 1.6
    endloop
  endfacet
  facet normal 0 0 1
    outer loop
      vertex 3.82231 -2.09637 2.1
      vertex 3.74425 -2.27124 2.1
      vertex 5.20355 -2.58392 2.1
    endloop
  endfacet
  facet normal -0 0 1
    outer loop
      vertex 3.88799 -1.88675 2.1
      vertex 5.20355 -2.58392 2.1
      vertex 5.44824 -1.85149 2.1
    endloop
  endfacet
  facet normal 0 0 1
    outer loop
      vertex 3.74425 -2.27124 2.1
      vertex 3.65381 -2.41136 2.1
      vertex 4.86099 -3.15775 2.1
    endloop
  endfacet
  facet normal 0 0 1
    outer loop
      vertex 4.08624 -3.76825 2.1
      vertex 3.55099 -2.51674 2.1
      vertex 3.43831 -2.59331 2.1
    endloop
  endfacet
  facet normal 0 0 1
    outer loop
      vertex 2.28256 -2.06349 2.1
      vertex 1.17999 -3.07874 2.1
      vertex 2.36725 -2.25874 2.1
    endloop
  endfacet
  facet normal -0 0 1
    outer loop
      vertex 0.516937 1.15112 2.1
      vertex 2.07587 0.73587 2.1
      vertex 2.1055 1.28174 2.1
    endloop
  endfacet
  facet normal 0 0 1
    outer loop
      vertex 0.663742 2.03874 2.1
      vertex 2.224 2.07124 2.1
      vertex 0.908432 2.76912 2.1
    endloop
  endfacet
  facet normal 0 0 1
    outer loop
      vertex 2.92117 2.86525 2.1
      vertex 2.50893 4.10536 2.1
      vertex 2.79375 2.83224 2.1
    endloop
  endfacet
  facet normal 0 0 1
    outer loop
      vertex 3.056 4.15625 2.1
      vertex 2.50893 4.10536 2.1
      vertex 2.92117 2.86525 2.1
    endloop
  endfacet
  facet normal 0 -0 1
    outer loop
      vertex 2.15486 1.72687 2.1
      vertex 2.224 2.07124 2.1
      vertex 0.663742 2.03874 2.1
    endloop
  endfacet
  facet normal 0 0 1
    outer loop
      vertex 2.1055 1.28174 2.1
      vertex 0.663742 2.03874 2.1
      vertex 0.516937 1.15112 2.1
    endloop
  endfacet
  facet normal 0 0 1
    outer loop
      vertex 2.36774 2.45549 2.1
      vertex 1.25099 3.34224 2.1
      vertex 0.908432 2.76912 2.1
    endloop
  endfacet
  facet normal 0 0 1
    outer loop
      vertex 2.45818 2.59531 2.1
      vertex 1.25099 3.34224 2.1
      vertex 2.36774 2.45549 2.1
    endloop
  endfacet
  facet normal 0 0 1
    outer loop
      vertex 0.467987 0.106247 2.1
      vertex 2.07587 0.73587 2.1
      vertex 0.516937 1.15112 2.1
    endloop
  endfacet
  facet normal 0 0 1
    outer loop
      vertex -0.531174 4.02824 2.1
      vertex -3.41318 2.62024 2.1
      vertex -0.531174 2.62024 2.1
    endloop
  endfacet
  facet normal 0 0 1
    outer loop
      vertex 2.0748 -0.55275 2.1
      vertex 2.06599 0.0892487 2.1
      vertex 0.467987 0.106247 2.1
    endloop
  endfacet
  facet normal 0 0 1
    outer loop
      vertex 2.10124 -1.08574 2.1
      vertex 0.512497 -0.952301 2.1
      vertex 0.645996 -1.836 2.1
    endloop
  endfacet
  facet normal 0 0 1
    outer loop
      vertex 5.20692 2.76187 2.1
      vertex 4.86699 3.33124 2.1
      vertex 3.74449 2.43874 2.1
    endloop
  endfacet
  facet normal 0 0 1
    outer loop
      vertex -2.87329 1.51562 2.1
      vertex -3.13567 1.46574 2.1
      vertex -2.93517 0.252243 2.1
    endloop
  endfacet
  facet normal 0 0 1
    outer loop
      vertex 5.44974 2.03174 2.1
      vertex 3.90399 2.00424 2.1
      vertex 3.96611 1.68918 2.1
    endloop
  endfacet
  facet normal -0 0 1
    outer loop
      vertex 4.03712 0.731674 2.1
      vertex 5.644 0.0892487 2.1
      vertex 5.59543 1.14087 2.1
    endloop
  endfacet
  facet normal 0 0 1
    outer loop
      vertex -3.55917 0.108246 2.1
      vertex -3.65218 1.26624 2.1
      vertex -3.84567 -0.0717468 2.1
    endloop
  endfacet
  facet normal -0 0 1
    outer loop
      vertex 4.03612 -0.55661 2.1
      vertex 5.59506 -0.960434 2.1
      vertex 5.644 0.0892487 2.1
    endloop
  endfacet
  facet normal 0 -0 1
    outer loop
      vertex -2.45692 0.162994 2.1
      vertex -2.11949 1.48575 2.1
      vertex -2.68361 0.229935 2.1
    endloop
  endfacet
  facet normal 0 0 1
    outer loop
      vertex 2.564 -2.51874 2.1
      vertex 2.00499 -3.74849 2.1
      vertex 2.67537 -2.59444 2.1
    endloop
  endfacet
  facet normal -0 0 1
    outer loop
      vertex -1.83217 -1.84 2.1
      vertex -0.320923 -2.08025 2.1
      vertex -1.76993 -1.53131 2.1
    endloop
  endfacet
  facet normal 0 0 1
    outer loop
      vertex 3.19081 -2.6808 2.1
      vertex 3.056 -3.97174 2.1
      vertex 3.60306 -3.92087 2.1
    endloop
  endfacet
  facet normal 0 0 1
    outer loop
      vertex -1.76993 -1.53131 2.1
      vertex -0.320923 -2.08025 2.1
      vertex -0.213867 -1.62486 2.1
    endloop
  endfacet
  facet normal 0 0 1
    outer loop
      vertex 2.50224 -3.91592 2.1
      vertex 2.79449 -2.6485 2.1
      vertex 2.67537 -2.59444 2.1
    endloop
  endfacet
  facet normal 0 -0 1
    outer loop
      vertex -1.17542 -3.37492 2.1
      vertex -0.749176 -2.91074 2.1
      vertex -2.08118 -2.31374 2.1
    endloop
  endfacet
  facet normal 0 0 1
    outer loop
      vertex 2.92137 -2.68092 2.1
      vertex 2.79449 -2.6485 2.1
      vertex 2.50224 -3.91592 2.1
    endloop
  endfacet
  facet normal 0 0 1
    outer loop
      vertex -0.178177 -1.14275 2.1
      vertex -1.74918 -1.17474 2.1
      vertex -0.213867 -1.62486 2.1
    endloop
  endfacet
  facet normal 0 0 1
    outer loop
      vertex 2.92137 -2.68092 2.1
      vertex 2.50224 -3.91592 2.1
      vertex 3.056 -3.97174 2.1
    endloop
  endfacet
  facet normal 0 0 1
    outer loop
      vertex 2.92137 -2.68092 2.1
      vertex 3.056 -3.97174 2.1
      vertex 3.056 -2.69174 2.1
    endloop
  endfacet
  facet normal 0 -0 1
    outer loop
      vertex 5.44824 -1.85149 2.1
      vertex 5.59506 -0.960434 2.1
      vertex 4.00648 -1.10124 2.1
    endloop
  endfacet
  facet normal -0 0 1
    outer loop
      vertex 2.00499 -3.74849 2.1
      vertex 2.50224 -3.91592 2.1
      vertex 2.67537 -2.59444 2.1
    endloop
  endfacet
  facet normal -0 0 1
    outer loop
      vertex 1.56424 -3.46944 2.1
      vertex 2.00499 -3.74849 2.1
      vertex 2.564 -2.51874 2.1
    endloop
  endfacet
  facet normal 0 0 1
    outer loop
      vertex 1.56424 -3.46944 2.1
      vertex 2.564 -2.51874 2.1
      vertex 2.46106 -2.41049 2.1
    endloop
  endfacet
  facet normal 0 0 1
    outer loop
      vertex 2.46106 -2.41049 2.1
      vertex 1.17999 -3.07874 2.1
      vertex 1.56424 -3.46944 2.1
    endloop
  endfacet
  facet normal 0 0 1
    outer loop
      vertex 2.36725 -2.25874 2.1
      vertex 1.17999 -3.07874 2.1
      vertex 2.46106 -2.41049 2.1
    endloop
  endfacet
  facet normal 0 0 1
    outer loop
      vertex 2.28256 -2.06349 2.1
      vertex 2.20699 -1.82474 2.1
      vertex 0.8685 -2.5448 2.1
    endloop
  endfacet
  facet normal 0 -0 1
    outer loop
      vertex 1.17999 -3.07874 2.1
      vertex 2.28256 -2.06349 2.1
      vertex 0.8685 -2.5448 2.1
    endloop
  endfacet
  facet normal 0 0 1
    outer loop
      vertex 2.20699 -1.82474 2.1
      vertex 0.645996 -1.836 2.1
      vertex 0.8685 -2.5448 2.1
    endloop
  endfacet
  facet normal 0 0 1
    outer loop
      vertex 2.14531 -1.50974 2.1
      vertex 0.645996 -1.836 2.1
      vertex 2.20699 -1.82474 2.1
    endloop
  endfacet
  facet normal 0 0 1
    outer loop
      vertex 2.10124 -1.08574 2.1
      vertex 0.645996 -1.836 2.1
      vertex 2.14531 -1.50974 2.1
    endloop
  endfacet
  facet normal 0 0 1
    outer loop
      vertex 2.0748 -0.55275 2.1
      vertex 0.512497 -0.952301 2.1
      vertex 2.10124 -1.08574 2.1
    endloop
  endfacet
  facet normal 0 0 1
    outer loop
      vertex 0.467987 0.106247 2.1
      vertex 0.512497 -0.952301 2.1
      vertex 2.0748 -0.55275 2.1
    endloop
  endfacet
  facet normal 0 -0 1
    outer loop
      vertex 2.06599 0.0892487 2.1
      vertex 2.07587 0.73587 2.1
      vertex 0.467987 0.106247 2.1
    endloop
  endfacet
  facet normal 0 0 1
    outer loop
      vertex 4.08774 3.95 2.1
      vertex 3.60342 4.10468 2.1
      vertex 3.31749 2.83224 2.1
    endloop
  endfacet
  facet normal 0 0 1
    outer loop
      vertex 2.15486 1.72687 2.1
      vertex 0.663742 2.03874 2.1
      vertex 2.1055 1.28174 2.1
    endloop
  endfacet
  facet normal 0 0 1
    outer loop
      vertex 5.44974 2.03174 2.1
      vertex 4.0105 1.265 2.1
      vertex 5.59543 1.14087 2.1
    endloop
  endfacet
  facet normal 0 -0 1
    outer loop
      vertex 2.224 2.07124 2.1
      vertex 2.28967 2.28081 2.1
      vertex 0.908432 2.76912 2.1
    endloop
  endfacet
  facet normal 0 0 1
    outer loop
      vertex 5.20692 2.76187 2.1
      vertex 3.82887 2.24312 2.1
      vertex 3.90399 2.00424 2.1
    endloop
  endfacet
  facet normal 0 -0 1
    outer loop
      vertex 2.28967 2.28081 2.1
      vertex 2.36774 2.45549 2.1
      vertex 0.908432 2.76912 2.1
    endloop
  endfacet
  facet normal 0 0 1
    outer loop
      vertex 5.20692 2.76187 2.1
      vertex 3.74449 2.43874 2.1
      vertex 3.82887 2.24312 2.1
    endloop
  endfacet
  facet normal 0 0 1
    outer loop
      vertex 1.60643 3.69836 2.1
      vertex 1.25099 3.34224 2.1
      vertex 2.45818 2.59531 2.1
    endloop
  endfacet
  facet normal 0 0 1
    outer loop
      vertex 1.60643 3.69836 2.1
      vertex 2.45818 2.59531 2.1
      vertex 2.56099 2.70024 2.1
    endloop
  endfacet
  facet normal -0 0 1
    outer loop
      vertex 1.60643 3.69836 2.1
      vertex 2.56099 2.70024 2.1
      vertex 2.02574 3.95274 2.1
    endloop
  endfacet
  facet normal 0 -0 1
    outer loop
      vertex 2.67368 2.77724 2.1
      vertex 2.79375 2.83224 2.1
      vertex 2.02574 3.95274 2.1
    endloop
  endfacet
  facet normal 0 -0 1
    outer loop
      vertex 2.56099 2.70024 2.1
      vertex 2.67368 2.77724 2.1
      vertex 2.02574 3.95274 2.1
    endloop
  endfacet
  facet normal 0 0 1
    outer loop
      vertex 2.79375 2.83224 2.1
      vertex 2.50893 4.10536 2.1
      vertex 2.02574 3.95274 2.1
    endloop
  endfacet
  facet normal 0 0 1
    outer loop
      vertex 3.056 4.15625 2.1
      vertex 2.92117 2.86525 2.1
      vertex 3.056 2.87624 2.1
    endloop
  endfacet
  facet normal 0 0 1
    outer loop
      vertex 3.056 4.15625 2.1
      vertex 3.056 2.87624 2.1
      vertex 3.19061 2.86525 2.1
    endloop
  endfacet
  facet normal -0 0 1
    outer loop
      vertex 3.19061 2.86525 2.1
      vertex 3.31749 2.83224 2.1
      vertex 3.60342 4.10468 2.1
    endloop
  endfacet
  facet normal 0 0 1
    outer loop
      vertex 3.056 4.15625 2.1
      vertex 3.19061 2.86525 2.1
      vertex 3.60342 4.10468 2.1
    endloop
  endfacet
  facet normal 0 0 1
    outer loop
      vertex 4.08774 3.95 2.1
      vertex 3.31749 2.83224 2.1
      vertex 3.43661 2.77724 2.1
    endloop
  endfacet
  facet normal 0 0 1
    outer loop
      vertex 4.08774 3.95 2.1
      vertex 3.43661 2.77724 2.1
      vertex 3.54799 2.70024 2.1
    endloop
  endfacet
  facet normal -0 0 1
    outer loop
      vertex 3.54799 2.70024 2.1
      vertex 3.65086 2.59111 2.1
      vertex 4.50893 3.69218 2.1
    endloop
  endfacet
  facet normal 0 0 1
    outer loop
      vertex 4.08774 3.95 2.1
      vertex 3.54799 2.70024 2.1
      vertex 4.50893 3.69218 2.1
    endloop
  endfacet
  facet normal 0 0 1
    outer loop
      vertex 3.65086 2.59111 2.1
      vertex 4.86699 3.33124 2.1
      vertex 4.50893 3.69218 2.1
    endloop
  endfacet
  facet normal 0 -0 1
    outer loop
      vertex 3.74449 2.43874 2.1
      vertex 4.86699 3.33124 2.1
      vertex 3.65086 2.59111 2.1
    endloop
  endfacet
  facet normal 0 0 1
    outer loop
      vertex 5.20692 2.76187 2.1
      vertex 3.90399 2.00424 2.1
      vertex 5.44974 2.03174 2.1
    endloop
  endfacet
  facet normal 0 0 1
    outer loop
      vertex 5.44974 2.03174 2.1
      vertex 3.96611 1.68918 2.1
      vertex 4.0105 1.265 2.1
    endloop
  endfacet
  facet normal 0 0 1
    outer loop
      vertex 4.0105 1.265 2.1
      vertex 4.03712 0.731674 2.1
      vertex 5.59543 1.14087 2.1
    endloop
  endfacet
  facet normal 0 -0 1
    outer loop
      vertex 4.04599 0.0892487 2.1
      vertex 5.644 0.0892487 2.1
      vertex 4.03712 0.731674 2.1
    endloop
  endfacet
  facet normal 0 0 1
    outer loop
      vertex 5.644 0.0892487 2.1
      vertex 4.04599 0.0892487 2.1
      vertex 4.03612 -0.55661 2.1
    endloop
  endfacet
  facet normal 0 0 1
    outer loop
      vertex 4.00648 -1.10124 2.1
      vertex 5.59506 -0.960434 2.1
      vertex 4.03612 -0.55661 2.1
    endloop
  endfacet
  facet normal -0 0 1
    outer loop
      vertex 3.95712 -1.54462 2.1
      vertex 5.44824 -1.85149 2.1
      vertex 4.00648 -1.10124 2.1
    endloop
  endfacet
  facet normal 0 0 1
    outer loop
      vertex 3.88799 -1.88675 2.1
      vertex 5.44824 -1.85149 2.1
      vertex 3.95712 -1.54462 2.1
    endloop
  endfacet
  facet normal -0 0 1
    outer loop
      vertex 3.82231 -2.09637 2.1
      vertex 5.20355 -2.58392 2.1
      vertex 3.88799 -1.88675 2.1
    endloop
  endfacet
  facet normal 0 0 1
    outer loop
      vertex 3.74425 -2.27124 2.1
      vertex 4.86099 -3.15775 2.1
      vertex 5.20355 -2.58392 2.1
    endloop
  endfacet
  facet normal 0 0 1
    outer loop
      vertex 3.65381 -2.41136 2.1
      vertex 4.50555 -3.51387 2.1
      vertex 4.86099 -3.15775 2.1
    endloop
  endfacet
  facet normal -0 0 1
    outer loop
      vertex 3.55099 -2.51674 2.1
      vertex 4.50555 -3.51387 2.1
      vertex 3.65381 -2.41136 2.1
    endloop
  endfacet
  facet normal 0 -0 1
    outer loop
      vertex 4.08624 -3.76825 2.1
      vertex 4.50555 -3.51387 2.1
      vertex 3.55099 -2.51674 2.1
    endloop
  endfacet
  facet normal -0 0 1
    outer loop
      vertex 3.31824 -2.64799 2.1
      vertex 4.08624 -3.76825 2.1
      vertex 3.43831 -2.59331 2.1
    endloop
  endfacet
  facet normal 0 -0 1
    outer loop
      vertex 3.60306 -3.92087 2.1
      vertex 4.08624 -3.76825 2.1
      vertex 3.31824 -2.64799 2.1
    endloop
  endfacet
  facet normal 0 0 1
    outer loop
      vertex 3.056 -3.97174 2.1
      vertex 3.19081 -2.6808 2.1
      vertex 3.056 -2.69174 2.1
    endloop
  endfacet
  facet normal 0 0 1
    outer loop
      vertex 3.60306 -3.92087 2.1
      vertex 3.31824 -2.64799 2.1
      vertex 3.19081 -2.6808 2.1
    endloop
  endfacet
  facet normal 0 0 1
    outer loop
      vertex -0.575867 0.38855 2.1
      vertex -1.83142 -0.550735 2.1
      vertex -0.354919 -0.0664978 2.1
    endloop
  endfacet
  facet normal 0 -0 1
    outer loop
      vertex -2.07817 -0.104736 2.1
      vertex -1.25798 1.11374 2.1
      vertex -2.25511 0.0514374 2.1
    endloop
  endfacet
  facet normal 0 -0 1
    outer loop
      vertex -3.84567 -0.0717468 2.1
      vertex -3.65218 1.26624 2.1
      vertex -5.35417 -0.145737 2.1
    endloop
  endfacet
  facet normal 0 -0 1
    outer loop
      vertex -3.55917 0.108246 2.1
      vertex -3.25568 0.216248 2.1
      vertex -3.65218 1.26624 2.1
    endloop
  endfacet
  facet normal 0 0 1
    outer loop
      vertex -3.39529 1.38261 2.1
      vertex -3.65218 1.26624 2.1
      vertex -3.25568 0.216248 2.1
    endloop
  endfacet
  facet normal 0 -0 1
    outer loop
      vertex -2.68361 0.229935 2.1
      vertex -2.60817 1.53224 2.1
      vertex -2.87329 1.51562 2.1
    endloop
  endfacet
  facet normal 0 0 1
    outer loop
      vertex -1.66942 1.34624 2.1
      vertex -2.11949 1.48575 2.1
      vertex -2.45692 0.162994 2.1
    endloop
  endfacet
  facet normal 0 -0 1
    outer loop
      vertex -1.83142 -0.550735 2.1
      vertex -0.575867 0.38855 2.1
      vertex -1.93423 -0.305496 2.1
    endloop
  endfacet
  facet normal 0 0 1
    outer loop
      vertex -0.222366 -0.576935 2.1
      vertex -0.354919 -0.0664978 2.1
      vertex -1.83142 -0.550735 2.1
    endloop
  endfacet
  facet normal 0 0 1
    outer loop
      vertex -4.57117 4.02824 2.1
      vertex -5.35417 -0.145737 2.1
      vertex -3.65218 1.26624 2.1
    endloop
  endfacet
  facet normal 0 0 1
    outer loop
      vertex -4.57117 4.02824 2.1
      vertex -3.65218 1.26624 2.1
      vertex -3.41318 2.62024 2.1
    endloop
  endfacet
  facet normal -0 0 1
    outer loop
      vertex -4.57117 4.02824 2.1
      vertex -3.41318 2.62024 2.1
      vertex -0.531174 4.02824 2.1
    endloop
  endfacet
  facet normal 0 -0 1
    outer loop
      vertex -1.67717 -3.7065 2.1
      vertex -1.17542 -3.37492 2.1
      vertex -2.2563 -2.47911 2.1
    endloop
  endfacet
  facet normal 0 -0 1
    outer loop
      vertex -5.02017 -2.99918 2.1
      vertex -3.88817 -1.97849 2.1
      vertex -5.26317 -2.60249 2.1
    endloop
  endfacet
  facet normal -0 0 1
    outer loop
      vertex -5.35417 -0.145737 2.1
      vertex -4.11517 -0.323746 2.1
      vertex -3.84567 -0.0717468 2.1
    endloop
  endfacet
  facet normal -0 0 1
    outer loop
      vertex -2.89117 -2.69174 2.1
      vertex -2.90717 -3.97174 2.1
      vertex -2.6613 -2.66812 2.1
    endloop
  endfacet
  facet normal -0 0 1
    outer loop
      vertex -3.39529 1.38261 2.1
      vertex -2.93517 0.252243 2.1
      vertex -3.13567 1.46574 2.1
    endloop
  endfacet
  facet normal 0 0 1
    outer loop
      vertex -3.39529 1.38261 2.1
      vertex -3.25568 0.216248 2.1
      vertex -2.93517 0.252243 2.1
    endloop
  endfacet
  facet normal -0 0 1
    outer loop
      vertex -2.93517 0.252243 2.1
      vertex -2.68361 0.229935 2.1
      vertex -2.87329 1.51562 2.1
    endloop
  endfacet
  facet normal 0 0 1
    outer loop
      vertex -2.68361 0.229935 2.1
      vertex -2.11949 1.48575 2.1
      vertex -2.60817 1.53224 2.1
    endloop
  endfacet
  facet normal 0 0 1
    outer loop
      vertex -1.66942 1.34624 2.1
      vertex -2.45692 0.162994 2.1
      vertex -2.25511 0.0514374 2.1
    endloop
  endfacet
  facet normal 0 0 1
    outer loop
      vertex -2.25511 0.0514374 2.1
      vertex -1.25798 1.11374 2.1
      vertex -1.66942 1.34624 2.1
    endloop
  endfacet
  facet normal -0 0 1
    outer loop
      vertex -2.07817 -0.104736 2.1
      vertex -1.93423 -0.305496 2.1
      vertex -0.885178 0.788239 2.1
    endloop
  endfacet
  facet normal 0 0 1
    outer loop
      vertex -1.25798 1.11374 2.1
      vertex -2.07817 -0.104736 2.1
      vertex -0.885178 0.788239 2.1
    endloop
  endfacet
  facet normal 0 0 1
    outer loop
      vertex -1.93423 -0.305496 2.1
      vertex -0.575867 0.38855 2.1
      vertex -0.885178 0.788239 2.1
    endloop
  endfacet
  facet normal 0 0 1
    outer loop
      vertex -0.222366 -0.576935 2.1
      vertex -1.83142 -0.550735 2.1
      vertex -1.76973 -0.8405 2.1
    endloop
  endfacet
  facet normal 0 0 1
    outer loop
      vertex -1.76973 -0.8405 2.1
      vertex -1.74918 -1.17474 2.1
      vertex -0.178177 -1.14275 2.1
    endloop
  endfacet
  facet normal 0 0 1
    outer loop
      vertex -0.222366 -0.576935 2.1
      vertex -1.76973 -0.8405 2.1
      vertex -0.178177 -1.14275 2.1
    endloop
  endfacet
  facet normal 0 0 1
    outer loop
      vertex -1.74918 -1.17474 2.1
      vertex -1.76993 -1.53131 2.1
      vertex -0.213867 -1.62486 2.1
    endloop
  endfacet
  facet normal 0 -0 1
    outer loop
      vertex -0.499359 -2.50887 2.1
      vertex -0.320923 -2.08025 2.1
      vertex -1.83217 -1.84 2.1
    endloop
  endfacet
  facet normal 0 0 1
    outer loop
      vertex -0.499359 -2.50887 2.1
      vertex -1.83217 -1.84 2.1
      vertex -1.93593 -2.1008 2.1
    endloop
  endfacet
  facet normal 0 0 1
    outer loop
      vertex -1.93593 -2.1008 2.1
      vertex -0.749176 -2.91074 2.1
      vertex -0.499359 -2.50887 2.1
    endloop
  endfacet
  facet normal -0 0 1
    outer loop
      vertex -2.08118 -2.31374 2.1
      vertex -0.749176 -2.91074 2.1
      vertex -1.93593 -2.1008 2.1
    endloop
  endfacet
  facet normal -0 0 1
    outer loop
      vertex -2.2563 -2.47911 2.1
      vertex -1.17542 -3.37492 2.1
      vertex -2.08118 -2.31374 2.1
    endloop
  endfacet
  facet normal -0 0 1
    outer loop
      vertex -2.44968 -2.59724 2.1
      vertex -1.67717 -3.7065 2.1
      vertex -2.2563 -2.47911 2.1
    endloop
  endfacet
  facet normal 0 -0 1
    outer loop
      vertex -2.25443 -3.90543 2.1
      vertex -1.67717 -3.7065 2.1
      vertex -2.44968 -2.59724 2.1
    endloop
  endfacet
  facet normal 0 0 1
    outer loop
      vertex -2.25443 -3.90543 2.1
      vertex -2.44968 -2.59724 2.1
      vertex -2.6613 -2.66812 2.1
    endloop
  endfacet
  facet normal 0 0 1
    outer loop
      vertex -2.25443 -3.90543 2.1
      vertex -2.6613 -2.66812 2.1
      vertex -2.90717 -3.97174 2.1
    endloop
  endfacet
  facet normal 0 0 1
    outer loop
      vertex -3.09454 -2.67131 2.1
      vertex -2.90717 -3.97174 2.1
      vertex -2.89117 -2.69174 2.1
    endloop
  endfacet
  facet normal 0 0 1
    outer loop
      vertex -3.28568 -2.60999 2.1
      vertex -3.90918 -3.81424 2.1
      vertex -3.43367 -3.93237 2.1
    endloop
  endfacet
  facet normal 0 0 1
    outer loop
      vertex -3.46455 -2.50781 2.1
      vertex -3.63116 -2.36475 2.1
      vertex -4.33368 -3.61737 2.1
    endloop
  endfacet
  facet normal 0 0 1
    outer loop
      vertex -5.02017 -2.99918 2.1
      vertex -3.77567 -2.18617 2.1
      vertex -3.88817 -1.97849 2.1
    endloop
  endfacet
  facet normal 0 -0 1
    outer loop
      vertex -5.26317 -2.60249 2.1
      vertex -3.88817 -1.97849 2.1
      vertex -5.43617 -2.15167 2.1
    endloop
  endfacet
  facet normal 0 0 1
    outer loop
      vertex -3.88817 -1.97849 2.1
      vertex -3.96867 -1.74168 2.1
      vertex -5.43617 -2.15167 2.1
    endloop
  endfacet
  facet normal 0 0 1
    outer loop
      vertex -5.53917 -1.64674 2.1
      vertex -5.43617 -2.15167 2.1
      vertex -3.96867 -1.74168 2.1
    endloop
  endfacet
  facet normal -0 0 1
    outer loop
      vertex -5.53917 -1.64674 2.1
      vertex -3.96867 -1.74168 2.1
      vertex -4.01717 -1.47574 2.1
    endloop
  endfacet
  facet normal 0 -0 1
    outer loop
      vertex -4.70717 -3.34174 2.1
      vertex -3.77567 -2.18617 2.1
      vertex -5.02017 -2.99918 2.1
    endloop
  endfacet
  facet normal 0 0 1
    outer loop
      vertex -3.63116 -2.36475 2.1
      vertex -3.77567 -2.18617 2.1
      vertex -4.70717 -3.34174 2.1
    endloop
  endfacet
  facet normal 0 0 1
    outer loop
      vertex -3.63116 -2.36475 2.1
      vertex -4.70717 -3.34174 2.1
      vertex -4.33368 -3.61737 2.1
    endloop
  endfacet
  facet normal 0 0 1
    outer loop
      vertex -3.46455 -2.50781 2.1
      vertex -4.33368 -3.61737 2.1
      vertex -3.90918 -3.81424 2.1
    endloop
  endfacet
  facet normal 0 0 1
    outer loop
      vertex -3.46455 -2.50781 2.1
      vertex -3.90918 -3.81424 2.1
      vertex -3.28568 -2.60999 2.1
    endloop
  endfacet
  facet normal 0 0 1
    outer loop
      vertex -3.28568 -2.60999 2.1
      vertex -3.43367 -3.93237 2.1
      vertex -3.09454 -2.67131 2.1
    endloop
  endfacet
  facet normal -0 0 1
    outer loop
      vertex -3.43367 -3.93237 2.1
      vertex -2.90717 -3.97174 2.1
      vertex -3.09454 -2.67131 2.1
    endloop
  endfacet
  facet normal 0.301197 -0.953562 0
    outer loop
      vertex 4.08624 -3.76825 1.6
      vertex 3.60306 -3.92087 2.1
      vertex 3.60306 -3.92087 1.6
    endloop
  endfacet
  facet normal 0.301197 -0.953562 0
    outer loop
      vertex 4.08624 -3.76825 1.6
      vertex 4.08624 -3.76825 2.1
      vertex 3.60306 -3.92087 2.1
    endloop
  endfacet
  facet normal 0.518679 -0.854969 0
    outer loop
      vertex 4.50555 -3.51387 1.6
      vertex 4.08624 -3.76825 2.1
      vertex 4.08624 -3.76825 1.6
    endloop
  endfacet
  facet normal 0.518679 -0.854969 0
    outer loop
      vertex 4.50555 -3.51387 1.6
      vertex 4.50555 -3.51387 2.1
      vertex 4.08624 -3.76825 2.1
    endloop
  endfacet
  facet normal 0.707782 -0.706431 0
    outer loop
      vertex 4.86099 -3.15775 1.6
      vertex 4.50555 -3.51387 2.1
      vertex 4.50555 -3.51387 1.6
    endloop
  endfacet
  facet normal 0.707782 -0.706431 0
    outer loop
      vertex 4.86099 -3.15775 1.6
      vertex 4.86099 -3.15775 2.1
      vertex 4.50555 -3.51387 2.1
    endloop
  endfacet
  facet normal 0.858638 -0.512582 0
    outer loop
      vertex 5.20355 -2.58392 1.6
      vertex 4.86099 -3.15775 2.1
      vertex 4.86099 -3.15775 1.6
    endloop
  endfacet
  facet normal 0.858638 -0.512582 0
    outer loop
      vertex 5.20355 -2.58392 1.6
      vertex 5.20355 -2.58392 2.1
      vertex 4.86099 -3.15775 2.1
    endloop
  endfacet
  facet normal 0.948471 -0.316865 0
    outer loop
      vertex 5.44824 -1.85149 1.6
      vertex 5.20355 -2.58392 2.1
      vertex 5.20355 -2.58392 1.6
    endloop
  endfacet
  facet normal 0.948471 -0.316865 0
    outer loop
      vertex 5.44824 -1.85149 1.6
      vertex 5.44824 -1.85149 2.1
      vertex 5.20355 -2.58392 2.1
    endloop
  endfacet
  facet normal 0.986696 -0.162579 0
    outer loop
      vertex 5.59506 -0.960434 1.6
      vertex 5.44824 -1.85149 2.1
      vertex 5.44824 -1.85149 1.6
    endloop
  endfacet
  facet normal 0.986696 -0.162579 0
    outer loop
      vertex 5.59506 -0.960434 1.6
      vertex 5.59506 -0.960434 2.1
      vertex 5.44824 -1.85149 2.1
    endloop
  endfacet
  facet normal 0.998915 -0.046573 0
    outer loop
      vertex 5.644 0.0892487 1.6
      vertex 5.59506 -0.960434 2.1
      vertex 5.59506 -0.960434 1.6
    endloop
  endfacet
  facet normal 0.998915 -0.046573 0
    outer loop
      vertex 5.644 0.0892487 1.6
      vertex 5.644 0.0892487 2.1
      vertex 5.59506 -0.960434 2.1
    endloop
  endfacet
  facet normal 0.998935 0.0461366 0
    outer loop
      vertex 5.59543 1.14087 1.6
      vertex 5.644 0.0892487 2.1
      vertex 5.644 0.0892487 1.6
    endloop
  endfacet
  facet normal 0.998935 0.0461366 -0
    outer loop
      vertex 5.59543 1.14087 1.6
      vertex 5.59543 1.14087 2.1
      vertex 5.644 0.0892487 2.1
    endloop
  endfacet
  facet normal 0.98689 0.161393 0
    outer loop
      vertex 5.44974 2.03174 1.6
      vertex 5.59543 1.14087 2.1
      vertex 5.59543 1.14087 1.6
    endloop
  endfacet
  facet normal 0.98689 0.161393 -0
    outer loop
      vertex 5.44974 2.03174 1.6
      vertex 5.44974 2.03174 2.1
      vertex 5.59543 1.14087 2.1
    endloop
  endfacet
  facet normal 0.9489 0.315577 0
    outer loop
      vertex 5.20692 2.76187 1.6
      vertex 5.44974 2.03174 2.1
      vertex 5.44974 2.03174 1.6
    endloop
  endfacet
  facet normal 0.9489 0.315577 -0
    outer loop
      vertex 5.20692 2.76187 1.6
      vertex 5.20692 2.76187 2.1
      vertex 5.44974 2.03174 2.1
    endloop
  endfacet
  facet normal 0.858617 0.512618 0
    outer loop
      vertex 4.86699 3.33124 1.6
      vertex 5.20692 2.76187 2.1
      vertex 5.20692 2.76187 1.6
    endloop
  endfacet
  facet normal 0.858617 0.512618 -0
    outer loop
      vertex 4.86699 3.33124 1.6
      vertex 4.86699 3.33124 2.1
      vertex 5.20692 2.76187 2.1
    endloop
  endfacet
  facet normal 0.709933 0.704269 0
    outer loop
      vertex 4.50893 3.69218 1.6
      vertex 4.86699 3.33124 2.1
      vertex 4.86699 3.33124 1.6
    endloop
  endfacet
  facet normal 0.709933 0.704269 -0
    outer loop
      vertex 4.50893 3.69218 1.6
      vertex 4.50893 3.69218 2.1
      vertex 4.86699 3.33124 2.1
    endloop
  endfacet
  facet normal 0.522078 0.852898 0
    outer loop
      vertex 4.08774 3.95 1.6
      vertex 4.50893 3.69218 2.1
      vertex 4.50893 3.69218 1.6
    endloop
  endfacet
  facet normal 0.522078 0.852898 -0
    outer loop
      vertex 4.08774 3.95 1.6
      vertex 4.08774 3.95 2.1
      vertex 4.50893 3.69218 2.1
    endloop
  endfacet
  facet normal 0.304236 0.952597 0
    outer loop
      vertex 3.60342 4.10468 1.6
      vertex 4.08774 3.95 2.1
      vertex 4.08774 3.95 1.6
    endloop
  endfacet
  facet normal 0.304236 0.952597 -0
    outer loop
      vertex 3.60342 4.10468 1.6
      vertex 3.60342 4.10468 2.1
      vertex 4.08774 3.95 2.1
    endloop
  endfacet
  facet normal 0.0937903 0.995592 0
    outer loop
      vertex 3.056 4.15625 1.6
      vertex 3.60342 4.10468 2.1
      vertex 3.60342 4.10468 1.6
    endloop
  endfacet
  facet normal 0.0937903 0.995592 -0
    outer loop
      vertex 3.056 4.15625 1.6
      vertex 3.056 4.15625 2.1
      vertex 3.60342 4.10468 2.1
    endloop
  endfacet
  facet normal -0.0926229 0.995701 0
    outer loop
      vertex 2.50893 4.10536 1.6
      vertex 3.056 4.15625 2.1
      vertex 3.056 4.15625 1.6
    endloop
  endfacet
  facet normal -0.0926229 0.995701 0
    outer loop
      vertex 2.50893 4.10536 1.6
      vertex 2.50893 4.10536 2.1
      vertex 3.056 4.15625 2.1
    endloop
  endfacet
  facet normal -0.301192 0.953564 0
    outer loop
      vertex 2.02574 3.95274 1.6
      vertex 2.50893 4.10536 2.1
      vertex 2.50893 4.10536 1.6
    endloop
  endfacet
  facet normal -0.301192 0.953564 0
    outer loop
      vertex 2.02574 3.95274 1.6
      vertex 2.02574 3.95274 2.1
      vertex 2.50893 4.10536 2.1
    endloop
  endfacet
  facet normal -0.518679 0.854969 0
    outer loop
      vertex 1.60643 3.69836 1.6
      vertex 2.02574 3.95274 2.1
      vertex 2.02574 3.95274 1.6
    endloop
  endfacet
  facet normal -0.518679 0.854969 0
    outer loop
      vertex 1.60643 3.69836 1.6
      vertex 1.60643 3.69836 2.1
      vertex 2.02574 3.95274 2.1
    endloop
  endfacet
  facet normal -0.707782 0.706431 0
    outer loop
      vertex 1.25099 3.34224 1.6
      vertex 1.60643 3.69836 2.1
      vertex 1.60643 3.69836 1.6
    endloop
  endfacet
  facet normal -0.707782 0.706431 0
    outer loop
      vertex 1.25099 3.34224 1.6
      vertex 1.25099 3.34224 2.1
      vertex 1.60643 3.69836 2.1
    endloop
  endfacet
  facet normal -0.85836 0.513048 0
    outer loop
      vertex 0.908432 2.76912 1.6
      vertex 1.25099 3.34224 2.1
      vertex 1.25099 3.34224 1.6
    endloop
  endfacet
  facet normal -0.85836 0.513048 0
    outer loop
      vertex 0.908432 2.76912 1.6
      vertex 0.908432 2.76912 2.1
      vertex 1.25099 3.34224 2.1
    endloop
  endfacet
  facet normal -0.948203 0.317665 0
    outer loop
      vertex 0.663742 2.03874 1.6
      vertex 0.908432 2.76912 2.1
      vertex 0.908432 2.76912 1.6
    endloop
  endfacet
  facet normal -0.948203 0.317665 0
    outer loop
      vertex 0.663742 2.03874 1.6
      vertex 0.663742 2.03874 2.1
      vertex 0.908432 2.76912 2.1
    endloop
  endfacet
  facet normal -0.986597 0.163175 0
    outer loop
      vertex 0.516937 1.15112 1.6
      vertex 0.663742 2.03874 2.1
      vertex 0.663742 2.03874 1.6
    endloop
  endfacet
  facet normal -0.986597 0.163175 0
    outer loop
      vertex 0.516937 1.15112 1.6
      vertex 0.516937 1.15112 2.1
      vertex 0.663742 2.03874 2.1
    endloop
  endfacet
  facet normal -0.998904 0.0467965 0
    outer loop
      vertex 0.467987 0.106247 1.6
      vertex 0.516937 1.15112 2.1
      vertex 0.516937 1.15112 1.6
    endloop
  endfacet
  facet normal -0.998904 0.0467965 0
    outer loop
      vertex 0.467987 0.106247 1.6
      vertex 0.467987 0.106247 2.1
      vertex 0.516937 1.15112 2.1
    endloop
  endfacet
  facet normal -0.999117 -0.042011 0
    outer loop
      vertex 0.512497 -0.952301 1.6
      vertex 0.467987 0.106247 2.1
      vertex 0.467987 0.106247 1.6
    endloop
  endfacet
  facet normal -0.999117 -0.042011 0
    outer loop
      vertex 0.512497 -0.952301 1.6
      vertex 0.512497 -0.952301 2.1
      vertex 0.467987 0.106247 2.1
    endloop
  endfacet
  facet normal -0.988781 -0.149374 0
    outer loop
      vertex 0.645996 -1.836 1.6
      vertex 0.512497 -0.952301 2.1
      vertex 0.512497 -0.952301 1.6
    endloop
  endfacet
  facet normal -0.988781 -0.149374 0
    outer loop
      vertex 0.645996 -1.836 1.6
      vertex 0.645996 -1.836 2.1
      vertex 0.512497 -0.952301 2.1
    endloop
  endfacet
  facet normal -0.954094 -0.299506 0
    outer loop
      vertex 0.8685 -2.5448 1.6
      vertex 0.645996 -1.836 2.1
      vertex 0.645996 -1.836 1.6
    endloop
  endfacet
  facet normal -0.954094 -0.299506 0
    outer loop
      vertex 0.8685 -2.5448 1.6
      vertex 0.8685 -2.5448 2.1
      vertex 0.645996 -1.836 2.1
    endloop
  endfacet
  facet normal -0.863761 -0.503901 0
    outer loop
      vertex 1.17999 -3.07874 1.6
      vertex 0.8685 -2.5448 2.1
      vertex 0.8685 -2.5448 1.6
    endloop
  endfacet
  facet normal -0.863761 -0.503901 0
    outer loop
      vertex 1.17999 -3.07874 1.6
      vertex 1.17999 -3.07874 2.1
      vertex 0.8685 -2.5448 2.1
    endloop
  endfacet
  facet normal -0.712967 -0.701197 0
    outer loop
      vertex 1.56424 -3.46944 1.6
      vertex 1.17999 -3.07874 2.1
      vertex 1.17999 -3.07874 1.6
    endloop
  endfacet
  facet normal -0.712967 -0.701197 0
    outer loop
      vertex 1.56424 -3.46944 1.6
      vertex 1.56424 -3.46944 2.1
      vertex 1.17999 -3.07874 2.1
    endloop
  endfacet
  facet normal -0.534927 -0.844898 0
    outer loop
      vertex 2.00499 -3.74849 1.6
      vertex 1.56424 -3.46944 2.1
      vertex 1.56424 -3.46944 1.6
    endloop
  endfacet
  facet normal -0.534927 -0.844898 0
    outer loop
      vertex 2.00499 -3.74849 1.6
      vertex 2.00499 -3.74849 2.1
      vertex 1.56424 -3.46944 2.1
    endloop
  endfacet
  facet normal -0.319108 -0.947718 0
    outer loop
      vertex 2.50224 -3.91592 1.6
      vertex 2.00499 -3.74849 2.1
      vertex 2.00499 -3.74849 1.6
    endloop
  endfacet
  facet normal -0.319108 -0.947718 0
    outer loop
      vertex 2.50224 -3.91592 1.6
      vertex 2.50224 -3.91592 2.1
      vertex 2.00499 -3.74849 2.1
    endloop
  endfacet
  facet normal -0.100294 -0.994958 0
    outer loop
      vertex 3.056 -3.97174 1.6
      vertex 2.50224 -3.91592 2.1
      vertex 2.50224 -3.91592 1.6
    endloop
  endfacet
  facet normal -0.100294 -0.994958 0
    outer loop
      vertex 3.056 -3.97174 1.6
      vertex 3.056 -3.97174 2.1
      vertex 2.50224 -3.91592 2.1
    endloop
  endfacet
  facet normal 0.0925885 -0.995704 0
    outer loop
      vertex 3.60306 -3.92087 1.6
      vertex 3.056 -3.97174 2.1
      vertex 3.056 -3.97174 1.6
    endloop
  endfacet
  facet normal 0.0925885 -0.995704 0
    outer loop
      vertex 3.60306 -3.92087 1.6
      vertex 3.60306 -3.92087 2.1
      vertex 3.056 -3.97174 2.1
    endloop
  endfacet
  facet normal 0.247563 0.968872 -0
    outer loop
      vertex 2.79449 -2.6485 1.6
      vertex 2.79449 -2.6485 2.1
      vertex 2.92137 -2.68092 1.6
    endloop
  endfacet
  facet normal 0.247563 0.968872 0
    outer loop
      vertex 2.92137 -2.68092 2.1
      vertex 2.92137 -2.68092 1.6
      vertex 2.79449 -2.6485 2.1
    endloop
  endfacet
  facet normal 0.413261 0.910612 -0
    outer loop
      vertex 2.67537 -2.59444 1.6
      vertex 2.67537 -2.59444 2.1
      vertex 2.79449 -2.6485 1.6
    endloop
  endfacet
  facet normal 0.413261 0.910612 0
    outer loop
      vertex 2.79449 -2.6485 2.1
      vertex 2.79449 -2.6485 1.6
      vertex 2.67537 -2.59444 2.1
    endloop
  endfacet
  facet normal 0.56215 0.827036 -0
    outer loop
      vertex 2.564 -2.51874 1.6
      vertex 2.564 -2.51874 2.1
      vertex 2.67537 -2.59444 1.6
    endloop
  endfacet
  facet normal 0.56215 0.827036 0
    outer loop
      vertex 2.67537 -2.59444 2.1
      vertex 2.67537 -2.59444 1.6
      vertex 2.564 -2.51874 2.1
    endloop
  endfacet
  facet normal 0.724657 0.68911 -0
    outer loop
      vertex 2.46106 -2.41049 1.6
      vertex 2.46106 -2.41049 2.1
      vertex 2.564 -2.51874 1.6
    endloop
  endfacet
  facet normal 0.724657 0.68911 0
    outer loop
      vertex 2.564 -2.51874 2.1
      vertex 2.564 -2.51874 1.6
      vertex 2.46106 -2.41049 2.1
    endloop
  endfacet
  facet normal 0.850592 0.525826 -0
    outer loop
      vertex 2.36725 -2.25874 1.6
      vertex 2.36725 -2.25874 2.1
      vertex 2.46106 -2.41049 1.6
    endloop
  endfacet
  facet normal 0.850592 0.525826 0
    outer loop
      vertex 2.46106 -2.41049 2.1
      vertex 2.46106 -2.41049 1.6
      vertex 2.36725 -2.25874 2.1
    endloop
  endfacet
  facet normal 0.917416 0.39793 -0
    outer loop
      vertex 2.28256 -2.06349 1.6
      vertex 2.28256 -2.06349 2.1
      vertex 2.36725 -2.25874 1.6
    endloop
  endfacet
  facet normal 0.917416 0.39793 0
    outer loop
      vertex 2.36725 -2.25874 2.1
      vertex 2.36725 -2.25874 1.6
      vertex 2.28256 -2.06349 2.1
    endloop
  endfacet
  facet normal 0.953381 0.301768 -0
    outer loop
      vertex 2.20699 -1.82474 1.6
      vertex 2.20699 -1.82474 2.1
      vertex 2.28256 -2.06349 1.6
    endloop
  endfacet
  facet normal 0.953381 0.301768 0
    outer loop
      vertex 2.28256 -2.06349 2.1
      vertex 2.28256 -2.06349 1.6
      vertex 2.20699 -1.82474 2.1
    endloop
  endfacet
  facet normal 0.981364 0.19216 -0
    outer loop
      vertex 2.14531 -1.50974 1.6
      vertex 2.14531 -1.50974 2.1
      vertex 2.20699 -1.82474 1.6
    endloop
  endfacet
  facet normal 0.981364 0.19216 0
    outer loop
      vertex 2.20699 -1.82474 2.1
      vertex 2.20699 -1.82474 1.6
      vertex 2.14531 -1.50974 2.1
    endloop
  endfacet
  facet normal 0.994642 0.103382 -0
    outer loop
      vertex 2.10124 -1.08574 1.6
      vertex 2.10124 -1.08574 2.1
      vertex 2.14531 -1.50974 1.6
    endloop
  endfacet
  facet normal 0.994642 0.103382 0
    outer loop
      vertex 2.14531 -1.50974 2.1
      vertex 2.14531 -1.50974 1.6
      vertex 2.10124 -1.08574 2.1
    endloop
  endfacet
  facet normal 0.998772 0.049546 -0
    outer loop
      vertex 2.0748 -0.55275 1.6
      vertex 2.0748 -0.55275 2.1
      vertex 2.10124 -1.08574 1.6
    endloop
  endfacet
  facet normal 0.998772 0.049546 0
    outer loop
      vertex 2.10124 -1.08574 2.1
      vertex 2.10124 -1.08574 1.6
      vertex 2.0748 -0.55275 2.1
    endloop
  endfacet
  facet normal 0.999906 0.0137215 -0
    outer loop
      vertex 2.06599 0.0892487 1.6
      vertex 2.06599 0.0892487 2.1
      vertex 2.0748 -0.55275 1.6
    endloop
  endfacet
  facet normal 0.999906 0.0137215 0
    outer loop
      vertex 2.0748 -0.55275 2.1
      vertex 2.0748 -0.55275 1.6
      vertex 2.06599 0.0892487 2.1
    endloop
  endfacet
  facet normal 0.999883 -0.0152776 0
    outer loop
      vertex 2.07587 0.73587 1.6
      vertex 2.07587 0.73587 2.1
      vertex 2.06599 0.0892487 1.6
    endloop
  endfacet
  facet normal 0.999883 -0.0152776 0
    outer loop
      vertex 2.06599 0.0892487 2.1
      vertex 2.06599 0.0892487 1.6
      vertex 2.07587 0.73587 2.1
    endloop
  endfacet
  facet normal 0.99853 -0.0542005 0
    outer loop
      vertex 2.1055 1.28174 1.6
      vertex 2.1055 1.28174 2.1
      vertex 2.07587 0.73587 1.6
    endloop
  endfacet
  facet normal 0.99853 -0.0542005 0
    outer loop
      vertex 2.07587 0.73587 2.1
      vertex 2.07587 0.73587 1.6
      vertex 2.1055 1.28174 2.1
    endloop
  endfacet
  facet normal 0.993908 -0.110213 0
    outer loop
      vertex 2.15486 1.72687 1.6
      vertex 2.15486 1.72687 2.1
      vertex 2.1055 1.28174 1.6
    endloop
  endfacet
  facet normal 0.993908 -0.110213 0
    outer loop
      vertex 2.1055 1.28174 2.1
      vertex 2.1055 1.28174 1.6
      vertex 2.15486 1.72687 2.1
    endloop
  endfacet
  facet normal 0.980435 -0.196844 0
    outer loop
      vertex 2.224 2.07124 1.6
      vertex 2.224 2.07124 2.1
      vertex 2.15486 1.72687 1.6
    endloop
  endfacet
  facet normal 0.980435 -0.196844 0
    outer loop
      vertex 2.15486 1.72687 2.1
      vertex 2.15486 1.72687 1.6
      vertex 2.224 2.07124 2.1
    endloop
  endfacet
  facet normal 0.954247 -0.299019 0
    outer loop
      vertex 2.28967 2.28081 1.6
      vertex 2.28967 2.28081 2.1
      vertex 2.224 2.07124 1.6
    endloop
  endfacet
  facet normal 0.954247 -0.299019 0
    outer loop
      vertex 2.224 2.07124 2.1
      vertex 2.224 2.07124 1.6
      vertex 2.28967 2.28081 2.1
    endloop
  endfacet
  facet normal 0.912967 -0.408034 0
    outer loop
      vertex 2.36774 2.45549 1.6
      vertex 2.36774 2.45549 2.1
      vertex 2.28967 2.28081 1.6
    endloop
  endfacet
  facet normal 0.912967 -0.408034 0
    outer loop
      vertex 2.28967 2.28081 2.1
      vertex 2.28967 2.28081 1.6
      vertex 2.36774 2.45549 2.1
    endloop
  endfacet
  facet normal 0.839657 -0.543117 0
    outer loop
      vertex 2.45818 2.59531 1.6
      vertex 2.45818 2.59531 2.1
      vertex 2.36774 2.45549 1.6
    endloop
  endfacet
  facet normal 0.839657 -0.543117 0
    outer loop
      vertex 2.36774 2.45549 2.1
      vertex 2.36774 2.45549 1.6
      vertex 2.45818 2.59531 2.1
    endloop
  endfacet
  facet normal 0.714286 -0.699854 0
    outer loop
      vertex 2.56099 2.70024 1.6
      vertex 2.56099 2.70024 2.1
      vertex 2.45818 2.59531 1.6
    endloop
  endfacet
  facet normal 0.714286 -0.699854 0
    outer loop
      vertex 2.45818 2.59531 2.1
      vertex 2.45818 2.59531 1.6
      vertex 2.56099 2.70024 2.1
    endloop
  endfacet
  facet normal 0.564166 -0.825661 0
    outer loop
      vertex 2.67368 2.77724 1.6
      vertex 2.67368 2.77724 2.1
      vertex 2.56099 2.70024 1.6
    endloop
  endfacet
  facet normal 0.564166 -0.825661 0
    outer loop
      vertex 2.56099 2.70024 2.1
      vertex 2.56099 2.70024 1.6
      vertex 2.67368 2.77724 2.1
    endloop
  endfacet
  facet normal 0.416454 -0.909157 0
    outer loop
      vertex 2.79375 2.83224 1.6
      vertex 2.79375 2.83224 2.1
      vertex 2.67368 2.77724 1.6
    endloop
  endfacet
  facet normal 0.416454 -0.909157 0
    outer loop
      vertex 2.67368 2.77724 2.1
      vertex 2.67368 2.77724 1.6
      vertex 2.79375 2.83224 2.1
    endloop
  endfacet
  facet normal 0.250786 -0.968043 0
    outer loop
      vertex 2.92117 2.86525 1.6
      vertex 2.92117 2.86525 2.1
      vertex 2.79375 2.83224 1.6
    endloop
  endfacet
  facet normal 0.250786 -0.968043 0
    outer loop
      vertex 2.79375 2.83224 2.1
      vertex 2.79375 2.83224 1.6
      vertex 2.92117 2.86525 2.1
    endloop
  endfacet
  facet normal 0.0812406 -0.996695 0
    outer loop
      vertex 3.056 2.87624 1.6
      vertex 3.056 2.87624 2.1
      vertex 2.92117 2.86525 1.6
    endloop
  endfacet
  facet normal 0.0812406 -0.996695 0
    outer loop
      vertex 2.92117 2.86525 2.1
      vertex 2.92117 2.86525 1.6
      vertex 3.056 2.87624 2.1
    endloop
  endfacet
  facet normal -0.0813725 -0.996684 0
    outer loop
      vertex 3.19061 2.86525 1.6
      vertex 3.19061 2.86525 2.1
      vertex 3.056 2.87624 1.6
    endloop
  endfacet
  facet normal -0.0813725 -0.996684 -0
    outer loop
      vertex 3.056 2.87624 2.1
      vertex 3.056 2.87624 1.6
      vertex 3.19061 2.86525 2.1
    endloop
  endfacet
  facet normal -0.251785 -0.967783 0
    outer loop
      vertex 3.31749 2.83224 1.6
      vertex 3.31749 2.83224 2.1
      vertex 3.19061 2.86525 1.6
    endloop
  endfacet
  facet normal -0.251785 -0.967783 -0
    outer loop
      vertex 3.19061 2.86525 2.1
      vertex 3.19061 2.86525 1.6
      vertex 3.31749 2.83224 2.1
    endloop
  endfacet
  facet normal -0.419194 -0.907897 0
    outer loop
      vertex 3.43661 2.77724 1.6
      vertex 3.43661 2.77724 2.1
      vertex 3.31749 2.83224 1.6
    endloop
  endfacet
  facet normal -0.419194 -0.907897 -0
    outer loop
      vertex 3.31749 2.83224 2.1
      vertex 3.31749 2.83224 1.6
      vertex 3.43661 2.77724 2.1
    endloop
  endfacet
  facet normal -0.568665 -0.82257 0
    outer loop
      vertex 3.54799 2.70024 1.6
      vertex 3.54799 2.70024 2.1
      vertex 3.43661 2.77724 1.6
    endloop
  endfacet
  facet normal -0.568665 -0.82257 -0
    outer loop
      vertex 3.43661 2.77724 2.1
      vertex 3.43661 2.77724 1.6
      vertex 3.54799 2.70024 2.1
    endloop
  endfacet
  facet normal -0.727669 -0.685928 0
    outer loop
      vertex 3.65086 2.59111 1.6
      vertex 3.65086 2.59111 2.1
      vertex 3.54799 2.70024 1.6
    endloop
  endfacet
  facet normal -0.727669 -0.685928 -0
    outer loop
      vertex 3.54799 2.70024 2.1
      vertex 3.54799 2.70024 1.6
      vertex 3.65086 2.59111 2.1
    endloop
  endfacet
  facet normal -0.851998 -0.523545 0
    outer loop
      vertex 3.74449 2.43874 1.6
      vertex 3.74449 2.43874 2.1
      vertex 3.65086 2.59111 1.6
    endloop
  endfacet
  facet normal -0.851998 -0.523545 -0
    outer loop
      vertex 3.65086 2.59111 2.1
      vertex 3.65086 2.59111 1.6
      vertex 3.74449 2.43874 2.1
    endloop
  endfacet
  facet normal -0.91822 -0.396071 0
    outer loop
      vertex 3.82887 2.24312 1.6
      vertex 3.82887 2.24312 2.1
      vertex 3.74449 2.43874 1.6
    endloop
  endfacet
  facet normal -0.91822 -0.396071 -0
    outer loop
      vertex 3.74449 2.43874 2.1
      vertex 3.74449 2.43874 1.6
      vertex 3.82887 2.24312 2.1
    endloop
  endfacet
  facet normal -0.953944 -0.299984 0
    outer loop
      vertex 3.90399 2.00424 1.6
      vertex 3.90399 2.00424 2.1
      vertex 3.82887 2.24312 1.6
    endloop
  endfacet
  facet normal -0.953944 -0.299984 -0
    outer loop
      vertex 3.82887 2.24312 2.1
      vertex 3.82887 2.24312 1.6
      vertex 3.90399 2.00424 2.1
    endloop
  endfacet
  facet normal -0.981111 -0.193445 0
    outer loop
      vertex 3.96611 1.68918 1.6
      vertex 3.96611 1.68918 2.1
      vertex 3.90399 2.00424 1.6
    endloop
  endfacet
  facet normal -0.981111 -0.193445 -0
    outer loop
      vertex 3.90399 2.00424 2.1
      vertex 3.90399 2.00424 1.6
      vertex 3.96611 1.68918 2.1
    endloop
  endfacet
  facet normal -0.994569 -0.104081 0
    outer loop
      vertex 4.0105 1.265 1.6
      vertex 4.0105 1.265 2.1
      vertex 3.96611 1.68918 1.6
    endloop
  endfacet
  facet normal -0.994569 -0.104081 -0
    outer loop
      vertex 3.96611 1.68918 2.1
      vertex 3.96611 1.68918 1.6
      vertex 4.0105 1.265 2.1
    endloop
  endfacet
  facet normal -0.998757 -0.0498511 0
    outer loop
      vertex 4.03712 0.731674 1.6
      vertex 4.03712 0.731674 2.1
      vertex 4.0105 1.265 1.6
    endloop
  endfacet
  facet normal -0.998757 -0.0498511 -0
    outer loop
      vertex 4.0105 1.265 2.1
      vertex 4.0105 1.265 1.6
      vertex 4.03712 0.731674 2.1
    endloop
  endfacet
  facet normal -0.999905 -0.0138057 0
    outer loop
      vertex 4.04599 0.0892487 1.6
      vertex 4.04599 0.0892487 2.1
      vertex 4.03712 0.731674 1.6
    endloop
  endfacet
  facet normal -0.999905 -0.0138057 -0
    outer loop
      vertex 4.03712 0.731674 2.1
      vertex 4.03712 0.731674 1.6
      vertex 4.04599 0.0892487 2.1
    endloop
  endfacet
  facet normal -0.999883 0.0152802 0
    outer loop
      vertex 4.03612 -0.55661 1.6
      vertex 4.03612 -0.55661 2.1
      vertex 4.04599 0.0892487 1.6
    endloop
  endfacet
  facet normal -0.999883 0.0152802 0
    outer loop
      vertex 4.04599 0.0892487 2.1
      vertex 4.04599 0.0892487 1.6
      vertex 4.03612 -0.55661 2.1
    endloop
  endfacet
  facet normal -0.998522 0.0543419 0
    outer loop
      vertex 4.00648 -1.10124 1.6
      vertex 4.00648 -1.10124 2.1
      vertex 4.03612 -0.55661 1.6
    endloop
  endfacet
  facet normal -0.998522 0.0543419 0
    outer loop
      vertex 4.03612 -0.55661 2.1
      vertex 4.03612 -0.55661 1.6
      vertex 4.00648 -1.10124 2.1
    endloop
  endfacet
  facet normal -0.99386 0.110643 0
    outer loop
      vertex 3.95712 -1.54462 1.6
      vertex 3.95712 -1.54462 2.1
      vertex 4.00648 -1.10124 1.6
    endloop
  endfacet
  facet normal -0.99386 0.110643 0
    outer loop
      vertex 4.00648 -1.10124 2.1
      vertex 4.00648 -1.10124 1.6
      vertex 3.95712 -1.54462 2.1
    endloop
  endfacet
  facet normal -0.980191 0.198055 0
    outer loop
      vertex 3.88799 -1.88675 1.6
      vertex 3.88799 -1.88675 2.1
      vertex 3.95712 -1.54462 1.6
    endloop
  endfacet
  facet normal -0.980191 0.198055 0
    outer loop
      vertex 3.95712 -1.54462 2.1
      vertex 3.95712 -1.54462 1.6
      vertex 3.88799 -1.88675 2.1
    endloop
  endfacet
  facet normal -0.954255 0.298996 0
    outer loop
      vertex 3.82231 -2.09637 1.6
      vertex 3.82231 -2.09637 2.1
      vertex 3.88799 -1.88675 1.6
    endloop
  endfacet
  facet normal -0.954255 0.298996 0
    outer loop
      vertex 3.88799 -1.88675 2.1
      vertex 3.88799 -1.88675 1.6
      vertex 3.82231 -2.09637 2.1
    endloop
  endfacet
  facet normal -0.913151 0.407621 0
    outer loop
      vertex 3.74425 -2.27124 1.6
      vertex 3.74425 -2.27124 2.1
      vertex 3.82231 -2.09637 1.6
    endloop
  endfacet
  facet normal -0.913151 0.407621 0
    outer loop
      vertex 3.82231 -2.09637 2.1
      vertex 3.82231 -2.09637 1.6
      vertex 3.74425 -2.27124 2.1
    endloop
  endfacet
  facet normal -0.840187 0.542296 0
    outer loop
      vertex 3.65381 -2.41136 1.6
      vertex 3.65381 -2.41136 2.1
      vertex 3.74425 -2.27124 1.6
    endloop
  endfacet
  facet normal -0.840187 0.542296 0
    outer loop
      vertex 3.74425 -2.27124 2.1
      vertex 3.74425 -2.27124 1.6
      vertex 3.65381 -2.41136 2.1
    endloop
  endfacet
  facet normal -0.715747 0.698359 0
    outer loop
      vertex 3.55099 -2.51674 1.6
      vertex 3.55099 -2.51674 2.1
      vertex 3.65381 -2.41136 1.6
    endloop
  endfacet
  facet normal -0.715747 0.698359 0
    outer loop
      vertex 3.65381 -2.41136 2.1
      vertex 3.65381 -2.41136 1.6
      vertex 3.55099 -2.51674 2.1
    endloop
  endfacet
  facet normal -0.562047 0.827105 0
    outer loop
      vertex 3.43831 -2.59331 1.6
      vertex 3.43831 -2.59331 2.1
      vertex 3.55099 -2.51674 1.6
    endloop
  endfacet
  facet normal -0.562047 0.827105 0
    outer loop
      vertex 3.55099 -2.51674 2.1
      vertex 3.55099 -2.51674 1.6
      vertex 3.43831 -2.59331 2.1
    endloop
  endfacet
  facet normal -0.414448 0.910073 0
    outer loop
      vertex 3.31824 -2.64799 1.6
      vertex 3.31824 -2.64799 2.1
      vertex 3.43831 -2.59331 1.6
    endloop
  endfacet
  facet normal -0.414448 0.910073 0
    outer loop
      vertex 3.43831 -2.59331 2.1
      vertex 3.43831 -2.59331 1.6
      vertex 3.31824 -2.64799 2.1
    endloop
  endfacet
  facet normal -0.249342 0.968415 0
    outer loop
      vertex 3.19081 -2.6808 1.6
      vertex 3.19081 -2.6808 2.1
      vertex 3.31824 -2.64799 1.6
    endloop
  endfacet
  facet normal -0.249342 0.968415 0
    outer loop
      vertex 3.31824 -2.64799 2.1
      vertex 3.31824 -2.64799 1.6
      vertex 3.19081 -2.6808 2.1
    endloop
  endfacet
  facet normal -0.0808854 0.996723 0
    outer loop
      vertex 3.056 -2.69174 1.6
      vertex 3.056 -2.69174 2.1
      vertex 3.19081 -2.6808 1.6
    endloop
  endfacet
  facet normal -0.0808854 0.996723 0
    outer loop
      vertex 3.19081 -2.6808 2.1
      vertex 3.19081 -2.6808 1.6
      vertex 3.056 -2.69174 2.1
    endloop
  endfacet
  facet normal 0.0801101 0.996786 -0
    outer loop
      vertex 2.92137 -2.68092 1.6
      vertex 2.92137 -2.68092 2.1
      vertex 3.056 -2.69174 1.6
    endloop
  endfacet
  facet normal 0.0801101 0.996786 0
    outer loop
      vertex 3.056 -2.69174 2.1
      vertex 3.056 -2.69174 1.6
      vertex 2.92137 -2.68092 2.1
    endloop
  endfacet
  facet normal 0.325807 -0.945436 0
    outer loop
      vertex -1.67717 -3.7065 1.6
      vertex -2.25443 -3.90543 2.1
      vertex -2.25443 -3.90543 1.6
    endloop
  endfacet
  facet normal 0.325807 -0.945436 0
    outer loop
      vertex -1.67717 -3.7065 1.6
      vertex -1.67717 -3.7065 2.1
      vertex -2.25443 -3.90543 2.1
    endloop
  endfacet
  facet normal 0.551334 -0.834284 0
    outer loop
      vertex -1.17542 -3.37492 1.6
      vertex -1.67717 -3.7065 2.1
      vertex -1.67717 -3.7065 1.6
    endloop
  endfacet
  facet normal 0.551334 -0.834284 0
    outer loop
      vertex -1.17542 -3.37492 1.6
      vertex -1.17542 -3.37492 2.1
      vertex -1.67717 -3.7065 2.1
    endloop
  endfacet
  facet normal 0.736564 -0.676367 0
    outer loop
      vertex -0.749176 -2.91074 1.6
      vertex -1.17542 -3.37492 2.1
      vertex -1.17542 -3.37492 1.6
    endloop
  endfacet
  facet normal 0.736564 -0.676367 0
    outer loop
      vertex -0.749176 -2.91074 1.6
      vertex -0.749176 -2.91074 2.1
      vertex -1.17542 -3.37492 2.1
    endloop
  endfacet
  facet normal 0.84928 -0.527943 0
    outer loop
      vertex -0.499359 -2.50887 1.6
      vertex -0.749176 -2.91074 2.1
      vertex -0.749176 -2.91074 1.6
    endloop
  endfacet
  facet normal 0.84928 -0.527943 0
    outer loop
      vertex -0.499359 -2.50887 1.6
      vertex -0.499359 -2.50887 2.1
      vertex -0.749176 -2.91074 2.1
    endloop
  endfacet
  facet normal 0.923196 -0.38433 0
    outer loop
      vertex -0.320923 -2.08025 1.6
      vertex -0.499359 -2.50887 2.1
      vertex -0.499359 -2.50887 1.6
    endloop
  endfacet
  facet normal 0.923196 -0.38433 0
    outer loop
      vertex -0.320923 -2.08025 1.6
      vertex -0.320923 -2.08025 2.1
      vertex -0.499359 -2.50887 2.1
    endloop
  endfacet
  facet normal 0.973462 -0.228848 0
    outer loop
      vertex -0.213867 -1.62486 1.6
      vertex -0.320923 -2.08025 2.1
      vertex -0.320923 -2.08025 1.6
    endloop
  endfacet
  facet normal 0.973462 -0.228848 0
    outer loop
      vertex -0.213867 -1.62486 1.6
      vertex -0.213867 -1.62486 2.1
      vertex -0.320923 -2.08025 2.1
    endloop
  endfacet
  facet normal 0.997271 -0.0738267 0
    outer loop
      vertex -0.178177 -1.14275 1.6
      vertex -0.213867 -1.62486 2.1
      vertex -0.213867 -1.62486 1.6
    endloop
  endfacet
  facet normal 0.997271 -0.0738267 0
    outer loop
      vertex -0.178177 -1.14275 1.6
      vertex -0.178177 -1.14275 2.1
      vertex -0.213867 -1.62486 2.1
    endloop
  endfacet
  facet normal 0.996964 0.0778609 0
    outer loop
      vertex -0.222366 -0.576935 1.6
      vertex -0.178177 -1.14275 2.1
      vertex -0.178177 -1.14275 1.6
    endloop
  endfacet
  facet normal 0.996964 0.0778609 -0
    outer loop
      vertex -0.222366 -0.576935 1.6
      vertex -0.222366 -0.576935 2.1
      vertex -0.178177 -1.14275 2.1
    endloop
  endfacet
  facet normal 0.967897 0.251348 0
    outer loop
      vertex -0.354919 -0.0664978 1.6
      vertex -0.222366 -0.576935 2.1
      vertex -0.222366 -0.576935 1.6
    endloop
  endfacet
  facet normal 0.967897 0.251348 -0
    outer loop
      vertex -0.354919 -0.0664978 1.6
      vertex -0.354919 -0.0664978 2.1
      vertex -0.222366 -0.576935 2.1
    endloop
  endfacet
  facet normal 0.899567 0.436784 0
    outer loop
      vertex -0.575867 0.38855 1.6
      vertex -0.354919 -0.0664978 2.1
      vertex -0.354919 -0.0664978 1.6
    endloop
  endfacet
  facet normal 0.899567 0.436784 -0
    outer loop
      vertex -0.575867 0.38855 1.6
      vertex -0.575867 0.38855 2.1
      vertex -0.354919 -0.0664978 2.1
    endloop
  endfacet
  facet normal 0.790844 0.612018 0
    outer loop
      vertex -0.885178 0.788239 1.6
      vertex -0.575867 0.38855 2.1
      vertex -0.575867 0.38855 1.6
    endloop
  endfacet
  facet normal 0.790844 0.612018 -0
    outer loop
      vertex -0.885178 0.788239 1.6
      vertex -0.885178 0.788239 2.1
      vertex -0.575867 0.38855 2.1
    endloop
  endfacet
  facet normal 0.657702 0.753278 0
    outer loop
      vertex -1.25798 1.11374 1.6
      vertex -0.885178 0.788239 2.1
      vertex -0.885178 0.788239 1.6
    endloop
  endfacet
  facet normal 0.657702 0.753278 -0
    outer loop
      vertex -1.25798 1.11374 1.6
      vertex -1.25798 1.11374 2.1
      vertex -0.885178 0.788239 2.1
    endloop
  endfacet
  facet normal 0.491972 0.870611 0
    outer loop
      vertex -1.66942 1.34624 1.6
      vertex -1.25798 1.11374 2.1
      vertex -1.25798 1.11374 1.6
    endloop
  endfacet
  facet normal 0.491972 0.870611 -0
    outer loop
      vertex -1.66942 1.34624 1.6
      vertex -1.66942 1.34624 2.1
      vertex -1.25798 1.11374 2.1
    endloop
  endfacet
  facet normal 0.296076 0.955164 0
    outer loop
      vertex -2.11949 1.48575 1.6
      vertex -1.66942 1.34624 2.1
      vertex -1.66942 1.34624 1.6
    endloop
  endfacet
  facet normal 0.296076 0.955164 -0
    outer loop
      vertex -2.11949 1.48575 1.6
      vertex -2.11949 1.48575 2.1
      vertex -1.66942 1.34624 2.1
    endloop
  endfacet
  facet normal 0.0947062 0.995505 0
    outer loop
      vertex -2.60817 1.53224 1.6
      vertex -2.11949 1.48575 2.1
      vertex -2.11949 1.48575 1.6
    endloop
  endfacet
  facet normal 0.0947062 0.995505 -0
    outer loop
      vertex -2.60817 1.53224 1.6
      vertex -2.60817 1.53224 2.1
      vertex -2.11949 1.48575 2.1
    endloop
  endfacet
  facet normal -0.0625658 0.998041 0
    outer loop
      vertex -2.87329 1.51562 1.6
      vertex -2.60817 1.53224 2.1
      vertex -2.60817 1.53224 1.6
    endloop
  endfacet
  facet normal -0.0625658 0.998041 0
    outer loop
      vertex -2.87329 1.51562 1.6
      vertex -2.87329 1.51562 2.1
      vertex -2.60817 1.53224 2.1
    endloop
  endfacet
  facet normal -0.186761 0.982405 0
    outer loop
      vertex -3.13567 1.46574 1.6
      vertex -2.87329 1.51562 2.1
      vertex -2.87329 1.51562 1.6
    endloop
  endfacet
  facet normal -0.186761 0.982405 0
    outer loop
      vertex -3.13567 1.46574 1.6
      vertex -3.13567 1.46574 2.1
      vertex -2.87329 1.51562 2.1
    endloop
  endfacet
  facet normal -0.304947 0.952369 0
    outer loop
      vertex -3.39529 1.38261 1.6
      vertex -3.13567 1.46574 2.1
      vertex -3.13567 1.46574 1.6
    endloop
  endfacet
  facet normal -0.304947 0.952369 0
    outer loop
      vertex -3.39529 1.38261 1.6
      vertex -3.39529 1.38261 2.1
      vertex -3.13567 1.46574 2.1
    endloop
  endfacet
  facet normal -0.412632 0.910898 0
    outer loop
      vertex -3.65218 1.26624 1.6
      vertex -3.39529 1.38261 2.1
      vertex -3.39529 1.38261 1.6
    endloop
  endfacet
  facet normal -0.412632 0.910898 0
    outer loop
      vertex -3.65218 1.26624 1.6
      vertex -3.65218 1.26624 2.1
      vertex -3.39529 1.38261 2.1
    endloop
  endfacet
  facet normal 0.984776 -0.173827 0
    outer loop
      vertex -3.41318 2.62024 1.6
      vertex -3.65218 1.26624 2.1
      vertex -3.65218 1.26624 1.6
    endloop
  endfacet
  facet normal 0.984776 -0.173827 0
    outer loop
      vertex -3.41318 2.62024 1.6
      vertex -3.41318 2.62024 2.1
      vertex -3.65218 1.26624 2.1
    endloop
  endfacet
  facet normal 0 -1 0
    outer loop
      vertex -0.531174 2.62024 1.6
      vertex -3.41318 2.62024 2.1
      vertex -3.41318 2.62024 1.6
    endloop
  endfacet
  facet normal 0 -1 0
    outer loop
      vertex -0.531174 2.62024 1.6
      vertex -0.531174 2.62024 2.1
      vertex -3.41318 2.62024 2.1
    endloop
  endfacet
  facet normal 1 0 0
    outer loop
      vertex -0.531174 4.02824 1.6
      vertex -0.531174 2.62024 2.1
      vertex -0.531174 2.62024 1.6
    endloop
  endfacet
  facet normal 1 0 -0
    outer loop
      vertex -0.531174 4.02824 1.6
      vertex -0.531174 4.02824 2.1
      vertex -0.531174 2.62024 2.1
    endloop
  endfacet
  facet normal 0 1 0
    outer loop
      vertex -4.57117 4.02824 1.6
      vertex -0.531174 4.02824 2.1
      vertex -0.531174 4.02824 1.6
    endloop
  endfacet
  facet normal 0 1 0
    outer loop
      vertex -4.57117 4.02824 1.6
      vertex -4.57117 4.02824 2.1
      vertex -0.531174 4.02824 2.1
    endloop
  endfacet
  facet normal -0.982856 0.184375 0
    outer loop
      vertex -5.35417 -0.145737 1.6
      vertex -4.57117 4.02824 2.1
      vertex -4.57117 4.02824 1.6
    endloop
  endfacet
  facet normal -0.982856 0.184375 0
    outer loop
      vertex -5.35417 -0.145737 1.6
      vertex -5.35417 -0.145737 2.1
      vertex -4.57117 4.02824 2.1
    endloop
  endfacet
  facet normal -0.142211 -0.989836 0
    outer loop
      vertex -4.11517 -0.323746 1.6
      vertex -5.35417 -0.145737 2.1
      vertex -5.35417 -0.145737 1.6
    endloop
  endfacet
  facet normal -0.142211 -0.989836 0
    outer loop
      vertex -4.11517 -0.323746 1.6
      vertex -4.11517 -0.323746 2.1
      vertex -5.35417 -0.145737 2.1
    endloop
  endfacet
  facet normal 0.682993 -0.730425 0
    outer loop
      vertex -3.84567 -0.0717468 1.6
      vertex -4.11517 -0.323746 2.1
      vertex -4.11517 -0.323746 1.6
    endloop
  endfacet
  facet normal 0.682993 -0.730425 0
    outer loop
      vertex -3.84567 -0.0717468 1.6
      vertex -3.84567 -0.0717468 2.1
      vertex -4.11517 -0.323746 2.1
    endloop
  endfacet
  facet normal 0.531975 -0.84676 0
    outer loop
      vertex -3.55917 0.108246 1.6
      vertex -3.84567 -0.0717468 2.1
      vertex -3.84567 -0.0717468 1.6
    endloop
  endfacet
  facet normal 0.531975 -0.84676 0
    outer loop
      vertex -3.55917 0.108246 1.6
      vertex -3.55917 0.108246 2.1
      vertex -3.84567 -0.0717468 2.1
    endloop
  endfacet
  facet normal 0.33527 -0.942122 0
    outer loop
      vertex -3.25568 0.216248 1.6
      vertex -3.55917 0.108246 2.1
      vertex -3.55917 0.108246 1.6
    endloop
  endfacet
  facet normal 0.33527 -0.942122 0
    outer loop
      vertex -3.25568 0.216248 1.6
      vertex -3.25568 0.216248 2.1
      vertex -3.55917 0.108246 2.1
    endloop
  endfacet
  facet normal 0.111604 -0.993753 0
    outer loop
      vertex -2.93517 0.252243 1.6
      vertex -3.25568 0.216248 2.1
      vertex -3.25568 0.216248 1.6
    endloop
  endfacet
  facet normal 0.111604 -0.993753 0
    outer loop
      vertex -2.93517 0.252243 1.6
      vertex -2.93517 0.252243 2.1
      vertex -3.25568 0.216248 2.1
    endloop
  endfacet
  facet normal -0.088332 -0.996091 0
    outer loop
      vertex -2.68361 0.229935 1.6
      vertex -2.93517 0.252243 2.1
      vertex -2.93517 0.252243 1.6
    endloop
  endfacet
  facet normal -0.088332 -0.996091 0
    outer loop
      vertex -2.68361 0.229935 1.6
      vertex -2.68361 0.229935 2.1
      vertex -2.93517 0.252243 2.1
    endloop
  endfacet
  facet normal -0.283208 -0.959059 0
    outer loop
      vertex -2.45692 0.162994 1.6
      vertex -2.68361 0.229935 2.1
      vertex -2.68361 0.229935 1.6
    endloop
  endfacet
  facet normal -0.283208 -0.959059 0
    outer loop
      vertex -2.45692 0.162994 1.6
      vertex -2.45692 0.162994 2.1
      vertex -2.68361 0.229935 2.1
    endloop
  endfacet
  facet normal -0.483786 -0.875186 0
    outer loop
      vertex -2.25511 0.0514374 1.6
      vertex -2.45692 0.162994 2.1
      vertex -2.45692 0.162994 1.6
    endloop
  endfacet
  facet normal -0.483786 -0.875186 0
    outer loop
      vertex -2.25511 0.0514374 1.6
      vertex -2.25511 0.0514374 2.1
      vertex -2.45692 0.162994 2.1
    endloop
  endfacet
  facet normal -0.66174 -0.749733 0
    outer loop
      vertex -2.07817 -0.104736 1.6
      vertex -2.25511 0.0514374 2.1
      vertex -2.25511 0.0514374 1.6
    endloop
  endfacet
  facet normal -0.66174 -0.749733 0
    outer loop
      vertex -2.07817 -0.104736 1.6
      vertex -2.07817 -0.104736 2.1
      vertex -2.25511 0.0514374 2.1
    endloop
  endfacet
  facet normal -0.812698 -0.582685 0
    outer loop
      vertex -1.93423 -0.305496 1.6
      vertex -2.07817 -0.104736 2.1
      vertex -2.07817 -0.104736 1.6
    endloop
  endfacet
  facet normal -0.812698 -0.582685 0
    outer loop
      vertex -1.93423 -0.305496 1.6
      vertex -1.93423 -0.305496 2.1
      vertex -2.07817 -0.104736 2.1
    endloop
  endfacet
  facet normal -0.922238 -0.386624 0
    outer loop
      vertex -1.83142 -0.550735 1.6
      vertex -1.93423 -0.305496 2.1
      vertex -1.93423 -0.305496 1.6
    endloop
  endfacet
  facet normal -0.922238 -0.386624 0
    outer loop
      vertex -1.83142 -0.550735 1.6
      vertex -1.83142 -0.550735 2.1
      vertex -1.93423 -0.305496 2.1
    endloop
  endfacet
  facet normal -0.97808 -0.20823 0
    outer loop
      vertex -1.76973 -0.8405 1.6
      vertex -1.83142 -0.550735 2.1
      vertex -1.83142 -0.550735 1.6
    endloop
  endfacet
  facet normal -0.97808 -0.20823 0
    outer loop
      vertex -1.76973 -0.8405 1.6
      vertex -1.76973 -0.8405 2.1
      vertex -1.83142 -0.550735 2.1
    endloop
  endfacet
  facet normal -0.998115 -0.0613669 0
    outer loop
      vertex -1.74918 -1.17474 1.6
      vertex -1.76973 -0.8405 2.1
      vertex -1.76973 -0.8405 1.6
    endloop
  endfacet
  facet normal -0.998115 -0.0613669 0
    outer loop
      vertex -1.74918 -1.17474 1.6
      vertex -1.74918 -1.17474 2.1
      vertex -1.76973 -0.8405 2.1
    endloop
  endfacet
  facet normal -0.998311 0.0580951 0
    outer loop
      vertex -1.76993 -1.53131 1.6
      vertex -1.74918 -1.17474 2.1
      vertex -1.74918 -1.17474 1.6
    endloop
  endfacet
  facet normal -0.998311 0.0580951 0
    outer loop
      vertex -1.76993 -1.53131 1.6
      vertex -1.76993 -1.53131 2.1
      vertex -1.74918 -1.17474 2.1
    endloop
  endfacet
  facet normal -0.980273 0.197649 0
    outer loop
      vertex -1.83217 -1.84 1.6
      vertex -1.76993 -1.53131 2.1
      vertex -1.76993 -1.53131 1.6
    endloop
  endfacet
  facet normal -0.980273 0.197649 0
    outer loop
      vertex -1.83217 -1.84 1.6
      vertex -1.83217 -1.84 2.1
      vertex -1.76993 -1.53131 2.1
    endloop
  endfacet
  facet normal -0.929163 0.36967 0
    outer loop
      vertex -1.93593 -2.1008 1.6
      vertex -1.83217 -1.84 2.1
      vertex -1.83217 -1.84 1.6
    endloop
  endfacet
  facet normal -0.929163 0.36967 0
    outer loop
      vertex -1.93593 -2.1008 1.6
      vertex -1.93593 -2.1008 2.1
      vertex -1.83217 -1.84 2.1
    endloop
  endfacet
  facet normal -0.826112 0.563505 0
    outer loop
      vertex -2.08118 -2.31374 1.6
      vertex -1.93593 -2.1008 2.1
      vertex -1.93593 -2.1008 1.6
    endloop
  endfacet
  facet normal -0.826112 0.563505 0
    outer loop
      vertex -2.08118 -2.31374 1.6
      vertex -2.08118 -2.31374 2.1
      vertex -1.93593 -2.1008 2.1
    endloop
  endfacet
  facet normal -0.686577 0.727057 0
    outer loop
      vertex -2.2563 -2.47911 1.6
      vertex -2.08118 -2.31374 2.1
      vertex -2.08118 -2.31374 1.6
    endloop
  endfacet
  facet normal -0.686577 0.727057 0
    outer loop
      vertex -2.2563 -2.47911 1.6
      vertex -2.2563 -2.47911 2.1
      vertex -2.08118 -2.31374 2.1
    endloop
  endfacet
  facet normal -0.5213 0.853373 0
    outer loop
      vertex -2.44968 -2.59724 1.6
      vertex -2.2563 -2.47911 2.1
      vertex -2.2563 -2.47911 1.6
    endloop
  endfacet
  facet normal -0.5213 0.853373 0
    outer loop
      vertex -2.44968 -2.59724 1.6
      vertex -2.44968 -2.59724 2.1
      vertex -2.2563 -2.47911 2.1
    endloop
  endfacet
  facet normal -0.317599 0.948225 0
    outer loop
      vertex -2.6613 -2.66812 1.6
      vertex -2.44968 -2.59724 2.1
      vertex -2.44968 -2.59724 1.6
    endloop
  endfacet
  facet normal -0.317599 0.948225 0
    outer loop
      vertex -2.6613 -2.66812 1.6
      vertex -2.6613 -2.66812 2.1
      vertex -2.44968 -2.59724 2.1
    endloop
  endfacet
  facet normal -0.102216 0.994762 0
    outer loop
      vertex -2.89117 -2.69174 1.6
      vertex -2.6613 -2.66812 2.1
      vertex -2.6613 -2.66812 1.6
    endloop
  endfacet
  facet normal -0.102216 0.994762 0
    outer loop
      vertex -2.89117 -2.69174 1.6
      vertex -2.89117 -2.69174 2.1
      vertex -2.6613 -2.66812 2.1
    endloop
  endfacet
  facet normal 0.0999542 0.994992 0
    outer loop
      vertex -3.09454 -2.67131 1.6
      vertex -2.89117 -2.69174 2.1
      vertex -2.89117 -2.69174 1.6
    endloop
  endfacet
  facet normal 0.0999542 0.994992 -0
    outer loop
      vertex -3.09454 -2.67131 1.6
      vertex -3.09454 -2.67131 2.1
      vertex -2.89117 -2.69174 2.1
    endloop
  endfacet
  facet normal 0.305477 0.952199 0
    outer loop
      vertex -3.28568 -2.60999 1.6
      vertex -3.09454 -2.67131 2.1
      vertex -3.09454 -2.67131 1.6
    endloop
  endfacet
  facet normal 0.305477 0.952199 -0
    outer loop
      vertex -3.28568 -2.60999 1.6
      vertex -3.28568 -2.60999 2.1
      vertex -3.09454 -2.67131 2.1
    endloop
  endfacet
  facet normal 0.496024 0.868309 0
    outer loop
      vertex -3.46455 -2.50781 1.6
      vertex -3.28568 -2.60999 2.1
      vertex -3.28568 -2.60999 1.6
    endloop
  endfacet
  facet normal 0.496024 0.868309 -0
    outer loop
      vertex -3.46455 -2.50781 1.6
      vertex -3.46455 -2.50781 2.1
      vertex -3.28568 -2.60999 2.1
    endloop
  endfacet
  facet normal 0.651451 0.758691 0
    outer loop
      vertex -3.63116 -2.36475 1.6
      vertex -3.46455 -2.50781 2.1
      vertex -3.46455 -2.50781 1.6
    endloop
  endfacet
  facet normal 0.651451 0.758691 -0
    outer loop
      vertex -3.63116 -2.36475 1.6
      vertex -3.63116 -2.36475 2.1
      vertex -3.46455 -2.50781 2.1
    endloop
  endfacet
  facet normal 0.777361 0.629054 0
    outer loop
      vertex -3.77567 -2.18617 1.6
      vertex -3.63116 -2.36475 2.1
      vertex -3.63116 -2.36475 1.6
    endloop
  endfacet
  facet normal 0.777361 0.629054 -0
    outer loop
      vertex -3.77567 -2.18617 1.6
      vertex -3.77567 -2.18617 2.1
      vertex -3.63116 -2.36475 2.1
    endloop
  endfacet
  facet normal 0.87928 0.476305 0
    outer loop
      vertex -3.88817 -1.97849 1.6
      vertex -3.77567 -2.18617 2.1
      vertex -3.77567 -2.18617 1.6
    endloop
  endfacet
  facet normal 0.87928 0.476305 -0
    outer loop
      vertex -3.88817 -1.97849 1.6
      vertex -3.88817 -1.97849 2.1
      vertex -3.77567 -2.18617 2.1
    endloop
  endfacet
  facet normal 0.946792 0.321848 0
    outer loop
      vertex -3.96867 -1.74168 1.6
      vertex -3.88817 -1.97849 2.1
      vertex -3.88817 -1.97849 1.6
    endloop
  endfacet
  facet normal 0.946792 0.321848 -0
    outer loop
      vertex -3.96867 -1.74168 1.6
      vertex -3.96867 -1.74168 2.1
      vertex -3.88817 -1.97849 2.1
    endloop
  endfacet
  facet normal 0.983774 0.179413 0
    outer loop
      vertex -4.01717 -1.47574 1.6
      vertex -3.96867 -1.74168 2.1
      vertex -3.96867 -1.74168 1.6
    endloop
  endfacet
  facet normal 0.983774 0.179413 -0
    outer loop
      vertex -4.01717 -1.47574 1.6
      vertex -4.01717 -1.47574 2.1
      vertex -3.96867 -1.74168 2.1
    endloop
  endfacet
  facet normal -0.11165 0.993748 0
    outer loop
      vertex -5.53917 -1.64674 1.6
      vertex -4.01717 -1.47574 2.1
      vertex -4.01717 -1.47574 1.6
    endloop
  endfacet
  facet normal -0.11165 0.993748 0
    outer loop
      vertex -5.53917 -1.64674 1.6
      vertex -5.53917 -1.64674 2.1
      vertex -4.01717 -1.47574 2.1
    endloop
  endfacet
  facet normal -0.979822 -0.199873 0
    outer loop
      vertex -5.43617 -2.15167 1.6
      vertex -5.53917 -1.64674 2.1
      vertex -5.53917 -1.64674 1.6
    endloop
  endfacet
  facet normal -0.979822 -0.199873 0
    outer loop
      vertex -5.43617 -2.15167 1.6
      vertex -5.43617 -2.15167 2.1
      vertex -5.53917 -1.64674 2.1
    endloop
  endfacet
  facet normal -0.933618 -0.358271 0
    outer loop
      vertex -5.26317 -2.60249 1.6
      vertex -5.43617 -2.15167 2.1
      vertex -5.43617 -2.15167 1.6
    endloop
  endfacet
  facet normal -0.933618 -0.358271 0
    outer loop
      vertex -5.26317 -2.60249 1.6
      vertex -5.26317 -2.60249 2.1
      vertex -5.43617 -2.15167 2.1
    endloop
  endfacet
  facet normal -0.852728 -0.522355 0
    outer loop
      vertex -5.02017 -2.99918 1.6
      vertex -5.26317 -2.60249 2.1
      vertex -5.26317 -2.60249 1.6
    endloop
  endfacet
  facet normal -0.852728 -0.522355 0
    outer loop
      vertex -5.02017 -2.99918 1.6
      vertex -5.02017 -2.99918 2.1
      vertex -5.26317 -2.60249 2.1
    endloop
  endfacet
  facet normal -0.738241 -0.674537 0
    outer loop
      vertex -4.70717 -3.34174 1.6
      vertex -5.02017 -2.99918 2.1
      vertex -5.02017 -2.99918 1.6
    endloop
  endfacet
  facet normal -0.738241 -0.674537 0
    outer loop
      vertex -4.70717 -3.34174 1.6
      vertex -4.70717 -3.34174 2.1
      vertex -5.02017 -2.99918 2.1
    endloop
  endfacet
  facet normal -0.593795 -0.804616 0
    outer loop
      vertex -4.33368 -3.61737 1.6
      vertex -4.70717 -3.34174 2.1
      vertex -4.70717 -3.34174 1.6
    endloop
  endfacet
  facet normal -0.593795 -0.804616 0
    outer loop
      vertex -4.33368 -3.61737 1.6
      vertex -4.33368 -3.61737 2.1
      vertex -4.70717 -3.34174 2.1
    endloop
  endfacet
  facet normal -0.420726 -0.907188 0
    outer loop
      vertex -3.90918 -3.81424 1.6
      vertex -4.33368 -3.61737 2.1
      vertex -4.33368 -3.61737 1.6
    endloop
  endfacet
  facet normal -0.420726 -0.907188 0
    outer loop
      vertex -3.90918 -3.81424 1.6
      vertex -3.90918 -3.81424 2.1
      vertex -4.33368 -3.61737 2.1
    endloop
  endfacet
  facet normal -0.241099 -0.9705 0
    outer loop
      vertex -3.43367 -3.93237 1.6
      vertex -3.90918 -3.81424 2.1
      vertex -3.90918 -3.81424 1.6
    endloop
  endfacet
  facet normal -0.241099 -0.9705 0
    outer loop
      vertex -3.43367 -3.93237 1.6
      vertex -3.43367 -3.93237 2.1
      vertex -3.90918 -3.81424 2.1
    endloop
  endfacet
  facet normal -0.0745686 -0.997216 0
    outer loop
      vertex -2.90717 -3.97174 1.6
      vertex -3.43367 -3.93237 2.1
      vertex -3.43367 -3.93237 1.6
    endloop
  endfacet
  facet normal -0.0745686 -0.997216 0
    outer loop
      vertex -2.90717 -3.97174 1.6
      vertex -2.90717 -3.97174 2.1
      vertex -3.43367 -3.93237 2.1
    endloop
  endfacet
  facet normal 0.101067 -0.99488 0
    outer loop
      vertex -2.25443 -3.90543 1.6
      vertex -2.90717 -3.97174 2.1
      vertex -2.90717 -3.97174 1.6
    endloop
  endfacet
  facet normal 0.101067 -0.99488 0
    outer loop
      vertex -2.25443 -3.90543 1.6
      vertex -2.25443 -3.90543 2.1
      vertex -2.90717 -3.97174 2.1
    endloop
  endfacet
endsolid OpenSCAD_Model
