<?xml version="1.0" encoding="UTF-8" standalone="no"?>
<!-- Created with Inkscape (http://www.inkscape.org/) -->

<svg
   xmlns:dc="http://purl.org/dc/elements/1.1/"
   xmlns:cc="http://creativecommons.org/ns#"
   xmlns:rdf="http://www.w3.org/1999/02/22-rdf-syntax-ns#"
   xmlns:svg="http://www.w3.org/2000/svg"
   xmlns="http://www.w3.org/2000/svg"
   xmlns:sodipodi="http://sodipodi.sourceforge.net/DTD/sodipodi-0.dtd"
   xmlns:inkscape="http://www.inkscape.org/namespaces/inkscape"
   width="594mm"
   height="841mm"
   viewBox="0 0 594 841"
   version="1.1"
   id="svg8"
   inkscape:version="0.92.3 (2405546, 2018-03-11)"
   sodipodi:docname="beer.svg">
  <defs
     id="defs2" />
  <sodipodi:namedview
     id="base"
     pagecolor="#ffffff"
     bordercolor="#666666"
     borderopacity="1.0"
     inkscape:pageopacity="0.0"
     inkscape:pageshadow="2"
     inkscape:zoom="0.49497475"
     inkscape:cx="1167.6179"
     inkscape:cy="2374.4549"
     inkscape:document-units="mm"
     inkscape:current-layer="layer1"
     showgrid="false"
     inkscape:window-width="1920"
     inkscape:window-height="1016"
     inkscape:window-x="0"
     inkscape:window-y="27"
     inkscape:window-maximized="1" />
  <metadata
     id="metadata5">
    <rdf:RDF>
      <cc:Work
         rdf:about="">
        <dc:format>image/svg+xml</dc:format>
        <dc:type
           rdf:resource="http://purl.org/dc/dcmitype/StillImage" />
        <dc:title></dc:title>
      </cc:Work>
    </rdf:RDF>
  </metadata>
  <g
     inkscape:label="Layer 1"
     inkscape:groupmode="layer"
     id="layer1"
     transform="translate(0,544)">
    <path
       style="color:#000000;font-style:normal;font-variant:normal;font-weight:normal;font-stretch:normal;font-size:medium;line-height:normal;font-family:sans-serif;font-variant-ligatures:normal;font-variant-position:normal;font-variant-caps:normal;font-variant-numeric:normal;font-variant-alternates:normal;font-feature-settings:normal;text-indent:0;text-align:start;text-decoration:none;text-decoration-line:none;text-decoration-style:solid;text-decoration-color:#000000;letter-spacing:normal;word-spacing:normal;text-transform:none;writing-mode:lr-tb;direction:ltr;text-orientation:mixed;dominant-baseline:auto;baseline-shift:baseline;text-anchor:start;white-space:normal;shape-padding:0;clip-rule:nonzero;display:inline;overflow:visible;visibility:visible;opacity:1;isolation:auto;mix-blend-mode:normal;color-interpolation:sRGB;color-interpolation-filters:linearRGB;solid-color:#000000;solid-opacity:1;vector-effect:none;fill:#ff0000;fill-opacity:1;fill-rule:nonzero;stroke:none;stroke-width:0.28888452;stroke-linecap:butt;stroke-linejoin:miter;stroke-miterlimit:4;stroke-dasharray:none;stroke-dashoffset:0;stroke-opacity:1;color-rendering:auto;image-rendering:auto;shape-rendering:auto;text-rendering:auto;enable-background:accumulate"
       d="m 58.667969,-524.18359 v 0.13086 400.50195 H 536.2744 v -400.63281 z m 0.314331,0.26367 h 476.97777 v 400.10547 H 58.9823 Z"
       id="rect120"
       inkscape:connector-curvature="0" />
    <g
       id="g730"
       transform="matrix(0.87420739,0,0,0.87420739,71.781149,-546.5012)">
      <path
         id="path705"
         d="m 510.838,299.49 -1.381,-5.154 c -1.071,-4.001 -5.184,-6.373 -9.186,-5.304 -4.001,1.072 -6.375,5.185 -5.303,9.186 l 1.381,5.154 c 2.713,10.128 -3.318,20.576 -13.446,23.289 l -22.03,5.903 -3.215,-11.999 19.52,-5.23 c 4.896,-1.313 7.812,-6.364 6.499,-11.26 l -16.858,-62.916 c -1.316,-4.909 -6.352,-7.815 -11.26,-6.501 l -19.518,5.23 -3.215,-11.999 22.031,-5.903 c 10.148,-2.721 20.569,3.294 23.289,13.445 l 7.704,28.752 c 1.069,3.992 5.171,6.377 9.186,5.304 4.001,-1.072 6.375,-5.185 5.303,-9.186 l -7.704,-28.752 c -4.865,-18.155 -23.495,-28.92 -41.66,-24.053 l -22.031,5.903 -5.407,-20.179 c -0.296,-1.105 -0.797,-2.102 -1.449,-2.962 -0.23,-3.087 -0.862,-6.173 -1.9,-9.2 -5.731,-16.705 -23.151,-26.939 -40.521,-23.799 -3.482,0.629 -6.791,1.729 -9.884,3.281 -3.414,-4.089 -7.444,-7.591 -12.025,-10.444 -3.514,-2.189 -8.141,-1.115 -10.331,2.401 -2.189,3.516 -1.114,8.142 2.401,10.331 4.135,2.575 7.628,5.898 10.384,9.879 3.141,4.538 9.379,5.725 13.905,2.648 2.459,-1.673 5.223,-2.795 8.216,-3.336 10.142,-1.831 20.319,4.146 23.668,13.906 1.878,5.475 1.546,11.477 -1.316,16.854 -3.53,6.632 -9.968,10.553 -16.901,11.145 -2.958,0.252 -5.634,1.792 -7.341,4.224 -1.714,2.441 -2.253,5.493 -1.48,8.373 l 5.579,20.821 c 1.126,4.203 -1.359,8.596 -5.543,9.791 -4.35,1.244 -8.915,-1.737 -10.067,-6.035 l -5.721,-21.348 c -0.812,-3.028 -2.935,-5.459 -5.826,-6.67 -2.876,-1.206 -6.081,-1.017 -8.791,0.518 -10.316,5.846 -23.315,6.349 -34.437,0.261 -2.461,-1.346 -5.394,-1.614 -8.046,-0.731 -2.623,0.873 -4.785,2.814 -5.931,5.326 -3.065,6.723 -8.911,11.673 -16.037,13.583 -13.681,3.665 -27.78,-4.914 -30.552,-19.138 -2.301,-11.806 4.479,-23.832 15.972,-27.856 4.682,-1.64 9.657,-1.856 14.389,-0.624 2.673,0.698 5.549,0.245 7.883,-1.242 2.354,-1.5 3.995,-3.938 4.502,-6.694 2.454,-13.37 12.519,-24.282 25.642,-27.798 4.001,-1.072 6.375,-5.185 5.303,-9.186 -1.071,-4.001 -5.183,-6.372 -9.186,-5.303 -17.077,4.576 -30.518,17.947 -35.373,34.743 -6.062,-0.764 -12.24,-0.111 -18.117,1.947 -0.866,0.303 -1.715,0.635 -2.547,0.993 L 269,155.965 c 0.31,-1.154 0.369,-2.316 0.211,-3.431 0.712,-1.443 1.333,-2.95 1.853,-4.516 5.167,-15.549 -0.847,-32.219 -14.345,-40.883 1.074,-26.289 -16.096,-49.851 -41.834,-56.747 -22.462,-6.019 -46.296,2.498 -59.953,20.846 -4.693,-3.484 -10.116,-5.905 -15.949,-7.091 -19.61,-3.986 -39.294,7.273 -45.79,26.194 -1.481,4.313 -2.216,8.736 -2.218,13.13 -1.173,1.071 -2.064,2.478 -2.506,4.123 l -5.406,20.175 -22.03,-5.903 c -18.116,-4.854 -36.805,5.936 -41.66,24.053 L 1.17,213.854 c -4.866,18.159 5.892,36.794 24.052,41.66 l 22.03,5.903 c -1.191,4.445 -12.528,46.755 -14.012,52.291 -3.044,11.358 3.72,23.075 15.08,26.12 145.592,38.746 139.57,38.063 144.847,38.063 9.415,-0.001 18.055,-6.293 20.605,-15.81 2.761,-10.303 29.484,-110.039 30.759,-114.796 2.774,10.352 51.955,193.9 53.705,200.431 3.033,11.32 14.72,18.132 26.119,15.08 l 139.331,-37.334 c 11.358,-3.043 18.124,-14.76 15.081,-26.12 -0.477,-1.779 -13.56,-50.605 -14.012,-52.291 l 22.031,-5.903 c 18.117,-4.853 28.907,-23.542 24.052,-41.658 z m -57.005,-48.841 13.853,51.699 -13.91,3.727 -13.852,-51.698 z m -70.712,20.907 c 4.095,-1.171 7.624,-3.41 10.368,-6.33 0.406,0.996 -1.144,-4.438 23.269,86.575 1.237,4.616 -1.498,9.353 -6.115,10.591 l -4.464,1.196 c -4.604,1.236 -9.356,-1.509 -10.591,-6.114 L 372.69,272.018 c 3.467,0.669 7.017,0.514 10.431,-0.462 z m -95.096,-15.03 c 9.809,-2.629 18.108,-8.835 23.39,-17.342 12.716,5.428 26.66,5.235 38.858,0.239 l 4.169,15.557 c 0.776,2.895 2.113,5.607 3.899,7.99 -1.239,4.141 -1.31,8.555 -0.159,12.848 l 22.919,85.536 c 3.371,12.578 16.353,20.101 28.962,16.721 l 4.464,-1.196 c 12.622,-3.382 20.106,-16.337 16.721,-28.962 l -22.919,-85.535 c -1.382,-5.157 -4.385,-9.581 -8.523,-12.712 0.028,-2.054 -0.221,-4.141 -0.776,-6.212 l -4.17,-15.563 c 7.481,-1.881 14.243,-6.186 19.168,-12.213 L 458.243,380.694 306.69,421.303 262.023,254.605 c 8.147,3.52 17.348,4.24 26.002,1.921 z M 205.32,335.669 53.767,295.06 63.68,258.062 c 10e-4,-0.002 10e-4,-0.005 0.002,-0.007 10e-4,-0.002 10e-4,-0.004 0.002,-0.006 L 95.608,138.905 c 10e-4,-0.005 0.003,-0.009 0.004,-0.014 0.001,-0.005 0.002,-0.01 0.004,-0.014 l 3.155,-11.773 c 6.452,8.77 16.468,14.881 28.005,16.135 -3.451,13.125 -3.81,13.635 -4.146,16.314 -8.846,1.498 -16.474,7.992 -18.941,17.198 L 80.77,262.286 c -3.375,12.595 4.126,25.587 16.721,28.962 l 4.464,1.196 c 12.624,3.382 25.579,-4.095 28.962,-16.722 1.072,-4.001 -1.303,-8.113 -5.304,-9.186 -3.997,-1.07 -8.113,1.302 -9.186,5.304 -1.237,4.616 -5.974,7.352 -10.59,6.114 l -4.465,-1.196 c -4.615,-1.236 -7.352,-5.973 -6.114,-10.591 l 22.919,-85.535 c 0.945,-3.526 3.962,-5.963 7.392,-6.353 0.05,0.087 0.1,0.174 0.151,0.261 3.118,5.298 8.034,9.039 13.861,10.554 -0.137,1.122 0.651,-2.212 -14.082,52.886 -1.072,4.001 1.302,8.114 5.303,9.186 0.65,0.174 1.303,0.257 1.946,0.257 3.311,0 6.342,-2.21 7.24,-5.561 l 13.847,-51.676 c 0.561,-2.096 0.831,-4.227 0.813,-6.348 6.165,-2.736 11.099,-8.121 12.961,-15.071 l 4.047,-15.104 c 11.492,6.748 25.602,9.454 39.537,6.707 9.595,10.75 24.9,14.644 38.509,9.66 -6.871,25.646 -39.331,146.788 -44.382,165.639 z M 58.232,220.44 l -13.909,-3.727 13.853,-51.698 13.909,3.727 z m 49.15,-125.234 c 4.059,-11.822 16.361,-18.858 28.613,-16.365 4.904,0.997 9.335,3.375 12.816,6.876 2.221,2.234 5.287,3.292 8.403,2.901 3.09,-0.386 5.77,-2.142 7.351,-4.817 9.429,-15.943 28.526,-23.727 46.44,-18.925 19.662,5.268 32.517,23.77 30.567,43.995 -0.397,4.125 1.707,8.016 5.36,9.912 0,0 0.001,0 0.002,0.001 8.917,4.624 13.079,14.929 9.897,24.504 -5.086,15.309 -25.817,18.969 -35.65,5.61 -2.445,-3.321 -6.589,-4.802 -10.558,-3.775 -12.278,3.179 -25.613,0.519 -35.802,-7.401 -2.661,-2.067 -6.156,-2.661 -9.349,-1.588 -3.197,1.074 -5.627,3.661 -6.501,6.92 l -5.85,21.832 c -1.126,4.203 -5.478,6.764 -9.695,5.709 -4.379,-1.096 -6.857,-5.95 -5.702,-10.261 l 5.169,-19.293 c 0.833,-3.108 0.116,-6.45 -1.917,-8.94 -2,-2.45 -5.117,-3.873 -8.4,-3.675 -9.311,0.57 -18.785,-4.135 -23.637,-13.25 -3.287,-6.174 -3.859,-13.266 -1.557,-19.97 z M 29.104,241.025 c -10.15,-2.72 -16.166,-13.136 -13.445,-23.289 l 18.205,-67.94 c 2.713,-10.128 13.163,-16.16 23.289,-13.446 l 22.03,5.903 -3.215,11.999 -19.516,-5.229 c -4.896,-1.31 -9.948,1.603 -11.261,6.5 L 28.33,218.442 c -1.311,4.897 1.607,9.947 6.501,11.257 l 19.518,5.23 -3.215,12 z M 199.283,358.2 c -0.903,3.37 -4.378,5.375 -7.748,4.474 L 52.203,325.34 c -3.376,-0.905 -5.378,-4.37 -4.474,-7.748 l 2.155,-8.042 151.553,40.608 z m 260.522,52.774 -139.332,37.334 c -3.364,0.903 -6.845,-1.103 -7.748,-4.473 l -2.154,-8.042 151.554,-40.609 2.154,8.041 c 0.903,3.371 -1.104,6.847 -4.474,7.749 z"
         inkscape:connector-curvature="0" />
      <path
         id="path707"
         d="m 204.528,179.288 -4.464,-1.196 c -12.597,-3.373 -25.587,4.126 -28.962,16.721 l -22.919,85.535 c -3.375,12.595 4.126,25.587 16.721,28.961 l 4.464,1.196 c 12.623,3.383 25.579,-4.096 28.962,-16.721 l 22.919,-85.535 c 3.376,-12.594 -4.125,-25.586 -16.721,-28.961 z m 2.233,25.08 -22.919,85.536 c -1.234,4.606 -5.987,7.348 -10.591,6.114 l -4.464,-1.196 c -4.615,-1.236 -7.352,-5.973 -6.114,-10.591 l 22.919,-85.535 c 1.234,-4.605 5.987,-7.348 10.591,-6.114 l 4.463,1.196 c 4.606,1.233 7.349,5.984 6.115,10.59 z"
         inkscape:connector-curvature="0" />
      <path
         id="path709"
         d="m 313.678,379.42 c 3.381,12.625 16.337,20.104 28.962,16.721 l 4.464,-1.196 c 12.622,-3.382 20.106,-16.338 16.721,-28.962 l -22.919,-85.535 c -3.38,-12.622 -16.333,-20.104 -28.962,-16.721 l -4.464,1.196 c -12.622,3.382 -20.106,16.337 -16.721,28.962 z m -2.315,-100.008 4.464,-1.196 c 4.612,-1.236 9.353,1.495 10.591,6.114 l 22.919,85.536 c 1.237,4.616 -1.498,9.354 -6.115,10.59 l -4.464,1.196 c -4.612,1.239 -9.354,-1.498 -10.591,-6.114 l -22.919,-85.536 c -1.237,-4.616 1.497,-9.352 6.115,-10.59 z"
         inkscape:connector-curvature="0" />
      <path
         id="path711"
         d="m 286.076,95.483 c 2.08,3.605 6.675,4.808 10.245,2.745 L 312.824,88.7 c 3.587,-2.071 4.816,-6.658 2.745,-10.245 -2.07,-3.587 -6.659,-4.816 -10.245,-2.745 l -16.503,9.528 c -3.586,2.071 -4.816,6.658 -2.745,10.245 z"
         inkscape:connector-curvature="0" />
      <path
         id="path713"
         d="m 289.167,113.096 c -1.072,4.001 1.302,8.113 5.303,9.186 l 18.407,4.932 c 4.008,1.071 8.115,-1.306 9.186,-5.304 1.072,-4.001 -1.302,-8.113 -5.303,-9.186 l -18.407,-4.932 c -4.001,-1.069 -8.115,1.303 -9.186,5.304 z"
         inkscape:connector-curvature="0" />
      <path
         id="path715"
         d="m 272.368,84 c 4.019,1.077 8.119,-1.321 9.186,-5.304 l 4.932,-18.407 c 1.072,-4.001 -1.302,-8.113 -5.303,-9.186 -4.003,-1.073 -8.114,1.303 -9.186,5.304 l -4.932,18.407 c -1.072,4.002 1.302,8.114 5.303,9.186 z"
         inkscape:connector-curvature="0" />
    </g>
  </g>
</svg>
