<?xml version="1.0" encoding="UTF-8" standalone="no"?>
<!-- Created with Inkscape (http://www.inkscape.org/) -->

<svg
   xmlns:dc="http://purl.org/dc/elements/1.1/"
   xmlns:cc="http://creativecommons.org/ns#"
   xmlns:rdf="http://www.w3.org/1999/02/22-rdf-syntax-ns#"
   xmlns:svg="http://www.w3.org/2000/svg"
   xmlns="http://www.w3.org/2000/svg"
   xmlns:sodipodi="http://sodipodi.sourceforge.net/DTD/sodipodi-0.dtd"
   xmlns:inkscape="http://www.inkscape.org/namespaces/inkscape"
   width="594mm"
   height="841mm"
   viewBox="0 0 594 841"
   version="1.1"
   id="svg8"
   inkscape:version="0.92.3 (2405546, 2018-03-11)"
   sodipodi:docname="nargile.svg">
  <defs
     id="defs2" />
  <sodipodi:namedview
     id="base"
     pagecolor="#ffffff"
     bordercolor="#666666"
     borderopacity="1.0"
     inkscape:pageopacity="0.0"
     inkscape:pageshadow="2"
     inkscape:zoom="0.49497475"
     inkscape:cx="1926.2763"
     inkscape:cy="2293.7255"
     inkscape:document-units="mm"
     inkscape:current-layer="layer1"
     showgrid="false"
     inkscape:window-width="1920"
     inkscape:window-height="1016"
     inkscape:window-x="0"
     inkscape:window-y="27"
     inkscape:window-maximized="1" />
  <metadata
     id="metadata5">
    <rdf:RDF>
      <cc:Work
         rdf:about="">
        <dc:format>image/svg+xml</dc:format>
        <dc:type
           rdf:resource="http://purl.org/dc/dcmitype/StillImage" />
        <dc:title></dc:title>
      </cc:Work>
    </rdf:RDF>
  </metadata>
  <g
     inkscape:label="Layer 1"
     inkscape:groupmode="layer"
     id="layer1"
     transform="translate(0,544)">
    <g
       id="g105"
       transform="matrix(0.70411642,0,0,0.70411642,82.48321,-502.44043)">
	<path
   id="path103"
   d="M 488.347,51.737 C 487.953,37.38 475.762,25.699 461.171,25.699 H 443.84 C 447.348,12.735 437.619,0 423.886,0 H 309.551 c -11.535,0 -20.747,9.543 -20.337,21.085 0.392,10.999 9.46,19.614 20.645,19.614 h 51.235 c -7.169,14.576 0.299,32.388 16.017,37.34 -5.044,6.286 -8.063,14.26 -8.063,22.927 V 124 c 0,4.142 3.357,7.5 7.5,7.5 4.143,0 7.5,-3.358 7.5,-7.5 v -23.034 c 0,-11.964 9.733,-21.697 21.697,-21.697 4.143,0 7.5,-3.358 7.5,-7.5 0,-4.142 -3.357,-7.5 -7.5,-7.5 h -20.6 c -6.498,0 -11.785,-5.287 -11.785,-11.786 0,-6.499 5.287,-11.785 11.785,-11.785 4.143,0 7.5,-3.358 7.5,-7.5 0,-4.142 -3.357,-7.5 -7.5,-7.5 h -75.286 c -3.017,0 -5.553,-2.309 -5.654,-5.147 -0.108,-3.062 2.33,-5.552 5.347,-5.552 h 114.336 c 3.017,0 5.553,2.31 5.654,5.147 0.107,3.054 -2.322,5.552 -5.346,5.552 -4.143,0 -7.5,3.358 -7.5,7.5 0,4.142 3.357,7.5 7.5,7.5 h 36.977 c 6.544,0 12.009,5.136 12.182,11.449 0.183,6.69 -5.174,12.122 -11.78,12.122 H 436.55 c -4.143,0 -7.5,3.358 -7.5,7.5 0,4.142 3.357,7.5 7.5,7.5 5.051,0 9.133,4.153 8.993,9.254 -0.132,4.818 -4.32,8.738 -9.336,8.738 h -29.333 c -8.048,0 -14.595,6.547 -14.595,14.594 v 57.929 h -8.232 V 159 c 0,-4.142 -3.357,-7.5 -7.5,-7.5 -4.143,0 -7.5,3.358 -7.5,7.5 v 14.285 c -2.407,3.576 -0.865,3.049 -1.343,50.047 -8.366,8.504 -10.474,21.131 -5.742,31.79 v 1.745 h -2.069 c -4.143,0 -7.5,3.358 -7.5,7.5 0,4.142 3.357,7.5 7.5,7.5 h 2.069 v 73.209 c -8.55,2.867 -14.734,10.939 -14.734,20.442 0,11.71 9.385,21.25 21.026,21.542 v 47.33 c 0,15.912 -12.945,28.857 -28.857,28.857 -15.911,0 -28.856,-12.945 -28.856,-28.857 v -76.532 c 0,-4.142 -3.357,-7.5 -7.5,-7.5 -4.143,0 -7.5,3.358 -7.5,7.5 v 76.532 c 0,24.183 19.674,43.857 43.856,43.857 24.182,0 43.857,-19.674 43.857,-43.857 v -47.302 h 10 v 47.302 c 0,29.697 -24.16,53.857 -53.857,53.857 -29.696,0 -53.856,-24.16 -53.856,-53.857 v -170.5 c 0,-24.183 -19.675,-43.857 -43.857,-43.857 -2.447,0.23 -20.041,-1.629 -41.05,8.08 l -5.017,-8.69 c 23.696,-11.22 43.495,-9.138 46.067,-9.389 29.697,0 53.857,24.16 53.857,53.857 v 58.967 c 0,4.142 3.357,7.5 7.5,7.5 4.143,0 7.5,-3.358 7.5,-7.5 V 263.89 c 0,-37.968 -30.89,-68.857 -68.857,-68.857 -2.591,0.278 -27.071,-2.201 -55.503,12.319 -2.584,-0.968 -5.505,-0.8 -8.031,0.658 l -20.84,12.032 c 0.001,-0.549 -0.308,3.321 2.089,-24.261 h 15.465 c 18.569,0 33.677,-15.107 33.677,-33.676 v -7.77 c 0,-4.142 -3.357,-7.5 -7.5,-7.5 h -42.052 l -3.679,-30.189 c 1.03,-0.153 4.893,0.777 7.807,-2.604 1.425,-1.653 2.06,-3.844 1.737,-6.002 L 159.17,69.919 C 169.49,66.244 176.9,56.381 176.9,44.815 V 38.971 C 184.443,36.048 189.814,28.734 189.814,20.172 189.814,9.049 180.765,0 169.642,0 H 104.454 C 93.332,0 84.283,9.049 84.283,20.172 c 0,8.562 5.371,15.877 12.914,18.799 v 5.844 c 0,11.566 7.411,21.43 17.731,25.104 l -5.684,38.121 c -0.322,2.158 0.313,4.35 1.737,6.002 2.915,3.381 6.767,2.449 7.807,2.604 l -3.679,30.189 H 73.058 c -4.143,0 -7.5,3.358 -7.5,7.5 v 7.77 c 0,18.569 15.106,33.676 33.676,33.676 h 15.465 c 1.399,22.464 3.533,24.839 0.588,28.833 l -19.824,26.892 c -7.039,9.55 -3.431,22.809 6.805,27.81 v 26.97 c 0,1.374 0.375,2.658 1.021,3.765 v 20.533 h -3.982 c -8.554,0 -10.408,12.133 -2.219,14.666 l -42.181,64.031 c -2.278,3.459 -1.321,8.11 2.138,10.389 3.461,2.279 8.111,1.323 10.39,-2.137 l 47.396,-71.949 h 44.438 l 71.547,108.611 C 242.928,472.58 229.766,497 207.756,497 H 66.343 c -22.018,0 -35.168,-24.425 -23.06,-42.805 l 4.896,-7.434 c 2.278,-3.459 1.321,-8.11 -2.139,-10.389 -3.457,-2.277 -8.109,-1.32 -10.389,2.138 l -4.896,7.434 C 12.068,474.317 32.375,512 66.343,512 h 141.411 c 33.974,0 54.27,-37.69 35.587,-66.056 L 177.01,345.25 c 8.194,-2.534 6.328,-14.666 -2.219,-14.666 h -3.982 v -20.533 c 0.645,-1.107 1.021,-2.391 1.021,-3.765 v -26.97 c 7.373,-3.602 11.549,-11.683 10.201,-19.792 l 19.398,-11.2 c 2.374,-1.372 3.915,-3.631 4.469,-6.117 18.105,-8.716 33.405,-6.949 35.786,-7.175 15.912,0 28.857,12.945 28.857,28.857 v 170.5 c 0,37.968 30.889,68.857 68.856,68.857 37.967,0 68.857,-30.889 68.857,-68.857 v -47.33 c 11.641,-0.292 21.026,-9.832 21.026,-21.542 0,-9.503 -6.185,-17.574 -14.734,-20.442 v -73.209 h 2.069 c 4.143,0 7.5,-3.358 7.5,-7.5 0,-4.142 -3.357,-7.5 -7.5,-7.5 h -2.069 v -1.745 c 4.722,-10.642 2.641,-23.268 -5.742,-31.79 -0.544,-46.728 1.211,-46.548 -1.524,-50.292 v -60.778 h 28.928 c 16.798,0 29.097,-16.943 22.605,-32.993 h 2.761 c 15.094,0.002 27.188,-12.425 26.773,-27.531 z m -362.984,49.909 4.502,-30.189 h 14.368 l 4.501,30.189 z M 104.455,15 h 65.188 c 2.852,0 5.172,2.32 5.172,5.172 0,2.852 -2.32,5.172 -5.172,5.172 h -65.188 c -2.852,0 -5.172,-2.32 -5.172,-5.172 0,-2.852 2.32,-5.172 5.172,-5.172 z m 7.742,25.344 H 161.9 v 4.471 c 0,6.419 -5.223,11.642 -11.642,11.642 H 123.84 c -6.42,0 -11.643,-5.223 -11.643,-11.642 z m 21.703,76.302 h 6.297 l 3.679,30.189 h -13.655 z m -53.342,45.459 v -0.27 c 26.435,0 89.9,0 112.981,0 v 0.27 c 0,10.298 -8.378,18.676 -18.677,18.676 H 99.234 c -10.298,0.001 -18.676,-8.377 -18.676,-18.676 z m 26.98,98.302 19.824,-26.893 c 3.281,-4.452 4.823,-9.937 4.342,-15.443 l -1.947,-22.29 h 14.584 l -1.947,22.291 c -0.48,5.508 1.062,10.992 4.342,15.443 25.947,35.205 18.495,24.992 19.859,26.947 1.714,2.402 0.009,5.75 -2.966,5.75 h -53.158 c -2.994,0 -4.709,-3.395 -2.933,-5.805 z m 49.291,38.379 h -39.561 v -17.574 h 39.561 z m -38.54,31.798 v -16.798 h 37.52 v 16.798 z m 56.548,-84.228 -9.884,-13.407 15.864,-9.159 8.276,14.335 z m 232.874,125.731 h -38.914 c -3.622,0 -6.569,-2.947 -6.569,-6.57 0,-3.623 2.947,-6.57 6.569,-6.57 h 38.914 c 3.622,0 6.569,2.947 6.569,6.57 0,3.623 -2.947,6.57 -6.569,6.57 z m -8.165,-28.14 h -22.584 v -72.081 h 22.584 z m -22.584,-87.08 c -0.133,-2.611 0.422,-4.531 -0.875,-6.978 -3.098,-5.838 -1.647,-13.111 3.728,-17.298 1.823,-1.421 2.89,-3.604 2.89,-5.916 v -41.889 h 11.1 v 41.889 c 0,2.312 1.066,4.495 2.891,5.916 5.464,4.257 6.768,11.571 3.727,17.298 -1.299,2.449 -0.742,4.375 -0.875,6.978 z"
   inkscape:connector-curvature="0" />

</g>
    <path
       style="color:#000000;font-style:normal;font-variant:normal;font-weight:normal;font-stretch:normal;font-size:medium;line-height:normal;font-family:sans-serif;font-variant-ligatures:normal;font-variant-position:normal;font-variant-caps:normal;font-variant-numeric:normal;font-variant-alternates:normal;font-feature-settings:normal;text-indent:0;text-align:start;text-decoration:none;text-decoration-line:none;text-decoration-style:solid;text-decoration-color:#000000;letter-spacing:normal;word-spacing:normal;text-transform:none;writing-mode:lr-tb;direction:ltr;text-orientation:mixed;dominant-baseline:auto;baseline-shift:baseline;text-anchor:start;white-space:normal;shape-padding:0;clip-rule:nonzero;display:inline;overflow:visible;visibility:visible;opacity:1;isolation:auto;mix-blend-mode:normal;color-interpolation:sRGB;color-interpolation-filters:linearRGB;solid-color:#000000;solid-opacity:1;vector-effect:none;fill-opacity:1;fill-rule:nonzero;stroke:none;stroke-width:0.26458332;stroke-linecap:butt;stroke-linejoin:miter;stroke-miterlimit:4;stroke-dasharray:none;stroke-dashoffset:0;stroke-opacity:1;color-rendering:auto;image-rendering:auto;shape-rendering:auto;text-rendering:auto;enable-background:accumulate;fill:#ff0000"
       d="m 58.667969,-524.18359 v 0.13086 400.50195 H 459.30078 v -400.63281 z m 0.263672,0.26367 H 459.03711 v 400.10547 H 58.931641 Z"
       id="rect120"
       inkscape:connector-curvature="0" />
  </g>
</svg>
