<?xml version="1.0" encoding="UTF-8" standalone="no"?>
<!-- Created with Inkscape (http://www.inkscape.org/) -->

<svg
   xmlns:dc="http://purl.org/dc/elements/1.1/"
   xmlns:cc="http://creativecommons.org/ns#"
   xmlns:rdf="http://www.w3.org/1999/02/22-rdf-syntax-ns#"
   xmlns:svg="http://www.w3.org/2000/svg"
   xmlns="http://www.w3.org/2000/svg"
   xmlns:sodipodi="http://sodipodi.sourceforge.net/DTD/sodipodi-0.dtd"
   xmlns:inkscape="http://www.inkscape.org/namespaces/inkscape"
   width="594mm"
   height="841mm"
   viewBox="0 0 594 841"
   version="1.1"
   id="svg8"
   inkscape:version="0.92.3 (2405546, 2018-03-11)"
   sodipodi:docname="toilet.svg">
  <defs
     id="defs2" />
  <sodipodi:namedview
     id="base"
     pagecolor="#ffffff"
     bordercolor="#666666"
     borderopacity="1.0"
     inkscape:pageopacity="0.0"
     inkscape:pageshadow="2"
     inkscape:zoom="0.49497475"
     inkscape:cx="1167.6179"
     inkscape:cy="2293.7255"
     inkscape:document-units="mm"
     inkscape:current-layer="layer1"
     showgrid="false"
     inkscape:window-width="1920"
     inkscape:window-height="1016"
     inkscape:window-x="0"
     inkscape:window-y="27"
     inkscape:window-maximized="1" />
  <metadata
     id="metadata5">
    <rdf:RDF>
      <cc:Work
         rdf:about="">
        <dc:format>image/svg+xml</dc:format>
        <dc:type
           rdf:resource="http://purl.org/dc/dcmitype/StillImage" />
        <dc:title></dc:title>
      </cc:Work>
    </rdf:RDF>
  </metadata>
  <g
     inkscape:label="Layer 1"
     inkscape:groupmode="layer"
     id="layer1"
     transform="translate(0,544)">
    <path
       style="color:#000000;font-style:normal;font-variant:normal;font-weight:normal;font-stretch:normal;font-size:medium;line-height:normal;font-family:sans-serif;font-variant-ligatures:normal;font-variant-position:normal;font-variant-caps:normal;font-variant-numeric:normal;font-variant-alternates:normal;font-feature-settings:normal;text-indent:0;text-align:start;text-decoration:none;text-decoration-line:none;text-decoration-style:solid;text-decoration-color:#000000;letter-spacing:normal;word-spacing:normal;text-transform:none;writing-mode:lr-tb;direction:ltr;text-orientation:mixed;dominant-baseline:auto;baseline-shift:baseline;text-anchor:start;white-space:normal;shape-padding:0;clip-rule:nonzero;display:inline;overflow:visible;visibility:visible;opacity:1;isolation:auto;mix-blend-mode:normal;color-interpolation:sRGB;color-interpolation-filters:linearRGB;solid-color:#000000;solid-opacity:1;vector-effect:none;fill-opacity:1;fill-rule:nonzero;stroke:none;stroke-width:0.26458332;stroke-linecap:butt;stroke-linejoin:miter;stroke-miterlimit:4;stroke-dasharray:none;stroke-dashoffset:0;stroke-opacity:1;color-rendering:auto;image-rendering:auto;shape-rendering:auto;text-rendering:auto;enable-background:accumulate;fill:#ff0000"
       d="m 58.667969,-524.18359 v 0.13086 400.50195 H 459.30078 v -400.63281 z m 0.263672,0.26367 H 459.03711 v 400.10547 H 58.931641 Z"
       id="rect120"
       inkscape:connector-curvature="0" />
    <g
       id="g490"
       transform="matrix(-0.43757171,0,0,0.43757171,212.49672,-253.09287)">
      <g
         id="g434">
	<path
   id="path432"
   d="m 265.171,125.577 -80,-80 c -4.881,-4.881 -12.797,-4.881 -17.678,0 -4.882,4.882 -4.882,12.796 0,17.678 l 58.661,58.661 H 12.5 c -6.903,0 -12.5,5.597 -12.5,12.5 0,6.902 5.597,12.5 12.5,12.5 h 213.654 l -58.659,58.661 c -4.882,4.882 -4.882,12.796 0,17.678 2.44,2.439 5.64,3.661 8.839,3.661 3.199,0 6.398,-1.222 8.839,-3.661 l 79.998,-80 c 4.882,-4.882 4.882,-12.796 0,-17.678 z"
   inkscape:connector-curvature="0" />

</g>
      <g
         id="g436">
</g>
      <g
         id="g438">
</g>
      <g
         id="g440">
</g>
      <g
         id="g442">
</g>
      <g
         id="g444">
</g>
      <g
         id="g446">
</g>
      <g
         id="g448">
</g>
      <g
         id="g450">
</g>
      <g
         id="g452">
</g>
      <g
         id="g454">
</g>
      <g
         id="g456">
</g>
      <g
         id="g458">
</g>
      <g
         id="g460">
</g>
      <g
         id="g462">
</g>
      <g
         id="g464">
</g>
    </g>
    <path
       id="path618"
       d="m 395.93846,-492.48261 h -23.06854 c -2.51938,0 -4.55911,2.03971 -4.55911,4.55909 0,2.51937 2.03973,4.55909 4.55911,4.55909 h 22.48916 v 14.69121 H 218.72973 v -14.69121 h 132.88578 c 2.51699,0 4.55909,-2.03972 4.55909,-4.55909 0,-2.51938 -2.0421,-4.55909 -4.55909,-4.55909 H 218.14798 c -4.7087,0 -8.53643,3.83011 -8.53643,8.5388 v 15.84998 c 0,3.95833 2.70932,7.28504 6.36848,8.24911 v 21.16893 h -7.8027 c -8.17788,0 -14.83131,6.65106 -14.83131,14.82894 v 0.0689 c 0,8.17788 6.65343,14.8313 14.83131,14.8313 h 7.8027 v 40.1343 c 0,9.71655 7.90482,17.62137 17.62138,17.62137 h 17.42193 c 0.11878,0.36093 0.23507,0.71948 0.3633,1.08278 2.21305,6.40648 5.05775,12.27156 8.0544,18.15803 h -13.90287 c -4.70869,0 -8.53881,3.83012 -8.53881,8.53881 v 15.84997 c 0,4.7087 3.83012,8.53882 8.53881,8.53882 h 1.95899 c 0.5034,6.80778 2.13945,13.40658 4.88439,19.67059 1.01156,2.30568 3.69954,3.35522 6.00519,2.34366 2.30566,-1.00916 3.35759,-3.69951 2.34604,-6.00517 -2.2368,-5.10287 -3.60692,-10.4693 -4.09132,-16.01147 H 357.4426 c -2.29617,25.97735 -24.02312,46.41494 -50.39701,46.41494 -13.2831,0 -25.83249,-5.14562 -35.33535,-14.48939 -1.79753,-1.76427 -4.68257,-1.74053 -6.44686,0.057 -1.76664,1.79515 -1.74053,4.68258 0.0545,6.44685 1.67168,1.64081 3.4217,3.17 5.24297,4.58996 -4.18154,11.97474 -8.01404,26.97703 -8.88786,43.22355 h -4.38576 c -4.79893,0 -8.70265,3.90374 -8.70265,8.70266 v 14.12608 c 0,4.79891 3.90372,8.70264 8.70265,8.70264 h 99.51413 c 4.79894,0 8.70266,-3.90373 8.70266,-8.70264 v -14.12608 c 0,-4.79892 -3.90372,-8.70266 -8.70266,-8.70266 h -4.38575 c -0.87383,-16.2584 -4.71106,-31.27491 -8.89736,-43.25203 13.00766,-10.12738 21.76494,-25.52858 23.07329,-42.99087 h 1.95901 c 4.7063,0 8.53879,-3.8301 8.53879,-8.53642 v -15.85235 c 0,-4.70632 -3.83249,-8.53644 -8.53879,-8.53644 h -13.51107 c 3.12486,-6.33523 5.89118,-12.59211 7.96415,-19.2408 h 17.4813 c 9.71656,0 17.62137,-7.90482 17.62137,-17.62139 v -91.03232 c 3.65914,-0.96406 6.37085,-4.29078 6.37085,-8.2491 v -15.84999 c 0,-4.70869 -3.8301,-8.5388 -8.5388,-8.5388 z m -117.46319,241.69142 c 8.67177,4.76333 18.43821,7.30169 28.56795,7.30169 10.3387,0 20.06953,-2.65949 28.55846,-7.33018 3.63303,10.83973 6.86713,24.01363 7.68873,38.03997 h -72.49438 c 0.8216,-14.01449 4.05096,-27.17887 7.67924,-38.01148 z m 69.55471,47.12966 h 8.35596 v 13.29499 h -98.68543 v -13.29499 z M 208.17733,-418.06488 c -3.151,0 -5.71312,-2.56212 -5.71312,-5.71074 v -0.0689 c 0,-3.15101 2.56212,-5.71313 5.71312,-5.71313 h 7.8027 v 11.49511 h -7.8027 z m 159.79155,95.23524 v 14.68884 H 246.11755 v -14.68884 z m -10.64976,-45.41286 c -1.44846,13.34009 -6.42547,24.44102 -12.45679,36.24004 -12.39978,0.002 -62.80153,0.002 -75.20132,0.002 -0.55327,-1.07803 -1.12791,-2.19405 -1.36298,-2.65235 -3.113,-6.07879 -6.09067,-12.06022 -8.29423,-18.43346 -1.41522,-4.09131 -2.36265,-7.82646 -2.89693,-11.41912 -2.30329,-15.51992 0.22084,-32.35532 6.93126,-46.19408 4.86541,-10.03001 12.32143,-18.70891 21.58446,-25.11541 l 0.18522,-0.12828 c 12.83433,-8.77388 30.07816,-8.7715 42.89112,-0.012 l 0.22083,0.15194 c 9.24642,6.39461 16.70244,15.07588 21.56547,25.10352 6.11677,12.61349 8.47945,27.29521 6.83389,42.45659 z m 31.66909,-0.56751 c 0,4.68731 -3.81349,8.50318 -8.50318,8.50318 h -15.16849 c 0.44166,-2.25344 0.80734,-4.56148 1.06616,-6.95262 1.83314,-16.86391 -0.82872,-33.26241 -7.69348,-47.41935 -5.54691,-11.44048 -14.0477,-21.33752 -24.56449,-28.61306 l -0.26358,-0.18048 c -15.90934,-10.87534 -37.28723,-10.87534 -53.20845,0.007 l -0.23507,0.16384 c -10.53341,7.28507 -19.03423,17.1821 -24.5835,28.62259 -7.48927,15.44868 -10.31258,34.22408 -7.74573,51.51303 0.14002,0.94506 0.30871,1.89963 0.49629,2.85892 h -14.9809 c -4.6897,0 -8.50555,-3.81586 -8.50555,-8.50318 v -90.74025 h 163.88997 z m 0,0"
       inkscape:connector-curvature="0"
       style="stroke-width:0.6078794" />
  </g>
</svg>
