<?xml version="1.0" encoding="UTF-8" standalone="no"?>
<!-- Created with Inkscape (http://www.inkscape.org/) -->

<svg
   xmlns:dc="http://purl.org/dc/elements/1.1/"
   xmlns:cc="http://creativecommons.org/ns#"
   xmlns:rdf="http://www.w3.org/1999/02/22-rdf-syntax-ns#"
   xmlns:svg="http://www.w3.org/2000/svg"
   xmlns="http://www.w3.org/2000/svg"
   xmlns:sodipodi="http://sodipodi.sourceforge.net/DTD/sodipodi-0.dtd"
   xmlns:inkscape="http://www.inkscape.org/namespaces/inkscape"
   width="594mm"
   height="841mm"
   viewBox="0 0 594 841"
   version="1.1"
   id="svg8"
   inkscape:version="0.92.3 (2405546, 2018-03-11)"
   sodipodi:docname="urinal.svg">
  <defs
     id="defs2" />
  <sodipodi:namedview
     id="base"
     pagecolor="#ffffff"
     bordercolor="#666666"
     borderopacity="1.0"
     inkscape:pageopacity="0.0"
     inkscape:pageshadow="2"
     inkscape:zoom="0.49497475"
     inkscape:cx="1167.6179"
     inkscape:cy="2293.7255"
     inkscape:document-units="mm"
     inkscape:current-layer="layer1"
     showgrid="false"
     inkscape:window-width="1920"
     inkscape:window-height="1016"
     inkscape:window-x="0"
     inkscape:window-y="27"
     inkscape:window-maximized="1" />
  <metadata
     id="metadata5">
    <rdf:RDF>
      <cc:Work
         rdf:about="">
        <dc:format>image/svg+xml</dc:format>
        <dc:type
           rdf:resource="http://purl.org/dc/dcmitype/StillImage" />
        <dc:title></dc:title>
      </cc:Work>
    </rdf:RDF>
  </metadata>
  <g
     inkscape:label="Layer 1"
     inkscape:groupmode="layer"
     id="layer1"
     transform="translate(0,544)">
    <path
       style="color:#000000;font-style:normal;font-variant:normal;font-weight:normal;font-stretch:normal;font-size:medium;line-height:normal;font-family:sans-serif;font-variant-ligatures:normal;font-variant-position:normal;font-variant-caps:normal;font-variant-numeric:normal;font-variant-alternates:normal;font-feature-settings:normal;text-indent:0;text-align:start;text-decoration:none;text-decoration-line:none;text-decoration-style:solid;text-decoration-color:#000000;letter-spacing:normal;word-spacing:normal;text-transform:none;writing-mode:lr-tb;direction:ltr;text-orientation:mixed;dominant-baseline:auto;baseline-shift:baseline;text-anchor:start;white-space:normal;shape-padding:0;clip-rule:nonzero;display:inline;overflow:visible;visibility:visible;opacity:1;isolation:auto;mix-blend-mode:normal;color-interpolation:sRGB;color-interpolation-filters:linearRGB;solid-color:#000000;solid-opacity:1;vector-effect:none;fill-opacity:1;fill-rule:nonzero;stroke:none;stroke-width:0.26458332;stroke-linecap:butt;stroke-linejoin:miter;stroke-miterlimit:4;stroke-dasharray:none;stroke-dashoffset:0;stroke-opacity:1;color-rendering:auto;image-rendering:auto;shape-rendering:auto;text-rendering:auto;enable-background:accumulate;fill:#ff0000"
       d="m 58.667969,-524.18359 v 0.13086 400.50195 H 459.30078 v -400.63281 z m 0.263672,0.26367 H 459.03711 v 400.10547 H 58.931641 Z"
       id="rect120"
       inkscape:connector-curvature="0" />
    <g
       id="g320"
       transform="matrix(0.60578417,0,0,0.60578417,60.150193,-492.73206)">
      <path
         id="path307"
         d="m 179.057,236.138 c 2.745,-9.23 -11.628,-13.521 -14.378,-4.275 l -21.54,72.43 c -7.533,25.332 -5.283,52.354 6.336,76.091 11.619,23.737 31.586,42.094 56.225,51.687 24.52,9.53 52.059,9.66 76.593,0.078 24.599,-9.605 44.534,-27.962 56.134,-51.688 11.599,-23.726 13.841,-50.732 6.313,-76.045 l -32.374,-108.86 c -8.939,-30.06 -37.085,-51.054 -68.444,-51.054 -31.36,0 -59.506,20.993 -68.445,51.053 -2.745,9.23 11.627,13.52 14.378,4.275 7.061,-23.744 29.294,-40.328 54.067,-40.328 24.771,0 47.005,16.584 54.067,40.329 l 32.374,108.86 c 6.452,21.696 4.53,44.845 -5.412,65.182 -5.377,10.998 -12.858,20.634 -21.917,28.482 -1.788,-2.361 -4.205,-4.965 -7.494,-7.523 -11.799,-9.177 -29.161,-13.83 -51.604,-13.83 -22.443,0 -39.806,4.653 -51.604,13.83 -3.251,2.529 -5.651,5.103 -7.434,7.443 -9.072,-7.846 -16.564,-17.483 -21.949,-28.485 -9.959,-20.345 -11.889,-43.508 -5.431,-65.221 z M 243.935,396 c 22.735,0 35.029,5.374 41.339,9.883 2.642,1.888 4.439,3.749 5.654,5.303 -4.455,2.71 -9.159,5.063 -14.092,6.989 -10.476,4.092 -21.491,6.167 -32.739,6.167 -11.217,0 -22.204,-2.063 -32.654,-6.133 l -0.299,-0.117 c -4.965,-1.933 -9.699,-4.296 -14.181,-7.022 4.338,-5.534 16.269,-15.07 46.972,-15.07 z"
         inkscape:connector-curvature="0" />
      <path
         id="path309"
         d="m 394.435,20.598 h -62 c -8.655,0 -16.057,5.399 -19.06,13 H 280.232 V 7.5 c 0,-4.143 -3.357,-7.5 -7.5,-7.5 h -57.596 c -4.142,0 -7.5,3.357 -7.5,7.5 v 67.194 c 0,4.143 3.358,7.5 7.5,7.5 h 7.51 v 23.324 c -16.549,3.161 -32.155,10.009 -45.933,20.286 -19.563,14.592 -33.58,34.669 -40.537,58.062 l -32.337,108.738 c -10.475,35.224 -7.346,72.799 8.81,105.805 16.157,33.006 43.913,58.526 78.152,71.858 l 0.32,0.125 c 10.259,3.994 20.83,6.78 31.524,8.375 V 504.5 c 0,4.143 3.358,7.5 7.5,7.5 h 27.576 c 4.143,0 7.5,-3.357 7.5,-7.5 v -25.683 c 10.853,-1.594 21.58,-4.415 31.985,-8.478 31.029,-12.118 57.199,-34.713 73.688,-63.623 4.772,-8.364 -8.253,-15.81 -13.029,-7.432 -14.794,25.938 -38.274,46.21 -66.117,57.083 -30.686,11.982 -64.49,12 -95.181,0.049 l -0.32,-0.125 c -30.725,-11.963 -55.63,-34.861 -70.126,-64.477 -14.497,-29.614 -17.304,-63.33 -7.905,-94.935 l 32.337,-108.738 c 6.028,-20.271 18.175,-37.669 35.127,-50.313 16.952,-12.644 37.091,-19.328 58.239,-19.328 21.148,0 41.287,6.684 58.239,19.328 16.951,12.645 29.099,30.043 35.127,50.313 l 32.374,108.86 c 6.124,20.595 7.098,42.551 2.814,63.495 -1.93,9.435 12.765,12.454 14.695,3.006 4.776,-23.353 3.692,-47.826 -3.133,-70.776 l -32.374,-108.86 c -6.956,-23.393 -20.974,-43.47 -40.536,-58.062 -13.77,-10.271 -29.367,-17.117 -45.905,-20.281 V 82.194 h 7.51 c 4.143,0 7.5,-3.357 7.5,-7.5 V 48.598 h 33.143 c 3.002,7.601 10.405,13 19.06,13 h 62 c 26.372,0 26.45,-41 0.002,-41 z M 250.223,480.234 V 497 h -12.576 v -16.777 c 2.149,0.095 4.299,0.146 6.45,0.146 2.043,0 4.085,-0.049 6.126,-0.135 z M 265.233,15 V 33.598 H 222.637 V 15 Z m -15.01,88.694 c -2.092,-0.115 -4.191,-0.194 -6.302,-0.194 -2.102,0 -4.191,0.078 -6.274,0.192 V 82.194 h 12.576 z m 15.01,-36.5 H 222.637 V 48.598 h 42.596 z M 394.435,46.598 h -62 c -7.093,0 -7.093,-11 0,-11 h 62 c 7.093,0 7.093,11 0,11 z"
         inkscape:connector-curvature="0" />
    </g>
    <g
       id="g490"
       transform="matrix(0.43757171,0,0,0.43757171,310.28246,-252.55833)">
      <g
         id="g434">
	<path
   id="path432"
   d="m 265.171,125.577 -80,-80 c -4.881,-4.881 -12.797,-4.881 -17.678,0 -4.882,4.882 -4.882,12.796 0,17.678 l 58.661,58.661 H 12.5 c -6.903,0 -12.5,5.597 -12.5,12.5 0,6.902 5.597,12.5 12.5,12.5 h 213.654 l -58.659,58.661 c -4.882,4.882 -4.882,12.796 0,17.678 2.44,2.439 5.64,3.661 8.839,3.661 3.199,0 6.398,-1.222 8.839,-3.661 l 79.998,-80 c 4.882,-4.882 4.882,-12.796 0,-17.678 z"
   inkscape:connector-curvature="0" />

</g>
      <g
         id="g436">
</g>
      <g
         id="g438">
</g>
      <g
         id="g440">
</g>
      <g
         id="g442">
</g>
      <g
         id="g444">
</g>
      <g
         id="g446">
</g>
      <g
         id="g448">
</g>
      <g
         id="g450">
</g>
      <g
         id="g452">
</g>
      <g
         id="g454">
</g>
      <g
         id="g456">
</g>
      <g
         id="g458">
</g>
      <g
         id="g460">
</g>
      <g
         id="g462">
</g>
      <g
         id="g464">
</g>
    </g>
  </g>
</svg>
