  0
SECTION
  2
BLOCKS
  0
ENDSEC
  0
SECTION
  2
ENTITIES
  0
LINE
  8
0
 10
353
 20
44
 11
337
 21
44
  0
LINE
  8
0
 10
337
 20
44
 11
303.998
 21
43.9842
  0
LINE
  8
0
 10
303.998
 20
43.9842
 11
303.001
 21
43.8583
  0
LINE
  8
0
 10
303.001
 20
43.8583
 11
302.028
 21
43.6084
  0
LINE
  8
0
 10
302.028
 20
43.6084
 11
301.094
 21
43.2386
  0
LINE
  8
0
 10
301.094
 20
43.2386
 11
300.213
 21
42.7546
  0
LINE
  8
0
 10
300.213
 20
42.7546
 11
299.401
 21
42.1641
  0
LINE
  8
0
 10
299.401
 20
42.1641
 11
298.668
 21
41.4764
  0
LINE
  8
0
 10
298.668
 20
41.4764
 11
298.028
 21
40.7023
  0
LINE
  8
0
 10
298.028
 20
40.7023
 11
297.49
 21
39.854
  0
LINE
  8
0
 10
297.49
 20
39.854
 11
297.062
 21
38.945
  0
LINE
  8
0
 10
297.062
 20
38.945
 11
296.751
 21
37.9895
  0
LINE
  8
0
 10
296.751
 20
37.9895
 11
296.563
 21
37.0027
  0
LINE
  8
0
 10
296.563
 20
37.0027
 11
296.5
 21
36
  0
LINE
  8
0
 10
296.5
 20
36
 11
296.5
 21
28
  0
LINE
  8
0
 10
296.5
 20
28
 11
296.437
 21
26.9973
  0
LINE
  8
0
 10
296.437
 20
26.9973
 11
296.249
 21
26.0105
  0
LINE
  8
0
 10
296.249
 20
26.0105
 11
295.938
 21
25.055
  0
LINE
  8
0
 10
295.938
 20
25.055
 11
295.51
 21
24.146
  0
LINE
  8
0
 10
295.51
 20
24.146
 11
294.972
 21
23.2977
  0
LINE
  8
0
 10
294.972
 20
23.2977
 11
294.332
 21
22.5236
  0
LINE
  8
0
 10
294.332
 20
22.5236
 11
293.599
 21
21.8359
  0
LINE
  8
0
 10
293.599
 20
21.8359
 11
292.787
 21
21.2454
  0
LINE
  8
0
 10
292.787
 20
21.2454
 11
291.906
 21
20.7614
  0
LINE
  8
0
 10
291.906
 20
20.7614
 11
290.972
 21
20.3915
  0
LINE
  8
0
 10
290.972
 20
20.3915
 11
289.999
 21
20.1417
  0
LINE
  8
0
 10
289.999
 20
20.1417
 11
289.002
 21
20.0158
  0
LINE
  8
0
 10
289.002
 20
20.0158
 11
63.9977
 21
20.0158
  0
LINE
  8
0
 10
63.9977
 20
20.0158
 11
63.0009
 21
20.1417
  0
LINE
  8
0
 10
63.0009
 20
20.1417
 11
62.0279
 21
20.3915
  0
LINE
  8
0
 10
62.0279
 20
20.3915
 11
61.0938
 21
20.7614
  0
LINE
  8
0
 10
61.0938
 20
20.7614
 11
60.2134
 21
21.2454
  0
LINE
  8
0
 10
60.2134
 20
21.2454
 11
59.4006
 21
21.8359
  0
LINE
  8
0
 10
59.4006
 20
21.8359
 11
58.6682
 21
22.5236
  0
LINE
  8
0
 10
58.6682
 20
22.5236
 11
58.0279
 21
23.2977
  0
LINE
  8
0
 10
58.0279
 20
23.2977
 11
57.4895
 21
24.146
  0
LINE
  8
0
 10
57.4895
 20
24.146
 11
57.0618
 21
25.055
  0
LINE
  8
0
 10
57.0618
 20
25.055
 11
56.7513
 21
26.0105
  0
LINE
  8
0
 10
56.7513
 20
26.0105
 11
56.5631
 21
26.9973
  0
LINE
  8
0
 10
56.5631
 20
26.9973
 11
56.5
 21
28
  0
LINE
  8
0
 10
56.5
 20
28
 11
56.5
 21
36
  0
LINE
  8
0
 10
56.5
 20
36
 11
56.4369
 21
37.0027
  0
LINE
  8
0
 10
56.4369
 20
37.0027
 11
56.2487
 21
37.9895
  0
LINE
  8
0
 10
56.2487
 20
37.9895
 11
55.9382
 21
38.945
  0
LINE
  8
0
 10
55.9382
 20
38.945
 11
55.5105
 21
39.854
  0
LINE
  8
0
 10
55.5105
 20
39.854
 11
54.9721
 21
40.7023
  0
LINE
  8
0
 10
54.9721
 20
40.7023
 11
54.3317
 21
41.4764
  0
LINE
  8
0
 10
54.3317
 20
41.4764
 11
53.5994
 21
42.1641
  0
LINE
  8
0
 10
53.5994
 20
42.1641
 11
52.7866
 21
42.7546
  0
LINE
  8
0
 10
52.7866
 20
42.7546
 11
51.9062
 21
43.2386
  0
LINE
  8
0
 10
51.9062
 20
43.2386
 11
50.9721
 21
43.6084
  0
LINE
  8
0
 10
50.9721
 20
43.6084
 11
49.999
 21
43.8583
  0
LINE
  8
0
 10
49.999
 20
43.8583
 11
49.0023
 21
43.9842
  0
LINE
  8
0
 10
49.0023
 20
43.9842
 11
16
 21
44
  0
LINE
  8
0
 10
16
 20
44
 11
0
 21
44
  0
LINE
  8
0
 10
0
 20
44
 11
0
 21
0
  0
LINE
  8
0
 10
0
 20
0
 11
353
 21
0
  0
LINE
  8
0
 10
353
 20
0
 11
353
 21
44
  0
ENDSEC
  0
SECTION
  2
OBJECTS
  0
DICTIONARY
  0
ENDSEC
  0
EOF
