  0
SECTION
  2
BLOCKS
  0
ENDSEC
  0
SECTION
  2
ENTITIES
  0
LINE
  8
0
 10
374
 20
8
 11
381
 21
8
  0
LINE
  8
0
 10
381
 20
8
 11
381
 21
30
  0
LINE
  8
0
 10
381
 20
30
 11
374
 21
30
  0
LINE
  8
0
 10
374
 20
30
 11
374
 21
38
  0
LINE
  8
0
 10
374
 20
38
 11
358
 21
38
  0
LINE
  8
0
 10
358
 20
38
 11
344.498
 21
37.9842
  0
LINE
  8
0
 10
344.498
 20
37.9842
 11
343.501
 21
37.8583
  0
LINE
  8
0
 10
343.501
 20
37.8583
 11
342.528
 21
37.6084
  0
LINE
  8
0
 10
342.528
 20
37.6084
 11
341.594
 21
37.2386
  0
LINE
  8
0
 10
341.594
 20
37.2386
 11
340.713
 21
36.7546
  0
LINE
  8
0
 10
340.713
 20
36.7546
 11
339.901
 21
36.1641
  0
LINE
  8
0
 10
339.901
 20
36.1641
 11
339.168
 21
35.4764
  0
LINE
  8
0
 10
339.168
 20
35.4764
 11
338.528
 21
34.7023
  0
LINE
  8
0
 10
338.528
 20
34.7023
 11
337.99
 21
33.854
  0
LINE
  8
0
 10
337.99
 20
33.854
 11
337.562
 21
32.945
  0
LINE
  8
0
 10
337.562
 20
32.945
 11
337.255
 21
32
  0
LINE
  8
0
 10
337.255
 20
32
 11
337
 21
32
  0
LINE
  8
0
 10
337
 20
32
 11
336.937
 21
30.9973
  0
LINE
  8
0
 10
336.937
 20
30.9973
 11
336.749
 21
30.0105
  0
LINE
  8
0
 10
336.749
 20
30.0105
 11
336.438
 21
29.055
  0
LINE
  8
0
 10
336.438
 20
29.055
 11
336.01
 21
28.146
  0
LINE
  8
0
 10
336.01
 20
28.146
 11
335.472
 21
27.2977
  0
LINE
  8
0
 10
335.472
 20
27.2977
 11
334.832
 21
26.5236
  0
LINE
  8
0
 10
334.832
 20
26.5236
 11
334.099
 21
25.8359
  0
LINE
  8
0
 10
334.099
 20
25.8359
 11
333.287
 21
25.2454
  0
LINE
  8
0
 10
333.287
 20
25.2454
 11
332.406
 21
24.7614
  0
LINE
  8
0
 10
332.406
 20
24.7614
 11
331.472
 21
24.3915
  0
LINE
  8
0
 10
331.472
 20
24.3915
 11
330.499
 21
24.1417
  0
LINE
  8
0
 10
330.499
 20
24.1417
 11
329.502
 21
24.0158
  0
LINE
  8
0
 10
329.502
 20
24.0158
 11
44.4977
 21
24.0158
  0
LINE
  8
0
 10
44.4977
 20
24.0158
 11
43.5009
 21
24.1417
  0
LINE
  8
0
 10
43.5009
 20
24.1417
 11
42.5279
 21
24.3915
  0
LINE
  8
0
 10
42.5279
 20
24.3915
 11
41.5938
 21
24.7614
  0
LINE
  8
0
 10
41.5938
 20
24.7614
 11
40.7134
 21
25.2454
  0
LINE
  8
0
 10
40.7134
 20
25.2454
 11
39.9006
 21
25.8359
  0
LINE
  8
0
 10
39.9006
 20
25.8359
 11
39.1682
 21
26.5236
  0
LINE
  8
0
 10
39.1682
 20
26.5236
 11
38.5279
 21
27.2977
  0
LINE
  8
0
 10
38.5279
 20
27.2977
 11
37.9895
 21
28.146
  0
LINE
  8
0
 10
37.9895
 20
28.146
 11
37.5618
 21
29.055
  0
LINE
  8
0
 10
37.5618
 20
29.055
 11
37.2513
 21
30.0105
  0
LINE
  8
0
 10
37.2513
 20
30.0105
 11
37.0631
 21
30.9973
  0
LINE
  8
0
 10
37.0631
 20
30.9973
 11
37
 21
32
  0
LINE
  8
0
 10
37
 20
32
 11
36.7453
 21
32
  0
LINE
  8
0
 10
36.7453
 20
32
 11
36.4382
 21
32.945
  0
LINE
  8
0
 10
36.4382
 20
32.945
 11
36.0105
 21
33.854
  0
LINE
  8
0
 10
36.0105
 20
33.854
 11
35.4721
 21
34.7023
  0
LINE
  8
0
 10
35.4721
 20
34.7023
 11
34.8317
 21
35.4764
  0
LINE
  8
0
 10
34.8317
 20
35.4764
 11
34.0994
 21
36.1641
  0
LINE
  8
0
 10
34.0994
 20
36.1641
 11
33.2866
 21
36.7546
  0
LINE
  8
0
 10
33.2866
 20
36.7546
 11
32.4062
 21
37.2386
  0
LINE
  8
0
 10
32.4062
 20
37.2386
 11
31.4721
 21
37.6084
  0
LINE
  8
0
 10
31.4721
 20
37.6084
 11
30.499
 21
37.8583
  0
LINE
  8
0
 10
30.499
 20
37.8583
 11
29.5023
 21
37.9842
  0
LINE
  8
0
 10
29.5023
 20
37.9842
 11
16
 21
38
  0
LINE
  8
0
 10
16
 20
38
 11
0
 21
38
  0
LINE
  8
0
 10
0
 20
38
 11
0
 21
30
  0
LINE
  8
0
 10
0
 20
30
 11
-7
 21
30
  0
LINE
  8
0
 10
-7
 20
30
 11
-7
 21
8
  0
LINE
  8
0
 10
-7
 20
8
 11
0
 21
8
  0
LINE
  8
0
 10
0
 20
8
 11
0
 21
0
  0
LINE
  8
0
 10
0
 20
0
 11
374
 21
0
  0
LINE
  8
0
 10
374
 20
0
 11
374
 21
8
  0
ENDSEC
  0
SECTION
  2
OBJECTS
  0
DICTIONARY
  0
ENDSEC
  0
EOF
