  0
SECTION
  2
BLOCKS
  0
ENDSEC
  0
SECTION
  2
ENTITIES
  0
LINE
  8
0
 10
361
 20
8
 11
367
 21
8
  0
LINE
  8
0
 10
367
 20
8
 11
367
 21
40
  0
LINE
  8
0
 10
367
 20
40
 11
361
 21
40
  0
LINE
  8
0
 10
361
 20
40
 11
361
 21
48
  0
LINE
  8
0
 10
361
 20
48
 11
345
 21
48
  0
LINE
  8
0
 10
345
 20
48
 11
307.998
 21
47.9842
  0
LINE
  8
0
 10
307.998
 20
47.9842
 11
307.001
 21
47.8583
  0
LINE
  8
0
 10
307.001
 20
47.8583
 11
306.028
 21
47.6084
  0
LINE
  8
0
 10
306.028
 20
47.6084
 11
305.094
 21
47.2386
  0
LINE
  8
0
 10
305.094
 20
47.2386
 11
304.213
 21
46.7546
  0
LINE
  8
0
 10
304.213
 20
46.7546
 11
303.401
 21
46.1641
  0
LINE
  8
0
 10
303.401
 20
46.1641
 11
302.668
 21
45.4764
  0
LINE
  8
0
 10
302.668
 20
45.4764
 11
302.028
 21
44.7023
  0
LINE
  8
0
 10
302.028
 20
44.7023
 11
301.49
 21
43.854
  0
LINE
  8
0
 10
301.49
 20
43.854
 11
301.062
 21
42.945
  0
LINE
  8
0
 10
301.062
 20
42.945
 11
300.751
 21
41.9895
  0
LINE
  8
0
 10
300.751
 20
41.9895
 11
300.563
 21
41.0027
  0
LINE
  8
0
 10
300.563
 20
41.0027
 11
300.5
 21
40
  0
LINE
  8
0
 10
300.5
 20
40
 11
300.5
 21
32
  0
LINE
  8
0
 10
300.5
 20
32
 11
300.437
 21
30.9973
  0
LINE
  8
0
 10
300.437
 20
30.9973
 11
300.249
 21
30.0105
  0
LINE
  8
0
 10
300.249
 20
30.0105
 11
299.938
 21
29.055
  0
LINE
  8
0
 10
299.938
 20
29.055
 11
299.51
 21
28.146
  0
LINE
  8
0
 10
299.51
 20
28.146
 11
298.972
 21
27.2977
  0
LINE
  8
0
 10
298.972
 20
27.2977
 11
298.332
 21
26.5236
  0
LINE
  8
0
 10
298.332
 20
26.5236
 11
297.599
 21
25.8359
  0
LINE
  8
0
 10
297.599
 20
25.8359
 11
296.787
 21
25.2454
  0
LINE
  8
0
 10
296.787
 20
25.2454
 11
295.906
 21
24.7614
  0
LINE
  8
0
 10
295.906
 20
24.7614
 11
294.972
 21
24.3915
  0
LINE
  8
0
 10
294.972
 20
24.3915
 11
293.999
 21
24.1417
  0
LINE
  8
0
 10
293.999
 20
24.1417
 11
293.002
 21
24.0158
  0
LINE
  8
0
 10
293.002
 20
24.0158
 11
67.9977
 21
24.0158
  0
LINE
  8
0
 10
67.9977
 20
24.0158
 11
67.0009
 21
24.1417
  0
LINE
  8
0
 10
67.0009
 20
24.1417
 11
66.0279
 21
24.3915
  0
LINE
  8
0
 10
66.0279
 20
24.3915
 11
65.0938
 21
24.7614
  0
LINE
  8
0
 10
65.0938
 20
24.7614
 11
64.2134
 21
25.2454
  0
LINE
  8
0
 10
64.2134
 20
25.2454
 11
63.4006
 21
25.8359
  0
LINE
  8
0
 10
63.4006
 20
25.8359
 11
62.6682
 21
26.5236
  0
LINE
  8
0
 10
62.6682
 20
26.5236
 11
62.0279
 21
27.2977
  0
LINE
  8
0
 10
62.0279
 20
27.2977
 11
61.4895
 21
28.146
  0
LINE
  8
0
 10
61.4895
 20
28.146
 11
61.0618
 21
29.055
  0
LINE
  8
0
 10
61.0618
 20
29.055
 11
60.7513
 21
30.0105
  0
LINE
  8
0
 10
60.7513
 20
30.0105
 11
60.5631
 21
30.9973
  0
LINE
  8
0
 10
60.5631
 20
30.9973
 11
60.5
 21
32
  0
LINE
  8
0
 10
60.5
 20
32
 11
60.5
 21
40
  0
LINE
  8
0
 10
60.5
 20
40
 11
60.4369
 21
41.0027
  0
LINE
  8
0
 10
60.4369
 20
41.0027
 11
60.2487
 21
41.9895
  0
LINE
  8
0
 10
60.2487
 20
41.9895
 11
59.9382
 21
42.945
  0
LINE
  8
0
 10
59.9382
 20
42.945
 11
59.5105
 21
43.854
  0
LINE
  8
0
 10
59.5105
 20
43.854
 11
58.9721
 21
44.7023
  0
LINE
  8
0
 10
58.9721
 20
44.7023
 11
58.3317
 21
45.4764
  0
LINE
  8
0
 10
58.3317
 20
45.4764
 11
57.5994
 21
46.1641
  0
LINE
  8
0
 10
57.5994
 20
46.1641
 11
56.7866
 21
46.7546
  0
LINE
  8
0
 10
56.7866
 20
46.7546
 11
55.9062
 21
47.2386
  0
LINE
  8
0
 10
55.9062
 20
47.2386
 11
54.9721
 21
47.6084
  0
LINE
  8
0
 10
54.9721
 20
47.6084
 11
53.999
 21
47.8583
  0
LINE
  8
0
 10
53.999
 20
47.8583
 11
53.0023
 21
47.9842
  0
LINE
  8
0
 10
53.0023
 20
47.9842
 11
16
 21
48
  0
LINE
  8
0
 10
16
 20
48
 11
0
 21
48
  0
LINE
  8
0
 10
0
 20
48
 11
0
 21
40
  0
LINE
  8
0
 10
0
 20
40
 11
-6
 21
40
  0
LINE
  8
0
 10
-6
 20
40
 11
-6
 21
8
  0
LINE
  8
0
 10
-6
 20
8
 11
0
 21
8
  0
LINE
  8
0
 10
0
 20
8
 11
0
 21
0
  0
LINE
  8
0
 10
0
 20
0
 11
361
 21
0
  0
LINE
  8
0
 10
361
 20
0
 11
361
 21
8
  0
ENDSEC
  0
SECTION
  2
OBJECTS
  0
DICTIONARY
  0
ENDSEC
  0
EOF
