solid OpenSCAD_Model
  facet normal -1 0 0
    outer loop
      vertex 0 0 0
      vertex 0 35 8
      vertex 0 35 0
    endloop
  endfacet
  facet normal -1 -0 0
    outer loop
      vertex 0 35 8
      vertex 0 0 0
      vertex 0 0 8
    endloop
  endfacet
  facet normal -0 0 1
    outer loop
      vertex 6 35 12
      vertex 13.5 4.3 12
      vertex 13.5 35 12
    endloop
  endfacet
  facet normal 0 0 1
    outer loop
      vertex 13.5 4.3 12
      vertex 6 35 12
      vertex 6 4.3 12
    endloop
  endfacet
  facet normal 1 0 0
    outer loop
      vertex 13.5 4.3 8
      vertex 13.5 35 12
      vertex 13.5 4.3 12
    endloop
  endfacet
  facet normal 1 0 0
    outer loop
      vertex 13.5 35 12
      vertex 13.5 4.3 8
      vertex 13.5 35 0
    endloop
  endfacet
  facet normal 1 0 0
    outer loop
      vertex 13.5 0 0
      vertex 13.5 4.3 8
      vertex 13.5 0 8
    endloop
  endfacet
  facet normal 1 0 0
    outer loop
      vertex 13.5 4.3 8
      vertex 13.5 0 0
      vertex 13.5 35 0
    endloop
  endfacet
  facet normal 0 0 -1
    outer loop
      vertex 0 0 0
      vertex 13.5 35 0
      vertex 13.5 0 0
    endloop
  endfacet
  facet normal -0 0 -1
    outer loop
      vertex 13.5 35 0
      vertex 0 0 0
      vertex 0 35 0
    endloop
  endfacet
  facet normal 0 -1 0
    outer loop
      vertex 0 0 0
      vertex 13.5 0 8
      vertex 0 0 8
    endloop
  endfacet
  facet normal 0 -1 -0
    outer loop
      vertex 13.5 0 8
      vertex 0 0 0
      vertex 13.5 0 0
    endloop
  endfacet
  facet normal 0 1 0
    outer loop
      vertex 13.5 35 12
      vertex 6 35 8
      vertex 6 35 12
    endloop
  endfacet
  facet normal 0 1 -0
    outer loop
      vertex 13.5 35 0
      vertex 6 35 8
      vertex 13.5 35 12
    endloop
  endfacet
  facet normal 0 1 0
    outer loop
      vertex 0 35 0
      vertex 6 35 8
      vertex 13.5 35 0
    endloop
  endfacet
  facet normal 0 1 0
    outer loop
      vertex 6 35 8
      vertex 0 35 0
      vertex 0 35 8
    endloop
  endfacet
  facet normal -1 0 0
    outer loop
      vertex 6 4.3 8
      vertex 6 35 12
      vertex 6 35 8
    endloop
  endfacet
  facet normal -1 -0 0
    outer loop
      vertex 6 35 12
      vertex 6 4.3 8
      vertex 6 4.3 12
    endloop
  endfacet
  facet normal 0 0 1
    outer loop
      vertex 6 35 8
      vertex 0 35 8
      vertex 6 4.3 8
    endloop
  endfacet
  facet normal -0 0 1
    outer loop
      vertex 6 4.3 8
      vertex 13.5 0 8
      vertex 13.5 4.3 8
    endloop
  endfacet
  facet normal 0 0 1
    outer loop
      vertex 6 4.3 8
      vertex 0 0 8
      vertex 13.5 0 8
    endloop
  endfacet
  facet normal 0 0 1
    outer loop
      vertex 0 0 8
      vertex 6 4.3 8
      vertex 0 35 8
    endloop
  endfacet
  facet normal 0 -1 0
    outer loop
      vertex 6 4.3 8
      vertex 13.5 4.3 12
      vertex 6 4.3 12
    endloop
  endfacet
  facet normal 0 -1 -0
    outer loop
      vertex 13.5 4.3 12
      vertex 6 4.3 8
      vertex 13.5 4.3 8
    endloop
  endfacet
endsolid OpenSCAD_Model
